%TF.GenerationSoftware,KiCad,Pcbnew,9.0.1*%
%TF.CreationDate,2025-06-02T17:16:12+02:00*%
%TF.ProjectId,pleiades_l,706c6569-6164-4657-935f-6c2e6b696361,v1.0.0*%
%TF.SameCoordinates,Original*%
%TF.FileFunction,Legend,Top*%
%TF.FilePolarity,Positive*%
%FSLAX46Y46*%
G04 Gerber Fmt 4.6, Leading zero omitted, Abs format (unit mm)*
G04 Created by KiCad (PCBNEW 9.0.1) date 2025-06-02 17:16:12*
%MOMM*%
%LPD*%
G01*
G04 APERTURE LIST*
%ADD10C,0.150000*%
%ADD11C,0.000000*%
%ADD12C,0.100000*%
%ADD13R,1.752600X1.752600*%
%ADD14C,1.752600*%
G04 APERTURE END LIST*
D10*
X122247619Y73322204D02*
X121980952Y73703157D01*
X121790476Y73322204D02*
X121790476Y74122204D01*
X121790476Y74122204D02*
X122095238Y74122204D01*
X122095238Y74122204D02*
X122171428Y74084109D01*
X122171428Y74084109D02*
X122209523Y74046014D01*
X122209523Y74046014D02*
X122247619Y73969823D01*
X122247619Y73969823D02*
X122247619Y73855538D01*
X122247619Y73855538D02*
X122209523Y73779347D01*
X122209523Y73779347D02*
X122171428Y73741252D01*
X122171428Y73741252D02*
X122095238Y73703157D01*
X122095238Y73703157D02*
X121790476Y73703157D01*
X122552380Y73550776D02*
X122933333Y73550776D01*
X122476190Y73322204D02*
X122742857Y74122204D01*
X122742857Y74122204D02*
X123009523Y73322204D01*
X123199999Y74122204D02*
X123390475Y73322204D01*
X123390475Y73322204D02*
X123542856Y73893633D01*
X123542856Y73893633D02*
X123695237Y73322204D01*
X123695237Y73322204D02*
X123885714Y74122204D01*
X122190476Y71544109D02*
X122114286Y71582204D01*
X122114286Y71582204D02*
X122000000Y71582204D01*
X122000000Y71582204D02*
X121885714Y71544109D01*
X121885714Y71544109D02*
X121809524Y71467919D01*
X121809524Y71467919D02*
X121771429Y71391728D01*
X121771429Y71391728D02*
X121733333Y71239347D01*
X121733333Y71239347D02*
X121733333Y71125061D01*
X121733333Y71125061D02*
X121771429Y70972680D01*
X121771429Y70972680D02*
X121809524Y70896490D01*
X121809524Y70896490D02*
X121885714Y70820300D01*
X121885714Y70820300D02*
X122000000Y70782204D01*
X122000000Y70782204D02*
X122076191Y70782204D01*
X122076191Y70782204D02*
X122190476Y70820300D01*
X122190476Y70820300D02*
X122228572Y70858395D01*
X122228572Y70858395D02*
X122228572Y71125061D01*
X122228572Y71125061D02*
X122076191Y71125061D01*
X122571429Y70782204D02*
X122571429Y71582204D01*
X122571429Y71582204D02*
X123028572Y70782204D01*
X123028572Y70782204D02*
X123028572Y71582204D01*
X123409524Y70782204D02*
X123409524Y71582204D01*
X123409524Y71582204D02*
X123600000Y71582204D01*
X123600000Y71582204D02*
X123714286Y71544109D01*
X123714286Y71544109D02*
X123790476Y71467919D01*
X123790476Y71467919D02*
X123828571Y71391728D01*
X123828571Y71391728D02*
X123866667Y71239347D01*
X123866667Y71239347D02*
X123866667Y71125061D01*
X123866667Y71125061D02*
X123828571Y70972680D01*
X123828571Y70972680D02*
X123790476Y70896490D01*
X123790476Y70896490D02*
X123714286Y70820300D01*
X123714286Y70820300D02*
X123600000Y70782204D01*
X123600000Y70782204D02*
X123409524Y70782204D01*
X122361905Y68242204D02*
X122095238Y68623157D01*
X121904762Y68242204D02*
X121904762Y69042204D01*
X121904762Y69042204D02*
X122209524Y69042204D01*
X122209524Y69042204D02*
X122285714Y69004109D01*
X122285714Y69004109D02*
X122323809Y68966014D01*
X122323809Y68966014D02*
X122361905Y68889823D01*
X122361905Y68889823D02*
X122361905Y68775538D01*
X122361905Y68775538D02*
X122323809Y68699347D01*
X122323809Y68699347D02*
X122285714Y68661252D01*
X122285714Y68661252D02*
X122209524Y68623157D01*
X122209524Y68623157D02*
X121904762Y68623157D01*
X122666666Y68280300D02*
X122780952Y68242204D01*
X122780952Y68242204D02*
X122971428Y68242204D01*
X122971428Y68242204D02*
X123047619Y68280300D01*
X123047619Y68280300D02*
X123085714Y68318395D01*
X123085714Y68318395D02*
X123123809Y68394585D01*
X123123809Y68394585D02*
X123123809Y68470776D01*
X123123809Y68470776D02*
X123085714Y68546966D01*
X123085714Y68546966D02*
X123047619Y68585061D01*
X123047619Y68585061D02*
X122971428Y68623157D01*
X122971428Y68623157D02*
X122819047Y68661252D01*
X122819047Y68661252D02*
X122742857Y68699347D01*
X122742857Y68699347D02*
X122704762Y68737442D01*
X122704762Y68737442D02*
X122666666Y68813633D01*
X122666666Y68813633D02*
X122666666Y68889823D01*
X122666666Y68889823D02*
X122704762Y68966014D01*
X122704762Y68966014D02*
X122742857Y69004109D01*
X122742857Y69004109D02*
X122819047Y69042204D01*
X122819047Y69042204D02*
X123009524Y69042204D01*
X123009524Y69042204D02*
X123123809Y69004109D01*
X123352381Y69042204D02*
X123809524Y69042204D01*
X123580952Y68242204D02*
X123580952Y69042204D01*
X121733333Y66502204D02*
X122000000Y65702204D01*
X122000000Y65702204D02*
X122266666Y66502204D01*
X122990476Y65778395D02*
X122952380Y65740300D01*
X122952380Y65740300D02*
X122838095Y65702204D01*
X122838095Y65702204D02*
X122761904Y65702204D01*
X122761904Y65702204D02*
X122647618Y65740300D01*
X122647618Y65740300D02*
X122571428Y65816490D01*
X122571428Y65816490D02*
X122533333Y65892680D01*
X122533333Y65892680D02*
X122495237Y66045061D01*
X122495237Y66045061D02*
X122495237Y66159347D01*
X122495237Y66159347D02*
X122533333Y66311728D01*
X122533333Y66311728D02*
X122571428Y66387919D01*
X122571428Y66387919D02*
X122647618Y66464109D01*
X122647618Y66464109D02*
X122761904Y66502204D01*
X122761904Y66502204D02*
X122838095Y66502204D01*
X122838095Y66502204D02*
X122952380Y66464109D01*
X122952380Y66464109D02*
X122990476Y66426014D01*
X123790476Y65778395D02*
X123752380Y65740300D01*
X123752380Y65740300D02*
X123638095Y65702204D01*
X123638095Y65702204D02*
X123561904Y65702204D01*
X123561904Y65702204D02*
X123447618Y65740300D01*
X123447618Y65740300D02*
X123371428Y65816490D01*
X123371428Y65816490D02*
X123333333Y65892680D01*
X123333333Y65892680D02*
X123295237Y66045061D01*
X123295237Y66045061D02*
X123295237Y66159347D01*
X123295237Y66159347D02*
X123333333Y66311728D01*
X123333333Y66311728D02*
X123371428Y66387919D01*
X123371428Y66387919D02*
X123447618Y66464109D01*
X123447618Y66464109D02*
X123561904Y66502204D01*
X123561904Y66502204D02*
X123638095Y66502204D01*
X123638095Y66502204D02*
X123752380Y66464109D01*
X123752380Y66464109D02*
X123790476Y66426014D01*
X121828571Y63162204D02*
X121828571Y63962204D01*
X121828571Y63962204D02*
X122133333Y63962204D01*
X122133333Y63962204D02*
X122209523Y63924109D01*
X122209523Y63924109D02*
X122247618Y63886014D01*
X122247618Y63886014D02*
X122285714Y63809823D01*
X122285714Y63809823D02*
X122285714Y63695538D01*
X122285714Y63695538D02*
X122247618Y63619347D01*
X122247618Y63619347D02*
X122209523Y63581252D01*
X122209523Y63581252D02*
X122133333Y63543157D01*
X122133333Y63543157D02*
X121828571Y63543157D01*
X122590475Y63886014D02*
X122628571Y63924109D01*
X122628571Y63924109D02*
X122704761Y63962204D01*
X122704761Y63962204D02*
X122895237Y63962204D01*
X122895237Y63962204D02*
X122971428Y63924109D01*
X122971428Y63924109D02*
X123009523Y63886014D01*
X123009523Y63886014D02*
X123047618Y63809823D01*
X123047618Y63809823D02*
X123047618Y63733633D01*
X123047618Y63733633D02*
X123009523Y63619347D01*
X123009523Y63619347D02*
X122552380Y63162204D01*
X122552380Y63162204D02*
X123047618Y63162204D01*
X123809523Y63162204D02*
X123352380Y63162204D01*
X123580952Y63162204D02*
X123580952Y63962204D01*
X123580952Y63962204D02*
X123504761Y63847919D01*
X123504761Y63847919D02*
X123428571Y63771728D01*
X123428571Y63771728D02*
X123352380Y63733633D01*
X121828571Y60622204D02*
X121828571Y61422204D01*
X121828571Y61422204D02*
X122133333Y61422204D01*
X122133333Y61422204D02*
X122209523Y61384109D01*
X122209523Y61384109D02*
X122247618Y61346014D01*
X122247618Y61346014D02*
X122285714Y61269823D01*
X122285714Y61269823D02*
X122285714Y61155538D01*
X122285714Y61155538D02*
X122247618Y61079347D01*
X122247618Y61079347D02*
X122209523Y61041252D01*
X122209523Y61041252D02*
X122133333Y61003157D01*
X122133333Y61003157D02*
X121828571Y61003157D01*
X122590475Y61346014D02*
X122628571Y61384109D01*
X122628571Y61384109D02*
X122704761Y61422204D01*
X122704761Y61422204D02*
X122895237Y61422204D01*
X122895237Y61422204D02*
X122971428Y61384109D01*
X122971428Y61384109D02*
X123009523Y61346014D01*
X123009523Y61346014D02*
X123047618Y61269823D01*
X123047618Y61269823D02*
X123047618Y61193633D01*
X123047618Y61193633D02*
X123009523Y61079347D01*
X123009523Y61079347D02*
X122552380Y60622204D01*
X122552380Y60622204D02*
X123047618Y60622204D01*
X123542857Y61422204D02*
X123619047Y61422204D01*
X123619047Y61422204D02*
X123695238Y61384109D01*
X123695238Y61384109D02*
X123733333Y61346014D01*
X123733333Y61346014D02*
X123771428Y61269823D01*
X123771428Y61269823D02*
X123809523Y61117442D01*
X123809523Y61117442D02*
X123809523Y60926966D01*
X123809523Y60926966D02*
X123771428Y60774585D01*
X123771428Y60774585D02*
X123733333Y60698395D01*
X123733333Y60698395D02*
X123695238Y60660300D01*
X123695238Y60660300D02*
X123619047Y60622204D01*
X123619047Y60622204D02*
X123542857Y60622204D01*
X123542857Y60622204D02*
X123466666Y60660300D01*
X123466666Y60660300D02*
X123428571Y60698395D01*
X123428571Y60698395D02*
X123390476Y60774585D01*
X123390476Y60774585D02*
X123352380Y60926966D01*
X123352380Y60926966D02*
X123352380Y61117442D01*
X123352380Y61117442D02*
X123390476Y61269823D01*
X123390476Y61269823D02*
X123428571Y61346014D01*
X123428571Y61346014D02*
X123466666Y61384109D01*
X123466666Y61384109D02*
X123542857Y61422204D01*
X121828571Y58082204D02*
X121828571Y58882204D01*
X121828571Y58882204D02*
X122133333Y58882204D01*
X122133333Y58882204D02*
X122209523Y58844109D01*
X122209523Y58844109D02*
X122247618Y58806014D01*
X122247618Y58806014D02*
X122285714Y58729823D01*
X122285714Y58729823D02*
X122285714Y58615538D01*
X122285714Y58615538D02*
X122247618Y58539347D01*
X122247618Y58539347D02*
X122209523Y58501252D01*
X122209523Y58501252D02*
X122133333Y58463157D01*
X122133333Y58463157D02*
X121828571Y58463157D01*
X123047618Y58082204D02*
X122590475Y58082204D01*
X122819047Y58082204D02*
X122819047Y58882204D01*
X122819047Y58882204D02*
X122742856Y58767919D01*
X122742856Y58767919D02*
X122666666Y58691728D01*
X122666666Y58691728D02*
X122590475Y58653633D01*
X123428571Y58082204D02*
X123580952Y58082204D01*
X123580952Y58082204D02*
X123657142Y58120300D01*
X123657142Y58120300D02*
X123695238Y58158395D01*
X123695238Y58158395D02*
X123771428Y58272680D01*
X123771428Y58272680D02*
X123809523Y58425061D01*
X123809523Y58425061D02*
X123809523Y58729823D01*
X123809523Y58729823D02*
X123771428Y58806014D01*
X123771428Y58806014D02*
X123733333Y58844109D01*
X123733333Y58844109D02*
X123657142Y58882204D01*
X123657142Y58882204D02*
X123504761Y58882204D01*
X123504761Y58882204D02*
X123428571Y58844109D01*
X123428571Y58844109D02*
X123390476Y58806014D01*
X123390476Y58806014D02*
X123352380Y58729823D01*
X123352380Y58729823D02*
X123352380Y58539347D01*
X123352380Y58539347D02*
X123390476Y58463157D01*
X123390476Y58463157D02*
X123428571Y58425061D01*
X123428571Y58425061D02*
X123504761Y58386966D01*
X123504761Y58386966D02*
X123657142Y58386966D01*
X123657142Y58386966D02*
X123733333Y58425061D01*
X123733333Y58425061D02*
X123771428Y58463157D01*
X123771428Y58463157D02*
X123809523Y58539347D01*
X121828571Y55542204D02*
X121828571Y56342204D01*
X121828571Y56342204D02*
X122133333Y56342204D01*
X122133333Y56342204D02*
X122209523Y56304109D01*
X122209523Y56304109D02*
X122247618Y56266014D01*
X122247618Y56266014D02*
X122285714Y56189823D01*
X122285714Y56189823D02*
X122285714Y56075538D01*
X122285714Y56075538D02*
X122247618Y55999347D01*
X122247618Y55999347D02*
X122209523Y55961252D01*
X122209523Y55961252D02*
X122133333Y55923157D01*
X122133333Y55923157D02*
X121828571Y55923157D01*
X123047618Y55542204D02*
X122590475Y55542204D01*
X122819047Y55542204D02*
X122819047Y56342204D01*
X122819047Y56342204D02*
X122742856Y56227919D01*
X122742856Y56227919D02*
X122666666Y56151728D01*
X122666666Y56151728D02*
X122590475Y56113633D01*
X123504761Y55999347D02*
X123428571Y56037442D01*
X123428571Y56037442D02*
X123390476Y56075538D01*
X123390476Y56075538D02*
X123352380Y56151728D01*
X123352380Y56151728D02*
X123352380Y56189823D01*
X123352380Y56189823D02*
X123390476Y56266014D01*
X123390476Y56266014D02*
X123428571Y56304109D01*
X123428571Y56304109D02*
X123504761Y56342204D01*
X123504761Y56342204D02*
X123657142Y56342204D01*
X123657142Y56342204D02*
X123733333Y56304109D01*
X123733333Y56304109D02*
X123771428Y56266014D01*
X123771428Y56266014D02*
X123809523Y56189823D01*
X123809523Y56189823D02*
X123809523Y56151728D01*
X123809523Y56151728D02*
X123771428Y56075538D01*
X123771428Y56075538D02*
X123733333Y56037442D01*
X123733333Y56037442D02*
X123657142Y55999347D01*
X123657142Y55999347D02*
X123504761Y55999347D01*
X123504761Y55999347D02*
X123428571Y55961252D01*
X123428571Y55961252D02*
X123390476Y55923157D01*
X123390476Y55923157D02*
X123352380Y55846966D01*
X123352380Y55846966D02*
X123352380Y55694585D01*
X123352380Y55694585D02*
X123390476Y55618395D01*
X123390476Y55618395D02*
X123428571Y55580300D01*
X123428571Y55580300D02*
X123504761Y55542204D01*
X123504761Y55542204D02*
X123657142Y55542204D01*
X123657142Y55542204D02*
X123733333Y55580300D01*
X123733333Y55580300D02*
X123771428Y55618395D01*
X123771428Y55618395D02*
X123809523Y55694585D01*
X123809523Y55694585D02*
X123809523Y55846966D01*
X123809523Y55846966D02*
X123771428Y55923157D01*
X123771428Y55923157D02*
X123733333Y55961252D01*
X123733333Y55961252D02*
X123657142Y55999347D01*
X121828571Y53002204D02*
X121828571Y53802204D01*
X121828571Y53802204D02*
X122133333Y53802204D01*
X122133333Y53802204D02*
X122209523Y53764109D01*
X122209523Y53764109D02*
X122247618Y53726014D01*
X122247618Y53726014D02*
X122285714Y53649823D01*
X122285714Y53649823D02*
X122285714Y53535538D01*
X122285714Y53535538D02*
X122247618Y53459347D01*
X122247618Y53459347D02*
X122209523Y53421252D01*
X122209523Y53421252D02*
X122133333Y53383157D01*
X122133333Y53383157D02*
X121828571Y53383157D01*
X123047618Y53002204D02*
X122590475Y53002204D01*
X122819047Y53002204D02*
X122819047Y53802204D01*
X122819047Y53802204D02*
X122742856Y53687919D01*
X122742856Y53687919D02*
X122666666Y53611728D01*
X122666666Y53611728D02*
X122590475Y53573633D01*
X123771428Y53802204D02*
X123390476Y53802204D01*
X123390476Y53802204D02*
X123352380Y53421252D01*
X123352380Y53421252D02*
X123390476Y53459347D01*
X123390476Y53459347D02*
X123466666Y53497442D01*
X123466666Y53497442D02*
X123657142Y53497442D01*
X123657142Y53497442D02*
X123733333Y53459347D01*
X123733333Y53459347D02*
X123771428Y53421252D01*
X123771428Y53421252D02*
X123809523Y53345061D01*
X123809523Y53345061D02*
X123809523Y53154585D01*
X123809523Y53154585D02*
X123771428Y53078395D01*
X123771428Y53078395D02*
X123733333Y53040300D01*
X123733333Y53040300D02*
X123657142Y53002204D01*
X123657142Y53002204D02*
X123466666Y53002204D01*
X123466666Y53002204D02*
X123390476Y53040300D01*
X123390476Y53040300D02*
X123352380Y53078395D01*
X121828571Y50462204D02*
X121828571Y51262204D01*
X121828571Y51262204D02*
X122133333Y51262204D01*
X122133333Y51262204D02*
X122209523Y51224109D01*
X122209523Y51224109D02*
X122247618Y51186014D01*
X122247618Y51186014D02*
X122285714Y51109823D01*
X122285714Y51109823D02*
X122285714Y50995538D01*
X122285714Y50995538D02*
X122247618Y50919347D01*
X122247618Y50919347D02*
X122209523Y50881252D01*
X122209523Y50881252D02*
X122133333Y50843157D01*
X122133333Y50843157D02*
X121828571Y50843157D01*
X123047618Y50462204D02*
X122590475Y50462204D01*
X122819047Y50462204D02*
X122819047Y51262204D01*
X122819047Y51262204D02*
X122742856Y51147919D01*
X122742856Y51147919D02*
X122666666Y51071728D01*
X122666666Y51071728D02*
X122590475Y51033633D01*
X123733333Y50995538D02*
X123733333Y50462204D01*
X123542857Y51300300D02*
X123352380Y50728871D01*
X123352380Y50728871D02*
X123847619Y50728871D01*
X121828571Y47922204D02*
X121828571Y48722204D01*
X121828571Y48722204D02*
X122133333Y48722204D01*
X122133333Y48722204D02*
X122209523Y48684109D01*
X122209523Y48684109D02*
X122247618Y48646014D01*
X122247618Y48646014D02*
X122285714Y48569823D01*
X122285714Y48569823D02*
X122285714Y48455538D01*
X122285714Y48455538D02*
X122247618Y48379347D01*
X122247618Y48379347D02*
X122209523Y48341252D01*
X122209523Y48341252D02*
X122133333Y48303157D01*
X122133333Y48303157D02*
X121828571Y48303157D01*
X123047618Y47922204D02*
X122590475Y47922204D01*
X122819047Y47922204D02*
X122819047Y48722204D01*
X122819047Y48722204D02*
X122742856Y48607919D01*
X122742856Y48607919D02*
X122666666Y48531728D01*
X122666666Y48531728D02*
X122590475Y48493633D01*
X123733333Y48722204D02*
X123580952Y48722204D01*
X123580952Y48722204D02*
X123504761Y48684109D01*
X123504761Y48684109D02*
X123466666Y48646014D01*
X123466666Y48646014D02*
X123390476Y48531728D01*
X123390476Y48531728D02*
X123352380Y48379347D01*
X123352380Y48379347D02*
X123352380Y48074585D01*
X123352380Y48074585D02*
X123390476Y47998395D01*
X123390476Y47998395D02*
X123428571Y47960300D01*
X123428571Y47960300D02*
X123504761Y47922204D01*
X123504761Y47922204D02*
X123657142Y47922204D01*
X123657142Y47922204D02*
X123733333Y47960300D01*
X123733333Y47960300D02*
X123771428Y47998395D01*
X123771428Y47998395D02*
X123809523Y48074585D01*
X123809523Y48074585D02*
X123809523Y48265061D01*
X123809523Y48265061D02*
X123771428Y48341252D01*
X123771428Y48341252D02*
X123733333Y48379347D01*
X123733333Y48379347D02*
X123657142Y48417442D01*
X123657142Y48417442D02*
X123504761Y48417442D01*
X123504761Y48417442D02*
X123428571Y48379347D01*
X123428571Y48379347D02*
X123390476Y48341252D01*
X123390476Y48341252D02*
X123352380Y48265061D01*
X121828571Y45382204D02*
X121828571Y46182204D01*
X121828571Y46182204D02*
X122133333Y46182204D01*
X122133333Y46182204D02*
X122209523Y46144109D01*
X122209523Y46144109D02*
X122247618Y46106014D01*
X122247618Y46106014D02*
X122285714Y46029823D01*
X122285714Y46029823D02*
X122285714Y45915538D01*
X122285714Y45915538D02*
X122247618Y45839347D01*
X122247618Y45839347D02*
X122209523Y45801252D01*
X122209523Y45801252D02*
X122133333Y45763157D01*
X122133333Y45763157D02*
X121828571Y45763157D01*
X123047618Y45382204D02*
X122590475Y45382204D01*
X122819047Y45382204D02*
X122819047Y46182204D01*
X122819047Y46182204D02*
X122742856Y46067919D01*
X122742856Y46067919D02*
X122666666Y45991728D01*
X122666666Y45991728D02*
X122590475Y45953633D01*
X123542857Y46182204D02*
X123619047Y46182204D01*
X123619047Y46182204D02*
X123695238Y46144109D01*
X123695238Y46144109D02*
X123733333Y46106014D01*
X123733333Y46106014D02*
X123771428Y46029823D01*
X123771428Y46029823D02*
X123809523Y45877442D01*
X123809523Y45877442D02*
X123809523Y45686966D01*
X123809523Y45686966D02*
X123771428Y45534585D01*
X123771428Y45534585D02*
X123733333Y45458395D01*
X123733333Y45458395D02*
X123695238Y45420300D01*
X123695238Y45420300D02*
X123619047Y45382204D01*
X123619047Y45382204D02*
X123542857Y45382204D01*
X123542857Y45382204D02*
X123466666Y45420300D01*
X123466666Y45420300D02*
X123428571Y45458395D01*
X123428571Y45458395D02*
X123390476Y45534585D01*
X123390476Y45534585D02*
X123352380Y45686966D01*
X123352380Y45686966D02*
X123352380Y45877442D01*
X123352380Y45877442D02*
X123390476Y46029823D01*
X123390476Y46029823D02*
X123428571Y46106014D01*
X123428571Y46106014D02*
X123466666Y46144109D01*
X123466666Y46144109D02*
X123542857Y46182204D01*
X112228571Y73322204D02*
X112228571Y74122204D01*
X112228571Y74122204D02*
X112533333Y74122204D01*
X112533333Y74122204D02*
X112609523Y74084109D01*
X112609523Y74084109D02*
X112647618Y74046014D01*
X112647618Y74046014D02*
X112685714Y73969823D01*
X112685714Y73969823D02*
X112685714Y73855538D01*
X112685714Y73855538D02*
X112647618Y73779347D01*
X112647618Y73779347D02*
X112609523Y73741252D01*
X112609523Y73741252D02*
X112533333Y73703157D01*
X112533333Y73703157D02*
X112228571Y73703157D01*
X113180952Y74122204D02*
X113257142Y74122204D01*
X113257142Y74122204D02*
X113333333Y74084109D01*
X113333333Y74084109D02*
X113371428Y74046014D01*
X113371428Y74046014D02*
X113409523Y73969823D01*
X113409523Y73969823D02*
X113447618Y73817442D01*
X113447618Y73817442D02*
X113447618Y73626966D01*
X113447618Y73626966D02*
X113409523Y73474585D01*
X113409523Y73474585D02*
X113371428Y73398395D01*
X113371428Y73398395D02*
X113333333Y73360300D01*
X113333333Y73360300D02*
X113257142Y73322204D01*
X113257142Y73322204D02*
X113180952Y73322204D01*
X113180952Y73322204D02*
X113104761Y73360300D01*
X113104761Y73360300D02*
X113066666Y73398395D01*
X113066666Y73398395D02*
X113028571Y73474585D01*
X113028571Y73474585D02*
X112990475Y73626966D01*
X112990475Y73626966D02*
X112990475Y73817442D01*
X112990475Y73817442D02*
X113028571Y73969823D01*
X113028571Y73969823D02*
X113066666Y74046014D01*
X113066666Y74046014D02*
X113104761Y74084109D01*
X113104761Y74084109D02*
X113180952Y74122204D01*
X114209523Y73322204D02*
X113752380Y73322204D01*
X113980952Y73322204D02*
X113980952Y74122204D01*
X113980952Y74122204D02*
X113904761Y74007919D01*
X113904761Y74007919D02*
X113828571Y73931728D01*
X113828571Y73931728D02*
X113752380Y73893633D01*
X112228571Y70782204D02*
X112228571Y71582204D01*
X112228571Y71582204D02*
X112533333Y71582204D01*
X112533333Y71582204D02*
X112609523Y71544109D01*
X112609523Y71544109D02*
X112647618Y71506014D01*
X112647618Y71506014D02*
X112685714Y71429823D01*
X112685714Y71429823D02*
X112685714Y71315538D01*
X112685714Y71315538D02*
X112647618Y71239347D01*
X112647618Y71239347D02*
X112609523Y71201252D01*
X112609523Y71201252D02*
X112533333Y71163157D01*
X112533333Y71163157D02*
X112228571Y71163157D01*
X113180952Y71582204D02*
X113257142Y71582204D01*
X113257142Y71582204D02*
X113333333Y71544109D01*
X113333333Y71544109D02*
X113371428Y71506014D01*
X113371428Y71506014D02*
X113409523Y71429823D01*
X113409523Y71429823D02*
X113447618Y71277442D01*
X113447618Y71277442D02*
X113447618Y71086966D01*
X113447618Y71086966D02*
X113409523Y70934585D01*
X113409523Y70934585D02*
X113371428Y70858395D01*
X113371428Y70858395D02*
X113333333Y70820300D01*
X113333333Y70820300D02*
X113257142Y70782204D01*
X113257142Y70782204D02*
X113180952Y70782204D01*
X113180952Y70782204D02*
X113104761Y70820300D01*
X113104761Y70820300D02*
X113066666Y70858395D01*
X113066666Y70858395D02*
X113028571Y70934585D01*
X113028571Y70934585D02*
X112990475Y71086966D01*
X112990475Y71086966D02*
X112990475Y71277442D01*
X112990475Y71277442D02*
X113028571Y71429823D01*
X113028571Y71429823D02*
X113066666Y71506014D01*
X113066666Y71506014D02*
X113104761Y71544109D01*
X113104761Y71544109D02*
X113180952Y71582204D01*
X113942857Y71582204D02*
X114019047Y71582204D01*
X114019047Y71582204D02*
X114095238Y71544109D01*
X114095238Y71544109D02*
X114133333Y71506014D01*
X114133333Y71506014D02*
X114171428Y71429823D01*
X114171428Y71429823D02*
X114209523Y71277442D01*
X114209523Y71277442D02*
X114209523Y71086966D01*
X114209523Y71086966D02*
X114171428Y70934585D01*
X114171428Y70934585D02*
X114133333Y70858395D01*
X114133333Y70858395D02*
X114095238Y70820300D01*
X114095238Y70820300D02*
X114019047Y70782204D01*
X114019047Y70782204D02*
X113942857Y70782204D01*
X113942857Y70782204D02*
X113866666Y70820300D01*
X113866666Y70820300D02*
X113828571Y70858395D01*
X113828571Y70858395D02*
X113790476Y70934585D01*
X113790476Y70934585D02*
X113752380Y71086966D01*
X113752380Y71086966D02*
X113752380Y71277442D01*
X113752380Y71277442D02*
X113790476Y71429823D01*
X113790476Y71429823D02*
X113828571Y71506014D01*
X113828571Y71506014D02*
X113866666Y71544109D01*
X113866666Y71544109D02*
X113942857Y71582204D01*
X112590476Y69004109D02*
X112514286Y69042204D01*
X112514286Y69042204D02*
X112400000Y69042204D01*
X112400000Y69042204D02*
X112285714Y69004109D01*
X112285714Y69004109D02*
X112209524Y68927919D01*
X112209524Y68927919D02*
X112171429Y68851728D01*
X112171429Y68851728D02*
X112133333Y68699347D01*
X112133333Y68699347D02*
X112133333Y68585061D01*
X112133333Y68585061D02*
X112171429Y68432680D01*
X112171429Y68432680D02*
X112209524Y68356490D01*
X112209524Y68356490D02*
X112285714Y68280300D01*
X112285714Y68280300D02*
X112400000Y68242204D01*
X112400000Y68242204D02*
X112476191Y68242204D01*
X112476191Y68242204D02*
X112590476Y68280300D01*
X112590476Y68280300D02*
X112628572Y68318395D01*
X112628572Y68318395D02*
X112628572Y68585061D01*
X112628572Y68585061D02*
X112476191Y68585061D01*
X112971429Y68242204D02*
X112971429Y69042204D01*
X112971429Y69042204D02*
X113428572Y68242204D01*
X113428572Y68242204D02*
X113428572Y69042204D01*
X113809524Y68242204D02*
X113809524Y69042204D01*
X113809524Y69042204D02*
X114000000Y69042204D01*
X114000000Y69042204D02*
X114114286Y69004109D01*
X114114286Y69004109D02*
X114190476Y68927919D01*
X114190476Y68927919D02*
X114228571Y68851728D01*
X114228571Y68851728D02*
X114266667Y68699347D01*
X114266667Y68699347D02*
X114266667Y68585061D01*
X114266667Y68585061D02*
X114228571Y68432680D01*
X114228571Y68432680D02*
X114190476Y68356490D01*
X114190476Y68356490D02*
X114114286Y68280300D01*
X114114286Y68280300D02*
X114000000Y68242204D01*
X114000000Y68242204D02*
X113809524Y68242204D01*
X112590476Y66464109D02*
X112514286Y66502204D01*
X112514286Y66502204D02*
X112400000Y66502204D01*
X112400000Y66502204D02*
X112285714Y66464109D01*
X112285714Y66464109D02*
X112209524Y66387919D01*
X112209524Y66387919D02*
X112171429Y66311728D01*
X112171429Y66311728D02*
X112133333Y66159347D01*
X112133333Y66159347D02*
X112133333Y66045061D01*
X112133333Y66045061D02*
X112171429Y65892680D01*
X112171429Y65892680D02*
X112209524Y65816490D01*
X112209524Y65816490D02*
X112285714Y65740300D01*
X112285714Y65740300D02*
X112400000Y65702204D01*
X112400000Y65702204D02*
X112476191Y65702204D01*
X112476191Y65702204D02*
X112590476Y65740300D01*
X112590476Y65740300D02*
X112628572Y65778395D01*
X112628572Y65778395D02*
X112628572Y66045061D01*
X112628572Y66045061D02*
X112476191Y66045061D01*
X112971429Y65702204D02*
X112971429Y66502204D01*
X112971429Y66502204D02*
X113428572Y65702204D01*
X113428572Y65702204D02*
X113428572Y66502204D01*
X113809524Y65702204D02*
X113809524Y66502204D01*
X113809524Y66502204D02*
X114000000Y66502204D01*
X114000000Y66502204D02*
X114114286Y66464109D01*
X114114286Y66464109D02*
X114190476Y66387919D01*
X114190476Y66387919D02*
X114228571Y66311728D01*
X114228571Y66311728D02*
X114266667Y66159347D01*
X114266667Y66159347D02*
X114266667Y66045061D01*
X114266667Y66045061D02*
X114228571Y65892680D01*
X114228571Y65892680D02*
X114190476Y65816490D01*
X114190476Y65816490D02*
X114114286Y65740300D01*
X114114286Y65740300D02*
X114000000Y65702204D01*
X114000000Y65702204D02*
X113809524Y65702204D01*
X112228571Y63162204D02*
X112228571Y63962204D01*
X112228571Y63962204D02*
X112533333Y63962204D01*
X112533333Y63962204D02*
X112609523Y63924109D01*
X112609523Y63924109D02*
X112647618Y63886014D01*
X112647618Y63886014D02*
X112685714Y63809823D01*
X112685714Y63809823D02*
X112685714Y63695538D01*
X112685714Y63695538D02*
X112647618Y63619347D01*
X112647618Y63619347D02*
X112609523Y63581252D01*
X112609523Y63581252D02*
X112533333Y63543157D01*
X112533333Y63543157D02*
X112228571Y63543157D01*
X113180952Y63962204D02*
X113257142Y63962204D01*
X113257142Y63962204D02*
X113333333Y63924109D01*
X113333333Y63924109D02*
X113371428Y63886014D01*
X113371428Y63886014D02*
X113409523Y63809823D01*
X113409523Y63809823D02*
X113447618Y63657442D01*
X113447618Y63657442D02*
X113447618Y63466966D01*
X113447618Y63466966D02*
X113409523Y63314585D01*
X113409523Y63314585D02*
X113371428Y63238395D01*
X113371428Y63238395D02*
X113333333Y63200300D01*
X113333333Y63200300D02*
X113257142Y63162204D01*
X113257142Y63162204D02*
X113180952Y63162204D01*
X113180952Y63162204D02*
X113104761Y63200300D01*
X113104761Y63200300D02*
X113066666Y63238395D01*
X113066666Y63238395D02*
X113028571Y63314585D01*
X113028571Y63314585D02*
X112990475Y63466966D01*
X112990475Y63466966D02*
X112990475Y63657442D01*
X112990475Y63657442D02*
X113028571Y63809823D01*
X113028571Y63809823D02*
X113066666Y63886014D01*
X113066666Y63886014D02*
X113104761Y63924109D01*
X113104761Y63924109D02*
X113180952Y63962204D01*
X113752380Y63886014D02*
X113790476Y63924109D01*
X113790476Y63924109D02*
X113866666Y63962204D01*
X113866666Y63962204D02*
X114057142Y63962204D01*
X114057142Y63962204D02*
X114133333Y63924109D01*
X114133333Y63924109D02*
X114171428Y63886014D01*
X114171428Y63886014D02*
X114209523Y63809823D01*
X114209523Y63809823D02*
X114209523Y63733633D01*
X114209523Y63733633D02*
X114171428Y63619347D01*
X114171428Y63619347D02*
X113714285Y63162204D01*
X113714285Y63162204D02*
X114209523Y63162204D01*
X112228571Y60622204D02*
X112228571Y61422204D01*
X112228571Y61422204D02*
X112533333Y61422204D01*
X112533333Y61422204D02*
X112609523Y61384109D01*
X112609523Y61384109D02*
X112647618Y61346014D01*
X112647618Y61346014D02*
X112685714Y61269823D01*
X112685714Y61269823D02*
X112685714Y61155538D01*
X112685714Y61155538D02*
X112647618Y61079347D01*
X112647618Y61079347D02*
X112609523Y61041252D01*
X112609523Y61041252D02*
X112533333Y61003157D01*
X112533333Y61003157D02*
X112228571Y61003157D01*
X113180952Y61422204D02*
X113257142Y61422204D01*
X113257142Y61422204D02*
X113333333Y61384109D01*
X113333333Y61384109D02*
X113371428Y61346014D01*
X113371428Y61346014D02*
X113409523Y61269823D01*
X113409523Y61269823D02*
X113447618Y61117442D01*
X113447618Y61117442D02*
X113447618Y60926966D01*
X113447618Y60926966D02*
X113409523Y60774585D01*
X113409523Y60774585D02*
X113371428Y60698395D01*
X113371428Y60698395D02*
X113333333Y60660300D01*
X113333333Y60660300D02*
X113257142Y60622204D01*
X113257142Y60622204D02*
X113180952Y60622204D01*
X113180952Y60622204D02*
X113104761Y60660300D01*
X113104761Y60660300D02*
X113066666Y60698395D01*
X113066666Y60698395D02*
X113028571Y60774585D01*
X113028571Y60774585D02*
X112990475Y60926966D01*
X112990475Y60926966D02*
X112990475Y61117442D01*
X112990475Y61117442D02*
X113028571Y61269823D01*
X113028571Y61269823D02*
X113066666Y61346014D01*
X113066666Y61346014D02*
X113104761Y61384109D01*
X113104761Y61384109D02*
X113180952Y61422204D01*
X113714285Y61422204D02*
X114209523Y61422204D01*
X114209523Y61422204D02*
X113942857Y61117442D01*
X113942857Y61117442D02*
X114057142Y61117442D01*
X114057142Y61117442D02*
X114133333Y61079347D01*
X114133333Y61079347D02*
X114171428Y61041252D01*
X114171428Y61041252D02*
X114209523Y60965061D01*
X114209523Y60965061D02*
X114209523Y60774585D01*
X114209523Y60774585D02*
X114171428Y60698395D01*
X114171428Y60698395D02*
X114133333Y60660300D01*
X114133333Y60660300D02*
X114057142Y60622204D01*
X114057142Y60622204D02*
X113828571Y60622204D01*
X113828571Y60622204D02*
X113752380Y60660300D01*
X113752380Y60660300D02*
X113714285Y60698395D01*
X112228571Y58082204D02*
X112228571Y58882204D01*
X112228571Y58882204D02*
X112533333Y58882204D01*
X112533333Y58882204D02*
X112609523Y58844109D01*
X112609523Y58844109D02*
X112647618Y58806014D01*
X112647618Y58806014D02*
X112685714Y58729823D01*
X112685714Y58729823D02*
X112685714Y58615538D01*
X112685714Y58615538D02*
X112647618Y58539347D01*
X112647618Y58539347D02*
X112609523Y58501252D01*
X112609523Y58501252D02*
X112533333Y58463157D01*
X112533333Y58463157D02*
X112228571Y58463157D01*
X113180952Y58882204D02*
X113257142Y58882204D01*
X113257142Y58882204D02*
X113333333Y58844109D01*
X113333333Y58844109D02*
X113371428Y58806014D01*
X113371428Y58806014D02*
X113409523Y58729823D01*
X113409523Y58729823D02*
X113447618Y58577442D01*
X113447618Y58577442D02*
X113447618Y58386966D01*
X113447618Y58386966D02*
X113409523Y58234585D01*
X113409523Y58234585D02*
X113371428Y58158395D01*
X113371428Y58158395D02*
X113333333Y58120300D01*
X113333333Y58120300D02*
X113257142Y58082204D01*
X113257142Y58082204D02*
X113180952Y58082204D01*
X113180952Y58082204D02*
X113104761Y58120300D01*
X113104761Y58120300D02*
X113066666Y58158395D01*
X113066666Y58158395D02*
X113028571Y58234585D01*
X113028571Y58234585D02*
X112990475Y58386966D01*
X112990475Y58386966D02*
X112990475Y58577442D01*
X112990475Y58577442D02*
X113028571Y58729823D01*
X113028571Y58729823D02*
X113066666Y58806014D01*
X113066666Y58806014D02*
X113104761Y58844109D01*
X113104761Y58844109D02*
X113180952Y58882204D01*
X114133333Y58615538D02*
X114133333Y58082204D01*
X113942857Y58920300D02*
X113752380Y58348871D01*
X113752380Y58348871D02*
X114247619Y58348871D01*
X112228571Y55542204D02*
X112228571Y56342204D01*
X112228571Y56342204D02*
X112533333Y56342204D01*
X112533333Y56342204D02*
X112609523Y56304109D01*
X112609523Y56304109D02*
X112647618Y56266014D01*
X112647618Y56266014D02*
X112685714Y56189823D01*
X112685714Y56189823D02*
X112685714Y56075538D01*
X112685714Y56075538D02*
X112647618Y55999347D01*
X112647618Y55999347D02*
X112609523Y55961252D01*
X112609523Y55961252D02*
X112533333Y55923157D01*
X112533333Y55923157D02*
X112228571Y55923157D01*
X113180952Y56342204D02*
X113257142Y56342204D01*
X113257142Y56342204D02*
X113333333Y56304109D01*
X113333333Y56304109D02*
X113371428Y56266014D01*
X113371428Y56266014D02*
X113409523Y56189823D01*
X113409523Y56189823D02*
X113447618Y56037442D01*
X113447618Y56037442D02*
X113447618Y55846966D01*
X113447618Y55846966D02*
X113409523Y55694585D01*
X113409523Y55694585D02*
X113371428Y55618395D01*
X113371428Y55618395D02*
X113333333Y55580300D01*
X113333333Y55580300D02*
X113257142Y55542204D01*
X113257142Y55542204D02*
X113180952Y55542204D01*
X113180952Y55542204D02*
X113104761Y55580300D01*
X113104761Y55580300D02*
X113066666Y55618395D01*
X113066666Y55618395D02*
X113028571Y55694585D01*
X113028571Y55694585D02*
X112990475Y55846966D01*
X112990475Y55846966D02*
X112990475Y56037442D01*
X112990475Y56037442D02*
X113028571Y56189823D01*
X113028571Y56189823D02*
X113066666Y56266014D01*
X113066666Y56266014D02*
X113104761Y56304109D01*
X113104761Y56304109D02*
X113180952Y56342204D01*
X114171428Y56342204D02*
X113790476Y56342204D01*
X113790476Y56342204D02*
X113752380Y55961252D01*
X113752380Y55961252D02*
X113790476Y55999347D01*
X113790476Y55999347D02*
X113866666Y56037442D01*
X113866666Y56037442D02*
X114057142Y56037442D01*
X114057142Y56037442D02*
X114133333Y55999347D01*
X114133333Y55999347D02*
X114171428Y55961252D01*
X114171428Y55961252D02*
X114209523Y55885061D01*
X114209523Y55885061D02*
X114209523Y55694585D01*
X114209523Y55694585D02*
X114171428Y55618395D01*
X114171428Y55618395D02*
X114133333Y55580300D01*
X114133333Y55580300D02*
X114057142Y55542204D01*
X114057142Y55542204D02*
X113866666Y55542204D01*
X113866666Y55542204D02*
X113790476Y55580300D01*
X113790476Y55580300D02*
X113752380Y55618395D01*
X112228571Y53002204D02*
X112228571Y53802204D01*
X112228571Y53802204D02*
X112533333Y53802204D01*
X112533333Y53802204D02*
X112609523Y53764109D01*
X112609523Y53764109D02*
X112647618Y53726014D01*
X112647618Y53726014D02*
X112685714Y53649823D01*
X112685714Y53649823D02*
X112685714Y53535538D01*
X112685714Y53535538D02*
X112647618Y53459347D01*
X112647618Y53459347D02*
X112609523Y53421252D01*
X112609523Y53421252D02*
X112533333Y53383157D01*
X112533333Y53383157D02*
X112228571Y53383157D01*
X113180952Y53802204D02*
X113257142Y53802204D01*
X113257142Y53802204D02*
X113333333Y53764109D01*
X113333333Y53764109D02*
X113371428Y53726014D01*
X113371428Y53726014D02*
X113409523Y53649823D01*
X113409523Y53649823D02*
X113447618Y53497442D01*
X113447618Y53497442D02*
X113447618Y53306966D01*
X113447618Y53306966D02*
X113409523Y53154585D01*
X113409523Y53154585D02*
X113371428Y53078395D01*
X113371428Y53078395D02*
X113333333Y53040300D01*
X113333333Y53040300D02*
X113257142Y53002204D01*
X113257142Y53002204D02*
X113180952Y53002204D01*
X113180952Y53002204D02*
X113104761Y53040300D01*
X113104761Y53040300D02*
X113066666Y53078395D01*
X113066666Y53078395D02*
X113028571Y53154585D01*
X113028571Y53154585D02*
X112990475Y53306966D01*
X112990475Y53306966D02*
X112990475Y53497442D01*
X112990475Y53497442D02*
X113028571Y53649823D01*
X113028571Y53649823D02*
X113066666Y53726014D01*
X113066666Y53726014D02*
X113104761Y53764109D01*
X113104761Y53764109D02*
X113180952Y53802204D01*
X114133333Y53802204D02*
X113980952Y53802204D01*
X113980952Y53802204D02*
X113904761Y53764109D01*
X113904761Y53764109D02*
X113866666Y53726014D01*
X113866666Y53726014D02*
X113790476Y53611728D01*
X113790476Y53611728D02*
X113752380Y53459347D01*
X113752380Y53459347D02*
X113752380Y53154585D01*
X113752380Y53154585D02*
X113790476Y53078395D01*
X113790476Y53078395D02*
X113828571Y53040300D01*
X113828571Y53040300D02*
X113904761Y53002204D01*
X113904761Y53002204D02*
X114057142Y53002204D01*
X114057142Y53002204D02*
X114133333Y53040300D01*
X114133333Y53040300D02*
X114171428Y53078395D01*
X114171428Y53078395D02*
X114209523Y53154585D01*
X114209523Y53154585D02*
X114209523Y53345061D01*
X114209523Y53345061D02*
X114171428Y53421252D01*
X114171428Y53421252D02*
X114133333Y53459347D01*
X114133333Y53459347D02*
X114057142Y53497442D01*
X114057142Y53497442D02*
X113904761Y53497442D01*
X113904761Y53497442D02*
X113828571Y53459347D01*
X113828571Y53459347D02*
X113790476Y53421252D01*
X113790476Y53421252D02*
X113752380Y53345061D01*
X112228571Y50462204D02*
X112228571Y51262204D01*
X112228571Y51262204D02*
X112533333Y51262204D01*
X112533333Y51262204D02*
X112609523Y51224109D01*
X112609523Y51224109D02*
X112647618Y51186014D01*
X112647618Y51186014D02*
X112685714Y51109823D01*
X112685714Y51109823D02*
X112685714Y50995538D01*
X112685714Y50995538D02*
X112647618Y50919347D01*
X112647618Y50919347D02*
X112609523Y50881252D01*
X112609523Y50881252D02*
X112533333Y50843157D01*
X112533333Y50843157D02*
X112228571Y50843157D01*
X113180952Y51262204D02*
X113257142Y51262204D01*
X113257142Y51262204D02*
X113333333Y51224109D01*
X113333333Y51224109D02*
X113371428Y51186014D01*
X113371428Y51186014D02*
X113409523Y51109823D01*
X113409523Y51109823D02*
X113447618Y50957442D01*
X113447618Y50957442D02*
X113447618Y50766966D01*
X113447618Y50766966D02*
X113409523Y50614585D01*
X113409523Y50614585D02*
X113371428Y50538395D01*
X113371428Y50538395D02*
X113333333Y50500300D01*
X113333333Y50500300D02*
X113257142Y50462204D01*
X113257142Y50462204D02*
X113180952Y50462204D01*
X113180952Y50462204D02*
X113104761Y50500300D01*
X113104761Y50500300D02*
X113066666Y50538395D01*
X113066666Y50538395D02*
X113028571Y50614585D01*
X113028571Y50614585D02*
X112990475Y50766966D01*
X112990475Y50766966D02*
X112990475Y50957442D01*
X112990475Y50957442D02*
X113028571Y51109823D01*
X113028571Y51109823D02*
X113066666Y51186014D01*
X113066666Y51186014D02*
X113104761Y51224109D01*
X113104761Y51224109D02*
X113180952Y51262204D01*
X113714285Y51262204D02*
X114247619Y51262204D01*
X114247619Y51262204D02*
X113904761Y50462204D01*
X112228571Y47922204D02*
X112228571Y48722204D01*
X112228571Y48722204D02*
X112533333Y48722204D01*
X112533333Y48722204D02*
X112609523Y48684109D01*
X112609523Y48684109D02*
X112647618Y48646014D01*
X112647618Y48646014D02*
X112685714Y48569823D01*
X112685714Y48569823D02*
X112685714Y48455538D01*
X112685714Y48455538D02*
X112647618Y48379347D01*
X112647618Y48379347D02*
X112609523Y48341252D01*
X112609523Y48341252D02*
X112533333Y48303157D01*
X112533333Y48303157D02*
X112228571Y48303157D01*
X113180952Y48722204D02*
X113257142Y48722204D01*
X113257142Y48722204D02*
X113333333Y48684109D01*
X113333333Y48684109D02*
X113371428Y48646014D01*
X113371428Y48646014D02*
X113409523Y48569823D01*
X113409523Y48569823D02*
X113447618Y48417442D01*
X113447618Y48417442D02*
X113447618Y48226966D01*
X113447618Y48226966D02*
X113409523Y48074585D01*
X113409523Y48074585D02*
X113371428Y47998395D01*
X113371428Y47998395D02*
X113333333Y47960300D01*
X113333333Y47960300D02*
X113257142Y47922204D01*
X113257142Y47922204D02*
X113180952Y47922204D01*
X113180952Y47922204D02*
X113104761Y47960300D01*
X113104761Y47960300D02*
X113066666Y47998395D01*
X113066666Y47998395D02*
X113028571Y48074585D01*
X113028571Y48074585D02*
X112990475Y48226966D01*
X112990475Y48226966D02*
X112990475Y48417442D01*
X112990475Y48417442D02*
X113028571Y48569823D01*
X113028571Y48569823D02*
X113066666Y48646014D01*
X113066666Y48646014D02*
X113104761Y48684109D01*
X113104761Y48684109D02*
X113180952Y48722204D01*
X113904761Y48379347D02*
X113828571Y48417442D01*
X113828571Y48417442D02*
X113790476Y48455538D01*
X113790476Y48455538D02*
X113752380Y48531728D01*
X113752380Y48531728D02*
X113752380Y48569823D01*
X113752380Y48569823D02*
X113790476Y48646014D01*
X113790476Y48646014D02*
X113828571Y48684109D01*
X113828571Y48684109D02*
X113904761Y48722204D01*
X113904761Y48722204D02*
X114057142Y48722204D01*
X114057142Y48722204D02*
X114133333Y48684109D01*
X114133333Y48684109D02*
X114171428Y48646014D01*
X114171428Y48646014D02*
X114209523Y48569823D01*
X114209523Y48569823D02*
X114209523Y48531728D01*
X114209523Y48531728D02*
X114171428Y48455538D01*
X114171428Y48455538D02*
X114133333Y48417442D01*
X114133333Y48417442D02*
X114057142Y48379347D01*
X114057142Y48379347D02*
X113904761Y48379347D01*
X113904761Y48379347D02*
X113828571Y48341252D01*
X113828571Y48341252D02*
X113790476Y48303157D01*
X113790476Y48303157D02*
X113752380Y48226966D01*
X113752380Y48226966D02*
X113752380Y48074585D01*
X113752380Y48074585D02*
X113790476Y47998395D01*
X113790476Y47998395D02*
X113828571Y47960300D01*
X113828571Y47960300D02*
X113904761Y47922204D01*
X113904761Y47922204D02*
X114057142Y47922204D01*
X114057142Y47922204D02*
X114133333Y47960300D01*
X114133333Y47960300D02*
X114171428Y47998395D01*
X114171428Y47998395D02*
X114209523Y48074585D01*
X114209523Y48074585D02*
X114209523Y48226966D01*
X114209523Y48226966D02*
X114171428Y48303157D01*
X114171428Y48303157D02*
X114133333Y48341252D01*
X114133333Y48341252D02*
X114057142Y48379347D01*
X112228571Y45382204D02*
X112228571Y46182204D01*
X112228571Y46182204D02*
X112533333Y46182204D01*
X112533333Y46182204D02*
X112609523Y46144109D01*
X112609523Y46144109D02*
X112647618Y46106014D01*
X112647618Y46106014D02*
X112685714Y46029823D01*
X112685714Y46029823D02*
X112685714Y45915538D01*
X112685714Y45915538D02*
X112647618Y45839347D01*
X112647618Y45839347D02*
X112609523Y45801252D01*
X112609523Y45801252D02*
X112533333Y45763157D01*
X112533333Y45763157D02*
X112228571Y45763157D01*
X113180952Y46182204D02*
X113257142Y46182204D01*
X113257142Y46182204D02*
X113333333Y46144109D01*
X113333333Y46144109D02*
X113371428Y46106014D01*
X113371428Y46106014D02*
X113409523Y46029823D01*
X113409523Y46029823D02*
X113447618Y45877442D01*
X113447618Y45877442D02*
X113447618Y45686966D01*
X113447618Y45686966D02*
X113409523Y45534585D01*
X113409523Y45534585D02*
X113371428Y45458395D01*
X113371428Y45458395D02*
X113333333Y45420300D01*
X113333333Y45420300D02*
X113257142Y45382204D01*
X113257142Y45382204D02*
X113180952Y45382204D01*
X113180952Y45382204D02*
X113104761Y45420300D01*
X113104761Y45420300D02*
X113066666Y45458395D01*
X113066666Y45458395D02*
X113028571Y45534585D01*
X113028571Y45534585D02*
X112990475Y45686966D01*
X112990475Y45686966D02*
X112990475Y45877442D01*
X112990475Y45877442D02*
X113028571Y46029823D01*
X113028571Y46029823D02*
X113066666Y46106014D01*
X113066666Y46106014D02*
X113104761Y46144109D01*
X113104761Y46144109D02*
X113180952Y46182204D01*
X113828571Y45382204D02*
X113980952Y45382204D01*
X113980952Y45382204D02*
X114057142Y45420300D01*
X114057142Y45420300D02*
X114095238Y45458395D01*
X114095238Y45458395D02*
X114171428Y45572680D01*
X114171428Y45572680D02*
X114209523Y45725061D01*
X114209523Y45725061D02*
X114209523Y46029823D01*
X114209523Y46029823D02*
X114171428Y46106014D01*
X114171428Y46106014D02*
X114133333Y46144109D01*
X114133333Y46144109D02*
X114057142Y46182204D01*
X114057142Y46182204D02*
X113904761Y46182204D01*
X113904761Y46182204D02*
X113828571Y46144109D01*
X113828571Y46144109D02*
X113790476Y46106014D01*
X113790476Y46106014D02*
X113752380Y46029823D01*
X113752380Y46029823D02*
X113752380Y45839347D01*
X113752380Y45839347D02*
X113790476Y45763157D01*
X113790476Y45763157D02*
X113828571Y45725061D01*
X113828571Y45725061D02*
X113904761Y45686966D01*
X113904761Y45686966D02*
X114057142Y45686966D01*
X114057142Y45686966D02*
X114133333Y45725061D01*
X114133333Y45725061D02*
X114171428Y45763157D01*
X114171428Y45763157D02*
X114209523Y45839347D01*
D11*
%TO.C,G\u002A\u002A\u002A*%
G36*
X38144615Y-8083251D02*
G01*
X38378636Y-8090928D01*
X38554659Y-8103736D01*
X38692525Y-8123326D01*
X38737546Y-8132557D01*
X38845301Y-8153664D01*
X38921742Y-8163269D01*
X38942699Y-8161983D01*
X38963514Y-8165668D01*
X38965230Y-8173513D01*
X38996397Y-8194174D01*
X39019079Y-8196308D01*
X39080241Y-8210722D01*
X39138119Y-8240269D01*
X39176681Y-8263890D01*
X39180508Y-8260703D01*
X39179656Y-8259808D01*
X39163382Y-8236182D01*
X39189221Y-8243343D01*
X39254571Y-8280029D01*
X39356827Y-8344979D01*
X39361016Y-8347731D01*
X39448689Y-8403734D01*
X39519639Y-8446036D01*
X39559595Y-8466162D01*
X39561153Y-8466590D01*
X39590438Y-8488743D01*
X39590461Y-8489393D01*
X39605282Y-8515208D01*
X39643261Y-8563690D01*
X39674695Y-8600111D01*
X39720563Y-8652308D01*
X39752079Y-8693292D01*
X39774398Y-8733824D01*
X39792678Y-8784668D01*
X39812074Y-8856584D01*
X39827601Y-8919231D01*
X39844074Y-9007917D01*
X39850789Y-9092898D01*
X39846688Y-9158404D01*
X39844314Y-9168346D01*
X39820133Y-9251384D01*
X38484143Y-9253698D01*
X38168713Y-9254216D01*
X37878604Y-9254639D01*
X37622954Y-9254956D01*
X37410902Y-9255159D01*
X37251584Y-9255240D01*
X37154138Y-9255188D01*
X37126951Y-9255049D01*
X37109264Y-9271264D01*
X37097173Y-9310367D01*
X37104792Y-9358992D01*
X37133699Y-9417224D01*
X37174843Y-9472552D01*
X37219173Y-9512463D01*
X37252394Y-9524923D01*
X37273309Y-9536616D01*
X37268752Y-9541736D01*
X37280907Y-9565396D01*
X37340313Y-9603346D01*
X37430063Y-9647565D01*
X37533249Y-9690029D01*
X37632963Y-9722716D01*
X37668195Y-9731278D01*
X37816620Y-9755434D01*
X37973681Y-9770135D01*
X38115265Y-9774185D01*
X38217263Y-9766390D01*
X38241550Y-9759699D01*
X38318280Y-9744533D01*
X38359040Y-9746816D01*
X38409605Y-9746807D01*
X38418153Y-9738080D01*
X38442055Y-9726864D01*
X38456422Y-9729827D01*
X38529507Y-9729737D01*
X38639710Y-9696929D01*
X38784268Y-9632292D01*
X38825816Y-9611074D01*
X38920842Y-9566338D01*
X39012022Y-9538545D01*
X39117320Y-9526170D01*
X39254705Y-9527687D01*
X39442142Y-9541569D01*
X39538361Y-9550551D01*
X39779338Y-9573769D01*
X39717873Y-9642154D01*
X39679574Y-9689886D01*
X39662368Y-9721709D01*
X39662511Y-9725192D01*
X39638885Y-9739223D01*
X39627231Y-9739846D01*
X39603302Y-9751677D01*
X39608787Y-9758404D01*
X39597325Y-9780454D01*
X39551384Y-9798461D01*
X39498159Y-9821877D01*
X39494578Y-9839003D01*
X39488226Y-9853027D01*
X39468141Y-9852676D01*
X39421581Y-9861196D01*
X39416391Y-9870102D01*
X39388556Y-9904032D01*
X39379042Y-9909179D01*
X39361470Y-9910731D01*
X39372563Y-9896154D01*
X39367095Y-9891670D01*
X39321415Y-9912103D01*
X39277845Y-9935231D01*
X39212166Y-9968823D01*
X39179009Y-9980266D01*
X39179761Y-9974308D01*
X39179113Y-9965116D01*
X39141797Y-9984077D01*
X39073673Y-10011720D01*
X39021668Y-10017413D01*
X38971831Y-10023809D01*
X38965230Y-10033219D01*
X38942160Y-10046204D01*
X38929303Y-10043666D01*
X38875709Y-10046202D01*
X38841031Y-10058736D01*
X38771401Y-10076674D01*
X38734749Y-10075920D01*
X38700657Y-10077404D01*
X38711901Y-10092081D01*
X38717498Y-10109042D01*
X38661214Y-10106537D01*
X38658725Y-10106214D01*
X38593285Y-10104732D01*
X38574461Y-10114223D01*
X38544112Y-10124678D01*
X38499595Y-10121368D01*
X38429454Y-10118805D01*
X38404014Y-10126247D01*
X38358902Y-10134362D01*
X38260421Y-10140321D01*
X38129943Y-10143969D01*
X37988842Y-10145155D01*
X37858493Y-10143726D01*
X37760269Y-10139531D01*
X37715544Y-10132416D01*
X37714768Y-10131159D01*
X37683583Y-10122132D01*
X37636615Y-10124954D01*
X37572426Y-10123987D01*
X37558461Y-10111265D01*
X37530328Y-10096115D01*
X37501097Y-10098364D01*
X37438783Y-10098610D01*
X37421691Y-10091538D01*
X37371795Y-10081647D01*
X37342286Y-10084713D01*
X37292926Y-10082973D01*
X37284922Y-10072937D01*
X37261229Y-10059327D01*
X37245845Y-10062231D01*
X37209894Y-10060033D01*
X37206768Y-10052461D01*
X37182964Y-10039720D01*
X37167691Y-10042692D01*
X37131741Y-10040495D01*
X37128615Y-10032923D01*
X37104811Y-10020182D01*
X37089538Y-10023154D01*
X37053529Y-10021605D01*
X37050461Y-10014538D01*
X37024941Y-9998227D01*
X37013855Y-9998731D01*
X36968263Y-9988372D01*
X36894197Y-9956539D01*
X36853221Y-9935231D01*
X36792854Y-9903735D01*
X36770783Y-9896161D01*
X36781183Y-9905923D01*
X36804064Y-9926333D01*
X36780994Y-9920803D01*
X36726894Y-9897632D01*
X36645918Y-9858797D01*
X36623263Y-9840920D01*
X36660545Y-9845410D01*
X36669461Y-9847604D01*
X36675649Y-9845691D01*
X36630183Y-9825533D01*
X36610644Y-9817746D01*
X36544230Y-9785773D01*
X36520891Y-9762065D01*
X36522496Y-9759729D01*
X36509811Y-9740601D01*
X36481144Y-9732262D01*
X36440909Y-9712899D01*
X36444598Y-9700907D01*
X36440470Y-9682833D01*
X36425230Y-9681231D01*
X36399747Y-9669329D01*
X36405691Y-9661692D01*
X36407397Y-9643585D01*
X36396775Y-9642154D01*
X36368054Y-9625583D01*
X36357349Y-9599950D01*
X36332791Y-9559604D01*
X36304950Y-9543519D01*
X36278736Y-9518185D01*
X36285761Y-9507569D01*
X36287867Y-9488004D01*
X36273657Y-9485846D01*
X36257296Y-9485303D01*
X36245331Y-9480031D01*
X36236854Y-9464560D01*
X36230959Y-9433423D01*
X36226736Y-9381153D01*
X36223279Y-9302282D01*
X36219680Y-9191342D01*
X36218521Y-9153692D01*
X36216767Y-9000042D01*
X36222109Y-8888295D01*
X37089507Y-8888295D01*
X37091456Y-8901045D01*
X37103465Y-8910744D01*
X37134741Y-8917736D01*
X37194491Y-8922367D01*
X37291922Y-8924981D01*
X37436242Y-8925923D01*
X37636658Y-8925539D01*
X37902377Y-8924173D01*
X38027353Y-8923439D01*
X38965230Y-8917878D01*
X38965230Y-8854517D01*
X38947498Y-8796115D01*
X38907994Y-8750298D01*
X38873466Y-8715460D01*
X38875430Y-8697105D01*
X38869677Y-8685862D01*
X38852206Y-8684769D01*
X38821302Y-8674390D01*
X38825930Y-8667278D01*
X38815128Y-8646734D01*
X38786683Y-8638108D01*
X38744718Y-8620031D01*
X38746626Y-8609593D01*
X38734649Y-8586781D01*
X38678293Y-8552408D01*
X38664647Y-8545955D01*
X38606131Y-8522997D01*
X38586876Y-8523409D01*
X38590596Y-8528461D01*
X38600677Y-8543601D01*
X38568618Y-8527045D01*
X38566346Y-8525672D01*
X38470142Y-8492136D01*
X38323011Y-8467821D01*
X38150612Y-8454163D01*
X37978603Y-8452596D01*
X37832643Y-8464552D01*
X37762472Y-8480747D01*
X37687384Y-8499846D01*
X37642195Y-8500878D01*
X37596655Y-8506821D01*
X37514573Y-8533021D01*
X37445854Y-8560323D01*
X37278913Y-8647686D01*
X37178791Y-8736760D01*
X37155745Y-8780918D01*
X37133648Y-8819859D01*
X37116596Y-8834060D01*
X37094312Y-8862853D01*
X37089507Y-8888295D01*
X36222109Y-8888295D01*
X36222326Y-8883754D01*
X36235442Y-8803272D01*
X36256360Y-8757042D01*
X36282872Y-8743424D01*
X36300621Y-8728978D01*
X36293868Y-8714077D01*
X36293056Y-8688918D01*
X36309226Y-8684769D01*
X36340792Y-8673587D01*
X36340257Y-8670115D01*
X36351775Y-8640765D01*
X36390233Y-8595511D01*
X36439365Y-8551013D01*
X36482904Y-8523929D01*
X36483050Y-8523876D01*
X36498126Y-8510764D01*
X36486146Y-8509222D01*
X36483689Y-8499031D01*
X36525223Y-8478166D01*
X36561748Y-8459989D01*
X36542461Y-8460116D01*
X36525707Y-8458572D01*
X36563044Y-8437853D01*
X36570107Y-8434683D01*
X36625977Y-8405188D01*
X36639077Y-8387898D01*
X36654990Y-8371018D01*
X36714598Y-8337269D01*
X36766037Y-8312203D01*
X36835601Y-8282032D01*
X36864746Y-8274072D01*
X36854867Y-8284231D01*
X36854045Y-8291463D01*
X36893837Y-8279631D01*
X36956485Y-8255652D01*
X37024229Y-8226445D01*
X37079310Y-8198928D01*
X37089484Y-8192829D01*
X37133792Y-8180911D01*
X37233740Y-8160711D01*
X37370582Y-8135932D01*
X37422259Y-8127109D01*
X37576081Y-8102791D01*
X37703164Y-8088060D01*
X37831318Y-8081226D01*
X37988353Y-8080602D01*
X38144615Y-8083251D01*
G37*
G36*
X43978375Y-8086354D02*
G01*
X44304212Y-8120759D01*
X44582512Y-8176884D01*
X44685504Y-8202037D01*
X44750064Y-8213202D01*
X44762510Y-8209075D01*
X44773674Y-8209808D01*
X44827250Y-8233561D01*
X44909074Y-8273905D01*
X44999052Y-8320952D01*
X45062498Y-8356523D01*
X45084250Y-8371598D01*
X45101447Y-8393856D01*
X45141415Y-8439122D01*
X45169785Y-8469964D01*
X45218594Y-8530627D01*
X45257308Y-8599624D01*
X45286925Y-8681898D01*
X45308441Y-8782391D01*
X45322853Y-8906043D01*
X45331160Y-9057799D01*
X45334357Y-9242600D01*
X45334473Y-9286204D01*
X45335627Y-9446389D01*
X45339188Y-9572129D01*
X45345642Y-9668046D01*
X45355475Y-9738761D01*
X45369170Y-9788894D01*
X45387214Y-9823067D01*
X45391390Y-9828397D01*
X45437000Y-9872312D01*
X45478182Y-9895210D01*
X45485147Y-9896154D01*
X45510023Y-9913634D01*
X45530360Y-9957888D01*
X45536356Y-9984625D01*
X45550429Y-10073097D01*
X45061599Y-10067664D01*
X44572768Y-10062231D01*
X44535380Y-9998731D01*
X44501336Y-9955929D01*
X44467710Y-9935514D01*
X44464362Y-9935231D01*
X44447919Y-9919824D01*
X44456762Y-9894225D01*
X44455764Y-9878738D01*
X44413323Y-9890911D01*
X44325334Y-9931951D01*
X44321201Y-9934014D01*
X44228765Y-9975463D01*
X44154847Y-10000064D01*
X44121958Y-10003175D01*
X44087042Y-10006077D01*
X44084307Y-10013384D01*
X44060503Y-10026126D01*
X44045230Y-10023154D01*
X44009279Y-10025351D01*
X44006153Y-10032923D01*
X43982349Y-10045664D01*
X43967076Y-10042692D01*
X43931125Y-10044889D01*
X43927999Y-10052461D01*
X43904915Y-10065654D01*
X43891622Y-10063065D01*
X43841233Y-10065324D01*
X43831756Y-10070828D01*
X43780571Y-10081753D01*
X43750902Y-10078825D01*
X43701455Y-10079733D01*
X43693538Y-10088835D01*
X43665063Y-10101375D01*
X43634922Y-10098604D01*
X43584755Y-10099636D01*
X43576307Y-10109359D01*
X43544432Y-10122782D01*
X43482878Y-10119635D01*
X43402105Y-10118218D01*
X43363341Y-10129032D01*
X43310828Y-10141387D01*
X43209813Y-10148211D01*
X43089071Y-10149457D01*
X42977376Y-10145077D01*
X42903504Y-10135021D01*
X42891478Y-10129820D01*
X42838605Y-10117980D01*
X42794768Y-10120846D01*
X42724497Y-10121597D01*
X42699113Y-10112725D01*
X42647406Y-10101379D01*
X42617671Y-10104251D01*
X42568224Y-10103343D01*
X42560307Y-10094242D01*
X42532081Y-10081383D01*
X42504713Y-10083893D01*
X42439097Y-10079227D01*
X42390256Y-10062231D01*
X42443076Y-10062231D01*
X42462615Y-10072000D01*
X42482153Y-10062231D01*
X42462615Y-10052461D01*
X42443076Y-10062231D01*
X42390256Y-10062231D01*
X42371200Y-10055600D01*
X42339162Y-10042692D01*
X42364922Y-10042692D01*
X42384461Y-10052461D01*
X42403999Y-10042692D01*
X42384461Y-10032923D01*
X42364922Y-10042692D01*
X42339162Y-10042692D01*
X42309125Y-10030590D01*
X42273652Y-10026455D01*
X42243278Y-10019435D01*
X42209820Y-9994972D01*
X42158451Y-9967436D01*
X42118731Y-9967124D01*
X42091988Y-9971007D01*
X42099463Y-9965259D01*
X42092917Y-9945000D01*
X44240615Y-9945000D01*
X44260153Y-9954769D01*
X44279691Y-9945000D01*
X44260153Y-9935231D01*
X44240615Y-9945000D01*
X42092917Y-9945000D01*
X42092497Y-9943701D01*
X42051575Y-9903622D01*
X41991577Y-9857007D01*
X41927388Y-9815844D01*
X41892363Y-9798461D01*
X41871229Y-9771123D01*
X41854167Y-9714820D01*
X41841793Y-9639627D01*
X41834723Y-9555617D01*
X41834569Y-9544525D01*
X42716615Y-9544525D01*
X42753437Y-9628468D01*
X42856987Y-9699203D01*
X43016887Y-9749903D01*
X43033998Y-9753309D01*
X43140455Y-9764716D01*
X43286955Y-9769763D01*
X43445819Y-9768751D01*
X43589366Y-9761985D01*
X43689917Y-9749767D01*
X43704900Y-9745957D01*
X43782890Y-9730382D01*
X43828610Y-9725264D01*
X43907414Y-9709069D01*
X43935474Y-9695391D01*
X43962193Y-9683912D01*
X43966478Y-9689850D01*
X43986859Y-9691078D01*
X44028589Y-9670311D01*
X44063977Y-9652056D01*
X44061622Y-9661692D01*
X44068497Y-9667977D01*
X44118372Y-9650530D01*
X44155027Y-9634279D01*
X44225352Y-9596005D01*
X44257463Y-9567120D01*
X44256287Y-9560872D01*
X44267978Y-9540997D01*
X44296529Y-9532507D01*
X44338092Y-9514131D01*
X44335776Y-9503337D01*
X44343924Y-9487188D01*
X44359720Y-9485846D01*
X44387815Y-9471681D01*
X44382791Y-9456538D01*
X44379816Y-9431325D01*
X44393596Y-9427231D01*
X44414398Y-9409702D01*
X44434846Y-9365117D01*
X44452195Y-9305480D01*
X44463701Y-9242792D01*
X44466622Y-9189058D01*
X44458211Y-9156279D01*
X44456038Y-9154097D01*
X44412801Y-9148315D01*
X44371742Y-9163491D01*
X44309843Y-9182746D01*
X44276541Y-9182026D01*
X44242754Y-9183894D01*
X44240615Y-9189549D01*
X44207530Y-9203831D01*
X44152691Y-9207511D01*
X44038297Y-9210424D01*
X43885015Y-9219448D01*
X43709273Y-9232981D01*
X43527496Y-9249425D01*
X43356111Y-9267180D01*
X43211544Y-9284647D01*
X43110222Y-9300225D01*
X43068569Y-9312316D01*
X43068307Y-9313109D01*
X43041189Y-9325314D01*
X43033936Y-9324654D01*
X42980356Y-9331408D01*
X42903899Y-9354909D01*
X42829003Y-9385516D01*
X42780108Y-9413589D01*
X42774781Y-9426867D01*
X42768698Y-9451058D01*
X42756329Y-9456341D01*
X42730785Y-9482134D01*
X42717261Y-9530691D01*
X42716615Y-9544525D01*
X41834569Y-9544525D01*
X41833575Y-9472865D01*
X41838964Y-9401444D01*
X41851509Y-9351430D01*
X41863994Y-9335047D01*
X41884588Y-9313883D01*
X41874434Y-9310000D01*
X41875981Y-9297972D01*
X41921185Y-9268612D01*
X41928622Y-9264589D01*
X41981406Y-9230525D01*
X41993966Y-9209341D01*
X41992872Y-9208641D01*
X42006963Y-9191529D01*
X42067901Y-9161744D01*
X42093582Y-9151475D01*
X42188073Y-9114120D01*
X42262444Y-9082755D01*
X42270605Y-9079027D01*
X42315466Y-9062277D01*
X42325845Y-9063292D01*
X42357888Y-9061444D01*
X42440941Y-9046329D01*
X42530999Y-9027001D01*
X42663494Y-9003555D01*
X42853946Y-8978620D01*
X43082546Y-8954581D01*
X43263691Y-8938843D01*
X43477874Y-8921596D01*
X43682720Y-8904598D01*
X43856427Y-8889690D01*
X43977189Y-8878714D01*
X43986615Y-8877795D01*
X44113742Y-8866490D01*
X44216778Y-8859456D01*
X44249614Y-8858329D01*
X44320312Y-8848637D01*
X44340238Y-8839515D01*
X44387238Y-8829582D01*
X44399622Y-8832142D01*
X44422109Y-8822237D01*
X44434855Y-8783628D01*
X44435999Y-8764076D01*
X44426720Y-8714431D01*
X44403398Y-8686861D01*
X44393666Y-8684769D01*
X44364835Y-8670741D01*
X44367788Y-8660346D01*
X44354867Y-8629403D01*
X44322198Y-8610051D01*
X44285445Y-8592949D01*
X44310719Y-8596782D01*
X44318768Y-8598756D01*
X44344571Y-8599886D01*
X44311188Y-8575661D01*
X44302943Y-8570897D01*
X44240050Y-8538625D01*
X44208036Y-8528991D01*
X44217273Y-8544723D01*
X44223581Y-8550026D01*
X44214658Y-8554888D01*
X44165123Y-8543484D01*
X44097436Y-8522625D01*
X44034054Y-8499121D01*
X44000753Y-8482448D01*
X43951329Y-8474874D01*
X43928642Y-8479417D01*
X43862289Y-8481857D01*
X43787096Y-8468740D01*
X43713220Y-8455512D01*
X43617785Y-8453891D01*
X43475999Y-8463687D01*
X43449096Y-8466140D01*
X43320718Y-8480813D01*
X43227577Y-8496608D01*
X43192166Y-8508749D01*
X43157723Y-8520998D01*
X43147378Y-8518976D01*
X43103439Y-8525990D01*
X43033157Y-8556556D01*
X42952515Y-8601378D01*
X42877495Y-8651155D01*
X42824078Y-8696591D01*
X42810313Y-8715077D01*
X42776614Y-8751712D01*
X42716184Y-8757462D01*
X42701860Y-8755970D01*
X42624924Y-8749701D01*
X42494910Y-8741950D01*
X42336674Y-8734160D01*
X42295679Y-8732378D01*
X42144989Y-8724414D01*
X42026873Y-8715166D01*
X41960873Y-8706274D01*
X41953916Y-8703743D01*
X41954559Y-8677510D01*
X41976576Y-8628399D01*
X42011649Y-8569675D01*
X42051458Y-8514607D01*
X42087682Y-8476461D01*
X42101820Y-8467890D01*
X42137873Y-8439817D01*
X42144173Y-8427153D01*
X42174526Y-8400403D01*
X42243864Y-8358201D01*
X42333529Y-8310179D01*
X42424865Y-8265967D01*
X42499213Y-8235197D01*
X42532424Y-8226739D01*
X42581332Y-8211949D01*
X42591040Y-8206077D01*
X42646724Y-8183566D01*
X42657999Y-8181566D01*
X42711937Y-8173071D01*
X42817907Y-8155286D01*
X42954194Y-8131860D01*
X42971125Y-8128918D01*
X43289573Y-8089772D01*
X43632743Y-8075804D01*
X43978375Y-8086354D01*
G37*
G36*
X49876928Y-8738500D02*
G01*
X49866625Y-10072000D01*
X49559428Y-10072000D01*
X49393967Y-10073561D01*
X49243430Y-10077678D01*
X49137765Y-10083498D01*
X49130115Y-10084211D01*
X49046001Y-10089522D01*
X49013357Y-10075594D01*
X49007999Y-10036637D01*
X48993202Y-9971993D01*
X48965781Y-9921849D01*
X48923563Y-9866846D01*
X48829206Y-9925461D01*
X48769909Y-9957790D01*
X48736243Y-9967439D01*
X48733466Y-9964538D01*
X48717082Y-9962381D01*
X48691794Y-9979603D01*
X48646033Y-10003350D01*
X48618923Y-10004138D01*
X48580005Y-10010320D01*
X48562380Y-10025293D01*
X48513988Y-10046850D01*
X48480131Y-10045333D01*
X48430174Y-10046538D01*
X48421845Y-10056331D01*
X48406676Y-10069319D01*
X48397655Y-10066417D01*
X48355096Y-10068463D01*
X48314462Y-10083823D01*
X48244867Y-10103558D01*
X48203135Y-10103284D01*
X48142412Y-10105005D01*
X48127625Y-10112002D01*
X48076692Y-10122041D01*
X48009143Y-10118800D01*
X47933590Y-10116745D01*
X47913845Y-10128994D01*
X47879483Y-10140409D01*
X47793727Y-10146549D01*
X47682575Y-10147585D01*
X47572025Y-10143691D01*
X47488075Y-10135035D01*
X47458748Y-10125994D01*
X47408392Y-10116360D01*
X47342967Y-10119635D01*
X47268975Y-10121414D01*
X47249538Y-10109359D01*
X47221245Y-10095841D01*
X47192174Y-10098364D01*
X47129083Y-10097986D01*
X47111320Y-10090366D01*
X47064383Y-10080005D01*
X47051453Y-10082603D01*
X47017605Y-10079201D01*
X47015076Y-10072000D01*
X46991272Y-10059259D01*
X46975999Y-10062231D01*
X46940096Y-10059512D01*
X46936922Y-10051524D01*
X46908473Y-10037638D01*
X46876828Y-10040272D01*
X46813686Y-10036086D01*
X46794896Y-10023154D01*
X46819691Y-10023154D01*
X46839230Y-10032923D01*
X46858768Y-10023154D01*
X48499999Y-10023154D01*
X48519538Y-10032923D01*
X48539076Y-10023154D01*
X48519538Y-10013384D01*
X48499999Y-10023154D01*
X46858768Y-10023154D01*
X46839230Y-10013384D01*
X46819691Y-10023154D01*
X46794896Y-10023154D01*
X46794579Y-10022936D01*
X46757651Y-10003395D01*
X46737167Y-10004966D01*
X46695851Y-9999641D01*
X46678552Y-9985427D01*
X46644770Y-9963652D01*
X46626685Y-9963803D01*
X46586788Y-9955607D01*
X46511117Y-9925493D01*
X46427259Y-9885537D01*
X46344899Y-9840795D01*
X46297196Y-9809221D01*
X46293786Y-9798027D01*
X46293612Y-9787326D01*
X46244021Y-9761679D01*
X46233538Y-9757254D01*
X46183988Y-9734024D01*
X46186814Y-9728356D01*
X46194461Y-9729830D01*
X46221095Y-9732310D01*
X46185299Y-9714940D01*
X46142033Y-9688509D01*
X46142965Y-9674414D01*
X46137982Y-9662830D01*
X46120513Y-9661692D01*
X46091095Y-9650231D01*
X46096768Y-9642154D01*
X46093670Y-9624149D01*
X46079536Y-9622615D01*
X46043171Y-9612112D01*
X46042780Y-9607961D01*
X46039567Y-9583538D01*
X46028337Y-9559150D01*
X46012854Y-9515520D01*
X45986654Y-9469828D01*
X45952446Y-9444435D01*
X45931000Y-9419569D01*
X45938818Y-9409021D01*
X45942916Y-9375720D01*
X45929130Y-9362875D01*
X45913693Y-9333966D01*
X45902516Y-9275681D01*
X45895625Y-9197664D01*
X45893044Y-9109560D01*
X45894407Y-9040761D01*
X46797572Y-9040761D01*
X46801849Y-9128944D01*
X46818953Y-9221153D01*
X46846710Y-9309142D01*
X46882945Y-9384665D01*
X46925482Y-9439475D01*
X46972148Y-9465325D01*
X46983046Y-9466308D01*
X47003090Y-9478126D01*
X46998068Y-9483799D01*
X47008870Y-9504342D01*
X47037316Y-9512968D01*
X47079140Y-9531150D01*
X47077090Y-9541712D01*
X47086804Y-9565758D01*
X47133228Y-9593724D01*
X47189004Y-9613853D01*
X47210461Y-9612190D01*
X47232587Y-9612486D01*
X47285887Y-9636190D01*
X47286736Y-9636644D01*
X47399389Y-9677092D01*
X47577710Y-9711069D01*
X47698922Y-9726745D01*
X47820141Y-9730565D01*
X47981913Y-9722830D01*
X48151702Y-9705823D01*
X48275307Y-9686320D01*
X48367486Y-9664256D01*
X48418353Y-9644496D01*
X48421845Y-9640032D01*
X48451160Y-9622868D01*
X48457156Y-9622615D01*
X48510160Y-9610535D01*
X48586779Y-9580864D01*
X48666338Y-9543459D01*
X48728162Y-9508177D01*
X48751575Y-9484873D01*
X48750311Y-9482862D01*
X48757935Y-9467071D01*
X48768598Y-9466308D01*
X48807012Y-9450148D01*
X48843329Y-9413898D01*
X48861308Y-9375897D01*
X48859434Y-9363731D01*
X48880677Y-9349507D01*
X48889542Y-9349077D01*
X48911043Y-9334755D01*
X48904900Y-9319769D01*
X48908261Y-9294720D01*
X48929221Y-9290461D01*
X48952041Y-9272677D01*
X48965290Y-9225647D01*
X48969792Y-9158856D01*
X48966373Y-9081787D01*
X48955855Y-9003925D01*
X48939063Y-8934754D01*
X48916821Y-8883758D01*
X48891900Y-8860935D01*
X48854987Y-8840130D01*
X48859382Y-8830719D01*
X48856088Y-8808590D01*
X48819174Y-8780177D01*
X48772934Y-8748861D01*
X48761778Y-8733989D01*
X48742686Y-8715193D01*
X48683654Y-8681122D01*
X48604742Y-8641543D01*
X48526008Y-8606222D01*
X48467512Y-8584926D01*
X48451153Y-8582748D01*
X48423588Y-8574546D01*
X48421845Y-8567538D01*
X48399015Y-8554260D01*
X48385919Y-8556796D01*
X48333650Y-8553592D01*
X48288226Y-8537015D01*
X48240745Y-8518734D01*
X48226461Y-8521204D01*
X48205221Y-8523485D01*
X48182622Y-8514357D01*
X48116145Y-8500066D01*
X48088882Y-8502012D01*
X48027656Y-8498247D01*
X48013184Y-8490716D01*
X47959904Y-8476488D01*
X47864874Y-8469901D01*
X47855230Y-8469846D01*
X47758163Y-8475483D01*
X47699491Y-8489204D01*
X47697276Y-8490716D01*
X47643914Y-8503536D01*
X47616476Y-8501034D01*
X47541454Y-8500597D01*
X47440113Y-8513581D01*
X47353649Y-8533728D01*
X47328487Y-8544789D01*
X47283928Y-8564104D01*
X47203906Y-8591845D01*
X47199446Y-8593271D01*
X47131596Y-8621335D01*
X47110884Y-8643712D01*
X47112345Y-8645350D01*
X47103881Y-8668722D01*
X47080665Y-8678684D01*
X47007687Y-8713949D01*
X46936056Y-8768309D01*
X46889219Y-8823376D01*
X46885222Y-8831965D01*
X46856450Y-8883138D01*
X46836197Y-8909461D01*
X46808296Y-8964852D01*
X46797572Y-9040761D01*
X45894407Y-9040761D01*
X45894798Y-9021011D01*
X45900911Y-8941662D01*
X45911407Y-8881157D01*
X45926312Y-8849138D01*
X45927817Y-8848018D01*
X45956264Y-8817348D01*
X45956743Y-8808941D01*
X45960256Y-8777577D01*
X45976038Y-8748269D01*
X45998145Y-8721514D01*
X46031576Y-8689250D01*
X46060583Y-8649148D01*
X46057192Y-8625750D01*
X46062379Y-8608066D01*
X46077230Y-8606615D01*
X46102712Y-8594713D01*
X46096768Y-8587077D01*
X46098367Y-8569040D01*
X46111367Y-8567538D01*
X46151763Y-8551262D01*
X46177975Y-8523652D01*
X46227324Y-8476811D01*
X46268532Y-8453818D01*
X46305952Y-8436278D01*
X46280948Y-8438806D01*
X46272615Y-8440578D01*
X46256205Y-8438956D01*
X46293682Y-8418171D01*
X46301922Y-8414472D01*
X46364796Y-8381188D01*
X46389845Y-8357396D01*
X46416497Y-8332449D01*
X46474716Y-8301913D01*
X46529781Y-8281394D01*
X46534866Y-8290280D01*
X46531522Y-8294000D01*
X46530217Y-8302027D01*
X46565225Y-8281640D01*
X46568648Y-8279346D01*
X46632946Y-8246922D01*
X46683508Y-8235384D01*
X46739032Y-8219619D01*
X46756619Y-8204838D01*
X46795339Y-8184635D01*
X46819415Y-8186453D01*
X46855564Y-8184389D01*
X46858768Y-8176769D01*
X46882572Y-8164028D01*
X46897845Y-8167000D01*
X46933406Y-8163940D01*
X46936922Y-8155127D01*
X46949695Y-8139604D01*
X46958303Y-8141869D01*
X47003788Y-8142055D01*
X47101245Y-8131955D01*
X47215784Y-8115818D01*
X47528081Y-8084946D01*
X47857025Y-8083519D01*
X48149560Y-8109108D01*
X48280574Y-8126556D01*
X48388812Y-8139285D01*
X48433080Y-8143301D01*
X48510262Y-8160104D01*
X48534685Y-8173183D01*
X48597542Y-8199168D01*
X48623356Y-8203082D01*
X48687496Y-8218382D01*
X48773762Y-8250894D01*
X48792636Y-8259353D01*
X48872081Y-8289970D01*
X48930783Y-8301722D01*
X48940077Y-8300607D01*
X48950417Y-8278639D01*
X48958891Y-8223644D01*
X48965072Y-8141664D01*
X48968535Y-8038743D01*
X48968857Y-7920923D01*
X48968509Y-7896230D01*
X48966642Y-7773563D01*
X48965334Y-7662143D01*
X48964630Y-7568673D01*
X48964579Y-7499856D01*
X48965230Y-7462396D01*
X48965392Y-7459879D01*
X48970708Y-7441618D01*
X48991907Y-7429204D01*
X49042223Y-7421242D01*
X49134892Y-7416335D01*
X49283146Y-7413084D01*
X49428076Y-7411033D01*
X49887230Y-7405000D01*
X49876928Y-8738500D01*
G37*
G36*
X52507606Y-8087665D02*
G01*
X52826191Y-8115033D01*
X53089301Y-8166448D01*
X53159922Y-8187573D01*
X53246885Y-8214261D01*
X53299404Y-8226494D01*
X53306461Y-8225686D01*
X53328595Y-8230989D01*
X53386601Y-8259653D01*
X53467880Y-8304383D01*
X53559834Y-8357885D01*
X53649867Y-8412864D01*
X53725380Y-8462026D01*
X53766906Y-8492294D01*
X53882791Y-8604305D01*
X53963985Y-8728254D01*
X54015079Y-8873089D01*
X54038502Y-9021808D01*
X54059650Y-9251384D01*
X52669362Y-9251384D01*
X52347614Y-9251782D01*
X52051227Y-9252913D01*
X51789117Y-9254684D01*
X51570201Y-9257002D01*
X51403394Y-9259776D01*
X51297612Y-9262911D01*
X51261852Y-9266038D01*
X51259768Y-9295071D01*
X51279298Y-9346722D01*
X51312574Y-9407418D01*
X51351733Y-9463585D01*
X51388908Y-9501652D01*
X51402778Y-9509224D01*
X51426043Y-9522535D01*
X51414781Y-9524624D01*
X51419338Y-9536174D01*
X51465623Y-9564706D01*
X51536318Y-9601601D01*
X51614105Y-9638239D01*
X51681666Y-9666002D01*
X51719476Y-9676278D01*
X51769759Y-9692250D01*
X51782004Y-9700399D01*
X51843202Y-9724083D01*
X51864526Y-9727041D01*
X51945499Y-9740835D01*
X51977845Y-9749581D01*
X52056541Y-9760439D01*
X52187035Y-9765411D01*
X52343981Y-9764868D01*
X52502033Y-9759185D01*
X52635846Y-9748734D01*
X52700768Y-9738943D01*
X52788517Y-9721114D01*
X52840849Y-9712274D01*
X52842041Y-9712175D01*
X52883690Y-9697524D01*
X52952042Y-9664169D01*
X53025952Y-9623664D01*
X53084278Y-9587565D01*
X53105997Y-9567922D01*
X53132961Y-9542796D01*
X53221265Y-9530033D01*
X53375451Y-9529360D01*
X53582288Y-9539367D01*
X53741545Y-9550397D01*
X53869610Y-9561105D01*
X53947944Y-9569851D01*
X53962732Y-9573007D01*
X53961699Y-9595897D01*
X53931706Y-9639044D01*
X53919672Y-9652291D01*
X53878460Y-9699112D01*
X53857941Y-9729576D01*
X53857390Y-9732900D01*
X53831696Y-9752570D01*
X53808029Y-9761372D01*
X53760283Y-9784291D01*
X53753869Y-9792864D01*
X53722730Y-9820499D01*
X53646447Y-9862003D01*
X53543837Y-9908788D01*
X53433721Y-9952269D01*
X53335768Y-9983635D01*
X53245389Y-10010945D01*
X53193831Y-10033272D01*
X53189230Y-10038519D01*
X53164762Y-10046022D01*
X53150153Y-10042692D01*
X53114202Y-10044889D01*
X53111076Y-10052461D01*
X53087272Y-10065203D01*
X53071999Y-10062231D01*
X53035732Y-10060948D01*
X53032895Y-10065962D01*
X52999174Y-10078617D01*
X52930098Y-10084746D01*
X52842800Y-10094791D01*
X52799544Y-10110200D01*
X52751771Y-10128918D01*
X52736264Y-10129333D01*
X52683100Y-10130243D01*
X52681230Y-10130642D01*
X52626094Y-10135120D01*
X52519708Y-10137836D01*
X52382713Y-10138892D01*
X52235752Y-10138386D01*
X52099467Y-10136417D01*
X51994500Y-10133086D01*
X51941494Y-10128492D01*
X51938768Y-10127063D01*
X51905570Y-10114706D01*
X51850845Y-10110959D01*
X51734348Y-10110070D01*
X51674999Y-10109526D01*
X51606331Y-10101492D01*
X51587076Y-10089171D01*
X51562992Y-10078635D01*
X51547999Y-10081769D01*
X51511960Y-10080568D01*
X51508922Y-10073766D01*
X51479912Y-10062638D01*
X51443896Y-10066164D01*
X51399753Y-10068867D01*
X51406849Y-10056005D01*
X51408521Y-10041108D01*
X51379225Y-10044039D01*
X51320679Y-10038178D01*
X51299318Y-10023038D01*
X51262448Y-10001389D01*
X51239754Y-10002265D01*
X51198438Y-9996940D01*
X51181139Y-9982726D01*
X51143295Y-9962311D01*
X51120390Y-9963847D01*
X51075921Y-9958269D01*
X51040793Y-9935972D01*
X50990151Y-9906826D01*
X50952686Y-9901233D01*
X50909840Y-9890488D01*
X50907877Y-9886384D01*
X50922768Y-9886384D01*
X50942307Y-9896154D01*
X50961845Y-9886384D01*
X50942307Y-9876615D01*
X50922768Y-9886384D01*
X50907877Y-9886384D01*
X50905006Y-9880384D01*
X50875174Y-9851399D01*
X50805893Y-9817455D01*
X50805538Y-9817318D01*
X50749903Y-9791794D01*
X50743746Y-9779284D01*
X50746922Y-9779058D01*
X50753825Y-9770518D01*
X50727384Y-9759798D01*
X50675957Y-9736262D01*
X50666847Y-9725905D01*
X50648109Y-9683987D01*
X50611818Y-9644184D01*
X50573826Y-9623132D01*
X50568443Y-9622615D01*
X50539739Y-9611197D01*
X50540776Y-9607961D01*
X50537224Y-9579122D01*
X50514499Y-9531320D01*
X50481218Y-9478016D01*
X50445998Y-9432672D01*
X50417457Y-9408750D01*
X50412575Y-9407692D01*
X50399038Y-9389476D01*
X50390776Y-9339904D01*
X50387304Y-9266591D01*
X50388139Y-9177152D01*
X50392796Y-9079203D01*
X50400791Y-8980357D01*
X50407906Y-8919935D01*
X51265498Y-8919935D01*
X52217595Y-8914698D01*
X53169691Y-8909461D01*
X53156269Y-8861968D01*
X53130053Y-8805956D01*
X53101113Y-8764275D01*
X53072397Y-8722477D01*
X53065689Y-8699423D01*
X53042660Y-8685253D01*
X53032922Y-8684769D01*
X52995188Y-8669812D01*
X52993845Y-8664572D01*
X52972011Y-8642926D01*
X52919012Y-8610171D01*
X52853609Y-8575921D01*
X52794559Y-8549790D01*
X52760622Y-8541391D01*
X52758141Y-8543774D01*
X52737918Y-8541465D01*
X52699526Y-8519842D01*
X52656764Y-8496486D01*
X52642153Y-8496572D01*
X52616673Y-8501342D01*
X52593307Y-8495721D01*
X52537306Y-8480424D01*
X52524922Y-8478227D01*
X52476788Y-8469577D01*
X52437530Y-8461285D01*
X52359362Y-8454624D01*
X52240498Y-8455122D01*
X52183530Y-8457807D01*
X52057681Y-8465015D01*
X51956357Y-8469870D01*
X51928999Y-8470779D01*
X51870926Y-8481273D01*
X51860615Y-8491752D01*
X51836531Y-8502288D01*
X51821538Y-8499154D01*
X51785977Y-8502213D01*
X51782461Y-8511026D01*
X51770554Y-8527023D01*
X51762657Y-8525072D01*
X51723701Y-8530336D01*
X51652239Y-8557928D01*
X51564677Y-8599700D01*
X51477421Y-8647500D01*
X51406875Y-8693181D01*
X51380831Y-8714752D01*
X51330915Y-8776678D01*
X51293759Y-8844664D01*
X51292868Y-8846989D01*
X51265498Y-8919935D01*
X50407906Y-8919935D01*
X50411640Y-8888230D01*
X50424859Y-8810437D01*
X50439964Y-8754593D01*
X50455740Y-8728731D01*
X50469097Y-8709192D01*
X50493013Y-8680853D01*
X50505596Y-8670115D01*
X50516340Y-8648553D01*
X50504998Y-8645393D01*
X50500744Y-8637242D01*
X50516981Y-8630739D01*
X50561014Y-8605702D01*
X50620421Y-8559623D01*
X50644390Y-8538231D01*
X50739634Y-8456727D01*
X50842685Y-8380410D01*
X50943329Y-8315574D01*
X51031351Y-8268511D01*
X51096538Y-8245516D01*
X51119409Y-8245542D01*
X51156043Y-8238661D01*
X51172398Y-8224265D01*
X51211248Y-8204189D01*
X51235384Y-8206077D01*
X51280318Y-8201959D01*
X51298370Y-8187889D01*
X51335122Y-8167107D01*
X51356709Y-8168265D01*
X51389871Y-8167232D01*
X51391691Y-8162542D01*
X51424833Y-8148181D01*
X51476098Y-8142829D01*
X51554070Y-8133755D01*
X51583560Y-8124017D01*
X51611714Y-8112740D01*
X51666500Y-8104132D01*
X51760509Y-8097308D01*
X51906333Y-8091380D01*
X52116564Y-8085461D01*
X52139043Y-8084899D01*
X52507606Y-8087665D01*
G37*
G36*
X56034618Y-8072444D02*
G01*
X56219337Y-8078536D01*
X56397565Y-8088486D01*
X56537132Y-8100592D01*
X56661567Y-8114071D01*
X56752010Y-8123621D01*
X56784307Y-8126777D01*
X56844124Y-8138810D01*
X56936956Y-8166240D01*
X57048408Y-8203678D01*
X57164085Y-8245733D01*
X57269594Y-8287014D01*
X57350539Y-8322132D01*
X57392526Y-8345695D01*
X57387376Y-8352615D01*
X57396139Y-8364977D01*
X57429778Y-8386808D01*
X57475753Y-8419566D01*
X57487565Y-8435747D01*
X57500946Y-8461817D01*
X57535096Y-8508027D01*
X57545860Y-8521172D01*
X57584182Y-8572753D01*
X57604118Y-8610765D01*
X57604922Y-8615638D01*
X57566454Y-8630412D01*
X57453464Y-8645332D01*
X57269577Y-8659949D01*
X57227939Y-8662592D01*
X56850956Y-8685757D01*
X56681828Y-8597501D01*
X56585221Y-8550251D01*
X56504393Y-8516296D01*
X56462888Y-8504199D01*
X56398520Y-8487787D01*
X56388695Y-8482448D01*
X56339764Y-8472361D01*
X56236127Y-8462521D01*
X56113103Y-8455659D01*
X55950769Y-8452519D01*
X55831223Y-8460353D01*
X55720996Y-8481576D01*
X55707638Y-8484924D01*
X55607463Y-8509354D01*
X55537441Y-8524388D01*
X55524076Y-8526366D01*
X55487790Y-8543115D01*
X55457046Y-8567871D01*
X55426697Y-8584827D01*
X55388663Y-8628228D01*
X55393380Y-8686778D01*
X55435102Y-8744980D01*
X55500825Y-8784746D01*
X55588938Y-8809801D01*
X55724882Y-8835333D01*
X55916443Y-8862471D01*
X56171410Y-8892342D01*
X56432615Y-8919600D01*
X56757754Y-8957907D01*
X57017876Y-9002132D01*
X57225892Y-9055233D01*
X57394713Y-9120168D01*
X57465160Y-9156155D01*
X57622223Y-9269011D01*
X57705157Y-9392388D01*
X57714508Y-9527674D01*
X57662146Y-9657939D01*
X57629458Y-9716516D01*
X57609760Y-9758773D01*
X57606869Y-9771647D01*
X57585117Y-9793019D01*
X57576886Y-9796277D01*
X57534052Y-9818118D01*
X57465918Y-9859501D01*
X57432142Y-9881500D01*
X57355576Y-9925186D01*
X57288481Y-9951399D01*
X57266904Y-9954769D01*
X57205885Y-9970536D01*
X57189207Y-9984077D01*
X57142675Y-10010020D01*
X57117065Y-10013384D01*
X57052780Y-10027090D01*
X57017292Y-10043581D01*
X56953230Y-10064090D01*
X56914815Y-10063733D01*
X56868545Y-10066068D01*
X56862461Y-10074703D01*
X56833986Y-10087244D01*
X56803845Y-10084473D01*
X56753498Y-10083777D01*
X56745230Y-10091538D01*
X56716537Y-10101762D01*
X56686615Y-10098604D01*
X56636494Y-10100072D01*
X56627999Y-10110303D01*
X56598180Y-10124528D01*
X56553134Y-10121368D01*
X56481214Y-10120191D01*
X56453580Y-10129461D01*
X56406257Y-10138979D01*
X56306354Y-10145119D01*
X56175314Y-10147958D01*
X56034578Y-10147576D01*
X55905586Y-10144052D01*
X55809780Y-10137467D01*
X55768601Y-10127899D01*
X55768307Y-10126925D01*
X55736305Y-10115621D01*
X55673009Y-10118800D01*
X55592625Y-10121305D01*
X55554527Y-10112002D01*
X55503613Y-10101294D01*
X55473978Y-10104251D01*
X55424627Y-10102435D01*
X55416615Y-10092312D01*
X55386576Y-10078246D01*
X55333567Y-10082546D01*
X55275373Y-10086609D01*
X55276981Y-10074317D01*
X55275616Y-10060942D01*
X55242798Y-10064545D01*
X55191405Y-10063708D01*
X55182153Y-10053399D01*
X55163513Y-10042692D01*
X56940615Y-10042692D01*
X56960153Y-10052461D01*
X56979691Y-10042692D01*
X56960153Y-10032923D01*
X56940615Y-10042692D01*
X55163513Y-10042692D01*
X55158459Y-10039789D01*
X55143076Y-10042692D01*
X55107515Y-10039633D01*
X55103999Y-10030820D01*
X55089044Y-10016491D01*
X55078555Y-10019594D01*
X55037887Y-10016801D01*
X54997504Y-9998427D01*
X54965673Y-9982308D01*
X54972622Y-9993846D01*
X54963570Y-9998701D01*
X54913230Y-9984478D01*
X54839097Y-9957853D01*
X54758664Y-9925501D01*
X54689424Y-9894097D01*
X54648871Y-9870317D01*
X54648856Y-9870304D01*
X54655800Y-9864967D01*
X54707256Y-9881868D01*
X54718580Y-9886384D01*
X54752009Y-9898250D01*
X54731530Y-9885512D01*
X54695574Y-9867520D01*
X54624324Y-9828576D01*
X54587603Y-9799960D01*
X54586230Y-9794251D01*
X54566571Y-9779631D01*
X54554616Y-9778923D01*
X54531360Y-9766934D01*
X54537554Y-9759246D01*
X54529556Y-9736740D01*
X54503251Y-9728322D01*
X54463121Y-9704643D01*
X54465878Y-9689383D01*
X54461263Y-9665322D01*
X54441566Y-9661692D01*
X54415709Y-9649561D01*
X54417055Y-9647754D01*
X55422914Y-9647754D01*
X55432421Y-9658673D01*
X55471768Y-9679649D01*
X55494388Y-9675346D01*
X55494768Y-9672614D01*
X55467013Y-9656088D01*
X55449654Y-9650057D01*
X55422914Y-9647754D01*
X54417055Y-9647754D01*
X54422853Y-9639969D01*
X54419765Y-9612520D01*
X54399283Y-9602665D01*
X54371059Y-9584635D01*
X54405851Y-9558604D01*
X54409163Y-9556934D01*
X54463297Y-9536379D01*
X54486233Y-9535168D01*
X54529586Y-9536046D01*
X54632354Y-9531537D01*
X54776812Y-9522539D01*
X54871885Y-9515678D01*
X55043072Y-9503112D01*
X55154058Y-9497075D01*
X55221882Y-9498142D01*
X55263585Y-9506886D01*
X55296205Y-9523883D01*
X55306210Y-9530315D01*
X55352229Y-9564823D01*
X55365403Y-9583067D01*
X55387358Y-9602178D01*
X55450189Y-9636551D01*
X55534017Y-9676871D01*
X55618959Y-9713822D01*
X55685134Y-9738088D01*
X55705917Y-9742628D01*
X55771439Y-9747093D01*
X55874022Y-9754267D01*
X55885538Y-9755080D01*
X56057575Y-9762996D01*
X56225225Y-9763593D01*
X56361207Y-9757173D01*
X56420621Y-9749181D01*
X56506583Y-9733473D01*
X56542269Y-9728694D01*
X56644070Y-9701087D01*
X56734302Y-9648083D01*
X56793808Y-9583181D01*
X56806899Y-9542245D01*
X56801466Y-9494143D01*
X56784172Y-9467928D01*
X56777592Y-9466308D01*
X56748854Y-9450434D01*
X56745230Y-9437000D01*
X56713770Y-9411371D01*
X56684308Y-9407692D01*
X56641607Y-9399818D01*
X56643151Y-9391703D01*
X56621500Y-9377365D01*
X56541593Y-9358140D01*
X56421873Y-9336637D01*
X56280785Y-9315466D01*
X56136775Y-9297235D01*
X56008287Y-9284556D01*
X55913767Y-9280036D01*
X55877046Y-9283316D01*
X55822555Y-9281392D01*
X55786631Y-9270419D01*
X55712594Y-9255463D01*
X55675874Y-9257441D01*
X55606600Y-9258175D01*
X55587453Y-9252893D01*
X55535450Y-9239143D01*
X55431890Y-9217499D01*
X55299384Y-9192681D01*
X55161062Y-9165904D01*
X55046791Y-9139950D01*
X54983691Y-9121261D01*
X54920152Y-9099744D01*
X54892259Y-9095077D01*
X54841816Y-9082552D01*
X54772133Y-9052579D01*
X54705174Y-9016561D01*
X54662906Y-8985899D01*
X54659228Y-8974114D01*
X54649348Y-8959349D01*
X54635076Y-8958308D01*
X54609593Y-8946406D01*
X54615538Y-8938769D01*
X54611143Y-8920794D01*
X54595999Y-8919231D01*
X54569614Y-8907688D01*
X54574792Y-8901042D01*
X54570643Y-8875760D01*
X54560861Y-8871602D01*
X54542448Y-8846916D01*
X54532202Y-8793879D01*
X54529474Y-8722966D01*
X54533618Y-8644656D01*
X54543987Y-8569423D01*
X54559935Y-8507744D01*
X54580815Y-8470096D01*
X54585891Y-8466148D01*
X54614663Y-8436529D01*
X54608686Y-8424087D01*
X54614379Y-8412618D01*
X54635076Y-8411231D01*
X54669286Y-8405005D01*
X54664800Y-8400041D01*
X54677301Y-8381410D01*
X54733608Y-8345804D01*
X54785287Y-8318888D01*
X54846455Y-8287270D01*
X54858756Y-8276936D01*
X54830461Y-8286116D01*
X54732768Y-8323308D01*
X54806375Y-8279807D01*
X54866848Y-8251290D01*
X54906722Y-8244569D01*
X54949323Y-8237869D01*
X55022645Y-8211023D01*
X55047099Y-8200147D01*
X55123535Y-8167952D01*
X55174397Y-8152453D01*
X55181214Y-8152294D01*
X55227223Y-8149576D01*
X55321429Y-8137639D01*
X55438359Y-8120307D01*
X55552537Y-8101402D01*
X55638489Y-8084750D01*
X55651076Y-8081769D01*
X55729530Y-8073615D01*
X55864363Y-8070655D01*
X56034618Y-8072444D01*
G37*
G36*
X58674656Y-7405485D02*
G01*
X58805987Y-7406989D01*
X58996462Y-7408433D01*
X59236575Y-7409763D01*
X59516821Y-7410928D01*
X59827696Y-7411874D01*
X60154691Y-7412541D01*
X61590768Y-7414769D01*
X61590768Y-7629692D01*
X61590768Y-7844615D01*
X61463768Y-7846187D01*
X61390338Y-7846828D01*
X61251024Y-7847797D01*
X61058095Y-7849020D01*
X60823818Y-7850421D01*
X60560459Y-7851923D01*
X60349314Y-7853081D01*
X60078863Y-7855073D01*
X59834431Y-7857894D01*
X59626829Y-7861336D01*
X59466868Y-7865191D01*
X59365362Y-7869252D01*
X59333314Y-7872597D01*
X59319806Y-7896034D01*
X59302110Y-7949961D01*
X59282073Y-8025907D01*
X59261542Y-8115400D01*
X59242366Y-8209971D01*
X59226392Y-8301149D01*
X59215466Y-8380462D01*
X59211570Y-8430769D01*
X59212741Y-8474511D01*
X59226311Y-8484123D01*
X59261858Y-8464528D01*
X59268616Y-8460077D01*
X59327823Y-8430130D01*
X59366491Y-8421000D01*
X59419205Y-8406481D01*
X59437563Y-8394908D01*
X59479632Y-8372664D01*
X59494753Y-8370485D01*
X59529461Y-8370525D01*
X59652815Y-8357270D01*
X59829454Y-8347288D01*
X60034715Y-8341013D01*
X60243934Y-8338876D01*
X60432450Y-8341310D01*
X60575600Y-8348745D01*
X60603606Y-8351708D01*
X60757951Y-8376985D01*
X60930541Y-8414593D01*
X61106628Y-8460107D01*
X61271464Y-8509101D01*
X61410303Y-8557148D01*
X61508396Y-8599823D01*
X61550995Y-8632699D01*
X61551691Y-8636254D01*
X61576172Y-8665552D01*
X61624132Y-8696740D01*
X61722331Y-8771669D01*
X61801078Y-8875349D01*
X61857492Y-8998344D01*
X61888695Y-9131217D01*
X61891807Y-9264532D01*
X61863951Y-9388851D01*
X61846996Y-9427231D01*
X61813269Y-9495684D01*
X61788255Y-9550526D01*
X61777748Y-9578654D01*
X61751151Y-9601423D01*
X61738257Y-9603077D01*
X61721015Y-9615240D01*
X61727538Y-9622615D01*
X61728426Y-9640705D01*
X61717232Y-9642154D01*
X61681324Y-9658134D01*
X61628210Y-9698855D01*
X61596887Y-9728141D01*
X61534752Y-9780951D01*
X61474403Y-9817516D01*
X61450714Y-9825696D01*
X61412521Y-9846446D01*
X61418483Y-9859958D01*
X61423349Y-9873536D01*
X61403138Y-9869242D01*
X61353870Y-9874044D01*
X61295733Y-9904677D01*
X61295134Y-9905133D01*
X61239712Y-9936569D01*
X61196001Y-9943756D01*
X61195449Y-9943594D01*
X61154282Y-9948968D01*
X61137013Y-9963188D01*
X61100261Y-9983970D01*
X61078674Y-9982811D01*
X61046086Y-9986663D01*
X61043691Y-9993846D01*
X61020092Y-10006811D01*
X61006040Y-10004056D01*
X60953765Y-10007489D01*
X60896136Y-10028547D01*
X60825841Y-10053077D01*
X60777480Y-10056939D01*
X60734956Y-10062200D01*
X60731076Y-10069758D01*
X60702564Y-10081904D01*
X60672461Y-10079065D01*
X60622322Y-10080946D01*
X60613845Y-10091727D01*
X60583248Y-10107362D01*
X60535691Y-10105415D01*
X60473470Y-10105209D01*
X60457538Y-10115185D01*
X60426538Y-10127047D01*
X60379423Y-10124959D01*
X60308363Y-10122851D01*
X60283017Y-10129543D01*
X60239106Y-10136249D01*
X60140051Y-10140915D01*
X60006221Y-10143536D01*
X59857983Y-10144111D01*
X59715705Y-10142635D01*
X59599755Y-10139106D01*
X59530502Y-10133521D01*
X59519691Y-10129656D01*
X59488430Y-10121827D01*
X59441538Y-10124954D01*
X59377841Y-10124170D01*
X59363384Y-10112039D01*
X59333555Y-10097686D01*
X59285230Y-10101308D01*
X59222890Y-10103309D01*
X59207076Y-10093468D01*
X59178539Y-10081589D01*
X59148461Y-10084473D01*
X59098245Y-10083898D01*
X59089845Y-10074703D01*
X59061788Y-10061638D01*
X59036151Y-10063990D01*
X58977019Y-10058103D01*
X58927769Y-10042692D01*
X58972615Y-10042692D01*
X58992153Y-10052461D01*
X59011691Y-10042692D01*
X58992153Y-10032923D01*
X58972615Y-10042692D01*
X58927769Y-10042692D01*
X58891005Y-10031188D01*
X58871915Y-10023154D01*
X58894461Y-10023154D01*
X58913999Y-10032923D01*
X58933538Y-10023154D01*
X58913999Y-10013384D01*
X58894461Y-10023154D01*
X58871915Y-10023154D01*
X58853605Y-10015448D01*
X58770442Y-9981822D01*
X58710147Y-9965279D01*
X58696650Y-9965288D01*
X58658282Y-9957139D01*
X58604912Y-9925408D01*
X58603941Y-9924671D01*
X58545857Y-9893800D01*
X58496341Y-9888659D01*
X58495937Y-9888781D01*
X58470899Y-9890143D01*
X58479360Y-9880492D01*
X58469756Y-9855858D01*
X58408491Y-9826790D01*
X58407580Y-9826490D01*
X58343917Y-9799404D01*
X58327680Y-9779069D01*
X58327956Y-9778833D01*
X58314791Y-9760067D01*
X58286067Y-9751801D01*
X58245832Y-9732437D01*
X58249521Y-9720445D01*
X58247376Y-9702327D01*
X58233686Y-9700769D01*
X58210208Y-9686494D01*
X58216022Y-9671461D01*
X58213235Y-9646397D01*
X58192951Y-9642154D01*
X58164505Y-9631154D01*
X58169475Y-9624284D01*
X58162505Y-9602899D01*
X58149293Y-9599369D01*
X58125776Y-9578477D01*
X58133126Y-9541485D01*
X58162651Y-9505994D01*
X58203447Y-9489691D01*
X58266238Y-9486826D01*
X58377918Y-9482328D01*
X58464615Y-9479030D01*
X58617862Y-9471679D01*
X58764501Y-9462029D01*
X58822288Y-9457084D01*
X58919484Y-9450862D01*
X58968204Y-9460425D01*
X58990998Y-9484027D01*
X59028719Y-9516592D01*
X59059914Y-9524923D01*
X59083107Y-9533328D01*
X59076462Y-9538127D01*
X59080731Y-9559419D01*
X59126899Y-9591447D01*
X59192898Y-9622500D01*
X59256655Y-9640867D01*
X59272503Y-9642154D01*
X59319954Y-9654566D01*
X59324307Y-9662845D01*
X59348247Y-9674514D01*
X59363384Y-9671461D01*
X59399462Y-9672222D01*
X59402461Y-9678692D01*
X59438110Y-9695214D01*
X59531366Y-9710706D01*
X59661696Y-9723484D01*
X59808564Y-9731861D01*
X59951435Y-9734151D01*
X60040456Y-9731074D01*
X60208718Y-9713252D01*
X60360279Y-9685478D01*
X60471083Y-9652741D01*
X60505785Y-9634543D01*
X60531660Y-9624780D01*
X60535093Y-9630353D01*
X60556873Y-9629220D01*
X60608499Y-9607687D01*
X60670672Y-9575737D01*
X60724094Y-9543353D01*
X60749466Y-9520521D01*
X60749712Y-9519326D01*
X60779273Y-9496660D01*
X60802059Y-9488062D01*
X60852755Y-9456568D01*
X60867453Y-9435044D01*
X60881673Y-9404446D01*
X60887650Y-9397923D01*
X60903817Y-9380087D01*
X60919328Y-9333373D01*
X60931798Y-9267968D01*
X60938840Y-9194060D01*
X60939443Y-9176817D01*
X60932452Y-9092891D01*
X60906682Y-9046104D01*
X60890250Y-9037347D01*
X60858680Y-9012050D01*
X60865145Y-8999569D01*
X60862572Y-8980124D01*
X60844100Y-8977846D01*
X60814831Y-8970648D01*
X60820594Y-8965651D01*
X60812493Y-8945846D01*
X60758777Y-8915341D01*
X60758722Y-8915316D01*
X60715909Y-8893390D01*
X60726277Y-8890660D01*
X60731076Y-8891793D01*
X60756843Y-8892929D01*
X60723392Y-8868677D01*
X60715250Y-8863974D01*
X60648919Y-8830018D01*
X60619857Y-8823603D01*
X60634055Y-8845961D01*
X60630397Y-8850971D01*
X60588154Y-8830368D01*
X60582597Y-8827254D01*
X60521581Y-8800381D01*
X60481943Y-8796310D01*
X60481927Y-8796318D01*
X60459692Y-8793300D01*
X60457538Y-8784565D01*
X60436376Y-8769251D01*
X60421798Y-8771661D01*
X60379176Y-8768039D01*
X60371568Y-8760969D01*
X60326315Y-8744082D01*
X60241231Y-8734679D01*
X60131451Y-8726160D01*
X60055503Y-8714839D01*
X59951669Y-8707583D01*
X59789022Y-8716167D01*
X59579568Y-8739903D01*
X59552044Y-8743711D01*
X59445359Y-8768379D01*
X59318006Y-8811256D01*
X59226574Y-8849865D01*
X59116299Y-8898367D01*
X59034530Y-8922995D01*
X58958788Y-8929495D01*
X58920683Y-8928035D01*
X58820874Y-8922683D01*
X58673288Y-8915824D01*
X58508089Y-8908852D01*
X58491095Y-8908176D01*
X58185423Y-8896093D01*
X58207384Y-8824623D01*
X58220324Y-8773382D01*
X58237851Y-8691151D01*
X58258535Y-8585903D01*
X58280943Y-8465608D01*
X58303643Y-8338238D01*
X58325202Y-8211765D01*
X58344189Y-8094161D01*
X58359172Y-7993396D01*
X58365892Y-7942308D01*
X58381399Y-7831083D01*
X58400444Y-7719590D01*
X58421371Y-7615292D01*
X58442528Y-7525649D01*
X58462259Y-7458125D01*
X58478912Y-7420180D01*
X58482550Y-7416066D01*
X58534007Y-7404555D01*
X58611973Y-7403974D01*
X58674656Y-7405485D01*
G37*
G36*
X31123377Y-7412856D02*
G01*
X31413460Y-7414347D01*
X31632213Y-7415995D01*
X32006166Y-7419397D01*
X32311450Y-7422985D01*
X32557549Y-7427312D01*
X32753947Y-7432929D01*
X32910125Y-7440387D01*
X33035566Y-7450238D01*
X33139753Y-7463033D01*
X33232169Y-7479323D01*
X33322297Y-7499660D01*
X33396768Y-7518599D01*
X33496707Y-7542450D01*
X33566820Y-7555067D01*
X33581217Y-7555682D01*
X33619119Y-7567626D01*
X33651562Y-7591357D01*
X33700026Y-7616933D01*
X33736921Y-7617451D01*
X33761865Y-7616207D01*
X33754394Y-7624892D01*
X33765464Y-7648952D01*
X33823735Y-7684783D01*
X33855817Y-7699442D01*
X33931897Y-7735996D01*
X33971479Y-7763707D01*
X33973153Y-7769607D01*
X33992342Y-7785398D01*
X34002461Y-7786000D01*
X34037129Y-7801825D01*
X34041538Y-7815308D01*
X34059173Y-7841333D01*
X34074102Y-7844615D01*
X34107932Y-7860245D01*
X34112075Y-7869038D01*
X34124820Y-7898979D01*
X34153271Y-7954804D01*
X34191467Y-8024852D01*
X34194489Y-8030231D01*
X34245938Y-8138260D01*
X34270564Y-8239387D01*
X34267550Y-8343324D01*
X34236081Y-8459780D01*
X34175341Y-8598467D01*
X34141143Y-8665231D01*
X34122875Y-8697188D01*
X34118054Y-8704308D01*
X34115064Y-8728731D01*
X34089839Y-8742782D01*
X34078308Y-8743384D01*
X34054243Y-8755182D01*
X34059592Y-8761722D01*
X34050319Y-8784851D01*
X34019320Y-8797671D01*
X33962623Y-8820446D01*
X33950113Y-8831439D01*
X33920573Y-8854399D01*
X33853551Y-8891894D01*
X33766400Y-8935626D01*
X33676473Y-8977296D01*
X33601121Y-9008607D01*
X33557698Y-9021261D01*
X33554223Y-9020753D01*
X33535283Y-9025630D01*
X33533538Y-9034358D01*
X33510615Y-9049067D01*
X33494461Y-9046231D01*
X33458510Y-9048428D01*
X33455384Y-9056000D01*
X33432554Y-9069278D01*
X33419457Y-9066743D01*
X33366552Y-9069631D01*
X33326417Y-9084198D01*
X33270653Y-9102232D01*
X33245113Y-9100659D01*
X33223291Y-9104033D01*
X33220922Y-9113638D01*
X33190762Y-9130466D01*
X33142807Y-9128497D01*
X33069959Y-9127754D01*
X33042415Y-9136307D01*
X32995517Y-9145603D01*
X32983761Y-9143088D01*
X32921965Y-9141745D01*
X32898538Y-9146986D01*
X32845897Y-9151346D01*
X32727894Y-9154597D01*
X32557296Y-9156599D01*
X32346871Y-9157210D01*
X32109386Y-9156291D01*
X32076606Y-9156047D01*
X31303520Y-9149969D01*
X31306181Y-9596330D01*
X31306888Y-9725354D01*
X31307407Y-9841764D01*
X31307722Y-9939710D01*
X31307816Y-10013337D01*
X31307672Y-10056794D01*
X31307498Y-10065537D01*
X31271034Y-10075028D01*
X31175108Y-10082335D01*
X31038052Y-10087364D01*
X30878200Y-10090026D01*
X30713884Y-10090226D01*
X30563437Y-10087872D01*
X30445192Y-10082873D01*
X30377483Y-10075136D01*
X30368307Y-10070266D01*
X30347741Y-10057503D01*
X30338519Y-10059360D01*
X30333488Y-10041938D01*
X30328738Y-9988597D01*
X30324340Y-9902491D01*
X30320364Y-9786777D01*
X30316881Y-9644612D01*
X30313962Y-9479152D01*
X30311678Y-9293553D01*
X30310099Y-9090973D01*
X30309297Y-8874566D01*
X30309212Y-8751470D01*
X30309749Y-8528533D01*
X30311144Y-8317465D01*
X30313318Y-8121452D01*
X30316194Y-7943680D01*
X30318630Y-7834846D01*
X31303987Y-7834846D01*
X31307625Y-8295905D01*
X31311264Y-8756963D01*
X31904631Y-8753912D01*
X32123995Y-8751832D01*
X32326164Y-8748175D01*
X32493262Y-8743390D01*
X32607414Y-8737925D01*
X32634768Y-8735591D01*
X32728834Y-8720924D01*
X32781958Y-8704765D01*
X32784644Y-8702423D01*
X32821944Y-8693055D01*
X32833491Y-8695570D01*
X32866103Y-8691468D01*
X32869230Y-8682666D01*
X32881928Y-8667102D01*
X32890473Y-8669339D01*
X32925327Y-8662243D01*
X32993235Y-8634830D01*
X33075665Y-8596139D01*
X33154082Y-8555207D01*
X33209954Y-8521073D01*
X33225807Y-8505814D01*
X33244233Y-8467080D01*
X33276995Y-8426313D01*
X33298387Y-8381380D01*
X33307679Y-8317789D01*
X33305804Y-8247970D01*
X33293695Y-8184356D01*
X33272284Y-8139378D01*
X33254477Y-8126216D01*
X33237056Y-8103106D01*
X33242129Y-8097265D01*
X33234325Y-8080677D01*
X33216716Y-8079077D01*
X33185338Y-8072842D01*
X33189646Y-8068664D01*
X33177270Y-8050334D01*
X33121727Y-8016288D01*
X33041060Y-7975104D01*
X32953311Y-7935365D01*
X32876521Y-7905650D01*
X32828733Y-7894540D01*
X32824758Y-7895129D01*
X32793627Y-7890640D01*
X32791076Y-7882755D01*
X32762958Y-7868423D01*
X32734985Y-7870735D01*
X32677624Y-7868001D01*
X32663313Y-7858171D01*
X32631497Y-7848892D01*
X32545928Y-7842143D01*
X32400147Y-7837707D01*
X32187694Y-7835363D01*
X31975859Y-7834846D01*
X31303987Y-7834846D01*
X30318630Y-7834846D01*
X30319694Y-7787336D01*
X30323741Y-7655604D01*
X30328257Y-7551672D01*
X30333164Y-7478725D01*
X30338385Y-7439950D01*
X30341305Y-7434342D01*
X30357922Y-7422813D01*
X30354750Y-7419654D01*
X30387859Y-7416478D01*
X30490189Y-7414185D01*
X30652828Y-7412800D01*
X30866861Y-7412349D01*
X31123377Y-7412856D01*
G37*
G36*
X35692811Y-8733615D02*
G01*
X35691205Y-8958025D01*
X35689676Y-9170944D01*
X35688248Y-9369151D01*
X35686945Y-9549429D01*
X35685789Y-9708558D01*
X35684805Y-9843319D01*
X35684015Y-9950494D01*
X35683443Y-10026863D01*
X35683113Y-10069207D01*
X35683042Y-10076884D01*
X35646754Y-10083041D01*
X35549564Y-10086715D01*
X35408566Y-10087900D01*
X35240853Y-10086588D01*
X35063521Y-10082772D01*
X34910461Y-10077219D01*
X34743845Y-10069727D01*
X34746684Y-8795979D01*
X34747496Y-8575052D01*
X34748888Y-8364681D01*
X34750797Y-8168287D01*
X34753160Y-7989289D01*
X34755917Y-7831108D01*
X34759003Y-7697166D01*
X34762356Y-7590882D01*
X34765915Y-7515677D01*
X34769616Y-7474972D01*
X34770889Y-7469616D01*
X34792256Y-7417002D01*
X35247282Y-7411001D01*
X35702307Y-7405000D01*
X35692811Y-8733615D01*
G37*
G36*
X65889230Y-8271970D02*
G01*
X65889230Y-9129171D01*
X66113922Y-9129441D01*
X66301599Y-9129130D01*
X66425335Y-9131499D01*
X66499104Y-9142308D01*
X66536876Y-9167318D01*
X66552622Y-9212289D01*
X66560313Y-9282982D01*
X66563689Y-9314884D01*
X66570176Y-9416282D01*
X66562968Y-9486340D01*
X66542501Y-9521415D01*
X66489005Y-9535471D01*
X66380508Y-9541872D01*
X66206301Y-9541216D01*
X66192953Y-9540954D01*
X65885586Y-9534692D01*
X65891572Y-9808231D01*
X65897558Y-10081769D01*
X65466627Y-10087279D01*
X65242843Y-10088063D01*
X65092127Y-10083821D01*
X65016445Y-10074621D01*
X65009011Y-10071200D01*
X64999485Y-10044481D01*
X64992378Y-9986726D01*
X64988292Y-9905966D01*
X64987826Y-9810232D01*
X64988170Y-9792152D01*
X64994014Y-9534692D01*
X63660457Y-9534692D01*
X62326900Y-9534692D01*
X62320295Y-9353955D01*
X62320589Y-9275368D01*
X62326840Y-9214050D01*
X62337862Y-9178594D01*
X62345305Y-9173224D01*
X62359477Y-9160970D01*
X62352768Y-9153692D01*
X62355867Y-9135688D01*
X62370001Y-9134154D01*
X62409219Y-9118977D01*
X62410216Y-9115712D01*
X63388307Y-9115712D01*
X63415124Y-9123606D01*
X63498983Y-9129010D01*
X63644995Y-9132023D01*
X63858270Y-9132743D01*
X64143920Y-9131268D01*
X64179615Y-9130979D01*
X64970922Y-9124384D01*
X64969206Y-8557769D01*
X64968209Y-8376183D01*
X64966239Y-8230251D01*
X64963002Y-8116553D01*
X64958207Y-8031669D01*
X64951558Y-7972177D01*
X64942765Y-7934656D01*
X64931533Y-7915686D01*
X64917570Y-7911846D01*
X64913964Y-7912736D01*
X64884422Y-7932818D01*
X64835465Y-7975154D01*
X64814989Y-7994420D01*
X64762613Y-8042652D01*
X64724065Y-8074256D01*
X64716394Y-8079077D01*
X64669967Y-8108078D01*
X64615800Y-8150736D01*
X64570723Y-8192556D01*
X64551565Y-8219044D01*
X64551924Y-8220731D01*
X64533238Y-8235298D01*
X64529963Y-8235384D01*
X64492415Y-8250678D01*
X64438431Y-8288493D01*
X64426024Y-8298884D01*
X64358006Y-8355944D01*
X64258930Y-8435983D01*
X64124800Y-8542194D01*
X63951619Y-8677767D01*
X63948904Y-8679884D01*
X63885027Y-8732773D01*
X63847839Y-8769812D01*
X63844761Y-8782461D01*
X63839715Y-8792105D01*
X63796314Y-8811148D01*
X63748912Y-8832777D01*
X63747902Y-8840455D01*
X63742799Y-8853176D01*
X63695565Y-8883889D01*
X63679518Y-8892776D01*
X63615339Y-8934253D01*
X63584238Y-8967811D01*
X63583691Y-8970930D01*
X63559310Y-8995035D01*
X63542308Y-8997384D01*
X63518970Y-9009354D01*
X63525076Y-9016923D01*
X63520681Y-9034898D01*
X63505538Y-9036461D01*
X63478618Y-9047608D01*
X63483468Y-9053952D01*
X63473065Y-9074645D01*
X63446698Y-9082647D01*
X63395018Y-9104280D01*
X63388307Y-9115712D01*
X62410216Y-9115712D01*
X62411384Y-9111885D01*
X62438800Y-9082848D01*
X62479768Y-9061589D01*
X62515905Y-9043756D01*
X62489538Y-9046231D01*
X62463395Y-9048352D01*
X62499307Y-9030872D01*
X62553456Y-9003473D01*
X62567691Y-8989529D01*
X62591666Y-8967018D01*
X62644494Y-8934993D01*
X62694146Y-8900957D01*
X62703334Y-8879242D01*
X62717409Y-8861162D01*
X62746239Y-8853031D01*
X62786474Y-8833668D01*
X62782785Y-8821676D01*
X62782451Y-8803504D01*
X62794293Y-8802000D01*
X62830669Y-8786535D01*
X62891225Y-8746991D01*
X62962896Y-8693643D01*
X63032619Y-8636766D01*
X63087328Y-8586635D01*
X63113960Y-8553525D01*
X63114768Y-8549939D01*
X63143833Y-8529439D01*
X63156151Y-8528461D01*
X63180759Y-8516843D01*
X63175914Y-8510970D01*
X63186716Y-8490427D01*
X63215162Y-8481801D01*
X63255397Y-8462437D01*
X63251708Y-8450445D01*
X63250765Y-8432260D01*
X63262167Y-8430769D01*
X63302629Y-8415206D01*
X63351640Y-8377708D01*
X63352334Y-8377038D01*
X63398146Y-8336074D01*
X63429900Y-8313538D01*
X63467700Y-8290856D01*
X63525385Y-8250317D01*
X63589265Y-8202401D01*
X63645649Y-8157588D01*
X63680849Y-8126358D01*
X63685127Y-8118154D01*
X63695514Y-8105742D01*
X63745858Y-8075001D01*
X63762346Y-8065946D01*
X63834730Y-8018104D01*
X63879688Y-7972488D01*
X63881238Y-7969667D01*
X63921595Y-7930254D01*
X63960926Y-7914552D01*
X63998580Y-7895118D01*
X63994170Y-7883830D01*
X63997007Y-7865727D01*
X64011231Y-7864154D01*
X64047932Y-7848347D01*
X64052615Y-7834846D01*
X64074934Y-7808854D01*
X64093998Y-7805538D01*
X64117254Y-7793550D01*
X64111059Y-7785862D01*
X64119448Y-7763509D01*
X64147606Y-7754507D01*
X64189085Y-7736068D01*
X64186683Y-7725199D01*
X64197332Y-7704541D01*
X64225759Y-7695891D01*
X64268578Y-7678452D01*
X64267538Y-7668769D01*
X64280604Y-7649928D01*
X64309316Y-7641647D01*
X64350795Y-7623208D01*
X64348393Y-7612339D01*
X64359042Y-7591681D01*
X64387470Y-7583031D01*
X64428393Y-7564179D01*
X64425419Y-7552812D01*
X64436033Y-7528841D01*
X64472865Y-7502692D01*
X64482461Y-7502692D01*
X64501999Y-7512461D01*
X64521538Y-7502692D01*
X64501999Y-7492923D01*
X64482461Y-7502692D01*
X64472865Y-7502692D01*
X64489891Y-7490604D01*
X64519318Y-7474520D01*
X64636134Y-7414769D01*
X65262682Y-7414769D01*
X65889230Y-7414769D01*
X65889230Y-8271970D01*
G37*
G36*
X41274070Y-8953423D02*
G01*
X41275208Y-9133582D01*
X41277074Y-9305998D01*
X41279557Y-9465759D01*
X41282550Y-9607954D01*
X41285943Y-9727670D01*
X41289626Y-9819997D01*
X41293489Y-9880022D01*
X41294980Y-9893325D01*
X41298172Y-9975638D01*
X41281975Y-10030231D01*
X41267356Y-10044748D01*
X41222070Y-10057886D01*
X41130838Y-10066374D01*
X40982529Y-10070856D01*
X40797061Y-10072000D01*
X40625320Y-10071581D01*
X40486762Y-10070446D01*
X40397268Y-10068778D01*
X40371626Y-10067115D01*
X40371368Y-10047213D01*
X40370769Y-9991988D01*
X40369867Y-9905191D01*
X40368700Y-9790575D01*
X40367306Y-9651894D01*
X40365723Y-9492899D01*
X40363988Y-9317343D01*
X40362141Y-9128978D01*
X40361857Y-9099961D01*
X40352461Y-8137692D01*
X40811615Y-8137692D01*
X41270768Y-8137692D01*
X41274070Y-8953423D01*
G37*
G36*
X40892836Y-7366921D02*
G01*
X40997044Y-7373131D01*
X41032520Y-7377236D01*
X41094129Y-7395826D01*
X41177112Y-7431393D01*
X41195852Y-7440654D01*
X41260784Y-7479377D01*
X41291366Y-7519361D01*
X41297720Y-7576771D01*
X41296318Y-7601092D01*
X41282424Y-7671795D01*
X41245448Y-7721205D01*
X41174521Y-7765707D01*
X41091365Y-7802896D01*
X41022031Y-7823569D01*
X41007151Y-7825077D01*
X40970704Y-7834176D01*
X40974188Y-7841781D01*
X40956099Y-7852515D01*
X40878519Y-7856128D01*
X40758955Y-7852192D01*
X40703240Y-7848404D01*
X40576552Y-7832819D01*
X40458305Y-7808779D01*
X40366118Y-7781316D01*
X40317611Y-7755460D01*
X40321757Y-7739480D01*
X40315524Y-7728450D01*
X40298052Y-7727384D01*
X40267657Y-7716634D01*
X40272638Y-7709196D01*
X40267513Y-7684165D01*
X40254380Y-7678418D01*
X40230852Y-7654139D01*
X40223022Y-7611693D01*
X40229713Y-7567219D01*
X40249746Y-7536855D01*
X40265061Y-7532000D01*
X40280915Y-7519793D01*
X40274307Y-7512461D01*
X40280426Y-7494681D01*
X40298052Y-7492923D01*
X40328258Y-7486152D01*
X40323153Y-7481525D01*
X40331013Y-7462226D01*
X40377560Y-7432205D01*
X40438651Y-7403980D01*
X40490144Y-7390070D01*
X40498999Y-7390346D01*
X40527544Y-7380964D01*
X40528307Y-7376951D01*
X40563191Y-7369186D01*
X40651708Y-7364935D01*
X40769656Y-7364185D01*
X40892836Y-7366921D01*
G37*
G36*
X55995023Y-6089972D02*
G01*
X56038097Y-6105050D01*
X56065668Y-6145304D01*
X56080922Y-6203569D01*
X56094895Y-6264909D01*
X56114830Y-6296359D01*
X56151092Y-6307041D01*
X56198153Y-6306794D01*
X56350814Y-6308646D01*
X56444012Y-6328410D01*
X56471691Y-6360064D01*
X56461066Y-6383393D01*
X56416382Y-6394968D01*
X56318424Y-6398635D01*
X56278349Y-6398769D01*
X56085006Y-6398769D01*
X56073195Y-6501163D01*
X56059431Y-6565122D01*
X56032847Y-6598718D01*
X55992999Y-6610057D01*
X55953128Y-6608322D01*
X55932429Y-6587754D01*
X55925101Y-6539964D01*
X55924615Y-6511155D01*
X55924615Y-6405753D01*
X55719461Y-6401143D01*
X55558202Y-6391431D01*
X55469493Y-6374077D01*
X55453840Y-6353444D01*
X55511749Y-6333900D01*
X55643727Y-6319807D01*
X55709691Y-6316903D01*
X55905076Y-6310846D01*
X55916869Y-6197262D01*
X55927259Y-6132757D01*
X55945105Y-6099383D01*
X55976191Y-6089201D01*
X55995023Y-6089972D01*
G37*
G36*
X52388724Y-5246665D02*
G01*
X52401333Y-5273555D01*
X52406607Y-5325479D01*
X52407691Y-5409330D01*
X52407691Y-5413116D01*
X52407691Y-5596112D01*
X52730076Y-5601787D01*
X52888917Y-5605353D01*
X52985858Y-5610784D01*
X53037147Y-5620488D01*
X53059029Y-5636874D01*
X53064948Y-5651423D01*
X53065296Y-5677852D01*
X53034153Y-5690884D01*
X52952800Y-5695223D01*
X52889102Y-5695599D01*
X52738814Y-5698399D01*
X52592750Y-5705129D01*
X52555732Y-5707803D01*
X52410695Y-5719792D01*
X52399424Y-5876369D01*
X52391838Y-5955067D01*
X52379575Y-6003512D01*
X52357477Y-6030530D01*
X52320390Y-6044942D01*
X52298249Y-6049517D01*
X52235687Y-6056586D01*
X52232171Y-6046813D01*
X52234285Y-6028893D01*
X52224382Y-6027557D01*
X52210944Y-6009540D01*
X52202268Y-5961441D01*
X52199640Y-5892219D01*
X52200530Y-5861480D01*
X52208291Y-5695384D01*
X51919528Y-5695384D01*
X51735461Y-5691064D01*
X51625085Y-5678237D01*
X51589409Y-5657108D01*
X51615694Y-5634183D01*
X51671133Y-5623322D01*
X51781223Y-5612564D01*
X51922577Y-5604173D01*
X51928559Y-5603919D01*
X52203987Y-5592373D01*
X52204886Y-5439497D01*
X52207380Y-5353397D01*
X52216966Y-5298340D01*
X52238642Y-5266305D01*
X52277406Y-5249274D01*
X52328929Y-5240418D01*
X52365637Y-5237918D01*
X52388724Y-5246665D01*
G37*
G36*
X61728596Y-5309996D02*
G01*
X61743389Y-5352586D01*
X61747076Y-5425102D01*
X61747076Y-5539077D01*
X61981538Y-5539077D01*
X62112489Y-5540503D01*
X62183248Y-5546766D01*
X62211689Y-5560846D01*
X62215999Y-5578154D01*
X62207137Y-5602212D01*
X62170214Y-5615681D01*
X62089722Y-5620604D01*
X61950155Y-5619027D01*
X61913153Y-5618095D01*
X61747076Y-5613711D01*
X61747076Y-5732702D01*
X61741470Y-5804139D01*
X61723144Y-5842017D01*
X61694973Y-5851692D01*
X61628514Y-5843013D01*
X61616820Y-5838666D01*
X61602124Y-5813203D01*
X61592677Y-5762045D01*
X61590768Y-5722411D01*
X61590768Y-5619181D01*
X61366456Y-5613321D01*
X61232643Y-5607220D01*
X61159713Y-5595868D01*
X61130535Y-5576375D01*
X61129129Y-5573269D01*
X61131989Y-5554227D01*
X61169788Y-5543844D01*
X61258725Y-5539652D01*
X61353442Y-5539077D01*
X61590768Y-5539077D01*
X61590768Y-5423936D01*
X61598360Y-5349179D01*
X61622434Y-5308348D01*
X61645563Y-5298283D01*
X61697664Y-5293989D01*
X61728596Y-5309996D01*
G37*
G36*
X58599865Y-4933667D02*
G01*
X58628615Y-4936424D01*
X58845308Y-4979811D01*
X59036811Y-5054725D01*
X59189678Y-5154058D01*
X59290461Y-5270703D01*
X59301629Y-5292129D01*
X59307917Y-5337406D01*
X59297987Y-5397829D01*
X59276396Y-5461614D01*
X59247704Y-5516975D01*
X59216469Y-5552127D01*
X59198552Y-5558615D01*
X59174843Y-5570087D01*
X59176948Y-5573269D01*
X59158836Y-5592928D01*
X59102153Y-5627739D01*
X59027111Y-5667103D01*
X58953924Y-5700423D01*
X58902806Y-5717100D01*
X58902556Y-5717135D01*
X58850715Y-5726676D01*
X58760805Y-5744847D01*
X58749177Y-5747268D01*
X58581277Y-5767734D01*
X58383628Y-5770906D01*
X58196383Y-5756970D01*
X58122691Y-5744409D01*
X58039359Y-5729721D01*
X57996133Y-5728768D01*
X57994503Y-5730520D01*
X57977890Y-5727894D01*
X57953025Y-5709627D01*
X57906708Y-5686059D01*
X57878759Y-5685523D01*
X57831482Y-5681751D01*
X57816508Y-5673146D01*
X57812359Y-5659101D01*
X57843115Y-5664471D01*
X57852144Y-5662685D01*
X57810245Y-5641465D01*
X57780768Y-5628510D01*
X57714954Y-5597339D01*
X57691375Y-5579713D01*
X57695636Y-5578251D01*
X57697976Y-5567022D01*
X57665970Y-5547271D01*
X57625840Y-5515948D01*
X57626408Y-5498425D01*
X57624287Y-5481501D01*
X57613992Y-5480461D01*
X57596403Y-5462832D01*
X57589876Y-5416732D01*
X57594017Y-5352349D01*
X57608431Y-5279868D01*
X57623611Y-5231921D01*
X57664909Y-5175303D01*
X57736762Y-5116051D01*
X57753016Y-5105791D01*
X57805049Y-5071610D01*
X57815757Y-5057296D01*
X57804038Y-5059388D01*
X57767837Y-5065898D01*
X57777037Y-5053634D01*
X57837591Y-5032630D01*
X57859287Y-5031077D01*
X57922062Y-5015912D01*
X57953484Y-4996884D01*
X57985374Y-4976510D01*
X57994503Y-4979738D01*
X58019010Y-4984124D01*
X58048702Y-4974787D01*
X58145203Y-4951691D01*
X58289199Y-4935818D01*
X58450737Y-4929150D01*
X58599865Y-4933667D01*
G37*
G36*
X54860118Y-3502229D02*
G01*
X55033923Y-3513680D01*
X55197750Y-3530512D01*
X55334197Y-3550620D01*
X55425862Y-3571900D01*
X55455691Y-3590430D01*
X55479791Y-3598614D01*
X55492367Y-3595742D01*
X55538323Y-3600744D01*
X55569332Y-3619012D01*
X55601528Y-3640202D01*
X55610811Y-3637886D01*
X55636899Y-3641672D01*
X55703762Y-3667121D01*
X55786818Y-3704083D01*
X55875328Y-3749534D01*
X55930530Y-3785740D01*
X55940819Y-3802851D01*
X55948800Y-3818727D01*
X55961385Y-3819692D01*
X55998086Y-3835499D01*
X56002768Y-3849000D01*
X56025088Y-3874991D01*
X56044151Y-3878308D01*
X56067490Y-3890277D01*
X56061384Y-3897846D01*
X56067502Y-3915626D01*
X56085129Y-3917384D01*
X56115172Y-3924229D01*
X56109953Y-3928920D01*
X56107904Y-3952629D01*
X56129766Y-3998866D01*
X56144855Y-4021728D01*
X56166868Y-4072002D01*
X56182971Y-4146056D01*
X56192733Y-4233137D01*
X56195721Y-4322492D01*
X56191503Y-4403370D01*
X56179647Y-4465017D01*
X56163820Y-4493769D01*
X56139412Y-4528619D01*
X56129912Y-4551536D01*
X56097522Y-4590938D01*
X56070166Y-4604968D01*
X56043254Y-4618426D01*
X56051232Y-4620470D01*
X56058469Y-4626551D01*
X56034785Y-4646905D01*
X55974282Y-4685343D01*
X55871062Y-4745674D01*
X55758538Y-4809573D01*
X55668487Y-4858405D01*
X55602160Y-4890650D01*
X55572282Y-4900189D01*
X55571734Y-4899399D01*
X55555198Y-4901073D01*
X55530255Y-4919142D01*
X55482865Y-4942362D01*
X55453290Y-4942411D01*
X55419039Y-4945140D01*
X55416615Y-4951770D01*
X55395772Y-4969297D01*
X55387307Y-4969256D01*
X55325543Y-4971467D01*
X55241431Y-4982884D01*
X55169324Y-4997845D01*
X55143076Y-5009522D01*
X55107133Y-5016335D01*
X55011833Y-5022477D01*
X54875965Y-5026834D01*
X54840230Y-5027477D01*
X54680156Y-5031002D01*
X54539267Y-5035959D01*
X54445429Y-5041345D01*
X54438876Y-5041950D01*
X54347314Y-5041375D01*
X54295268Y-5029204D01*
X54223621Y-5011797D01*
X54149545Y-5006654D01*
X54074704Y-5000570D01*
X54048922Y-4988404D01*
X54024693Y-4979019D01*
X54009845Y-4982231D01*
X53973894Y-4980033D01*
X53970768Y-4972461D01*
X53946964Y-4959720D01*
X53931691Y-4962692D01*
X53895683Y-4961143D01*
X53892615Y-4954076D01*
X53867289Y-4937765D01*
X53856296Y-4938269D01*
X53806980Y-4928560D01*
X53755706Y-4904077D01*
X53718102Y-4885072D01*
X53718159Y-4894308D01*
X53714423Y-4900609D01*
X53672570Y-4880684D01*
X53652672Y-4869308D01*
X53556295Y-4817942D01*
X53448712Y-4767657D01*
X53443230Y-4765317D01*
X53384031Y-4737737D01*
X53373222Y-4726884D01*
X53384615Y-4728513D01*
X53399630Y-4727325D01*
X53360067Y-4707621D01*
X53349141Y-4703094D01*
X53286188Y-4669623D01*
X53286182Y-4669615D01*
X53306461Y-4669615D01*
X53325999Y-4679384D01*
X53345538Y-4669615D01*
X53325999Y-4659846D01*
X53306461Y-4669615D01*
X53286182Y-4669615D01*
X53254846Y-4630538D01*
X53267384Y-4630538D01*
X53286922Y-4640308D01*
X53306461Y-4630538D01*
X53286922Y-4620769D01*
X53267384Y-4630538D01*
X53254846Y-4630538D01*
X53250828Y-4625527D01*
X53233079Y-4557498D01*
X53231563Y-4546347D01*
X53207925Y-4529744D01*
X53191595Y-4532115D01*
X53159851Y-4526269D01*
X53151771Y-4508845D01*
X53140157Y-4365094D01*
X53134666Y-4255154D01*
X53135531Y-4173873D01*
X53142988Y-4116096D01*
X53157271Y-4076670D01*
X53172384Y-4056267D01*
X53214456Y-4004211D01*
X53235009Y-3966231D01*
X53269732Y-3920213D01*
X53296691Y-3901335D01*
X53339335Y-3864453D01*
X53345538Y-3847604D01*
X53368820Y-3822521D01*
X53386921Y-3819692D01*
X53412478Y-3808780D01*
X53408154Y-3803390D01*
X53423247Y-3782364D01*
X53482608Y-3743764D01*
X53562155Y-3701630D01*
X53651694Y-3660446D01*
X53714962Y-3636596D01*
X53737495Y-3634893D01*
X53753777Y-3636387D01*
X53778974Y-3619012D01*
X53826364Y-3595791D01*
X53855939Y-3595742D01*
X53890056Y-3592435D01*
X53892615Y-3585231D01*
X53916418Y-3572489D01*
X53931691Y-3575461D01*
X53967642Y-3573264D01*
X53970768Y-3565692D01*
X53994572Y-3552951D01*
X54009845Y-3555923D01*
X54045796Y-3553726D01*
X54048922Y-3546154D01*
X54072726Y-3533412D01*
X54087999Y-3536384D01*
X54124299Y-3537666D01*
X54127154Y-3532653D01*
X54165896Y-3517902D01*
X54281096Y-3507188D01*
X54471458Y-3500588D01*
X54693736Y-3498265D01*
X54860118Y-3502229D01*
G37*
G36*
X50245984Y-3990512D02*
G01*
X50272073Y-4013967D01*
X50285716Y-4063402D01*
X50289467Y-4093231D01*
X50300936Y-4200692D01*
X50497367Y-4203693D01*
X50638020Y-4208388D01*
X50707638Y-4218814D01*
X50713102Y-4237670D01*
X50661295Y-4267650D01*
X50660989Y-4267792D01*
X50590151Y-4291799D01*
X50539025Y-4284282D01*
X50536833Y-4283217D01*
X50499714Y-4271421D01*
X50492922Y-4283501D01*
X50459608Y-4298599D01*
X50388914Y-4302063D01*
X50321900Y-4303333D01*
X50291391Y-4320576D01*
X50282074Y-4364354D01*
X50281452Y-4376182D01*
X50268482Y-4431411D01*
X50231233Y-4456986D01*
X50209615Y-4460653D01*
X50150308Y-4458843D01*
X50137444Y-4451240D01*
X50136518Y-4422365D01*
X50139250Y-4372956D01*
X50139860Y-4365844D01*
X50138188Y-4319693D01*
X50110122Y-4300992D01*
X50038180Y-4298365D01*
X50036185Y-4298399D01*
X49900560Y-4293456D01*
X49790942Y-4276510D01*
X49727106Y-4251609D01*
X49719349Y-4233519D01*
X49743313Y-4215207D01*
X49808310Y-4207317D01*
X49931963Y-4207810D01*
X49939894Y-4208015D01*
X50148483Y-4213551D01*
X50135087Y-4097634D01*
X50130039Y-4033048D01*
X50137339Y-3998498D01*
X50162029Y-3985116D01*
X50199845Y-3983743D01*
X50245984Y-3990512D01*
G37*
G36*
X62183165Y-2794297D02*
G01*
X62212912Y-2815109D01*
X62232081Y-2866291D01*
X62242066Y-2951852D01*
X62242745Y-2965322D01*
X62252733Y-3061725D01*
X62272305Y-3155580D01*
X62298660Y-3239017D01*
X62328998Y-3304169D01*
X62360518Y-3343169D01*
X62379953Y-3350769D01*
X62399869Y-3362480D01*
X62395356Y-3367467D01*
X62406750Y-3390585D01*
X62461920Y-3425003D01*
X62471203Y-3429489D01*
X62535005Y-3455795D01*
X62566868Y-3461755D01*
X62567691Y-3460241D01*
X62589767Y-3459657D01*
X62623072Y-3473360D01*
X62687180Y-3491166D01*
X62797630Y-3510195D01*
X62928542Y-3527333D01*
X63054035Y-3539464D01*
X63148230Y-3543471D01*
X63179930Y-3540399D01*
X63236012Y-3542411D01*
X63304231Y-3564979D01*
X63352148Y-3596562D01*
X63356592Y-3603253D01*
X63344575Y-3612211D01*
X63329691Y-3604769D01*
X63310153Y-3614538D01*
X63327865Y-3623395D01*
X63229498Y-3635560D01*
X63212461Y-3636522D01*
X62918639Y-3658437D01*
X62688468Y-3693306D01*
X62514500Y-3745341D01*
X62389289Y-3818761D01*
X62305389Y-3917779D01*
X62255353Y-4046612D01*
X62233173Y-4190923D01*
X62226637Y-4268244D01*
X62221322Y-4330185D01*
X62218094Y-4366699D01*
X62217612Y-4371654D01*
X62183354Y-4383589D01*
X62137845Y-4386308D01*
X62080196Y-4376870D01*
X62060325Y-4342003D01*
X62059691Y-4328845D01*
X62047441Y-4283649D01*
X62019977Y-4259111D01*
X61998011Y-4235244D01*
X62003637Y-4227928D01*
X62015040Y-4198591D01*
X62014569Y-4147187D01*
X62004832Y-4084432D01*
X61988439Y-4021044D01*
X61967996Y-3967738D01*
X61946113Y-3935232D01*
X61931276Y-3930610D01*
X61906703Y-3928852D01*
X61915055Y-3910820D01*
X61917887Y-3883787D01*
X61899851Y-3878308D01*
X61877656Y-3866301D01*
X61883845Y-3858769D01*
X61879451Y-3840794D01*
X61864307Y-3839231D01*
X61836773Y-3828537D01*
X61841258Y-3822532D01*
X61829594Y-3798584D01*
X61767607Y-3763625D01*
X61672753Y-3726095D01*
X61590768Y-3701398D01*
X61504069Y-3685413D01*
X61368546Y-3667494D01*
X61212701Y-3651384D01*
X61204323Y-3650644D01*
X61062490Y-3637139D01*
X60953090Y-3624678D01*
X60896898Y-3615667D01*
X60894313Y-3614747D01*
X60892877Y-3594050D01*
X60955427Y-3572385D01*
X61068354Y-3553440D01*
X61150939Y-3545202D01*
X61403401Y-3521334D01*
X61600476Y-3491118D01*
X61749913Y-3449597D01*
X61859458Y-3391813D01*
X61936860Y-3312808D01*
X61989867Y-3207624D01*
X62026225Y-3071304D01*
X62042989Y-2974364D01*
X62059415Y-2883921D01*
X62078537Y-2826765D01*
X62104854Y-2797114D01*
X62142868Y-2789188D01*
X62183165Y-2794297D01*
G37*
G36*
X59075501Y-2675750D02*
G01*
X59092256Y-2676023D01*
X59291610Y-2685427D01*
X59478672Y-2705002D01*
X59634423Y-2731864D01*
X59739846Y-2763126D01*
X59766324Y-2778289D01*
X59811841Y-2795765D01*
X59832278Y-2793932D01*
X59875303Y-2800727D01*
X59933278Y-2831585D01*
X59937338Y-2834459D01*
X60012329Y-2884579D01*
X60076538Y-2922784D01*
X60118432Y-2950061D01*
X60119327Y-2960000D01*
X60122761Y-2972106D01*
X60164461Y-2999077D01*
X60206039Y-3027216D01*
X60204809Y-3038154D01*
X60197502Y-3050037D01*
X60212932Y-3062577D01*
X60240846Y-3101738D01*
X60256092Y-3168096D01*
X60258943Y-3250311D01*
X60249671Y-3337044D01*
X60228551Y-3416953D01*
X60203165Y-3468560D01*
X60156354Y-3518238D01*
X60079785Y-3578374D01*
X59985363Y-3641911D01*
X59884993Y-3701793D01*
X59790580Y-3750964D01*
X59714027Y-3782367D01*
X59667240Y-3788947D01*
X59664462Y-3787872D01*
X59639448Y-3789323D01*
X59636922Y-3798050D01*
X59613999Y-3812760D01*
X59597845Y-3809923D01*
X59561894Y-3812120D01*
X59558768Y-3819692D01*
X59535684Y-3832885D01*
X59522392Y-3830296D01*
X59472002Y-3832554D01*
X59462525Y-3838059D01*
X59411158Y-3849367D01*
X59385623Y-3846814D01*
X59322944Y-3849399D01*
X59306415Y-3857437D01*
X59274379Y-3871209D01*
X59213200Y-3875035D01*
X59105662Y-3868991D01*
X58992907Y-3858865D01*
X58881815Y-3851518D01*
X58799886Y-3851908D01*
X58787753Y-3853433D01*
X58743385Y-3849318D01*
X58738153Y-3840168D01*
X58714459Y-3826558D01*
X58699076Y-3829461D01*
X58663125Y-3827264D01*
X58659999Y-3819692D01*
X58636195Y-3806951D01*
X58620922Y-3809923D01*
X58584971Y-3807726D01*
X58581845Y-3800154D01*
X58558041Y-3787412D01*
X58542768Y-3790384D01*
X58506538Y-3791439D01*
X58503691Y-3786268D01*
X58475299Y-3766599D01*
X58401306Y-3731438D01*
X58310492Y-3693558D01*
X58213501Y-3651681D01*
X58151207Y-3617972D01*
X58137123Y-3600997D01*
X58124719Y-3581658D01*
X58096085Y-3573276D01*
X58054521Y-3554900D01*
X58056837Y-3544106D01*
X58049707Y-3527635D01*
X58037075Y-3526615D01*
X58002600Y-3516230D01*
X58002897Y-3511961D01*
X57998996Y-3486336D01*
X57981504Y-3434943D01*
X57960510Y-3383663D01*
X57930414Y-3251369D01*
X57941053Y-3168740D01*
X57956840Y-3108745D01*
X57964453Y-3065387D01*
X57963901Y-3052808D01*
X57985013Y-3038395D01*
X57991134Y-3038154D01*
X58024968Y-3021781D01*
X58055199Y-2984518D01*
X58067084Y-2947083D01*
X58095577Y-2927608D01*
X58119354Y-2918935D01*
X58165978Y-2895271D01*
X58171538Y-2886048D01*
X58208519Y-2851593D01*
X58317897Y-2806645D01*
X58497320Y-2752124D01*
X58552670Y-2737152D01*
X58692791Y-2702174D01*
X58803477Y-2682905D01*
X58919468Y-2675409D01*
X59075501Y-2675750D01*
G37*
G36*
X58464615Y-3770846D02*
G01*
X58445076Y-3780615D01*
X58425538Y-3770846D01*
X58445076Y-3761077D01*
X58464615Y-3770846D01*
G37*
G36*
X51795554Y-1637022D02*
G01*
X51821538Y-1660692D01*
X51842883Y-1686691D01*
X51861076Y-1690000D01*
X51882487Y-1707417D01*
X51879641Y-1754560D01*
X51876344Y-1765892D01*
X51869364Y-1836029D01*
X51880258Y-1930370D01*
X51905366Y-2035554D01*
X51941028Y-2138220D01*
X51983585Y-2225008D01*
X52013609Y-2267030D01*
X52121047Y-2353581D01*
X52277219Y-2420991D01*
X52489171Y-2471136D01*
X52763944Y-2505894D01*
X52963922Y-2520258D01*
X53122965Y-2535040D01*
X53208077Y-2555299D01*
X53221683Y-2578189D01*
X53166213Y-2600863D01*
X53044094Y-2620475D01*
X52867142Y-2633743D01*
X52702980Y-2645190D01*
X52541557Y-2662284D01*
X52456299Y-2674834D01*
X52343572Y-2701974D01*
X52228205Y-2740933D01*
X52126717Y-2784402D01*
X52055626Y-2825074D01*
X52031450Y-2855642D01*
X52035077Y-2861188D01*
X52030541Y-2879901D01*
X52012716Y-2881846D01*
X51984215Y-2889394D01*
X51990532Y-2894702D01*
X51992212Y-2918327D01*
X51975478Y-2932119D01*
X51952766Y-2962859D01*
X51928808Y-3022838D01*
X51905854Y-3102253D01*
X51886152Y-3191304D01*
X51871953Y-3280191D01*
X51865507Y-3359114D01*
X51866982Y-3404741D01*
X51859273Y-3468561D01*
X51826197Y-3514436D01*
X51776767Y-3535708D01*
X51719997Y-3525721D01*
X51710300Y-3520457D01*
X51687465Y-3489249D01*
X51666043Y-3429779D01*
X51649550Y-3352844D01*
X51645247Y-3320735D01*
X51624270Y-3184453D01*
X51594533Y-3065233D01*
X51558135Y-2968862D01*
X51517172Y-2901124D01*
X51482324Y-2871338D01*
X51447449Y-2848742D01*
X51451648Y-2842769D01*
X51442308Y-2830932D01*
X51388828Y-2800820D01*
X51346978Y-2780108D01*
X51263375Y-2743706D01*
X51201789Y-2723265D01*
X51186538Y-2721492D01*
X51158531Y-2710751D01*
X51157230Y-2704847D01*
X51133778Y-2692670D01*
X51121491Y-2695199D01*
X51078454Y-2692713D01*
X51072644Y-2687446D01*
X51030628Y-2675886D01*
X50932128Y-2661762D01*
X50798299Y-2646982D01*
X50650297Y-2633458D01*
X50509278Y-2623098D01*
X50396397Y-2617814D01*
X50332811Y-2619513D01*
X50329292Y-2620340D01*
X50304489Y-2614056D01*
X50304021Y-2586072D01*
X50320580Y-2559558D01*
X50364196Y-2543158D01*
X50453918Y-2532179D01*
X50550017Y-2525475D01*
X50734319Y-2510858D01*
X50907258Y-2491580D01*
X51052647Y-2470064D01*
X51154303Y-2448737D01*
X51196041Y-2430022D01*
X51196307Y-2428659D01*
X51210080Y-2414866D01*
X51218098Y-2417306D01*
X51257729Y-2413106D01*
X51324764Y-2388334D01*
X51397931Y-2352993D01*
X51455956Y-2317081D01*
X51476784Y-2295692D01*
X51509625Y-2261205D01*
X51525204Y-2253450D01*
X51549597Y-2226735D01*
X51560392Y-2179327D01*
X51560422Y-2175296D01*
X51571147Y-2126949D01*
X51598020Y-2097762D01*
X51600504Y-2096831D01*
X51618646Y-2072496D01*
X51634138Y-2017151D01*
X51645184Y-1938862D01*
X51649170Y-1878425D01*
X51654829Y-1791415D01*
X51663806Y-1718416D01*
X51674724Y-1668638D01*
X51683036Y-1652324D01*
X51736982Y-1633014D01*
X51795554Y-1637022D01*
G37*
G36*
X55727683Y-1805268D02*
G01*
X55785500Y-1814060D01*
X55903448Y-1831445D01*
X55986701Y-1841446D01*
X56013392Y-1842331D01*
X56044215Y-1851901D01*
X56111491Y-1882401D01*
X56199206Y-1925799D01*
X56291345Y-1974064D01*
X56371895Y-2019163D01*
X56400097Y-2036287D01*
X56440583Y-2070220D01*
X56442430Y-2088887D01*
X56450015Y-2099318D01*
X56467485Y-2100308D01*
X56497880Y-2111058D01*
X56492899Y-2118496D01*
X56495166Y-2143218D01*
X56504054Y-2147079D01*
X56526768Y-2172944D01*
X56540214Y-2225867D01*
X56544045Y-2294085D01*
X56537912Y-2365833D01*
X56521470Y-2429347D01*
X56512942Y-2447963D01*
X56489780Y-2498105D01*
X56481683Y-2530798D01*
X56482585Y-2534197D01*
X56461846Y-2554973D01*
X56413076Y-2577537D01*
X56363621Y-2599590D01*
X56360369Y-2607686D01*
X56352629Y-2620517D01*
X56303114Y-2652062D01*
X56274508Y-2667886D01*
X56199973Y-2704364D01*
X56147273Y-2724014D01*
X56138040Y-2725200D01*
X56097637Y-2737029D01*
X56059068Y-2758430D01*
X56017715Y-2779411D01*
X56004011Y-2776877D01*
X55979122Y-2773079D01*
X55944153Y-2784154D01*
X55896896Y-2797794D01*
X55885538Y-2793923D01*
X55861173Y-2790334D01*
X55836691Y-2797396D01*
X55770973Y-2807686D01*
X55655036Y-2815021D01*
X55516673Y-2818796D01*
X55383677Y-2818409D01*
X55283840Y-2813255D01*
X55260307Y-2809908D01*
X55179449Y-2793529D01*
X55103999Y-2778193D01*
X55021245Y-2764412D01*
X54976999Y-2761460D01*
X54948943Y-2749759D01*
X54947691Y-2743924D01*
X54924548Y-2731588D01*
X54912869Y-2733993D01*
X54869048Y-2727224D01*
X54799375Y-2698361D01*
X54722068Y-2657582D01*
X54655346Y-2615064D01*
X54654060Y-2613908D01*
X54680452Y-2613908D01*
X54689960Y-2624827D01*
X54729306Y-2645803D01*
X54751926Y-2641500D01*
X54752307Y-2638768D01*
X54724551Y-2622242D01*
X54707192Y-2616211D01*
X54680452Y-2613908D01*
X54654060Y-2613908D01*
X54617427Y-2580985D01*
X54616516Y-2568439D01*
X54616816Y-2550911D01*
X54606621Y-2549692D01*
X54578514Y-2538660D01*
X54559517Y-2502791D01*
X54548643Y-2437925D01*
X54544906Y-2339902D01*
X54545183Y-2290808D01*
X54547773Y-2191982D01*
X54553368Y-2125922D01*
X54563723Y-2086322D01*
X54580592Y-2066874D01*
X54605728Y-2061272D01*
X54609025Y-2061231D01*
X54629338Y-2052815D01*
X54623712Y-2049036D01*
X54631813Y-2029230D01*
X54685529Y-1998725D01*
X54685584Y-1998701D01*
X54728397Y-1976775D01*
X54718029Y-1974044D01*
X54713230Y-1975177D01*
X54687462Y-1976314D01*
X54720914Y-1952062D01*
X54729056Y-1947358D01*
X54798807Y-1916377D01*
X54851875Y-1904923D01*
X54906249Y-1889171D01*
X54923696Y-1874377D01*
X54962416Y-1854174D01*
X54986492Y-1855991D01*
X55022861Y-1856437D01*
X55025845Y-1850717D01*
X55057005Y-1833453D01*
X55074691Y-1831685D01*
X55137526Y-1826746D01*
X55248815Y-1815655D01*
X55346457Y-1805043D01*
X55490274Y-1791758D01*
X55602970Y-1791538D01*
X55727683Y-1805268D01*
G37*
G36*
X57550009Y63354D02*
G01*
X57570725Y38024D01*
X57596447Y-13030D01*
X57622645Y-77460D01*
X57644790Y-142915D01*
X57658352Y-197047D01*
X57658802Y-227508D01*
X57657366Y-229350D01*
X57650657Y-259606D01*
X57659895Y-317085D01*
X57681370Y-391188D01*
X57711372Y-471317D01*
X57746191Y-546875D01*
X57782117Y-607264D01*
X57795689Y-624484D01*
X57891866Y-709561D01*
X58018160Y-775058D01*
X58185706Y-824035D01*
X58405642Y-859553D01*
X58689102Y-884674D01*
X58757691Y-888912D01*
X58984855Y-905245D01*
X59135666Y-922989D01*
X59209827Y-941525D01*
X59207041Y-960236D01*
X59127014Y-978506D01*
X58969448Y-995716D01*
X58814220Y-1006720D01*
X58526713Y-1027511D01*
X58293800Y-1054298D01*
X58108901Y-1091241D01*
X57965437Y-1142501D01*
X57856830Y-1212236D01*
X57776502Y-1304607D01*
X57717873Y-1423775D01*
X57674366Y-1573899D01*
X57641117Y-1748554D01*
X57623696Y-1842665D01*
X57605062Y-1922409D01*
X57587354Y-1979803D01*
X57572712Y-2006868D01*
X57571683Y-2007512D01*
X57521676Y-2009242D01*
X57480462Y-1997804D01*
X57448779Y-1973920D01*
X57424805Y-1927211D01*
X57406354Y-1851856D01*
X57394236Y-1768154D01*
X57364122Y-1585209D01*
X57319749Y-1436769D01*
X57257606Y-1318635D01*
X57174181Y-1226604D01*
X57065959Y-1156476D01*
X56929430Y-1104051D01*
X56815198Y-1075651D01*
X56712495Y-1059438D01*
X56558382Y-1041281D01*
X56378994Y-1024105D01*
X56292165Y-1017112D01*
X56126120Y-1003087D01*
X55988659Y-988587D01*
X55898634Y-975751D01*
X55875330Y-969788D01*
X55851866Y-943166D01*
X55901097Y-922096D01*
X56024976Y-906037D01*
X56129698Y-898918D01*
X56427708Y-879050D01*
X56661144Y-854691D01*
X56843451Y-823675D01*
X56988072Y-783834D01*
X57083560Y-745145D01*
X57173477Y-697544D01*
X57245121Y-645093D01*
X57301174Y-582435D01*
X57344319Y-504208D01*
X57377237Y-405056D01*
X57402611Y-279617D01*
X57423121Y-122534D01*
X57430310Y-52279D01*
X57447844Y9133D01*
X57471476Y39154D01*
X57487691Y39154D01*
X57507230Y29385D01*
X57526768Y39154D01*
X57507230Y48923D01*
X57487691Y39154D01*
X57471476Y39154D01*
X57481810Y52281D01*
X57523971Y69209D01*
X57550009Y63354D01*
G37*
G36*
X60052718Y-1523916D02*
G01*
X60066606Y-1579169D01*
X60067367Y-1600449D01*
X60076649Y-1668173D01*
X60114647Y-1706961D01*
X60198507Y-1725733D01*
X60321524Y-1732707D01*
X60447106Y-1740479D01*
X60506912Y-1754987D01*
X60516153Y-1768154D01*
X60490874Y-1787565D01*
X60407455Y-1800540D01*
X60301230Y-1807231D01*
X60086307Y-1817000D01*
X60074495Y-1919577D01*
X60054402Y-1988674D01*
X60015214Y-2022035D01*
X59958655Y-2018540D01*
X59936512Y-2009128D01*
X59921160Y-1983388D01*
X59911801Y-1932870D01*
X59910461Y-1902688D01*
X59910461Y-1809273D01*
X59705307Y-1803367D01*
X59576419Y-1796259D01*
X59512716Y-1783036D01*
X59500153Y-1768154D01*
X59523936Y-1749056D01*
X59603664Y-1737661D01*
X59705307Y-1732940D01*
X59910461Y-1727035D01*
X59910461Y-1632756D01*
X59921342Y-1568304D01*
X59949948Y-1524587D01*
X59962902Y-1516716D01*
X60019142Y-1503893D01*
X60052718Y-1523916D01*
G37*
G36*
X53826047Y-751719D02*
G01*
X53864207Y-796452D01*
X53889821Y-864925D01*
X53896602Y-910450D01*
X53906591Y-1035461D01*
X54143834Y-1045231D01*
X54276573Y-1052393D01*
X54348602Y-1062360D01*
X54377347Y-1078721D01*
X54381076Y-1094077D01*
X54371833Y-1115850D01*
X54332502Y-1128619D01*
X54245683Y-1135583D01*
X54136845Y-1138971D01*
X54003571Y-1143105D01*
X53930238Y-1150325D01*
X53898670Y-1164953D01*
X53890694Y-1191311D01*
X53890363Y-1197586D01*
X53884821Y-1253765D01*
X53874270Y-1315044D01*
X53861518Y-1368501D01*
X53849369Y-1401217D01*
X53845179Y-1405647D01*
X53803005Y-1405121D01*
X53767414Y-1401836D01*
X53728137Y-1388764D01*
X53704418Y-1354943D01*
X53691247Y-1292149D01*
X53689260Y-1273548D01*
X53677691Y-1152692D01*
X53443230Y-1142923D01*
X53311409Y-1135692D01*
X53240225Y-1125566D01*
X53212175Y-1108899D01*
X53208768Y-1094077D01*
X53217914Y-1072401D01*
X53256900Y-1059646D01*
X53343047Y-1052659D01*
X53455684Y-1049148D01*
X53702600Y-1043296D01*
X53696715Y-931917D01*
X53693460Y-857695D01*
X53694857Y-812056D01*
X53703062Y-784526D01*
X53720230Y-764631D01*
X53733359Y-753870D01*
X53780658Y-735824D01*
X53826047Y-751719D01*
G37*
D10*
%TO.C,MCU1*%
X109110000Y77494500D02*
X109110000Y44474500D01*
X109110000Y44474500D02*
X126890000Y44474500D01*
X126890000Y44474500D02*
X126890000Y77494500D01*
X126890000Y77494500D02*
X109110000Y77494500D01*
X124350000Y74954500D02*
X124350000Y72414500D01*
X124350000Y74954500D02*
X126890000Y74954500D01*
X124350000Y72414500D02*
X126890000Y72414500D01*
D12*
%TO.C,D1*%
X250000Y-7557500D02*
X750000Y-7557500D01*
X250000Y-7957500D02*
X-350000Y-7557500D01*
X250000Y-7157500D02*
X250000Y-7957500D01*
X-350000Y-7557500D02*
X250000Y-7157500D01*
X-350000Y-7557500D02*
X-350000Y-8107500D01*
X-350000Y-7557500D02*
X-350000Y-7007500D01*
X-750000Y-7557500D02*
X-350000Y-7557500D01*
%TO.C,D2*%
X250000Y11442500D02*
X750000Y11442500D01*
X250000Y11042500D02*
X-350000Y11442500D01*
X250000Y11842500D02*
X250000Y11042500D01*
X-350000Y11442500D02*
X250000Y11842500D01*
X-350000Y11442500D02*
X-350000Y10892500D01*
X-350000Y11442500D02*
X-350000Y11992500D01*
X-750000Y11442500D02*
X-350000Y11442500D01*
%TO.C,D3*%
X250000Y30442500D02*
X750000Y30442500D01*
X250000Y30042500D02*
X-350000Y30442500D01*
X250000Y30842500D02*
X250000Y30042500D01*
X-350000Y30442500D02*
X250000Y30842500D01*
X-350000Y30442500D02*
X-350000Y29892500D01*
X-350000Y30442500D02*
X-350000Y30992500D01*
X-750000Y30442500D02*
X-350000Y30442500D01*
%TO.C,D4*%
X250000Y49442500D02*
X750000Y49442500D01*
X250000Y49042500D02*
X-350000Y49442500D01*
X250000Y49842500D02*
X250000Y49042500D01*
X-350000Y49442500D02*
X250000Y49842500D01*
X-350000Y49442500D02*
X-350000Y48892500D01*
X-350000Y49442500D02*
X-350000Y49992500D01*
X-750000Y49442500D02*
X-350000Y49442500D01*
%TO.C,D5*%
X19250000Y-3366500D02*
X19750000Y-3366500D01*
X19250000Y-3766500D02*
X18650000Y-3366500D01*
X19250000Y-2966500D02*
X19250000Y-3766500D01*
X18650000Y-3366500D02*
X19250000Y-2966500D01*
X18650000Y-3366500D02*
X18650000Y-3916500D01*
X18650000Y-3366500D02*
X18650000Y-2816500D01*
X18250000Y-3366500D02*
X18650000Y-3366500D01*
%TO.C,D6*%
X19250000Y15633500D02*
X19750000Y15633500D01*
X19250000Y15233500D02*
X18650000Y15633500D01*
X19250000Y16033500D02*
X19250000Y15233500D01*
X18650000Y15633500D02*
X19250000Y16033500D01*
X18650000Y15633500D02*
X18650000Y15083500D01*
X18650000Y15633500D02*
X18650000Y16183500D01*
X18250000Y15633500D02*
X18650000Y15633500D01*
%TO.C,D7*%
X19250000Y34633500D02*
X19750000Y34633500D01*
X19250000Y34233500D02*
X18650000Y34633500D01*
X19250000Y35033500D02*
X19250000Y34233500D01*
X18650000Y34633500D02*
X19250000Y35033500D01*
X18650000Y34633500D02*
X18650000Y34083500D01*
X18650000Y34633500D02*
X18650000Y35183500D01*
X18250000Y34633500D02*
X18650000Y34633500D01*
%TO.C,D8*%
X19250000Y53633500D02*
X19750000Y53633500D01*
X19250000Y53233500D02*
X18650000Y53633500D01*
X19250000Y54033500D02*
X19250000Y53233500D01*
X18650000Y53633500D02*
X19250000Y54033500D01*
X18650000Y53633500D02*
X18650000Y53083500D01*
X18650000Y53633500D02*
X18650000Y54183500D01*
X18250000Y53633500D02*
X18650000Y53633500D01*
%TO.C,D9*%
X38250000Y6158500D02*
X38750000Y6158500D01*
X38250000Y5758500D02*
X37650000Y6158500D01*
X38250000Y6558500D02*
X38250000Y5758500D01*
X37650000Y6158500D02*
X38250000Y6558500D01*
X37650000Y6158500D02*
X37650000Y5608500D01*
X37650000Y6158500D02*
X37650000Y6708500D01*
X37250000Y6158500D02*
X37650000Y6158500D01*
%TO.C,D10*%
X38250000Y25158500D02*
X38750000Y25158500D01*
X38250000Y24758500D02*
X37650000Y25158500D01*
X38250000Y25558500D02*
X38250000Y24758500D01*
X37650000Y25158500D02*
X38250000Y25558500D01*
X37650000Y25158500D02*
X37650000Y24608500D01*
X37650000Y25158500D02*
X37650000Y25708500D01*
X37250000Y25158500D02*
X37650000Y25158500D01*
%TO.C,D11*%
X38250000Y44158500D02*
X38750000Y44158500D01*
X38250000Y43758500D02*
X37650000Y44158500D01*
X38250000Y44558500D02*
X38250000Y43758500D01*
X37650000Y44158500D02*
X38250000Y44558500D01*
X37650000Y44158500D02*
X37650000Y43608500D01*
X37650000Y44158500D02*
X37650000Y44708500D01*
X37250000Y44158500D02*
X37650000Y44158500D01*
%TO.C,D12*%
X38250000Y63158500D02*
X38750000Y63158500D01*
X38250000Y62758500D02*
X37650000Y63158500D01*
X38250000Y63558500D02*
X38250000Y62758500D01*
X37650000Y63158500D02*
X38250000Y63558500D01*
X37650000Y63158500D02*
X37650000Y62608500D01*
X37650000Y63158500D02*
X37650000Y63708500D01*
X37250000Y63158500D02*
X37650000Y63158500D01*
%TO.C,D13*%
X57250000Y10921000D02*
X57750000Y10921000D01*
X57250000Y10521000D02*
X56650000Y10921000D01*
X57250000Y11321000D02*
X57250000Y10521000D01*
X56650000Y10921000D02*
X57250000Y11321000D01*
X56650000Y10921000D02*
X56650000Y10371000D01*
X56650000Y10921000D02*
X56650000Y11471000D01*
X56250000Y10921000D02*
X56650000Y10921000D01*
%TO.C,D14*%
X57250000Y29921000D02*
X57750000Y29921000D01*
X57250000Y29521000D02*
X56650000Y29921000D01*
X57250000Y30321000D02*
X57250000Y29521000D01*
X56650000Y29921000D02*
X57250000Y30321000D01*
X56650000Y29921000D02*
X56650000Y29371000D01*
X56650000Y29921000D02*
X56650000Y30471000D01*
X56250000Y29921000D02*
X56650000Y29921000D01*
%TO.C,D15*%
X57250000Y48921000D02*
X57750000Y48921000D01*
X57250000Y48521000D02*
X56650000Y48921000D01*
X57250000Y49321000D02*
X57250000Y48521000D01*
X56650000Y48921000D02*
X57250000Y49321000D01*
X56650000Y48921000D02*
X56650000Y48371000D01*
X56650000Y48921000D02*
X56650000Y49471000D01*
X56250000Y48921000D02*
X56650000Y48921000D01*
%TO.C,D16*%
X57250000Y67921000D02*
X57750000Y67921000D01*
X57250000Y67521000D02*
X56650000Y67921000D01*
X57250000Y68321000D02*
X57250000Y67521000D01*
X56650000Y67921000D02*
X57250000Y68321000D01*
X56650000Y67921000D02*
X56650000Y67371000D01*
X56650000Y67921000D02*
X56650000Y68471000D01*
X56250000Y67921000D02*
X56650000Y67921000D01*
%TO.C,D17*%
X76250000Y-128000D02*
X76750000Y-128000D01*
X76250000Y-528000D02*
X75650000Y-128000D01*
X76250000Y272000D02*
X76250000Y-528000D01*
X75650000Y-128000D02*
X76250000Y272000D01*
X75650000Y-128000D02*
X75650000Y-678000D01*
X75650000Y-128000D02*
X75650000Y422000D01*
X75250000Y-128000D02*
X75650000Y-128000D01*
%TO.C,D18*%
X76250000Y18872000D02*
X76750000Y18872000D01*
X76250000Y18472000D02*
X75650000Y18872000D01*
X76250000Y19272000D02*
X76250000Y18472000D01*
X75650000Y18872000D02*
X76250000Y19272000D01*
X75650000Y18872000D02*
X75650000Y18322000D01*
X75650000Y18872000D02*
X75650000Y19422000D01*
X75250000Y18872000D02*
X75650000Y18872000D01*
%TO.C,D19*%
X76250000Y37872000D02*
X76750000Y37872000D01*
X76250000Y37472000D02*
X75650000Y37872000D01*
X76250000Y38272000D02*
X76250000Y37472000D01*
X75650000Y37872000D02*
X76250000Y38272000D01*
X75650000Y37872000D02*
X75650000Y37322000D01*
X75650000Y37872000D02*
X75650000Y38422000D01*
X75250000Y37872000D02*
X75650000Y37872000D01*
%TO.C,D20*%
X76250000Y56872000D02*
X76750000Y56872000D01*
X76250000Y56472000D02*
X75650000Y56872000D01*
X76250000Y57272000D02*
X76250000Y56472000D01*
X75650000Y56872000D02*
X76250000Y57272000D01*
X75650000Y56872000D02*
X75650000Y56322000D01*
X75650000Y56872000D02*
X75650000Y57422000D01*
X75250000Y56872000D02*
X75650000Y56872000D01*
%TO.C,D21*%
X95250000Y-2985500D02*
X95750000Y-2985500D01*
X95250000Y-3385500D02*
X94650000Y-2985500D01*
X95250000Y-2585500D02*
X95250000Y-3385500D01*
X94650000Y-2985500D02*
X95250000Y-2585500D01*
X94650000Y-2985500D02*
X94650000Y-3535500D01*
X94650000Y-2985500D02*
X94650000Y-2435500D01*
X94250000Y-2985500D02*
X94650000Y-2985500D01*
%TO.C,D22*%
X95250000Y16014500D02*
X95750000Y16014500D01*
X95250000Y15614500D02*
X94650000Y16014500D01*
X95250000Y16414500D02*
X95250000Y15614500D01*
X94650000Y16014500D02*
X95250000Y16414500D01*
X94650000Y16014500D02*
X94650000Y15464500D01*
X94650000Y16014500D02*
X94650000Y16564500D01*
X94250000Y16014500D02*
X94650000Y16014500D01*
%TO.C,D23*%
X95250000Y35014500D02*
X95750000Y35014500D01*
X95250000Y34614500D02*
X94650000Y35014500D01*
X95250000Y35414500D02*
X95250000Y34614500D01*
X94650000Y35014500D02*
X95250000Y35414500D01*
X94650000Y35014500D02*
X94650000Y34464500D01*
X94650000Y35014500D02*
X94650000Y35564500D01*
X94250000Y35014500D02*
X94650000Y35014500D01*
%TO.C,D24*%
X95250000Y54014500D02*
X95750000Y54014500D01*
X95250000Y53614500D02*
X94650000Y54014500D01*
X95250000Y54414500D02*
X95250000Y53614500D01*
X94650000Y54014500D02*
X95250000Y54414500D01*
X94650000Y54014500D02*
X94650000Y53464500D01*
X94650000Y54014500D02*
X94650000Y54564500D01*
X94250000Y54014500D02*
X94650000Y54014500D01*
%TO.C,D25*%
X66100351Y-27745934D02*
X66596624Y-27806869D01*
X66051603Y-28142953D02*
X65504823Y-27672813D01*
X66149098Y-27348916D02*
X66051603Y-28142953D01*
X65504823Y-27672813D02*
X66149098Y-27348916D01*
X65504823Y-27672813D02*
X65437795Y-28218713D01*
X65504823Y-27672813D02*
X65571851Y-27126912D01*
X65107804Y-27624065D02*
X65504823Y-27672813D01*
%TO.C,D26*%
X84958728Y-30061451D02*
X85455001Y-30122386D01*
X84909980Y-30458470D02*
X84363200Y-29988330D01*
X85007475Y-29664433D02*
X84909980Y-30458470D01*
X84363200Y-29988330D02*
X85007475Y-29664433D01*
X84363200Y-29988330D02*
X84296172Y-30534230D01*
X84363200Y-29988330D02*
X84430228Y-29442429D01*
X83966181Y-29939582D02*
X84363200Y-29988330D01*
%TO.C,D27*%
X103817105Y-32376969D02*
X104313378Y-32437904D01*
X103768357Y-32773988D02*
X103221577Y-32303848D01*
X103865852Y-31979951D02*
X103768357Y-32773988D01*
X103221577Y-32303848D02*
X103865852Y-31979951D01*
X103221577Y-32303848D02*
X103154549Y-32849748D01*
X103221577Y-32303848D02*
X103288605Y-31757947D01*
X102824558Y-32255100D02*
X103221577Y-32303848D01*
D10*
%TO.C,B1*%
X124250000Y41464500D02*
X125750000Y39964500D01*
X121750000Y41464500D02*
X120250000Y39964500D01*
X121750000Y41464500D02*
X124250000Y41464500D01*
X125750000Y37464500D02*
X125750000Y39964500D01*
X120250000Y37464500D02*
X120250000Y39964500D01*
X124250000Y35964500D02*
X125750000Y37464500D01*
X121750000Y35964500D02*
X120250000Y37464500D01*
X121750000Y35964500D02*
X124250000Y35964500D01*
%TD*%
D13*
%TO.C,MCU1*%
X125620000Y73684500D03*
D14*
X125620000Y71144500D03*
X125620000Y68604500D03*
X125620000Y66064500D03*
X125620000Y63524500D03*
X125620000Y60984500D03*
X125620000Y58444500D03*
X125620000Y55904500D03*
X125620000Y53364500D03*
X125620000Y50824500D03*
X125620000Y48284500D03*
X125620000Y45744500D03*
X110380000Y73684500D03*
X110380000Y71144500D03*
X110380000Y68604500D03*
X110380000Y66064500D03*
X110380000Y63524500D03*
X110380000Y60984500D03*
X110380000Y58444500D03*
X110380000Y55904500D03*
X110380000Y53364500D03*
X110380000Y50824500D03*
X110380000Y48284500D03*
X110380000Y45744500D03*
%TD*%
M02*
