M48
; DRILL file {KiCad 9.0.1} date 2025-06-02T17:16:11+0200
; FORMAT={-:-/ absolute / metric / decimal}
; #@! TF.CreationDate,2025-06-02T17:16:11+02:00
; #@! TF.GenerationSoftware,Kicad,Pcbnew,9.0.1
; #@! TF.FileFunction,Plated,1,2,PTH
FMAT,2
METRIC
; #@! TA.AperFunction,Plated,PTH,ViaDrill
T1C0.400
; #@! TA.AperFunction,Plated,PTH,ComponentDrill
T2C0.900
; #@! TA.AperFunction,Plated,PTH,ComponentDrill
T3C0.991
; #@! TA.AperFunction,Plated,PTH,ComponentDrill
T4C1.092
; #@! TA.AperFunction,Plated,PTH,ComponentDrill
T5C1.499
%
G90
G05
T1
X105.5Y33.5
X107.5Y42.5
X108.453Y37.0
X110.5Y37.0
X127.5Y26.5
T3
X-3.81Y49.442
X-3.81Y30.442
X-3.81Y11.442
X-3.81Y-7.557
X3.81Y49.442
X3.81Y30.442
X3.81Y11.442
X3.81Y-7.557
X15.19Y53.633
X15.19Y34.633
X15.19Y15.633
X15.19Y-3.366
X22.81Y53.633
X22.81Y34.633
X22.81Y15.633
X22.81Y-3.366
X34.19Y63.158
X34.19Y44.158
X34.19Y25.159
X34.19Y6.159
X41.81Y63.158
X41.81Y44.158
X41.81Y25.159
X41.81Y6.159
X53.19Y67.921
X53.19Y48.921
X53.19Y29.921
X53.19Y10.921
X60.81Y67.921
X60.81Y48.921
X60.81Y29.921
X60.81Y10.921
X62.071Y-27.251
X69.634Y-28.18
X72.19Y56.872
X72.19Y37.872
X72.19Y18.872
X72.19Y-0.128
X79.81Y56.872
X79.81Y37.872
X79.81Y18.872
X79.81Y-0.128
X80.929Y-29.567
X88.492Y-30.495
X91.19Y54.014
X91.19Y35.014
X91.19Y16.014
X91.19Y-2.986
X98.81Y54.014
X98.81Y35.014
X98.81Y16.014
X98.81Y-2.986
X99.787Y-31.882
X107.351Y-32.811
T4
X110.38Y73.684
X110.38Y71.144
X110.38Y68.605
X110.38Y66.064
X110.38Y63.524
X110.38Y60.984
X110.38Y58.444
X110.38Y55.904
X110.38Y53.364
X110.38Y50.825
X110.38Y48.285
X110.38Y45.744
X125.62Y73.684
X125.62Y71.144
X125.62Y68.605
X125.62Y66.064
X125.62Y63.524
X125.62Y60.984
X125.62Y58.444
X125.62Y55.904
X125.62Y53.364
X125.62Y50.825
X125.62Y48.285
X125.62Y45.744
T5
X-3.81Y56.682
X-3.81Y37.682
X-3.81Y18.682
X-3.81Y-0.318
X2.54Y59.222
X2.54Y40.222
X2.54Y21.223
X2.54Y2.222
X15.19Y60.873
X15.19Y41.873
X15.19Y22.873
X15.19Y3.873
X21.54Y63.413
X21.54Y44.413
X21.54Y25.413
X21.54Y6.413
X34.19Y70.398
X34.19Y51.398
X34.19Y32.398
X34.19Y13.398
X40.54Y72.938
X40.54Y53.938
X40.54Y34.938
X40.54Y15.938
X53.19Y75.161
X53.19Y56.161
X53.19Y37.161
X53.19Y18.161
X59.54Y77.701
X59.54Y58.701
X59.54Y39.701
X59.54Y20.701
X62.953Y-20.065
X69.565Y-18.318
X72.19Y64.112
X72.19Y45.112
X72.19Y26.112
X72.19Y7.112
X78.54Y66.652
X78.54Y47.652
X78.54Y28.652
X78.54Y9.652
X81.811Y-22.381
X88.424Y-20.633
X91.19Y61.255
X91.19Y42.255
X91.19Y23.255
X91.19Y4.255
X97.54Y63.794
X97.54Y44.794
X97.54Y25.794
X97.54Y6.794
X100.67Y-24.696
X107.282Y-22.949
T2
G00X114.0Y33.314
M15
G01X113.4Y33.314
M16
G05
G00X115.1Y28.714
M15
G01X114.5Y28.714
M16
G05
G00X119.1Y28.714
M15
G01X118.5Y28.714
M16
G05
G00X122.1Y28.714
M15
G01X121.5Y28.714
M16
G05
M30
