M48
; DRILL file {KiCad 9.0.1} date 2025-06-02T17:16:11+0200
; FORMAT={-:-/ absolute / metric / decimal}
; #@! TF.CreationDate,2025-06-02T17:16:11+02:00
; #@! TF.GenerationSoftware,Kicad,Pcbnew,9.0.1
; #@! TF.FileFunction,NonPlated,1,2,NPTH
FMAT,2
METRIC
; #@! TA.AperFunction,NonPlated,NPTH,ComponentDrill
T1C1.500
; #@! TA.AperFunction,NonPlated,NPTH,ComponentDrill
T2C1.702
; #@! TA.AperFunction,NonPlated,NPTH,ComponentDrill
T3C3.988
%
G90
G05
T1
X116.4Y31.014
X123.4Y31.014
T2
X-5.08Y54.142
X-5.08Y35.142
X-5.08Y16.142
X-5.08Y-2.857
X5.08Y54.142
X5.08Y35.142
X5.08Y16.142
X5.08Y-2.857
X13.92Y58.334
X13.92Y39.334
X13.92Y20.334
X13.92Y1.333
X24.08Y58.334
X24.08Y39.334
X24.08Y20.334
X24.08Y1.333
X32.92Y67.858
X32.92Y48.858
X32.92Y29.858
X32.92Y10.858
X43.08Y67.858
X43.08Y48.858
X43.08Y29.858
X43.08Y10.858
X51.92Y72.621
X51.92Y53.621
X51.92Y34.621
X51.92Y15.621
X61.383Y-22.431
X62.08Y72.621
X62.08Y53.621
X62.08Y34.621
X62.08Y15.621
X70.92Y61.572
X70.92Y42.572
X70.92Y23.572
X70.92Y4.572
X71.467Y-23.67
X80.241Y-24.747
X81.08Y61.572
X81.08Y42.572
X81.08Y23.572
X81.08Y4.572
X89.92Y58.714
X89.92Y39.715
X89.92Y20.714
X89.92Y1.714
X90.326Y-25.985
X99.1Y-27.062
X100.08Y58.714
X100.08Y39.715
X100.08Y20.714
X100.08Y1.714
X109.184Y-28.301
T3
X0.0Y54.142
X0.0Y35.142
X0.0Y16.142
X0.0Y-2.857
X19.0Y58.334
X19.0Y39.334
X19.0Y20.334
X19.0Y1.333
X38.0Y67.858
X38.0Y48.858
X38.0Y29.858
X38.0Y10.858
X57.0Y72.621
X57.0Y53.621
X57.0Y34.621
X57.0Y15.621
X66.425Y-23.05
X76.0Y61.572
X76.0Y42.572
X76.0Y23.572
X76.0Y4.572
X85.283Y-25.366
X95.0Y58.714
X95.0Y39.715
X95.0Y20.714
X95.0Y1.714
X104.142Y-27.682
M30
