%TF.GenerationSoftware,KiCad,Pcbnew,9.0.1*%
%TF.CreationDate,2025-06-02T17:16:12+02:00*%
%TF.ProjectId,pleiades_l,706c6569-6164-4657-935f-6c2e6b696361,v1.0.0*%
%TF.SameCoordinates,Original*%
%TF.FileFunction,Paste,Bot*%
%TF.FilePolarity,Positive*%
%FSLAX46Y46*%
G04 Gerber Fmt 4.6, Leading zero omitted, Abs format (unit mm)*
G04 Created by KiCad (PCBNEW 9.0.1) date 2025-06-02 17:16:12*
%MOMM*%
%LPD*%
G01*
G04 APERTURE LIST*
G04 Aperture macros list*
%AMRotRect*
0 Rectangle, with rotation*
0 The origin of the aperture is its center*
0 $1 length*
0 $2 width*
0 $3 Rotation angle, in degrees counterclockwise*
0 Add horizontal line*
21,1,$1,$2,0,0,$3*%
G04 Aperture macros list end*
%ADD10R,0.900000X1.200000*%
%ADD11RotRect,0.900000X1.200000X353.000000*%
G04 APERTURE END LIST*
D10*
%TO.C,D1*%
X1650000Y-7557500D03*
X-1650000Y-7557500D03*
%TD*%
%TO.C,D2*%
X1650000Y11442500D03*
X-1650000Y11442500D03*
%TD*%
%TO.C,D3*%
X1650000Y30442500D03*
X-1650000Y30442500D03*
%TD*%
%TO.C,D4*%
X1650000Y49442500D03*
X-1650000Y49442500D03*
%TD*%
%TO.C,D5*%
X20650000Y-3366500D03*
X17350000Y-3366500D03*
%TD*%
%TO.C,D6*%
X20650000Y15633500D03*
X17350000Y15633500D03*
%TD*%
%TO.C,D7*%
X20650000Y34633500D03*
X17350000Y34633500D03*
%TD*%
%TO.C,D8*%
X20650000Y53633500D03*
X17350000Y53633500D03*
%TD*%
%TO.C,D9*%
X39650000Y6158500D03*
X36350000Y6158500D03*
%TD*%
%TO.C,D10*%
X39650000Y25158500D03*
X36350000Y25158500D03*
%TD*%
%TO.C,D11*%
X39650000Y44158500D03*
X36350000Y44158500D03*
%TD*%
%TO.C,D12*%
X39650000Y63158500D03*
X36350000Y63158500D03*
%TD*%
%TO.C,D13*%
X58650000Y10921000D03*
X55350000Y10921000D03*
%TD*%
%TO.C,D14*%
X58650000Y29921000D03*
X55350000Y29921000D03*
%TD*%
%TO.C,D15*%
X58650000Y48921000D03*
X55350000Y48921000D03*
%TD*%
%TO.C,D16*%
X58650000Y67921000D03*
X55350000Y67921000D03*
%TD*%
%TO.C,D17*%
X77650000Y-128000D03*
X74350000Y-128000D03*
%TD*%
%TO.C,D18*%
X77650000Y18872000D03*
X74350000Y18872000D03*
%TD*%
%TO.C,D19*%
X77650000Y37872000D03*
X74350000Y37872000D03*
%TD*%
%TO.C,D20*%
X77650000Y56872000D03*
X74350000Y56872000D03*
%TD*%
%TO.C,D21*%
X96650000Y-2985500D03*
X93350000Y-2985500D03*
%TD*%
%TO.C,D22*%
X96650000Y16014500D03*
X93350000Y16014500D03*
%TD*%
%TO.C,D23*%
X96650000Y35014500D03*
X93350000Y35014500D03*
%TD*%
%TO.C,D24*%
X96650000Y54014500D03*
X93350000Y54014500D03*
%TD*%
D11*
%TO.C,D25*%
X67489915Y-27916551D03*
X64214513Y-27514383D03*
%TD*%
%TO.C,D26*%
X86348292Y-30232068D03*
X83072890Y-29829900D03*
%TD*%
%TO.C,D27*%
X105206669Y-32547586D03*
X101931267Y-32145418D03*
%TD*%
M02*
