%TF.GenerationSoftware,KiCad,Pcbnew,9.0.1*%
%TF.CreationDate,2025-06-02T17:16:12+02:00*%
%TF.ProjectId,pleiades_l,706c6569-6164-4657-935f-6c2e6b696361,v1.0.0*%
%TF.SameCoordinates,Original*%
%TF.FileFunction,Legend,Bot*%
%TF.FilePolarity,Positive*%
%FSLAX46Y46*%
G04 Gerber Fmt 4.6, Leading zero omitted, Abs format (unit mm)*
G04 Created by KiCad (PCBNEW 9.0.1) date 2025-06-02 17:16:12*
%MOMM*%
%LPD*%
G01*
G04 APERTURE LIST*
%ADD10C,0.100000*%
%ADD11R,1.752600X1.752600*%
%ADD12C,1.752600*%
G04 APERTURE END LIST*
D10*
%TO.C,D1*%
X250000Y-7557500D02*
X750000Y-7557500D01*
X250000Y-7957500D02*
X-350000Y-7557500D01*
X250000Y-7157500D02*
X250000Y-7957500D01*
X-350000Y-7557500D02*
X250000Y-7157500D01*
X-350000Y-7557500D02*
X-350000Y-8107500D01*
X-350000Y-7557500D02*
X-350000Y-7007500D01*
X-750000Y-7557500D02*
X-350000Y-7557500D01*
%TO.C,D2*%
X250000Y11442500D02*
X750000Y11442500D01*
X250000Y11042500D02*
X-350000Y11442500D01*
X250000Y11842500D02*
X250000Y11042500D01*
X-350000Y11442500D02*
X250000Y11842500D01*
X-350000Y11442500D02*
X-350000Y10892500D01*
X-350000Y11442500D02*
X-350000Y11992500D01*
X-750000Y11442500D02*
X-350000Y11442500D01*
%TO.C,D3*%
X250000Y30442500D02*
X750000Y30442500D01*
X250000Y30042500D02*
X-350000Y30442500D01*
X250000Y30842500D02*
X250000Y30042500D01*
X-350000Y30442500D02*
X250000Y30842500D01*
X-350000Y30442500D02*
X-350000Y29892500D01*
X-350000Y30442500D02*
X-350000Y30992500D01*
X-750000Y30442500D02*
X-350000Y30442500D01*
%TO.C,D4*%
X250000Y49442500D02*
X750000Y49442500D01*
X250000Y49042500D02*
X-350000Y49442500D01*
X250000Y49842500D02*
X250000Y49042500D01*
X-350000Y49442500D02*
X250000Y49842500D01*
X-350000Y49442500D02*
X-350000Y48892500D01*
X-350000Y49442500D02*
X-350000Y49992500D01*
X-750000Y49442500D02*
X-350000Y49442500D01*
%TO.C,D5*%
X19250000Y-3366500D02*
X19750000Y-3366500D01*
X19250000Y-3766500D02*
X18650000Y-3366500D01*
X19250000Y-2966500D02*
X19250000Y-3766500D01*
X18650000Y-3366500D02*
X19250000Y-2966500D01*
X18650000Y-3366500D02*
X18650000Y-3916500D01*
X18650000Y-3366500D02*
X18650000Y-2816500D01*
X18250000Y-3366500D02*
X18650000Y-3366500D01*
%TO.C,D6*%
X19250000Y15633500D02*
X19750000Y15633500D01*
X19250000Y15233500D02*
X18650000Y15633500D01*
X19250000Y16033500D02*
X19250000Y15233500D01*
X18650000Y15633500D02*
X19250000Y16033500D01*
X18650000Y15633500D02*
X18650000Y15083500D01*
X18650000Y15633500D02*
X18650000Y16183500D01*
X18250000Y15633500D02*
X18650000Y15633500D01*
%TO.C,D7*%
X19250000Y34633500D02*
X19750000Y34633500D01*
X19250000Y34233500D02*
X18650000Y34633500D01*
X19250000Y35033500D02*
X19250000Y34233500D01*
X18650000Y34633500D02*
X19250000Y35033500D01*
X18650000Y34633500D02*
X18650000Y34083500D01*
X18650000Y34633500D02*
X18650000Y35183500D01*
X18250000Y34633500D02*
X18650000Y34633500D01*
%TO.C,D8*%
X19250000Y53633500D02*
X19750000Y53633500D01*
X19250000Y53233500D02*
X18650000Y53633500D01*
X19250000Y54033500D02*
X19250000Y53233500D01*
X18650000Y53633500D02*
X19250000Y54033500D01*
X18650000Y53633500D02*
X18650000Y53083500D01*
X18650000Y53633500D02*
X18650000Y54183500D01*
X18250000Y53633500D02*
X18650000Y53633500D01*
%TO.C,D9*%
X38250000Y6158500D02*
X38750000Y6158500D01*
X38250000Y5758500D02*
X37650000Y6158500D01*
X38250000Y6558500D02*
X38250000Y5758500D01*
X37650000Y6158500D02*
X38250000Y6558500D01*
X37650000Y6158500D02*
X37650000Y5608500D01*
X37650000Y6158500D02*
X37650000Y6708500D01*
X37250000Y6158500D02*
X37650000Y6158500D01*
%TO.C,D10*%
X38250000Y25158500D02*
X38750000Y25158500D01*
X38250000Y24758500D02*
X37650000Y25158500D01*
X38250000Y25558500D02*
X38250000Y24758500D01*
X37650000Y25158500D02*
X38250000Y25558500D01*
X37650000Y25158500D02*
X37650000Y24608500D01*
X37650000Y25158500D02*
X37650000Y25708500D01*
X37250000Y25158500D02*
X37650000Y25158500D01*
%TO.C,D11*%
X38250000Y44158500D02*
X38750000Y44158500D01*
X38250000Y43758500D02*
X37650000Y44158500D01*
X38250000Y44558500D02*
X38250000Y43758500D01*
X37650000Y44158500D02*
X38250000Y44558500D01*
X37650000Y44158500D02*
X37650000Y43608500D01*
X37650000Y44158500D02*
X37650000Y44708500D01*
X37250000Y44158500D02*
X37650000Y44158500D01*
%TO.C,D12*%
X38250000Y63158500D02*
X38750000Y63158500D01*
X38250000Y62758500D02*
X37650000Y63158500D01*
X38250000Y63558500D02*
X38250000Y62758500D01*
X37650000Y63158500D02*
X38250000Y63558500D01*
X37650000Y63158500D02*
X37650000Y62608500D01*
X37650000Y63158500D02*
X37650000Y63708500D01*
X37250000Y63158500D02*
X37650000Y63158500D01*
%TO.C,D13*%
X57250000Y10921000D02*
X57750000Y10921000D01*
X57250000Y10521000D02*
X56650000Y10921000D01*
X57250000Y11321000D02*
X57250000Y10521000D01*
X56650000Y10921000D02*
X57250000Y11321000D01*
X56650000Y10921000D02*
X56650000Y10371000D01*
X56650000Y10921000D02*
X56650000Y11471000D01*
X56250000Y10921000D02*
X56650000Y10921000D01*
%TO.C,D14*%
X57250000Y29921000D02*
X57750000Y29921000D01*
X57250000Y29521000D02*
X56650000Y29921000D01*
X57250000Y30321000D02*
X57250000Y29521000D01*
X56650000Y29921000D02*
X57250000Y30321000D01*
X56650000Y29921000D02*
X56650000Y29371000D01*
X56650000Y29921000D02*
X56650000Y30471000D01*
X56250000Y29921000D02*
X56650000Y29921000D01*
%TO.C,D15*%
X57250000Y48921000D02*
X57750000Y48921000D01*
X57250000Y48521000D02*
X56650000Y48921000D01*
X57250000Y49321000D02*
X57250000Y48521000D01*
X56650000Y48921000D02*
X57250000Y49321000D01*
X56650000Y48921000D02*
X56650000Y48371000D01*
X56650000Y48921000D02*
X56650000Y49471000D01*
X56250000Y48921000D02*
X56650000Y48921000D01*
%TO.C,D16*%
X57250000Y67921000D02*
X57750000Y67921000D01*
X57250000Y67521000D02*
X56650000Y67921000D01*
X57250000Y68321000D02*
X57250000Y67521000D01*
X56650000Y67921000D02*
X57250000Y68321000D01*
X56650000Y67921000D02*
X56650000Y67371000D01*
X56650000Y67921000D02*
X56650000Y68471000D01*
X56250000Y67921000D02*
X56650000Y67921000D01*
%TO.C,D17*%
X76250000Y-128000D02*
X76750000Y-128000D01*
X76250000Y-528000D02*
X75650000Y-128000D01*
X76250000Y272000D02*
X76250000Y-528000D01*
X75650000Y-128000D02*
X76250000Y272000D01*
X75650000Y-128000D02*
X75650000Y-678000D01*
X75650000Y-128000D02*
X75650000Y422000D01*
X75250000Y-128000D02*
X75650000Y-128000D01*
%TO.C,D18*%
X76250000Y18872000D02*
X76750000Y18872000D01*
X76250000Y18472000D02*
X75650000Y18872000D01*
X76250000Y19272000D02*
X76250000Y18472000D01*
X75650000Y18872000D02*
X76250000Y19272000D01*
X75650000Y18872000D02*
X75650000Y18322000D01*
X75650000Y18872000D02*
X75650000Y19422000D01*
X75250000Y18872000D02*
X75650000Y18872000D01*
%TO.C,D19*%
X76250000Y37872000D02*
X76750000Y37872000D01*
X76250000Y37472000D02*
X75650000Y37872000D01*
X76250000Y38272000D02*
X76250000Y37472000D01*
X75650000Y37872000D02*
X76250000Y38272000D01*
X75650000Y37872000D02*
X75650000Y37322000D01*
X75650000Y37872000D02*
X75650000Y38422000D01*
X75250000Y37872000D02*
X75650000Y37872000D01*
%TO.C,D20*%
X76250000Y56872000D02*
X76750000Y56872000D01*
X76250000Y56472000D02*
X75650000Y56872000D01*
X76250000Y57272000D02*
X76250000Y56472000D01*
X75650000Y56872000D02*
X76250000Y57272000D01*
X75650000Y56872000D02*
X75650000Y56322000D01*
X75650000Y56872000D02*
X75650000Y57422000D01*
X75250000Y56872000D02*
X75650000Y56872000D01*
%TO.C,D21*%
X95250000Y-2985500D02*
X95750000Y-2985500D01*
X95250000Y-3385500D02*
X94650000Y-2985500D01*
X95250000Y-2585500D02*
X95250000Y-3385500D01*
X94650000Y-2985500D02*
X95250000Y-2585500D01*
X94650000Y-2985500D02*
X94650000Y-3535500D01*
X94650000Y-2985500D02*
X94650000Y-2435500D01*
X94250000Y-2985500D02*
X94650000Y-2985500D01*
%TO.C,D22*%
X95250000Y16014500D02*
X95750000Y16014500D01*
X95250000Y15614500D02*
X94650000Y16014500D01*
X95250000Y16414500D02*
X95250000Y15614500D01*
X94650000Y16014500D02*
X95250000Y16414500D01*
X94650000Y16014500D02*
X94650000Y15464500D01*
X94650000Y16014500D02*
X94650000Y16564500D01*
X94250000Y16014500D02*
X94650000Y16014500D01*
%TO.C,D23*%
X95250000Y35014500D02*
X95750000Y35014500D01*
X95250000Y34614500D02*
X94650000Y35014500D01*
X95250000Y35414500D02*
X95250000Y34614500D01*
X94650000Y35014500D02*
X95250000Y35414500D01*
X94650000Y35014500D02*
X94650000Y34464500D01*
X94650000Y35014500D02*
X94650000Y35564500D01*
X94250000Y35014500D02*
X94650000Y35014500D01*
%TO.C,D24*%
X95250000Y54014500D02*
X95750000Y54014500D01*
X95250000Y53614500D02*
X94650000Y54014500D01*
X95250000Y54414500D02*
X95250000Y53614500D01*
X94650000Y54014500D02*
X95250000Y54414500D01*
X94650000Y54014500D02*
X94650000Y53464500D01*
X94650000Y54014500D02*
X94650000Y54564500D01*
X94250000Y54014500D02*
X94650000Y54014500D01*
%TO.C,D25*%
X66100351Y-27745934D02*
X66596624Y-27806869D01*
X66051603Y-28142953D02*
X65504823Y-27672813D01*
X66149098Y-27348916D02*
X66051603Y-28142953D01*
X65504823Y-27672813D02*
X66149098Y-27348916D01*
X65504823Y-27672813D02*
X65437795Y-28218713D01*
X65504823Y-27672813D02*
X65571851Y-27126912D01*
X65107804Y-27624065D02*
X65504823Y-27672813D01*
%TO.C,D26*%
X84958728Y-30061451D02*
X85455001Y-30122386D01*
X84909980Y-30458470D02*
X84363200Y-29988330D01*
X85007475Y-29664433D02*
X84909980Y-30458470D01*
X84363200Y-29988330D02*
X85007475Y-29664433D01*
X84363200Y-29988330D02*
X84296172Y-30534230D01*
X84363200Y-29988330D02*
X84430228Y-29442429D01*
X83966181Y-29939582D02*
X84363200Y-29988330D01*
%TO.C,D27*%
X103817105Y-32376969D02*
X104313378Y-32437904D01*
X103768357Y-32773988D02*
X103221577Y-32303848D01*
X103865852Y-31979951D02*
X103768357Y-32773988D01*
X103221577Y-32303848D02*
X103865852Y-31979951D01*
X103221577Y-32303848D02*
X103154549Y-32849748D01*
X103221577Y-32303848D02*
X103288605Y-31757947D01*
X102824558Y-32255100D02*
X103221577Y-32303848D01*
%TD*%
D11*
%TO.C,MCU1*%
X125620000Y73684500D03*
D12*
X125620000Y71144500D03*
X125620000Y68604500D03*
X125620000Y66064500D03*
X125620000Y63524500D03*
X125620000Y60984500D03*
X125620000Y58444500D03*
X125620000Y55904500D03*
X125620000Y53364500D03*
X125620000Y50824500D03*
X125620000Y48284500D03*
X125620000Y45744500D03*
X110380000Y73684500D03*
X110380000Y71144500D03*
X110380000Y68604500D03*
X110380000Y66064500D03*
X110380000Y63524500D03*
X110380000Y60984500D03*
X110380000Y58444500D03*
X110380000Y55904500D03*
X110380000Y53364500D03*
X110380000Y50824500D03*
X110380000Y48284500D03*
X110380000Y45744500D03*
%TD*%
M02*
