M48
; DRILL file {KiCad 9.0.1} date 2025-06-02T17:15:46+0200
; FORMAT={-:-/ absolute / metric / decimal}
; #@! TF.CreationDate,2025-06-02T17:15:46+02:00
; #@! TF.GenerationSoftware,Kicad,Pcbnew,9.0.1
; #@! TF.FileFunction,NonPlated,1,2,NPTH
FMAT,2
METRIC
; #@! TA.AperFunction,NonPlated,NPTH,ComponentDrill
T1C1.500
; #@! TA.AperFunction,NonPlated,NPTH,ComponentDrill
T2C1.702
; #@! TA.AperFunction,NonPlated,NPTH,ComponentDrill
T3C3.988
%
G90
G05
T1
X198.884Y26.415
X205.884Y26.415
T2
X213.1Y-28.301
X222.204Y58.714
X222.204Y39.715
X222.204Y20.714
X222.204Y1.714
X223.184Y-27.062
X231.958Y-25.985
X232.364Y58.714
X232.364Y39.715
X232.364Y20.714
X232.364Y1.714
X241.204Y61.572
X241.204Y42.572
X241.204Y23.572
X241.204Y4.572
X242.042Y-24.747
X250.816Y-23.67
X251.364Y61.572
X251.364Y42.572
X251.364Y23.572
X251.364Y4.572
X260.204Y72.621
X260.204Y53.621
X260.204Y34.621
X260.204Y15.621
X260.901Y-22.431
X270.364Y72.621
X270.364Y53.621
X270.364Y34.621
X270.364Y15.621
X279.204Y67.858
X279.204Y48.858
X279.204Y29.858
X279.204Y10.858
X289.364Y67.858
X289.364Y48.858
X289.364Y29.858
X289.364Y10.858
X298.204Y58.334
X298.204Y39.334
X298.204Y20.334
X298.204Y1.333
X308.364Y58.334
X308.364Y39.334
X308.364Y20.334
X308.364Y1.333
X317.204Y54.142
X317.204Y35.142
X317.204Y16.142
X317.204Y-2.857
X327.364Y54.142
X327.364Y35.142
X327.364Y16.142
X327.364Y-2.857
T3
X218.142Y-27.682
X227.284Y58.714
X227.284Y39.715
X227.284Y20.714
X227.284Y1.714
X237.0Y-25.366
X246.284Y61.572
X246.284Y42.572
X246.284Y23.572
X246.284Y4.572
X255.859Y-23.05
X265.284Y72.621
X265.284Y53.621
X265.284Y34.621
X265.284Y15.621
X284.284Y67.858
X284.284Y48.858
X284.284Y29.858
X284.284Y10.858
X303.284Y58.334
X303.284Y39.334
X303.284Y20.334
X303.284Y1.333
X322.284Y54.142
X322.284Y35.142
X322.284Y16.142
X322.284Y-2.857
M30
