%TF.GenerationSoftware,KiCad,Pcbnew,9.0.1*%
%TF.CreationDate,2025-06-02T17:15:55+02:00*%
%TF.ProjectId,pleiades_r,706c6569-6164-4657-935f-722e6b696361,v1.0.0*%
%TF.SameCoordinates,Original*%
%TF.FileFunction,Copper,L2,Bot*%
%TF.FilePolarity,Positive*%
%FSLAX46Y46*%
G04 Gerber Fmt 4.6, Leading zero omitted, Abs format (unit mm)*
G04 Created by KiCad (PCBNEW 9.0.1) date 2025-06-02 17:15:55*
%MOMM*%
%LPD*%
G01*
G04 APERTURE LIST*
G04 Aperture macros list*
%AMRotRect*
0 Rectangle, with rotation*
0 The origin of the aperture is its center*
0 $1 length*
0 $2 width*
0 $3 Rotation angle, in degrees counterclockwise*
0 Add horizontal line*
21,1,$1,$2,0,0,$3*%
G04 Aperture macros list end*
%TA.AperFunction,ComponentPad*%
%ADD10C,2.286000*%
%TD*%
%TA.AperFunction,ComponentPad*%
%ADD11R,1.752600X1.752600*%
%TD*%
%TA.AperFunction,ComponentPad*%
%ADD12C,1.752600*%
%TD*%
%TA.AperFunction,SMDPad,CuDef*%
%ADD13R,0.900000X1.200000*%
%TD*%
%TA.AperFunction,ComponentPad*%
%ADD14R,1.778000X1.778000*%
%TD*%
%TA.AperFunction,ComponentPad*%
%ADD15C,1.905000*%
%TD*%
%TA.AperFunction,SMDPad,CuDef*%
%ADD16RotRect,0.900000X1.200000X7.000000*%
%TD*%
%TA.AperFunction,ComponentPad*%
%ADD17RotRect,1.778000X1.778000X7.000000*%
%TD*%
%TA.AperFunction,ComponentPad*%
%ADD18O,2.200000X1.600000*%
%TD*%
%TA.AperFunction,ViaPad*%
%ADD19C,0.800000*%
%TD*%
%TA.AperFunction,Conductor*%
%ADD20C,0.250000*%
%TD*%
G04 APERTURE END LIST*
D10*
%TO.P,S1,1*%
%TO.N,P21*%
X324823508Y2222500D03*
%TO.P,S1,2*%
%TO.N,mirror_inner_bot*%
X318473508Y-317500D03*
%TD*%
%TO.P,S2,1*%
%TO.N,P21*%
X324823508Y21222500D03*
%TO.P,S2,2*%
%TO.N,mirror_inner_mid*%
X318473508Y18682500D03*
%TD*%
%TO.P,S3,1*%
%TO.N,P21*%
X324823508Y40222500D03*
%TO.P,S3,2*%
%TO.N,mirror_inner_top*%
X318473508Y37682500D03*
%TD*%
%TO.P,S4,1*%
%TO.N,P21*%
X324823508Y59222500D03*
%TO.P,S4,2*%
%TO.N,mirror_inner_num*%
X318473508Y56682500D03*
%TD*%
%TO.P,S5,1*%
%TO.N,P20*%
X305823508Y6413500D03*
%TO.P,S5,2*%
%TO.N,mirror_pinky_bot*%
X299473508Y3873500D03*
%TD*%
%TO.P,S6,1*%
%TO.N,P20*%
X305823508Y25413500D03*
%TO.P,S6,2*%
%TO.N,mirror_pinky_mid*%
X299473508Y22873500D03*
%TD*%
%TO.P,S7,1*%
%TO.N,P20*%
X305823508Y44413500D03*
%TO.P,S7,2*%
%TO.N,mirror_pinky_top*%
X299473508Y41873500D03*
%TD*%
%TO.P,S8,1*%
%TO.N,P20*%
X305823508Y63413500D03*
%TO.P,S8,2*%
%TO.N,mirror_pinky_num*%
X299473508Y60873500D03*
%TD*%
%TO.P,S9,1*%
%TO.N,P19*%
X286823508Y15938500D03*
%TO.P,S9,2*%
%TO.N,mirror_ring_bot*%
X280473508Y13398500D03*
%TD*%
%TO.P,S10,1*%
%TO.N,P19*%
X286823508Y34938500D03*
%TO.P,S10,2*%
%TO.N,mirror_ring_mid*%
X280473508Y32398500D03*
%TD*%
%TO.P,S11,1*%
%TO.N,P19*%
X286823508Y53938500D03*
%TO.P,S11,2*%
%TO.N,mirror_ring_top*%
X280473508Y51398500D03*
%TD*%
%TO.P,S12,1*%
%TO.N,P19*%
X286823508Y72938500D03*
%TO.P,S12,2*%
%TO.N,mirror_ring_num*%
X280473508Y70398500D03*
%TD*%
%TO.P,S13,1*%
%TO.N,P18*%
X267823508Y20701000D03*
%TO.P,S13,2*%
%TO.N,mirror_middle_bot*%
X261473508Y18161000D03*
%TD*%
%TO.P,S15,1*%
%TO.N,P18*%
X267823508Y58701000D03*
%TO.P,S15,2*%
%TO.N,mirror_middle_top*%
X261473508Y56161000D03*
%TD*%
%TO.P,S16,1*%
%TO.N,P18*%
X267823508Y77701000D03*
%TO.P,S16,2*%
%TO.N,mirror_middle_num*%
X261473508Y75161000D03*
%TD*%
%TO.P,S17,1*%
%TO.N,P15*%
X248823508Y9652000D03*
%TO.P,S17,2*%
%TO.N,mirror_point_bot*%
X242473508Y7112000D03*
%TD*%
%TO.P,S19,1*%
%TO.N,P15*%
X248823508Y47652000D03*
%TO.P,S19,2*%
%TO.N,mirror_point_top*%
X242473508Y45112000D03*
%TD*%
%TO.P,S20,1*%
%TO.N,P15*%
X248823508Y66652000D03*
%TO.P,S20,2*%
%TO.N,mirror_point_num*%
X242473508Y64112000D03*
%TD*%
%TO.P,S22,1*%
%TO.N,P14*%
X229823508Y25794500D03*
%TO.P,S22,2*%
%TO.N,mirror_pointfar_mid*%
X223473508Y23254500D03*
%TD*%
%TO.P,S23,1*%
%TO.N,P14*%
X229823508Y44794500D03*
%TO.P,S23,2*%
%TO.N,mirror_pointfar_top*%
X223473508Y42254500D03*
%TD*%
%TO.P,S24,1*%
%TO.N,P14*%
X229823508Y63794500D03*
%TO.P,S24,2*%
%TO.N,mirror_pointfar_num*%
X223473508Y61254500D03*
%TD*%
%TO.P,S25,1*%
%TO.N,P18*%
X257760479Y-17698817D03*
%TO.P,S25,2*%
%TO.N,mirror_alt_main*%
X251767359Y-20993755D03*
%TD*%
%TO.P,S26,1*%
%TO.N,P15*%
X238902102Y-20014334D03*
%TO.P,S26,2*%
%TO.N,mirror_mod_main*%
X232908982Y-23309272D03*
%TD*%
%TO.P,S27,1*%
%TO.N,P14*%
X220043725Y-22329852D03*
%TO.P,S27,2*%
%TO.N,mirror_space_main*%
X214050605Y-25624790D03*
%TD*%
D11*
%TO.P,MCU1,1*%
%TO.N,RAW*%
X211903508Y73684500D03*
D12*
%TO.P,MCU1,2*%
%TO.N,GND*%
X211903508Y71144500D03*
%TO.P,MCU1,3*%
%TO.N,RST*%
X211903508Y68604500D03*
%TO.P,MCU1,4*%
%TO.N,VCC*%
X211903508Y66064500D03*
%TO.P,MCU1,5*%
%TO.N,P21*%
X211903508Y63524500D03*
%TO.P,MCU1,6*%
%TO.N,P20*%
X211903508Y60984500D03*
%TO.P,MCU1,7*%
%TO.N,P19*%
X211903508Y58444500D03*
%TO.P,MCU1,8*%
%TO.N,P18*%
X211903508Y55904500D03*
%TO.P,MCU1,9*%
%TO.N,P15*%
X211903508Y53364500D03*
%TO.P,MCU1,10*%
%TO.N,P14*%
X211903508Y50824500D03*
%TO.P,MCU1,11*%
%TO.N,P16*%
X211903508Y48284500D03*
%TO.P,MCU1,12*%
%TO.N,P10*%
X211903508Y45744500D03*
%TO.P,MCU1,13*%
%TO.N,P1*%
X196663508Y73684500D03*
%TO.P,MCU1,14*%
%TO.N,P0*%
X196663508Y71144500D03*
%TO.P,MCU1,15*%
%TO.N,GND*%
X196663508Y68604500D03*
%TO.P,MCU1,16*%
X196663508Y66064500D03*
%TO.P,MCU1,17*%
%TO.N,P2*%
X196663508Y63524500D03*
%TO.P,MCU1,18*%
%TO.N,P3*%
X196663508Y60984500D03*
%TO.P,MCU1,19*%
%TO.N,P4*%
X196663508Y58444500D03*
%TO.P,MCU1,20*%
%TO.N,P5*%
X196663508Y55904500D03*
%TO.P,MCU1,21*%
%TO.N,P6*%
X196663508Y53364500D03*
%TO.P,MCU1,22*%
%TO.N,P7*%
X196663508Y50824500D03*
%TO.P,MCU1,23*%
%TO.N,P8*%
X196663508Y48284500D03*
%TO.P,MCU1,24*%
%TO.N,P9*%
X196663508Y45744500D03*
%TD*%
D13*
%TO.P,D1,2*%
%TO.N,mirror_inner_bot*%
X323933508Y-7557500D03*
%TO.P,D1,1*%
%TO.N,P16*%
X320633508Y-7557500D03*
D14*
X318473508Y-7557500D03*
D15*
%TO.P,D1,2*%
%TO.N,mirror_inner_bot*%
X326093508Y-7557500D03*
%TD*%
D13*
%TO.P,D2,2*%
%TO.N,mirror_inner_mid*%
X323933508Y11442500D03*
%TO.P,D2,1*%
%TO.N,P10*%
X320633508Y11442500D03*
D14*
X318473508Y11442500D03*
D15*
%TO.P,D2,2*%
%TO.N,mirror_inner_mid*%
X326093508Y11442500D03*
%TD*%
D13*
%TO.P,D3,2*%
%TO.N,mirror_inner_top*%
X323933508Y30442500D03*
%TO.P,D3,1*%
%TO.N,P9*%
X320633508Y30442500D03*
D14*
X318473508Y30442500D03*
D15*
%TO.P,D3,2*%
%TO.N,mirror_inner_top*%
X326093508Y30442500D03*
%TD*%
D13*
%TO.P,D4,2*%
%TO.N,mirror_inner_num*%
X323933508Y49442500D03*
%TO.P,D4,1*%
%TO.N,P8*%
X320633508Y49442500D03*
D14*
X318473508Y49442500D03*
D15*
%TO.P,D4,2*%
%TO.N,mirror_inner_num*%
X326093508Y49442500D03*
%TD*%
D13*
%TO.P,D5,2*%
%TO.N,mirror_pinky_bot*%
X304933508Y-3366500D03*
%TO.P,D5,1*%
%TO.N,P16*%
X301633508Y-3366500D03*
D14*
X299473508Y-3366500D03*
D15*
%TO.P,D5,2*%
%TO.N,mirror_pinky_bot*%
X307093508Y-3366500D03*
%TD*%
D13*
%TO.P,D6,2*%
%TO.N,mirror_pinky_mid*%
X304933508Y15633500D03*
%TO.P,D6,1*%
%TO.N,P10*%
X301633508Y15633500D03*
D14*
X299473508Y15633500D03*
D15*
%TO.P,D6,2*%
%TO.N,mirror_pinky_mid*%
X307093508Y15633500D03*
%TD*%
D13*
%TO.P,D7,2*%
%TO.N,mirror_pinky_top*%
X304933508Y34633500D03*
%TO.P,D7,1*%
%TO.N,P9*%
X301633508Y34633500D03*
D14*
X299473508Y34633500D03*
D15*
%TO.P,D7,2*%
%TO.N,mirror_pinky_top*%
X307093508Y34633500D03*
%TD*%
D13*
%TO.P,D8,2*%
%TO.N,mirror_pinky_num*%
X304933508Y53633500D03*
%TO.P,D8,1*%
%TO.N,P8*%
X301633508Y53633500D03*
D14*
X299473508Y53633500D03*
D15*
%TO.P,D8,2*%
%TO.N,mirror_pinky_num*%
X307093508Y53633500D03*
%TD*%
D13*
%TO.P,D9,2*%
%TO.N,mirror_ring_bot*%
X285933508Y6158500D03*
%TO.P,D9,1*%
%TO.N,P16*%
X282633508Y6158500D03*
D14*
X280473508Y6158500D03*
D15*
%TO.P,D9,2*%
%TO.N,mirror_ring_bot*%
X288093508Y6158500D03*
%TD*%
D13*
%TO.P,D10,2*%
%TO.N,mirror_ring_mid*%
X285933508Y25158500D03*
%TO.P,D10,1*%
%TO.N,P10*%
X282633508Y25158500D03*
D14*
X280473508Y25158500D03*
D15*
%TO.P,D10,2*%
%TO.N,mirror_ring_mid*%
X288093508Y25158500D03*
%TD*%
D13*
%TO.P,D11,2*%
%TO.N,mirror_ring_top*%
X285933508Y44158500D03*
%TO.P,D11,1*%
%TO.N,P9*%
X282633508Y44158500D03*
D14*
X280473508Y44158500D03*
D15*
%TO.P,D11,2*%
%TO.N,mirror_ring_top*%
X288093508Y44158500D03*
%TD*%
D13*
%TO.P,D12,2*%
%TO.N,mirror_ring_num*%
X285933508Y63158500D03*
%TO.P,D12,1*%
%TO.N,P8*%
X282633508Y63158500D03*
D14*
X280473508Y63158500D03*
D15*
%TO.P,D12,2*%
%TO.N,mirror_ring_num*%
X288093508Y63158500D03*
%TD*%
D13*
%TO.P,D14,2*%
%TO.N,mirror_middle_mid*%
X266933508Y29921000D03*
%TO.P,D14,1*%
%TO.N,P10*%
X263633508Y29921000D03*
D14*
X261473508Y29921000D03*
D15*
%TO.P,D14,2*%
%TO.N,mirror_middle_mid*%
X269093508Y29921000D03*
%TD*%
D13*
%TO.P,D15,2*%
%TO.N,mirror_middle_top*%
X266933508Y48921000D03*
%TO.P,D15,1*%
%TO.N,P9*%
X263633508Y48921000D03*
D14*
X261473508Y48921000D03*
D15*
%TO.P,D15,2*%
%TO.N,mirror_middle_top*%
X269093508Y48921000D03*
%TD*%
D13*
%TO.P,D17,2*%
%TO.N,mirror_point_bot*%
X247933508Y-128000D03*
%TO.P,D17,1*%
%TO.N,P16*%
X244633508Y-128000D03*
D14*
X242473508Y-128000D03*
D15*
%TO.P,D17,2*%
%TO.N,mirror_point_bot*%
X250093508Y-128000D03*
%TD*%
D13*
%TO.P,D18,2*%
%TO.N,mirror_point_mid*%
X247933508Y18872000D03*
%TO.P,D18,1*%
%TO.N,P10*%
X244633508Y18872000D03*
D14*
X242473508Y18872000D03*
D15*
%TO.P,D18,2*%
%TO.N,mirror_point_mid*%
X250093508Y18872000D03*
%TD*%
D13*
%TO.P,D19,2*%
%TO.N,mirror_point_top*%
X247933508Y37872000D03*
%TO.P,D19,1*%
%TO.N,P9*%
X244633508Y37872000D03*
D14*
X242473508Y37872000D03*
D15*
%TO.P,D19,2*%
%TO.N,mirror_point_top*%
X250093508Y37872000D03*
%TD*%
D13*
%TO.P,D20,2*%
%TO.N,mirror_point_num*%
X247933508Y56872000D03*
%TO.P,D20,1*%
%TO.N,P8*%
X244633508Y56872000D03*
D14*
X242473508Y56872000D03*
D15*
%TO.P,D20,2*%
%TO.N,mirror_point_num*%
X250093508Y56872000D03*
%TD*%
D13*
%TO.P,D21,2*%
%TO.N,mirror_pointfar_bot*%
X228933508Y-2985500D03*
%TO.P,D21,1*%
%TO.N,P16*%
X225633508Y-2985500D03*
D14*
X223473508Y-2985500D03*
D15*
%TO.P,D21,2*%
%TO.N,mirror_pointfar_bot*%
X231093508Y-2985500D03*
%TD*%
D13*
%TO.P,D22,2*%
%TO.N,mirror_pointfar_mid*%
X228933508Y16014500D03*
%TO.P,D22,1*%
%TO.N,P10*%
X225633508Y16014500D03*
D14*
X223473508Y16014500D03*
D15*
%TO.P,D22,2*%
%TO.N,mirror_pointfar_mid*%
X231093508Y16014500D03*
%TD*%
D13*
%TO.P,D23,2*%
%TO.N,mirror_pointfar_top*%
X228933508Y35014500D03*
%TO.P,D23,1*%
%TO.N,P9*%
X225633508Y35014500D03*
D14*
X223473508Y35014500D03*
D15*
%TO.P,D23,2*%
%TO.N,mirror_pointfar_top*%
X231093508Y35014500D03*
%TD*%
D16*
%TO.P,D25,2*%
%TO.N,mirror_alt_main*%
X258068994Y-27514383D03*
%TO.P,D25,1*%
%TO.N,P7*%
X254793592Y-27916551D03*
D17*
X252649692Y-28179789D03*
D15*
%TO.P,D25,2*%
%TO.N,mirror_alt_main*%
X260212894Y-27251145D03*
%TD*%
D16*
%TO.P,D26,2*%
%TO.N,mirror_mod_main*%
X239210618Y-29829900D03*
%TO.P,D26,1*%
%TO.N,P7*%
X235935216Y-30232068D03*
D17*
X233791316Y-30495306D03*
D15*
%TO.P,D26,2*%
%TO.N,mirror_mod_main*%
X241354518Y-29566662D03*
%TD*%
D16*
%TO.P,D27,2*%
%TO.N,mirror_space_main*%
X220352241Y-32145418D03*
%TO.P,D27,1*%
%TO.N,P7*%
X217076839Y-32547586D03*
D17*
X214932939Y-32810824D03*
D15*
%TO.P,D27,2*%
%TO.N,mirror_space_main*%
X222496141Y-31882180D03*
%TD*%
D18*
%TO.P,TRRS1,1*%
%TO.N,GND*%
X208583508Y24114500D03*
%TO.P,TRRS1,2*%
X207483508Y28714500D03*
%TO.P,TRRS1,3*%
%TO.N,P1*%
X203483508Y28714500D03*
%TO.P,TRRS1,4*%
%TO.N,VCC*%
X200483508Y28714500D03*
%TD*%
D10*
%TO.P,S21,1*%
%TO.N,P14*%
X229823508Y6794500D03*
%TO.P,S21,2*%
%TO.N,mirror_pointfar_bot*%
X223473508Y4254500D03*
%TD*%
D13*
%TO.P,D16,2*%
%TO.N,mirror_middle_num*%
X266933508Y67921000D03*
%TO.P,D16,1*%
%TO.N,P8*%
X263633508Y67921000D03*
D14*
X261473508Y67921000D03*
D15*
%TO.P,D16,2*%
%TO.N,mirror_middle_num*%
X269093508Y67921000D03*
%TD*%
D13*
%TO.P,D24,2*%
%TO.N,mirror_pointfar_num*%
X228933508Y54014500D03*
%TO.P,D24,1*%
%TO.N,P8*%
X225633508Y54014500D03*
D14*
X223473508Y54014500D03*
D15*
%TO.P,D24,2*%
%TO.N,mirror_pointfar_num*%
X231093508Y54014500D03*
%TD*%
D10*
%TO.P,S14,1*%
%TO.N,P18*%
X267823508Y39701000D03*
%TO.P,S14,2*%
%TO.N,mirror_middle_mid*%
X261473508Y37161000D03*
%TD*%
%TO.P,S18,1*%
%TO.N,P15*%
X248823508Y28652000D03*
%TO.P,S18,2*%
%TO.N,mirror_point_mid*%
X242473508Y26112000D03*
%TD*%
D13*
%TO.P,D13,2*%
%TO.N,mirror_middle_bot*%
X266933508Y10921000D03*
%TO.P,D13,1*%
%TO.N,P16*%
X263633508Y10921000D03*
D14*
X261473508Y10921000D03*
D15*
%TO.P,D13,2*%
%TO.N,mirror_middle_bot*%
X269093508Y10921000D03*
%TD*%
D19*
%TO.N,P7*%
X192058508Y46000000D03*
%TO.N,GND*%
X205000000Y44500000D03*
%TO.N,P9*%
X197000000Y33000000D03*
X212628508Y32500000D03*
%TD*%
D20*
%TO.N,P7*%
X192058508Y46219500D02*
X196663508Y50824500D01*
X192058508Y46000000D02*
X192058508Y46219500D01*
%TO.N,GND*%
X205000000Y64240992D02*
X211903508Y71144500D01*
X205000000Y44500000D02*
X205000000Y64240992D01*
%TO.N,P21*%
X228451008Y80072000D02*
X211903508Y63524500D01*
X289802818Y80072000D02*
X228451008Y80072000D01*
X304992318Y64882500D02*
X289802818Y80072000D01*
X324823508Y59222500D02*
X319163508Y64882500D01*
X319163508Y64882500D02*
X304992318Y64882500D01*
%TO.N,P20*%
X230540008Y79621000D02*
X211903508Y60984500D01*
X289616008Y79621000D02*
X230540008Y79621000D01*
X305823508Y63413500D02*
X289616008Y79621000D01*
%TO.N,P19*%
X232629008Y79170000D02*
X211903508Y58444500D01*
X280592008Y79170000D02*
X232629008Y79170000D01*
X286823508Y72938500D02*
X280592008Y79170000D01*
%TO.N,P18*%
X267823508Y77701000D02*
X233700008Y77701000D01*
X233700008Y77701000D02*
X211903508Y55904500D01*
%TO.N,P15*%
X225191008Y66652000D02*
X211903508Y53364500D01*
X248823508Y66652000D02*
X225191008Y66652000D01*
%TO.N,P14*%
X213105808Y52026800D02*
X211903508Y50824500D01*
X213105808Y52964280D02*
X213105808Y52026800D01*
X223936028Y63794500D02*
X213105808Y52964280D01*
X229823508Y63794500D02*
X223936028Y63794500D01*
%TO.N,P9*%
X197500000Y32500000D02*
X197000000Y33000000D01*
X212628508Y32500000D02*
X197500000Y32500000D01*
%TO.N,P21*%
X324709508Y2336500D02*
X324823508Y2222500D01*
X324823508Y59222500D02*
X324709508Y59108500D01*
%TO.N,P20*%
X305709508Y6527500D02*
X305823508Y6413500D01*
X305823508Y63413500D02*
X305709508Y63299500D01*
%TO.N,P19*%
X286709508Y16052500D02*
X286823508Y15938500D01*
X286823508Y72938500D02*
X286709508Y72824500D01*
%TO.N,P18*%
X267823508Y77701000D02*
X267815008Y77692500D01*
%TO.N,P15*%
X248823508Y66652000D02*
X248709508Y66538000D01*
%TO.N,P14*%
X229823508Y63794500D02*
X229815008Y63786000D01*
%TO.N,P18*%
X267815008Y-7644288D02*
X257760479Y-17698817D01*
%TO.N,P15*%
X248709508Y-10206928D02*
X238902102Y-20014334D01*
%TO.N,P14*%
X229815008Y-12558569D02*
X220043725Y-22329852D01*
%TO.N,P21*%
X324709508Y59108500D02*
X324709508Y2336500D01*
%TO.N,P20*%
X305709508Y63299500D02*
X305709508Y6527500D01*
%TO.N,P19*%
X286709508Y72824500D02*
X286709508Y16052500D01*
%TO.N,P14*%
X229815008Y63786000D02*
X229815008Y-12558569D01*
%TO.N,P15*%
X248709508Y66538000D02*
X248709508Y-10206928D01*
%TO.N,P18*%
X267815008Y77692500D02*
X267815008Y-7644288D01*
%TD*%
M02*
