M48
; DRILL file {KiCad 9.0.1} date 2025-06-02T17:15:46+0200
; FORMAT={-:-/ absolute / metric / decimal}
; #@! TF.CreationDate,2025-06-02T17:15:46+02:00
; #@! TF.GenerationSoftware,Kicad,Pcbnew,9.0.1
; #@! TF.FileFunction,Plated,1,2,PTH
FMAT,2
METRIC
; #@! TA.AperFunction,Plated,PTH,ViaDrill
T1C0.400
; #@! TA.AperFunction,Plated,PTH,ComponentDrill
T2C0.900
; #@! TA.AperFunction,Plated,PTH,ComponentDrill
T3C0.991
; #@! TA.AperFunction,Plated,PTH,ComponentDrill
T4C1.092
; #@! TA.AperFunction,Plated,PTH,ComponentDrill
T5C1.499
%
G90
G05
T1
X192.059Y46.0
X197.0Y33.0
X205.0Y44.5
X212.629Y32.5
T3
X214.933Y-32.811
X222.496Y-31.882
X223.474Y54.014
X223.474Y35.014
X223.474Y16.014
X223.474Y-2.986
X231.094Y54.014
X231.094Y35.014
X231.094Y16.014
X231.094Y-2.986
X233.791Y-30.495
X241.355Y-29.567
X242.474Y56.872
X242.474Y37.872
X242.474Y18.872
X242.474Y-0.128
X250.094Y56.872
X250.094Y37.872
X250.094Y18.872
X250.094Y-0.128
X252.65Y-28.18
X260.213Y-27.251
X261.474Y67.921
X261.474Y48.921
X261.474Y29.921
X261.474Y10.921
X269.094Y67.921
X269.094Y48.921
X269.094Y29.921
X269.094Y10.921
X280.474Y63.158
X280.474Y44.158
X280.474Y25.159
X280.474Y6.159
X288.094Y63.158
X288.094Y44.158
X288.094Y25.159
X288.094Y6.159
X299.474Y53.633
X299.474Y34.633
X299.474Y15.633
X299.474Y-3.366
X307.094Y53.633
X307.094Y34.633
X307.094Y15.633
X307.094Y-3.366
X318.474Y49.442
X318.474Y30.442
X318.474Y11.442
X318.474Y-7.557
X326.094Y49.442
X326.094Y30.442
X326.094Y11.442
X326.094Y-7.557
T4
X196.664Y73.684
X196.664Y71.144
X196.664Y68.605
X196.664Y66.064
X196.664Y63.524
X196.664Y60.984
X196.664Y58.444
X196.664Y55.904
X196.664Y53.364
X196.664Y50.825
X196.664Y48.285
X196.664Y45.744
X211.904Y73.684
X211.904Y71.144
X211.904Y68.605
X211.904Y66.064
X211.904Y63.524
X211.904Y60.984
X211.904Y58.444
X211.904Y55.904
X211.904Y53.364
X211.904Y50.825
X211.904Y48.285
X211.904Y45.744
T5
X214.051Y-25.625
X220.044Y-22.33
X223.474Y61.255
X223.474Y42.255
X223.474Y23.255
X223.474Y4.255
X229.824Y63.794
X229.824Y44.794
X229.824Y25.794
X229.824Y6.794
X232.909Y-23.309
X238.902Y-20.014
X242.474Y64.112
X242.474Y45.112
X242.474Y26.112
X242.474Y7.112
X248.824Y66.652
X248.824Y47.652
X248.824Y28.652
X248.824Y9.652
X251.767Y-20.994
X257.76Y-17.699
X261.474Y75.161
X261.474Y56.161
X261.474Y37.161
X261.474Y18.161
X267.824Y77.701
X267.824Y58.701
X267.824Y39.701
X267.824Y20.701
X280.474Y70.398
X280.474Y51.398
X280.474Y32.398
X280.474Y13.398
X286.824Y72.938
X286.824Y53.938
X286.824Y34.938
X286.824Y15.938
X299.474Y60.873
X299.474Y41.873
X299.474Y22.873
X299.474Y3.873
X305.824Y63.413
X305.824Y44.413
X305.824Y25.413
X305.824Y6.413
X318.474Y56.682
X318.474Y37.682
X318.474Y18.682
X318.474Y-0.318
X324.824Y59.222
X324.824Y40.222
X324.824Y21.223
X324.824Y2.222
T2
G00X200.184Y28.714
M15
G01X200.784Y28.714
M16
G05
G00X203.184Y28.714
M15
G01X203.784Y28.714
M16
G05
G00X207.184Y28.714
M15
G01X207.784Y28.714
M16
G05
G00X208.284Y24.114
M15
G01X208.884Y24.114
M16
G05
M30
