%TF.GenerationSoftware,KiCad,Pcbnew,9.0.1*%
%TF.CreationDate,2025-06-02T17:15:55+02:00*%
%TF.ProjectId,pleiades_r,706c6569-6164-4657-935f-722e6b696361,v1.0.0*%
%TF.SameCoordinates,Original*%
%TF.FileFunction,Legend,Top*%
%TF.FilePolarity,Positive*%
%FSLAX46Y46*%
G04 Gerber Fmt 4.6, Leading zero omitted, Abs format (unit mm)*
G04 Created by KiCad (PCBNEW 9.0.1) date 2025-06-02 17:15:55*
%MOMM*%
%LPD*%
G01*
G04 APERTURE LIST*
%ADD10C,0.150000*%
%ADD11C,0.000000*%
%ADD12C,0.100000*%
%ADD13R,1.752600X1.752600*%
%ADD14C,1.752600*%
G04 APERTURE END LIST*
D10*
X208531127Y73322204D02*
X208264460Y73703157D01*
X208073984Y73322204D02*
X208073984Y74122204D01*
X208073984Y74122204D02*
X208378746Y74122204D01*
X208378746Y74122204D02*
X208454936Y74084109D01*
X208454936Y74084109D02*
X208493031Y74046014D01*
X208493031Y74046014D02*
X208531127Y73969823D01*
X208531127Y73969823D02*
X208531127Y73855538D01*
X208531127Y73855538D02*
X208493031Y73779347D01*
X208493031Y73779347D02*
X208454936Y73741252D01*
X208454936Y73741252D02*
X208378746Y73703157D01*
X208378746Y73703157D02*
X208073984Y73703157D01*
X208835888Y73550776D02*
X209216841Y73550776D01*
X208759698Y73322204D02*
X209026365Y74122204D01*
X209026365Y74122204D02*
X209293031Y73322204D01*
X209483507Y74122204D02*
X209673983Y73322204D01*
X209673983Y73322204D02*
X209826364Y73893633D01*
X209826364Y73893633D02*
X209978745Y73322204D01*
X209978745Y73322204D02*
X210169222Y74122204D01*
X208473984Y71544109D02*
X208397794Y71582204D01*
X208397794Y71582204D02*
X208283508Y71582204D01*
X208283508Y71582204D02*
X208169222Y71544109D01*
X208169222Y71544109D02*
X208093032Y71467919D01*
X208093032Y71467919D02*
X208054937Y71391728D01*
X208054937Y71391728D02*
X208016841Y71239347D01*
X208016841Y71239347D02*
X208016841Y71125061D01*
X208016841Y71125061D02*
X208054937Y70972680D01*
X208054937Y70972680D02*
X208093032Y70896490D01*
X208093032Y70896490D02*
X208169222Y70820300D01*
X208169222Y70820300D02*
X208283508Y70782204D01*
X208283508Y70782204D02*
X208359699Y70782204D01*
X208359699Y70782204D02*
X208473984Y70820300D01*
X208473984Y70820300D02*
X208512080Y70858395D01*
X208512080Y70858395D02*
X208512080Y71125061D01*
X208512080Y71125061D02*
X208359699Y71125061D01*
X208854937Y70782204D02*
X208854937Y71582204D01*
X208854937Y71582204D02*
X209312080Y70782204D01*
X209312080Y70782204D02*
X209312080Y71582204D01*
X209693032Y70782204D02*
X209693032Y71582204D01*
X209693032Y71582204D02*
X209883508Y71582204D01*
X209883508Y71582204D02*
X209997794Y71544109D01*
X209997794Y71544109D02*
X210073984Y71467919D01*
X210073984Y71467919D02*
X210112079Y71391728D01*
X210112079Y71391728D02*
X210150175Y71239347D01*
X210150175Y71239347D02*
X210150175Y71125061D01*
X210150175Y71125061D02*
X210112079Y70972680D01*
X210112079Y70972680D02*
X210073984Y70896490D01*
X210073984Y70896490D02*
X209997794Y70820300D01*
X209997794Y70820300D02*
X209883508Y70782204D01*
X209883508Y70782204D02*
X209693032Y70782204D01*
X208645413Y68242204D02*
X208378746Y68623157D01*
X208188270Y68242204D02*
X208188270Y69042204D01*
X208188270Y69042204D02*
X208493032Y69042204D01*
X208493032Y69042204D02*
X208569222Y69004109D01*
X208569222Y69004109D02*
X208607317Y68966014D01*
X208607317Y68966014D02*
X208645413Y68889823D01*
X208645413Y68889823D02*
X208645413Y68775538D01*
X208645413Y68775538D02*
X208607317Y68699347D01*
X208607317Y68699347D02*
X208569222Y68661252D01*
X208569222Y68661252D02*
X208493032Y68623157D01*
X208493032Y68623157D02*
X208188270Y68623157D01*
X208950174Y68280300D02*
X209064460Y68242204D01*
X209064460Y68242204D02*
X209254936Y68242204D01*
X209254936Y68242204D02*
X209331127Y68280300D01*
X209331127Y68280300D02*
X209369222Y68318395D01*
X209369222Y68318395D02*
X209407317Y68394585D01*
X209407317Y68394585D02*
X209407317Y68470776D01*
X209407317Y68470776D02*
X209369222Y68546966D01*
X209369222Y68546966D02*
X209331127Y68585061D01*
X209331127Y68585061D02*
X209254936Y68623157D01*
X209254936Y68623157D02*
X209102555Y68661252D01*
X209102555Y68661252D02*
X209026365Y68699347D01*
X209026365Y68699347D02*
X208988270Y68737442D01*
X208988270Y68737442D02*
X208950174Y68813633D01*
X208950174Y68813633D02*
X208950174Y68889823D01*
X208950174Y68889823D02*
X208988270Y68966014D01*
X208988270Y68966014D02*
X209026365Y69004109D01*
X209026365Y69004109D02*
X209102555Y69042204D01*
X209102555Y69042204D02*
X209293032Y69042204D01*
X209293032Y69042204D02*
X209407317Y69004109D01*
X209635889Y69042204D02*
X210093032Y69042204D01*
X209864460Y68242204D02*
X209864460Y69042204D01*
X208016841Y66502204D02*
X208283508Y65702204D01*
X208283508Y65702204D02*
X208550174Y66502204D01*
X209273984Y65778395D02*
X209235888Y65740300D01*
X209235888Y65740300D02*
X209121603Y65702204D01*
X209121603Y65702204D02*
X209045412Y65702204D01*
X209045412Y65702204D02*
X208931126Y65740300D01*
X208931126Y65740300D02*
X208854936Y65816490D01*
X208854936Y65816490D02*
X208816841Y65892680D01*
X208816841Y65892680D02*
X208778745Y66045061D01*
X208778745Y66045061D02*
X208778745Y66159347D01*
X208778745Y66159347D02*
X208816841Y66311728D01*
X208816841Y66311728D02*
X208854936Y66387919D01*
X208854936Y66387919D02*
X208931126Y66464109D01*
X208931126Y66464109D02*
X209045412Y66502204D01*
X209045412Y66502204D02*
X209121603Y66502204D01*
X209121603Y66502204D02*
X209235888Y66464109D01*
X209235888Y66464109D02*
X209273984Y66426014D01*
X210073984Y65778395D02*
X210035888Y65740300D01*
X210035888Y65740300D02*
X209921603Y65702204D01*
X209921603Y65702204D02*
X209845412Y65702204D01*
X209845412Y65702204D02*
X209731126Y65740300D01*
X209731126Y65740300D02*
X209654936Y65816490D01*
X209654936Y65816490D02*
X209616841Y65892680D01*
X209616841Y65892680D02*
X209578745Y66045061D01*
X209578745Y66045061D02*
X209578745Y66159347D01*
X209578745Y66159347D02*
X209616841Y66311728D01*
X209616841Y66311728D02*
X209654936Y66387919D01*
X209654936Y66387919D02*
X209731126Y66464109D01*
X209731126Y66464109D02*
X209845412Y66502204D01*
X209845412Y66502204D02*
X209921603Y66502204D01*
X209921603Y66502204D02*
X210035888Y66464109D01*
X210035888Y66464109D02*
X210073984Y66426014D01*
X208112079Y63162204D02*
X208112079Y63962204D01*
X208112079Y63962204D02*
X208416841Y63962204D01*
X208416841Y63962204D02*
X208493031Y63924109D01*
X208493031Y63924109D02*
X208531126Y63886014D01*
X208531126Y63886014D02*
X208569222Y63809823D01*
X208569222Y63809823D02*
X208569222Y63695538D01*
X208569222Y63695538D02*
X208531126Y63619347D01*
X208531126Y63619347D02*
X208493031Y63581252D01*
X208493031Y63581252D02*
X208416841Y63543157D01*
X208416841Y63543157D02*
X208112079Y63543157D01*
X208873983Y63886014D02*
X208912079Y63924109D01*
X208912079Y63924109D02*
X208988269Y63962204D01*
X208988269Y63962204D02*
X209178745Y63962204D01*
X209178745Y63962204D02*
X209254936Y63924109D01*
X209254936Y63924109D02*
X209293031Y63886014D01*
X209293031Y63886014D02*
X209331126Y63809823D01*
X209331126Y63809823D02*
X209331126Y63733633D01*
X209331126Y63733633D02*
X209293031Y63619347D01*
X209293031Y63619347D02*
X208835888Y63162204D01*
X208835888Y63162204D02*
X209331126Y63162204D01*
X210093031Y63162204D02*
X209635888Y63162204D01*
X209864460Y63162204D02*
X209864460Y63962204D01*
X209864460Y63962204D02*
X209788269Y63847919D01*
X209788269Y63847919D02*
X209712079Y63771728D01*
X209712079Y63771728D02*
X209635888Y63733633D01*
X208112079Y60622204D02*
X208112079Y61422204D01*
X208112079Y61422204D02*
X208416841Y61422204D01*
X208416841Y61422204D02*
X208493031Y61384109D01*
X208493031Y61384109D02*
X208531126Y61346014D01*
X208531126Y61346014D02*
X208569222Y61269823D01*
X208569222Y61269823D02*
X208569222Y61155538D01*
X208569222Y61155538D02*
X208531126Y61079347D01*
X208531126Y61079347D02*
X208493031Y61041252D01*
X208493031Y61041252D02*
X208416841Y61003157D01*
X208416841Y61003157D02*
X208112079Y61003157D01*
X208873983Y61346014D02*
X208912079Y61384109D01*
X208912079Y61384109D02*
X208988269Y61422204D01*
X208988269Y61422204D02*
X209178745Y61422204D01*
X209178745Y61422204D02*
X209254936Y61384109D01*
X209254936Y61384109D02*
X209293031Y61346014D01*
X209293031Y61346014D02*
X209331126Y61269823D01*
X209331126Y61269823D02*
X209331126Y61193633D01*
X209331126Y61193633D02*
X209293031Y61079347D01*
X209293031Y61079347D02*
X208835888Y60622204D01*
X208835888Y60622204D02*
X209331126Y60622204D01*
X209826365Y61422204D02*
X209902555Y61422204D01*
X209902555Y61422204D02*
X209978746Y61384109D01*
X209978746Y61384109D02*
X210016841Y61346014D01*
X210016841Y61346014D02*
X210054936Y61269823D01*
X210054936Y61269823D02*
X210093031Y61117442D01*
X210093031Y61117442D02*
X210093031Y60926966D01*
X210093031Y60926966D02*
X210054936Y60774585D01*
X210054936Y60774585D02*
X210016841Y60698395D01*
X210016841Y60698395D02*
X209978746Y60660300D01*
X209978746Y60660300D02*
X209902555Y60622204D01*
X209902555Y60622204D02*
X209826365Y60622204D01*
X209826365Y60622204D02*
X209750174Y60660300D01*
X209750174Y60660300D02*
X209712079Y60698395D01*
X209712079Y60698395D02*
X209673984Y60774585D01*
X209673984Y60774585D02*
X209635888Y60926966D01*
X209635888Y60926966D02*
X209635888Y61117442D01*
X209635888Y61117442D02*
X209673984Y61269823D01*
X209673984Y61269823D02*
X209712079Y61346014D01*
X209712079Y61346014D02*
X209750174Y61384109D01*
X209750174Y61384109D02*
X209826365Y61422204D01*
X208112079Y58082204D02*
X208112079Y58882204D01*
X208112079Y58882204D02*
X208416841Y58882204D01*
X208416841Y58882204D02*
X208493031Y58844109D01*
X208493031Y58844109D02*
X208531126Y58806014D01*
X208531126Y58806014D02*
X208569222Y58729823D01*
X208569222Y58729823D02*
X208569222Y58615538D01*
X208569222Y58615538D02*
X208531126Y58539347D01*
X208531126Y58539347D02*
X208493031Y58501252D01*
X208493031Y58501252D02*
X208416841Y58463157D01*
X208416841Y58463157D02*
X208112079Y58463157D01*
X209331126Y58082204D02*
X208873983Y58082204D01*
X209102555Y58082204D02*
X209102555Y58882204D01*
X209102555Y58882204D02*
X209026364Y58767919D01*
X209026364Y58767919D02*
X208950174Y58691728D01*
X208950174Y58691728D02*
X208873983Y58653633D01*
X209712079Y58082204D02*
X209864460Y58082204D01*
X209864460Y58082204D02*
X209940650Y58120300D01*
X209940650Y58120300D02*
X209978746Y58158395D01*
X209978746Y58158395D02*
X210054936Y58272680D01*
X210054936Y58272680D02*
X210093031Y58425061D01*
X210093031Y58425061D02*
X210093031Y58729823D01*
X210093031Y58729823D02*
X210054936Y58806014D01*
X210054936Y58806014D02*
X210016841Y58844109D01*
X210016841Y58844109D02*
X209940650Y58882204D01*
X209940650Y58882204D02*
X209788269Y58882204D01*
X209788269Y58882204D02*
X209712079Y58844109D01*
X209712079Y58844109D02*
X209673984Y58806014D01*
X209673984Y58806014D02*
X209635888Y58729823D01*
X209635888Y58729823D02*
X209635888Y58539347D01*
X209635888Y58539347D02*
X209673984Y58463157D01*
X209673984Y58463157D02*
X209712079Y58425061D01*
X209712079Y58425061D02*
X209788269Y58386966D01*
X209788269Y58386966D02*
X209940650Y58386966D01*
X209940650Y58386966D02*
X210016841Y58425061D01*
X210016841Y58425061D02*
X210054936Y58463157D01*
X210054936Y58463157D02*
X210093031Y58539347D01*
X208112079Y55542204D02*
X208112079Y56342204D01*
X208112079Y56342204D02*
X208416841Y56342204D01*
X208416841Y56342204D02*
X208493031Y56304109D01*
X208493031Y56304109D02*
X208531126Y56266014D01*
X208531126Y56266014D02*
X208569222Y56189823D01*
X208569222Y56189823D02*
X208569222Y56075538D01*
X208569222Y56075538D02*
X208531126Y55999347D01*
X208531126Y55999347D02*
X208493031Y55961252D01*
X208493031Y55961252D02*
X208416841Y55923157D01*
X208416841Y55923157D02*
X208112079Y55923157D01*
X209331126Y55542204D02*
X208873983Y55542204D01*
X209102555Y55542204D02*
X209102555Y56342204D01*
X209102555Y56342204D02*
X209026364Y56227919D01*
X209026364Y56227919D02*
X208950174Y56151728D01*
X208950174Y56151728D02*
X208873983Y56113633D01*
X209788269Y55999347D02*
X209712079Y56037442D01*
X209712079Y56037442D02*
X209673984Y56075538D01*
X209673984Y56075538D02*
X209635888Y56151728D01*
X209635888Y56151728D02*
X209635888Y56189823D01*
X209635888Y56189823D02*
X209673984Y56266014D01*
X209673984Y56266014D02*
X209712079Y56304109D01*
X209712079Y56304109D02*
X209788269Y56342204D01*
X209788269Y56342204D02*
X209940650Y56342204D01*
X209940650Y56342204D02*
X210016841Y56304109D01*
X210016841Y56304109D02*
X210054936Y56266014D01*
X210054936Y56266014D02*
X210093031Y56189823D01*
X210093031Y56189823D02*
X210093031Y56151728D01*
X210093031Y56151728D02*
X210054936Y56075538D01*
X210054936Y56075538D02*
X210016841Y56037442D01*
X210016841Y56037442D02*
X209940650Y55999347D01*
X209940650Y55999347D02*
X209788269Y55999347D01*
X209788269Y55999347D02*
X209712079Y55961252D01*
X209712079Y55961252D02*
X209673984Y55923157D01*
X209673984Y55923157D02*
X209635888Y55846966D01*
X209635888Y55846966D02*
X209635888Y55694585D01*
X209635888Y55694585D02*
X209673984Y55618395D01*
X209673984Y55618395D02*
X209712079Y55580300D01*
X209712079Y55580300D02*
X209788269Y55542204D01*
X209788269Y55542204D02*
X209940650Y55542204D01*
X209940650Y55542204D02*
X210016841Y55580300D01*
X210016841Y55580300D02*
X210054936Y55618395D01*
X210054936Y55618395D02*
X210093031Y55694585D01*
X210093031Y55694585D02*
X210093031Y55846966D01*
X210093031Y55846966D02*
X210054936Y55923157D01*
X210054936Y55923157D02*
X210016841Y55961252D01*
X210016841Y55961252D02*
X209940650Y55999347D01*
X208112079Y53002204D02*
X208112079Y53802204D01*
X208112079Y53802204D02*
X208416841Y53802204D01*
X208416841Y53802204D02*
X208493031Y53764109D01*
X208493031Y53764109D02*
X208531126Y53726014D01*
X208531126Y53726014D02*
X208569222Y53649823D01*
X208569222Y53649823D02*
X208569222Y53535538D01*
X208569222Y53535538D02*
X208531126Y53459347D01*
X208531126Y53459347D02*
X208493031Y53421252D01*
X208493031Y53421252D02*
X208416841Y53383157D01*
X208416841Y53383157D02*
X208112079Y53383157D01*
X209331126Y53002204D02*
X208873983Y53002204D01*
X209102555Y53002204D02*
X209102555Y53802204D01*
X209102555Y53802204D02*
X209026364Y53687919D01*
X209026364Y53687919D02*
X208950174Y53611728D01*
X208950174Y53611728D02*
X208873983Y53573633D01*
X210054936Y53802204D02*
X209673984Y53802204D01*
X209673984Y53802204D02*
X209635888Y53421252D01*
X209635888Y53421252D02*
X209673984Y53459347D01*
X209673984Y53459347D02*
X209750174Y53497442D01*
X209750174Y53497442D02*
X209940650Y53497442D01*
X209940650Y53497442D02*
X210016841Y53459347D01*
X210016841Y53459347D02*
X210054936Y53421252D01*
X210054936Y53421252D02*
X210093031Y53345061D01*
X210093031Y53345061D02*
X210093031Y53154585D01*
X210093031Y53154585D02*
X210054936Y53078395D01*
X210054936Y53078395D02*
X210016841Y53040300D01*
X210016841Y53040300D02*
X209940650Y53002204D01*
X209940650Y53002204D02*
X209750174Y53002204D01*
X209750174Y53002204D02*
X209673984Y53040300D01*
X209673984Y53040300D02*
X209635888Y53078395D01*
X208112079Y50462204D02*
X208112079Y51262204D01*
X208112079Y51262204D02*
X208416841Y51262204D01*
X208416841Y51262204D02*
X208493031Y51224109D01*
X208493031Y51224109D02*
X208531126Y51186014D01*
X208531126Y51186014D02*
X208569222Y51109823D01*
X208569222Y51109823D02*
X208569222Y50995538D01*
X208569222Y50995538D02*
X208531126Y50919347D01*
X208531126Y50919347D02*
X208493031Y50881252D01*
X208493031Y50881252D02*
X208416841Y50843157D01*
X208416841Y50843157D02*
X208112079Y50843157D01*
X209331126Y50462204D02*
X208873983Y50462204D01*
X209102555Y50462204D02*
X209102555Y51262204D01*
X209102555Y51262204D02*
X209026364Y51147919D01*
X209026364Y51147919D02*
X208950174Y51071728D01*
X208950174Y51071728D02*
X208873983Y51033633D01*
X210016841Y50995538D02*
X210016841Y50462204D01*
X209826365Y51300300D02*
X209635888Y50728871D01*
X209635888Y50728871D02*
X210131127Y50728871D01*
X208112079Y47922204D02*
X208112079Y48722204D01*
X208112079Y48722204D02*
X208416841Y48722204D01*
X208416841Y48722204D02*
X208493031Y48684109D01*
X208493031Y48684109D02*
X208531126Y48646014D01*
X208531126Y48646014D02*
X208569222Y48569823D01*
X208569222Y48569823D02*
X208569222Y48455538D01*
X208569222Y48455538D02*
X208531126Y48379347D01*
X208531126Y48379347D02*
X208493031Y48341252D01*
X208493031Y48341252D02*
X208416841Y48303157D01*
X208416841Y48303157D02*
X208112079Y48303157D01*
X209331126Y47922204D02*
X208873983Y47922204D01*
X209102555Y47922204D02*
X209102555Y48722204D01*
X209102555Y48722204D02*
X209026364Y48607919D01*
X209026364Y48607919D02*
X208950174Y48531728D01*
X208950174Y48531728D02*
X208873983Y48493633D01*
X210016841Y48722204D02*
X209864460Y48722204D01*
X209864460Y48722204D02*
X209788269Y48684109D01*
X209788269Y48684109D02*
X209750174Y48646014D01*
X209750174Y48646014D02*
X209673984Y48531728D01*
X209673984Y48531728D02*
X209635888Y48379347D01*
X209635888Y48379347D02*
X209635888Y48074585D01*
X209635888Y48074585D02*
X209673984Y47998395D01*
X209673984Y47998395D02*
X209712079Y47960300D01*
X209712079Y47960300D02*
X209788269Y47922204D01*
X209788269Y47922204D02*
X209940650Y47922204D01*
X209940650Y47922204D02*
X210016841Y47960300D01*
X210016841Y47960300D02*
X210054936Y47998395D01*
X210054936Y47998395D02*
X210093031Y48074585D01*
X210093031Y48074585D02*
X210093031Y48265061D01*
X210093031Y48265061D02*
X210054936Y48341252D01*
X210054936Y48341252D02*
X210016841Y48379347D01*
X210016841Y48379347D02*
X209940650Y48417442D01*
X209940650Y48417442D02*
X209788269Y48417442D01*
X209788269Y48417442D02*
X209712079Y48379347D01*
X209712079Y48379347D02*
X209673984Y48341252D01*
X209673984Y48341252D02*
X209635888Y48265061D01*
X208112079Y45382204D02*
X208112079Y46182204D01*
X208112079Y46182204D02*
X208416841Y46182204D01*
X208416841Y46182204D02*
X208493031Y46144109D01*
X208493031Y46144109D02*
X208531126Y46106014D01*
X208531126Y46106014D02*
X208569222Y46029823D01*
X208569222Y46029823D02*
X208569222Y45915538D01*
X208569222Y45915538D02*
X208531126Y45839347D01*
X208531126Y45839347D02*
X208493031Y45801252D01*
X208493031Y45801252D02*
X208416841Y45763157D01*
X208416841Y45763157D02*
X208112079Y45763157D01*
X209331126Y45382204D02*
X208873983Y45382204D01*
X209102555Y45382204D02*
X209102555Y46182204D01*
X209102555Y46182204D02*
X209026364Y46067919D01*
X209026364Y46067919D02*
X208950174Y45991728D01*
X208950174Y45991728D02*
X208873983Y45953633D01*
X209826365Y46182204D02*
X209902555Y46182204D01*
X209902555Y46182204D02*
X209978746Y46144109D01*
X209978746Y46144109D02*
X210016841Y46106014D01*
X210016841Y46106014D02*
X210054936Y46029823D01*
X210054936Y46029823D02*
X210093031Y45877442D01*
X210093031Y45877442D02*
X210093031Y45686966D01*
X210093031Y45686966D02*
X210054936Y45534585D01*
X210054936Y45534585D02*
X210016841Y45458395D01*
X210016841Y45458395D02*
X209978746Y45420300D01*
X209978746Y45420300D02*
X209902555Y45382204D01*
X209902555Y45382204D02*
X209826365Y45382204D01*
X209826365Y45382204D02*
X209750174Y45420300D01*
X209750174Y45420300D02*
X209712079Y45458395D01*
X209712079Y45458395D02*
X209673984Y45534585D01*
X209673984Y45534585D02*
X209635888Y45686966D01*
X209635888Y45686966D02*
X209635888Y45877442D01*
X209635888Y45877442D02*
X209673984Y46029823D01*
X209673984Y46029823D02*
X209712079Y46106014D01*
X209712079Y46106014D02*
X209750174Y46144109D01*
X209750174Y46144109D02*
X209826365Y46182204D01*
X198512079Y73322204D02*
X198512079Y74122204D01*
X198512079Y74122204D02*
X198816841Y74122204D01*
X198816841Y74122204D02*
X198893031Y74084109D01*
X198893031Y74084109D02*
X198931126Y74046014D01*
X198931126Y74046014D02*
X198969222Y73969823D01*
X198969222Y73969823D02*
X198969222Y73855538D01*
X198969222Y73855538D02*
X198931126Y73779347D01*
X198931126Y73779347D02*
X198893031Y73741252D01*
X198893031Y73741252D02*
X198816841Y73703157D01*
X198816841Y73703157D02*
X198512079Y73703157D01*
X199464460Y74122204D02*
X199540650Y74122204D01*
X199540650Y74122204D02*
X199616841Y74084109D01*
X199616841Y74084109D02*
X199654936Y74046014D01*
X199654936Y74046014D02*
X199693031Y73969823D01*
X199693031Y73969823D02*
X199731126Y73817442D01*
X199731126Y73817442D02*
X199731126Y73626966D01*
X199731126Y73626966D02*
X199693031Y73474585D01*
X199693031Y73474585D02*
X199654936Y73398395D01*
X199654936Y73398395D02*
X199616841Y73360300D01*
X199616841Y73360300D02*
X199540650Y73322204D01*
X199540650Y73322204D02*
X199464460Y73322204D01*
X199464460Y73322204D02*
X199388269Y73360300D01*
X199388269Y73360300D02*
X199350174Y73398395D01*
X199350174Y73398395D02*
X199312079Y73474585D01*
X199312079Y73474585D02*
X199273983Y73626966D01*
X199273983Y73626966D02*
X199273983Y73817442D01*
X199273983Y73817442D02*
X199312079Y73969823D01*
X199312079Y73969823D02*
X199350174Y74046014D01*
X199350174Y74046014D02*
X199388269Y74084109D01*
X199388269Y74084109D02*
X199464460Y74122204D01*
X200493031Y73322204D02*
X200035888Y73322204D01*
X200264460Y73322204D02*
X200264460Y74122204D01*
X200264460Y74122204D02*
X200188269Y74007919D01*
X200188269Y74007919D02*
X200112079Y73931728D01*
X200112079Y73931728D02*
X200035888Y73893633D01*
X198512079Y70782204D02*
X198512079Y71582204D01*
X198512079Y71582204D02*
X198816841Y71582204D01*
X198816841Y71582204D02*
X198893031Y71544109D01*
X198893031Y71544109D02*
X198931126Y71506014D01*
X198931126Y71506014D02*
X198969222Y71429823D01*
X198969222Y71429823D02*
X198969222Y71315538D01*
X198969222Y71315538D02*
X198931126Y71239347D01*
X198931126Y71239347D02*
X198893031Y71201252D01*
X198893031Y71201252D02*
X198816841Y71163157D01*
X198816841Y71163157D02*
X198512079Y71163157D01*
X199464460Y71582204D02*
X199540650Y71582204D01*
X199540650Y71582204D02*
X199616841Y71544109D01*
X199616841Y71544109D02*
X199654936Y71506014D01*
X199654936Y71506014D02*
X199693031Y71429823D01*
X199693031Y71429823D02*
X199731126Y71277442D01*
X199731126Y71277442D02*
X199731126Y71086966D01*
X199731126Y71086966D02*
X199693031Y70934585D01*
X199693031Y70934585D02*
X199654936Y70858395D01*
X199654936Y70858395D02*
X199616841Y70820300D01*
X199616841Y70820300D02*
X199540650Y70782204D01*
X199540650Y70782204D02*
X199464460Y70782204D01*
X199464460Y70782204D02*
X199388269Y70820300D01*
X199388269Y70820300D02*
X199350174Y70858395D01*
X199350174Y70858395D02*
X199312079Y70934585D01*
X199312079Y70934585D02*
X199273983Y71086966D01*
X199273983Y71086966D02*
X199273983Y71277442D01*
X199273983Y71277442D02*
X199312079Y71429823D01*
X199312079Y71429823D02*
X199350174Y71506014D01*
X199350174Y71506014D02*
X199388269Y71544109D01*
X199388269Y71544109D02*
X199464460Y71582204D01*
X200226365Y71582204D02*
X200302555Y71582204D01*
X200302555Y71582204D02*
X200378746Y71544109D01*
X200378746Y71544109D02*
X200416841Y71506014D01*
X200416841Y71506014D02*
X200454936Y71429823D01*
X200454936Y71429823D02*
X200493031Y71277442D01*
X200493031Y71277442D02*
X200493031Y71086966D01*
X200493031Y71086966D02*
X200454936Y70934585D01*
X200454936Y70934585D02*
X200416841Y70858395D01*
X200416841Y70858395D02*
X200378746Y70820300D01*
X200378746Y70820300D02*
X200302555Y70782204D01*
X200302555Y70782204D02*
X200226365Y70782204D01*
X200226365Y70782204D02*
X200150174Y70820300D01*
X200150174Y70820300D02*
X200112079Y70858395D01*
X200112079Y70858395D02*
X200073984Y70934585D01*
X200073984Y70934585D02*
X200035888Y71086966D01*
X200035888Y71086966D02*
X200035888Y71277442D01*
X200035888Y71277442D02*
X200073984Y71429823D01*
X200073984Y71429823D02*
X200112079Y71506014D01*
X200112079Y71506014D02*
X200150174Y71544109D01*
X200150174Y71544109D02*
X200226365Y71582204D01*
X198873984Y69004109D02*
X198797794Y69042204D01*
X198797794Y69042204D02*
X198683508Y69042204D01*
X198683508Y69042204D02*
X198569222Y69004109D01*
X198569222Y69004109D02*
X198493032Y68927919D01*
X198493032Y68927919D02*
X198454937Y68851728D01*
X198454937Y68851728D02*
X198416841Y68699347D01*
X198416841Y68699347D02*
X198416841Y68585061D01*
X198416841Y68585061D02*
X198454937Y68432680D01*
X198454937Y68432680D02*
X198493032Y68356490D01*
X198493032Y68356490D02*
X198569222Y68280300D01*
X198569222Y68280300D02*
X198683508Y68242204D01*
X198683508Y68242204D02*
X198759699Y68242204D01*
X198759699Y68242204D02*
X198873984Y68280300D01*
X198873984Y68280300D02*
X198912080Y68318395D01*
X198912080Y68318395D02*
X198912080Y68585061D01*
X198912080Y68585061D02*
X198759699Y68585061D01*
X199254937Y68242204D02*
X199254937Y69042204D01*
X199254937Y69042204D02*
X199712080Y68242204D01*
X199712080Y68242204D02*
X199712080Y69042204D01*
X200093032Y68242204D02*
X200093032Y69042204D01*
X200093032Y69042204D02*
X200283508Y69042204D01*
X200283508Y69042204D02*
X200397794Y69004109D01*
X200397794Y69004109D02*
X200473984Y68927919D01*
X200473984Y68927919D02*
X200512079Y68851728D01*
X200512079Y68851728D02*
X200550175Y68699347D01*
X200550175Y68699347D02*
X200550175Y68585061D01*
X200550175Y68585061D02*
X200512079Y68432680D01*
X200512079Y68432680D02*
X200473984Y68356490D01*
X200473984Y68356490D02*
X200397794Y68280300D01*
X200397794Y68280300D02*
X200283508Y68242204D01*
X200283508Y68242204D02*
X200093032Y68242204D01*
X198873984Y66464109D02*
X198797794Y66502204D01*
X198797794Y66502204D02*
X198683508Y66502204D01*
X198683508Y66502204D02*
X198569222Y66464109D01*
X198569222Y66464109D02*
X198493032Y66387919D01*
X198493032Y66387919D02*
X198454937Y66311728D01*
X198454937Y66311728D02*
X198416841Y66159347D01*
X198416841Y66159347D02*
X198416841Y66045061D01*
X198416841Y66045061D02*
X198454937Y65892680D01*
X198454937Y65892680D02*
X198493032Y65816490D01*
X198493032Y65816490D02*
X198569222Y65740300D01*
X198569222Y65740300D02*
X198683508Y65702204D01*
X198683508Y65702204D02*
X198759699Y65702204D01*
X198759699Y65702204D02*
X198873984Y65740300D01*
X198873984Y65740300D02*
X198912080Y65778395D01*
X198912080Y65778395D02*
X198912080Y66045061D01*
X198912080Y66045061D02*
X198759699Y66045061D01*
X199254937Y65702204D02*
X199254937Y66502204D01*
X199254937Y66502204D02*
X199712080Y65702204D01*
X199712080Y65702204D02*
X199712080Y66502204D01*
X200093032Y65702204D02*
X200093032Y66502204D01*
X200093032Y66502204D02*
X200283508Y66502204D01*
X200283508Y66502204D02*
X200397794Y66464109D01*
X200397794Y66464109D02*
X200473984Y66387919D01*
X200473984Y66387919D02*
X200512079Y66311728D01*
X200512079Y66311728D02*
X200550175Y66159347D01*
X200550175Y66159347D02*
X200550175Y66045061D01*
X200550175Y66045061D02*
X200512079Y65892680D01*
X200512079Y65892680D02*
X200473984Y65816490D01*
X200473984Y65816490D02*
X200397794Y65740300D01*
X200397794Y65740300D02*
X200283508Y65702204D01*
X200283508Y65702204D02*
X200093032Y65702204D01*
X198512079Y63162204D02*
X198512079Y63962204D01*
X198512079Y63962204D02*
X198816841Y63962204D01*
X198816841Y63962204D02*
X198893031Y63924109D01*
X198893031Y63924109D02*
X198931126Y63886014D01*
X198931126Y63886014D02*
X198969222Y63809823D01*
X198969222Y63809823D02*
X198969222Y63695538D01*
X198969222Y63695538D02*
X198931126Y63619347D01*
X198931126Y63619347D02*
X198893031Y63581252D01*
X198893031Y63581252D02*
X198816841Y63543157D01*
X198816841Y63543157D02*
X198512079Y63543157D01*
X199464460Y63962204D02*
X199540650Y63962204D01*
X199540650Y63962204D02*
X199616841Y63924109D01*
X199616841Y63924109D02*
X199654936Y63886014D01*
X199654936Y63886014D02*
X199693031Y63809823D01*
X199693031Y63809823D02*
X199731126Y63657442D01*
X199731126Y63657442D02*
X199731126Y63466966D01*
X199731126Y63466966D02*
X199693031Y63314585D01*
X199693031Y63314585D02*
X199654936Y63238395D01*
X199654936Y63238395D02*
X199616841Y63200300D01*
X199616841Y63200300D02*
X199540650Y63162204D01*
X199540650Y63162204D02*
X199464460Y63162204D01*
X199464460Y63162204D02*
X199388269Y63200300D01*
X199388269Y63200300D02*
X199350174Y63238395D01*
X199350174Y63238395D02*
X199312079Y63314585D01*
X199312079Y63314585D02*
X199273983Y63466966D01*
X199273983Y63466966D02*
X199273983Y63657442D01*
X199273983Y63657442D02*
X199312079Y63809823D01*
X199312079Y63809823D02*
X199350174Y63886014D01*
X199350174Y63886014D02*
X199388269Y63924109D01*
X199388269Y63924109D02*
X199464460Y63962204D01*
X200035888Y63886014D02*
X200073984Y63924109D01*
X200073984Y63924109D02*
X200150174Y63962204D01*
X200150174Y63962204D02*
X200340650Y63962204D01*
X200340650Y63962204D02*
X200416841Y63924109D01*
X200416841Y63924109D02*
X200454936Y63886014D01*
X200454936Y63886014D02*
X200493031Y63809823D01*
X200493031Y63809823D02*
X200493031Y63733633D01*
X200493031Y63733633D02*
X200454936Y63619347D01*
X200454936Y63619347D02*
X199997793Y63162204D01*
X199997793Y63162204D02*
X200493031Y63162204D01*
X198512079Y60622204D02*
X198512079Y61422204D01*
X198512079Y61422204D02*
X198816841Y61422204D01*
X198816841Y61422204D02*
X198893031Y61384109D01*
X198893031Y61384109D02*
X198931126Y61346014D01*
X198931126Y61346014D02*
X198969222Y61269823D01*
X198969222Y61269823D02*
X198969222Y61155538D01*
X198969222Y61155538D02*
X198931126Y61079347D01*
X198931126Y61079347D02*
X198893031Y61041252D01*
X198893031Y61041252D02*
X198816841Y61003157D01*
X198816841Y61003157D02*
X198512079Y61003157D01*
X199464460Y61422204D02*
X199540650Y61422204D01*
X199540650Y61422204D02*
X199616841Y61384109D01*
X199616841Y61384109D02*
X199654936Y61346014D01*
X199654936Y61346014D02*
X199693031Y61269823D01*
X199693031Y61269823D02*
X199731126Y61117442D01*
X199731126Y61117442D02*
X199731126Y60926966D01*
X199731126Y60926966D02*
X199693031Y60774585D01*
X199693031Y60774585D02*
X199654936Y60698395D01*
X199654936Y60698395D02*
X199616841Y60660300D01*
X199616841Y60660300D02*
X199540650Y60622204D01*
X199540650Y60622204D02*
X199464460Y60622204D01*
X199464460Y60622204D02*
X199388269Y60660300D01*
X199388269Y60660300D02*
X199350174Y60698395D01*
X199350174Y60698395D02*
X199312079Y60774585D01*
X199312079Y60774585D02*
X199273983Y60926966D01*
X199273983Y60926966D02*
X199273983Y61117442D01*
X199273983Y61117442D02*
X199312079Y61269823D01*
X199312079Y61269823D02*
X199350174Y61346014D01*
X199350174Y61346014D02*
X199388269Y61384109D01*
X199388269Y61384109D02*
X199464460Y61422204D01*
X199997793Y61422204D02*
X200493031Y61422204D01*
X200493031Y61422204D02*
X200226365Y61117442D01*
X200226365Y61117442D02*
X200340650Y61117442D01*
X200340650Y61117442D02*
X200416841Y61079347D01*
X200416841Y61079347D02*
X200454936Y61041252D01*
X200454936Y61041252D02*
X200493031Y60965061D01*
X200493031Y60965061D02*
X200493031Y60774585D01*
X200493031Y60774585D02*
X200454936Y60698395D01*
X200454936Y60698395D02*
X200416841Y60660300D01*
X200416841Y60660300D02*
X200340650Y60622204D01*
X200340650Y60622204D02*
X200112079Y60622204D01*
X200112079Y60622204D02*
X200035888Y60660300D01*
X200035888Y60660300D02*
X199997793Y60698395D01*
X198512079Y58082204D02*
X198512079Y58882204D01*
X198512079Y58882204D02*
X198816841Y58882204D01*
X198816841Y58882204D02*
X198893031Y58844109D01*
X198893031Y58844109D02*
X198931126Y58806014D01*
X198931126Y58806014D02*
X198969222Y58729823D01*
X198969222Y58729823D02*
X198969222Y58615538D01*
X198969222Y58615538D02*
X198931126Y58539347D01*
X198931126Y58539347D02*
X198893031Y58501252D01*
X198893031Y58501252D02*
X198816841Y58463157D01*
X198816841Y58463157D02*
X198512079Y58463157D01*
X199464460Y58882204D02*
X199540650Y58882204D01*
X199540650Y58882204D02*
X199616841Y58844109D01*
X199616841Y58844109D02*
X199654936Y58806014D01*
X199654936Y58806014D02*
X199693031Y58729823D01*
X199693031Y58729823D02*
X199731126Y58577442D01*
X199731126Y58577442D02*
X199731126Y58386966D01*
X199731126Y58386966D02*
X199693031Y58234585D01*
X199693031Y58234585D02*
X199654936Y58158395D01*
X199654936Y58158395D02*
X199616841Y58120300D01*
X199616841Y58120300D02*
X199540650Y58082204D01*
X199540650Y58082204D02*
X199464460Y58082204D01*
X199464460Y58082204D02*
X199388269Y58120300D01*
X199388269Y58120300D02*
X199350174Y58158395D01*
X199350174Y58158395D02*
X199312079Y58234585D01*
X199312079Y58234585D02*
X199273983Y58386966D01*
X199273983Y58386966D02*
X199273983Y58577442D01*
X199273983Y58577442D02*
X199312079Y58729823D01*
X199312079Y58729823D02*
X199350174Y58806014D01*
X199350174Y58806014D02*
X199388269Y58844109D01*
X199388269Y58844109D02*
X199464460Y58882204D01*
X200416841Y58615538D02*
X200416841Y58082204D01*
X200226365Y58920300D02*
X200035888Y58348871D01*
X200035888Y58348871D02*
X200531127Y58348871D01*
X198512079Y55542204D02*
X198512079Y56342204D01*
X198512079Y56342204D02*
X198816841Y56342204D01*
X198816841Y56342204D02*
X198893031Y56304109D01*
X198893031Y56304109D02*
X198931126Y56266014D01*
X198931126Y56266014D02*
X198969222Y56189823D01*
X198969222Y56189823D02*
X198969222Y56075538D01*
X198969222Y56075538D02*
X198931126Y55999347D01*
X198931126Y55999347D02*
X198893031Y55961252D01*
X198893031Y55961252D02*
X198816841Y55923157D01*
X198816841Y55923157D02*
X198512079Y55923157D01*
X199464460Y56342204D02*
X199540650Y56342204D01*
X199540650Y56342204D02*
X199616841Y56304109D01*
X199616841Y56304109D02*
X199654936Y56266014D01*
X199654936Y56266014D02*
X199693031Y56189823D01*
X199693031Y56189823D02*
X199731126Y56037442D01*
X199731126Y56037442D02*
X199731126Y55846966D01*
X199731126Y55846966D02*
X199693031Y55694585D01*
X199693031Y55694585D02*
X199654936Y55618395D01*
X199654936Y55618395D02*
X199616841Y55580300D01*
X199616841Y55580300D02*
X199540650Y55542204D01*
X199540650Y55542204D02*
X199464460Y55542204D01*
X199464460Y55542204D02*
X199388269Y55580300D01*
X199388269Y55580300D02*
X199350174Y55618395D01*
X199350174Y55618395D02*
X199312079Y55694585D01*
X199312079Y55694585D02*
X199273983Y55846966D01*
X199273983Y55846966D02*
X199273983Y56037442D01*
X199273983Y56037442D02*
X199312079Y56189823D01*
X199312079Y56189823D02*
X199350174Y56266014D01*
X199350174Y56266014D02*
X199388269Y56304109D01*
X199388269Y56304109D02*
X199464460Y56342204D01*
X200454936Y56342204D02*
X200073984Y56342204D01*
X200073984Y56342204D02*
X200035888Y55961252D01*
X200035888Y55961252D02*
X200073984Y55999347D01*
X200073984Y55999347D02*
X200150174Y56037442D01*
X200150174Y56037442D02*
X200340650Y56037442D01*
X200340650Y56037442D02*
X200416841Y55999347D01*
X200416841Y55999347D02*
X200454936Y55961252D01*
X200454936Y55961252D02*
X200493031Y55885061D01*
X200493031Y55885061D02*
X200493031Y55694585D01*
X200493031Y55694585D02*
X200454936Y55618395D01*
X200454936Y55618395D02*
X200416841Y55580300D01*
X200416841Y55580300D02*
X200340650Y55542204D01*
X200340650Y55542204D02*
X200150174Y55542204D01*
X200150174Y55542204D02*
X200073984Y55580300D01*
X200073984Y55580300D02*
X200035888Y55618395D01*
X198512079Y53002204D02*
X198512079Y53802204D01*
X198512079Y53802204D02*
X198816841Y53802204D01*
X198816841Y53802204D02*
X198893031Y53764109D01*
X198893031Y53764109D02*
X198931126Y53726014D01*
X198931126Y53726014D02*
X198969222Y53649823D01*
X198969222Y53649823D02*
X198969222Y53535538D01*
X198969222Y53535538D02*
X198931126Y53459347D01*
X198931126Y53459347D02*
X198893031Y53421252D01*
X198893031Y53421252D02*
X198816841Y53383157D01*
X198816841Y53383157D02*
X198512079Y53383157D01*
X199464460Y53802204D02*
X199540650Y53802204D01*
X199540650Y53802204D02*
X199616841Y53764109D01*
X199616841Y53764109D02*
X199654936Y53726014D01*
X199654936Y53726014D02*
X199693031Y53649823D01*
X199693031Y53649823D02*
X199731126Y53497442D01*
X199731126Y53497442D02*
X199731126Y53306966D01*
X199731126Y53306966D02*
X199693031Y53154585D01*
X199693031Y53154585D02*
X199654936Y53078395D01*
X199654936Y53078395D02*
X199616841Y53040300D01*
X199616841Y53040300D02*
X199540650Y53002204D01*
X199540650Y53002204D02*
X199464460Y53002204D01*
X199464460Y53002204D02*
X199388269Y53040300D01*
X199388269Y53040300D02*
X199350174Y53078395D01*
X199350174Y53078395D02*
X199312079Y53154585D01*
X199312079Y53154585D02*
X199273983Y53306966D01*
X199273983Y53306966D02*
X199273983Y53497442D01*
X199273983Y53497442D02*
X199312079Y53649823D01*
X199312079Y53649823D02*
X199350174Y53726014D01*
X199350174Y53726014D02*
X199388269Y53764109D01*
X199388269Y53764109D02*
X199464460Y53802204D01*
X200416841Y53802204D02*
X200264460Y53802204D01*
X200264460Y53802204D02*
X200188269Y53764109D01*
X200188269Y53764109D02*
X200150174Y53726014D01*
X200150174Y53726014D02*
X200073984Y53611728D01*
X200073984Y53611728D02*
X200035888Y53459347D01*
X200035888Y53459347D02*
X200035888Y53154585D01*
X200035888Y53154585D02*
X200073984Y53078395D01*
X200073984Y53078395D02*
X200112079Y53040300D01*
X200112079Y53040300D02*
X200188269Y53002204D01*
X200188269Y53002204D02*
X200340650Y53002204D01*
X200340650Y53002204D02*
X200416841Y53040300D01*
X200416841Y53040300D02*
X200454936Y53078395D01*
X200454936Y53078395D02*
X200493031Y53154585D01*
X200493031Y53154585D02*
X200493031Y53345061D01*
X200493031Y53345061D02*
X200454936Y53421252D01*
X200454936Y53421252D02*
X200416841Y53459347D01*
X200416841Y53459347D02*
X200340650Y53497442D01*
X200340650Y53497442D02*
X200188269Y53497442D01*
X200188269Y53497442D02*
X200112079Y53459347D01*
X200112079Y53459347D02*
X200073984Y53421252D01*
X200073984Y53421252D02*
X200035888Y53345061D01*
X198512079Y50462204D02*
X198512079Y51262204D01*
X198512079Y51262204D02*
X198816841Y51262204D01*
X198816841Y51262204D02*
X198893031Y51224109D01*
X198893031Y51224109D02*
X198931126Y51186014D01*
X198931126Y51186014D02*
X198969222Y51109823D01*
X198969222Y51109823D02*
X198969222Y50995538D01*
X198969222Y50995538D02*
X198931126Y50919347D01*
X198931126Y50919347D02*
X198893031Y50881252D01*
X198893031Y50881252D02*
X198816841Y50843157D01*
X198816841Y50843157D02*
X198512079Y50843157D01*
X199464460Y51262204D02*
X199540650Y51262204D01*
X199540650Y51262204D02*
X199616841Y51224109D01*
X199616841Y51224109D02*
X199654936Y51186014D01*
X199654936Y51186014D02*
X199693031Y51109823D01*
X199693031Y51109823D02*
X199731126Y50957442D01*
X199731126Y50957442D02*
X199731126Y50766966D01*
X199731126Y50766966D02*
X199693031Y50614585D01*
X199693031Y50614585D02*
X199654936Y50538395D01*
X199654936Y50538395D02*
X199616841Y50500300D01*
X199616841Y50500300D02*
X199540650Y50462204D01*
X199540650Y50462204D02*
X199464460Y50462204D01*
X199464460Y50462204D02*
X199388269Y50500300D01*
X199388269Y50500300D02*
X199350174Y50538395D01*
X199350174Y50538395D02*
X199312079Y50614585D01*
X199312079Y50614585D02*
X199273983Y50766966D01*
X199273983Y50766966D02*
X199273983Y50957442D01*
X199273983Y50957442D02*
X199312079Y51109823D01*
X199312079Y51109823D02*
X199350174Y51186014D01*
X199350174Y51186014D02*
X199388269Y51224109D01*
X199388269Y51224109D02*
X199464460Y51262204D01*
X199997793Y51262204D02*
X200531127Y51262204D01*
X200531127Y51262204D02*
X200188269Y50462204D01*
X198512079Y47922204D02*
X198512079Y48722204D01*
X198512079Y48722204D02*
X198816841Y48722204D01*
X198816841Y48722204D02*
X198893031Y48684109D01*
X198893031Y48684109D02*
X198931126Y48646014D01*
X198931126Y48646014D02*
X198969222Y48569823D01*
X198969222Y48569823D02*
X198969222Y48455538D01*
X198969222Y48455538D02*
X198931126Y48379347D01*
X198931126Y48379347D02*
X198893031Y48341252D01*
X198893031Y48341252D02*
X198816841Y48303157D01*
X198816841Y48303157D02*
X198512079Y48303157D01*
X199464460Y48722204D02*
X199540650Y48722204D01*
X199540650Y48722204D02*
X199616841Y48684109D01*
X199616841Y48684109D02*
X199654936Y48646014D01*
X199654936Y48646014D02*
X199693031Y48569823D01*
X199693031Y48569823D02*
X199731126Y48417442D01*
X199731126Y48417442D02*
X199731126Y48226966D01*
X199731126Y48226966D02*
X199693031Y48074585D01*
X199693031Y48074585D02*
X199654936Y47998395D01*
X199654936Y47998395D02*
X199616841Y47960300D01*
X199616841Y47960300D02*
X199540650Y47922204D01*
X199540650Y47922204D02*
X199464460Y47922204D01*
X199464460Y47922204D02*
X199388269Y47960300D01*
X199388269Y47960300D02*
X199350174Y47998395D01*
X199350174Y47998395D02*
X199312079Y48074585D01*
X199312079Y48074585D02*
X199273983Y48226966D01*
X199273983Y48226966D02*
X199273983Y48417442D01*
X199273983Y48417442D02*
X199312079Y48569823D01*
X199312079Y48569823D02*
X199350174Y48646014D01*
X199350174Y48646014D02*
X199388269Y48684109D01*
X199388269Y48684109D02*
X199464460Y48722204D01*
X200188269Y48379347D02*
X200112079Y48417442D01*
X200112079Y48417442D02*
X200073984Y48455538D01*
X200073984Y48455538D02*
X200035888Y48531728D01*
X200035888Y48531728D02*
X200035888Y48569823D01*
X200035888Y48569823D02*
X200073984Y48646014D01*
X200073984Y48646014D02*
X200112079Y48684109D01*
X200112079Y48684109D02*
X200188269Y48722204D01*
X200188269Y48722204D02*
X200340650Y48722204D01*
X200340650Y48722204D02*
X200416841Y48684109D01*
X200416841Y48684109D02*
X200454936Y48646014D01*
X200454936Y48646014D02*
X200493031Y48569823D01*
X200493031Y48569823D02*
X200493031Y48531728D01*
X200493031Y48531728D02*
X200454936Y48455538D01*
X200454936Y48455538D02*
X200416841Y48417442D01*
X200416841Y48417442D02*
X200340650Y48379347D01*
X200340650Y48379347D02*
X200188269Y48379347D01*
X200188269Y48379347D02*
X200112079Y48341252D01*
X200112079Y48341252D02*
X200073984Y48303157D01*
X200073984Y48303157D02*
X200035888Y48226966D01*
X200035888Y48226966D02*
X200035888Y48074585D01*
X200035888Y48074585D02*
X200073984Y47998395D01*
X200073984Y47998395D02*
X200112079Y47960300D01*
X200112079Y47960300D02*
X200188269Y47922204D01*
X200188269Y47922204D02*
X200340650Y47922204D01*
X200340650Y47922204D02*
X200416841Y47960300D01*
X200416841Y47960300D02*
X200454936Y47998395D01*
X200454936Y47998395D02*
X200493031Y48074585D01*
X200493031Y48074585D02*
X200493031Y48226966D01*
X200493031Y48226966D02*
X200454936Y48303157D01*
X200454936Y48303157D02*
X200416841Y48341252D01*
X200416841Y48341252D02*
X200340650Y48379347D01*
X198512079Y45382204D02*
X198512079Y46182204D01*
X198512079Y46182204D02*
X198816841Y46182204D01*
X198816841Y46182204D02*
X198893031Y46144109D01*
X198893031Y46144109D02*
X198931126Y46106014D01*
X198931126Y46106014D02*
X198969222Y46029823D01*
X198969222Y46029823D02*
X198969222Y45915538D01*
X198969222Y45915538D02*
X198931126Y45839347D01*
X198931126Y45839347D02*
X198893031Y45801252D01*
X198893031Y45801252D02*
X198816841Y45763157D01*
X198816841Y45763157D02*
X198512079Y45763157D01*
X199464460Y46182204D02*
X199540650Y46182204D01*
X199540650Y46182204D02*
X199616841Y46144109D01*
X199616841Y46144109D02*
X199654936Y46106014D01*
X199654936Y46106014D02*
X199693031Y46029823D01*
X199693031Y46029823D02*
X199731126Y45877442D01*
X199731126Y45877442D02*
X199731126Y45686966D01*
X199731126Y45686966D02*
X199693031Y45534585D01*
X199693031Y45534585D02*
X199654936Y45458395D01*
X199654936Y45458395D02*
X199616841Y45420300D01*
X199616841Y45420300D02*
X199540650Y45382204D01*
X199540650Y45382204D02*
X199464460Y45382204D01*
X199464460Y45382204D02*
X199388269Y45420300D01*
X199388269Y45420300D02*
X199350174Y45458395D01*
X199350174Y45458395D02*
X199312079Y45534585D01*
X199312079Y45534585D02*
X199273983Y45686966D01*
X199273983Y45686966D02*
X199273983Y45877442D01*
X199273983Y45877442D02*
X199312079Y46029823D01*
X199312079Y46029823D02*
X199350174Y46106014D01*
X199350174Y46106014D02*
X199388269Y46144109D01*
X199388269Y46144109D02*
X199464460Y46182204D01*
X200112079Y45382204D02*
X200264460Y45382204D01*
X200264460Y45382204D02*
X200340650Y45420300D01*
X200340650Y45420300D02*
X200378746Y45458395D01*
X200378746Y45458395D02*
X200454936Y45572680D01*
X200454936Y45572680D02*
X200493031Y45725061D01*
X200493031Y45725061D02*
X200493031Y46029823D01*
X200493031Y46029823D02*
X200454936Y46106014D01*
X200454936Y46106014D02*
X200416841Y46144109D01*
X200416841Y46144109D02*
X200340650Y46182204D01*
X200340650Y46182204D02*
X200188269Y46182204D01*
X200188269Y46182204D02*
X200112079Y46144109D01*
X200112079Y46144109D02*
X200073984Y46106014D01*
X200073984Y46106014D02*
X200035888Y46029823D01*
X200035888Y46029823D02*
X200035888Y45839347D01*
X200035888Y45839347D02*
X200073984Y45763157D01*
X200073984Y45763157D02*
X200112079Y45725061D01*
X200112079Y45725061D02*
X200188269Y45686966D01*
X200188269Y45686966D02*
X200340650Y45686966D01*
X200340650Y45686966D02*
X200416841Y45725061D01*
X200416841Y45725061D02*
X200454936Y45763157D01*
X200454936Y45763157D02*
X200493031Y45839347D01*
D11*
%TO.C,G\u002A\u002A\u002A*%
G36*
X263644615Y-8083251D02*
G01*
X263878636Y-8090928D01*
X264054659Y-8103736D01*
X264192525Y-8123326D01*
X264237546Y-8132557D01*
X264345301Y-8153664D01*
X264421742Y-8163269D01*
X264442699Y-8161983D01*
X264463514Y-8165668D01*
X264465230Y-8173513D01*
X264496397Y-8194174D01*
X264519079Y-8196308D01*
X264580241Y-8210722D01*
X264638119Y-8240269D01*
X264676681Y-8263890D01*
X264680508Y-8260703D01*
X264679656Y-8259808D01*
X264663382Y-8236182D01*
X264689221Y-8243343D01*
X264754571Y-8280029D01*
X264856827Y-8344979D01*
X264861016Y-8347731D01*
X264948689Y-8403734D01*
X265019639Y-8446036D01*
X265059595Y-8466162D01*
X265061153Y-8466590D01*
X265090438Y-8488743D01*
X265090461Y-8489393D01*
X265105282Y-8515208D01*
X265143261Y-8563690D01*
X265174695Y-8600111D01*
X265220563Y-8652308D01*
X265252079Y-8693292D01*
X265274398Y-8733824D01*
X265292678Y-8784668D01*
X265312074Y-8856584D01*
X265327601Y-8919231D01*
X265344074Y-9007917D01*
X265350789Y-9092898D01*
X265346688Y-9158404D01*
X265344314Y-9168346D01*
X265320133Y-9251384D01*
X263984143Y-9253698D01*
X263668713Y-9254216D01*
X263378604Y-9254639D01*
X263122954Y-9254956D01*
X262910902Y-9255159D01*
X262751584Y-9255240D01*
X262654138Y-9255188D01*
X262626951Y-9255049D01*
X262609264Y-9271264D01*
X262597173Y-9310367D01*
X262604792Y-9358992D01*
X262633699Y-9417224D01*
X262674843Y-9472552D01*
X262719173Y-9512463D01*
X262752394Y-9524923D01*
X262773309Y-9536616D01*
X262768752Y-9541736D01*
X262780907Y-9565396D01*
X262840313Y-9603346D01*
X262930063Y-9647565D01*
X263033249Y-9690029D01*
X263132963Y-9722716D01*
X263168195Y-9731278D01*
X263316620Y-9755434D01*
X263473681Y-9770135D01*
X263615265Y-9774185D01*
X263717263Y-9766390D01*
X263741550Y-9759699D01*
X263818280Y-9744533D01*
X263859040Y-9746816D01*
X263909605Y-9746807D01*
X263918153Y-9738080D01*
X263942055Y-9726864D01*
X263956422Y-9729827D01*
X264029507Y-9729737D01*
X264139710Y-9696929D01*
X264284268Y-9632292D01*
X264325816Y-9611074D01*
X264420842Y-9566338D01*
X264512022Y-9538545D01*
X264617320Y-9526170D01*
X264754705Y-9527687D01*
X264942142Y-9541569D01*
X265038361Y-9550551D01*
X265279338Y-9573769D01*
X265217873Y-9642154D01*
X265179574Y-9689886D01*
X265162368Y-9721709D01*
X265162511Y-9725192D01*
X265138885Y-9739223D01*
X265127231Y-9739846D01*
X265103302Y-9751677D01*
X265108787Y-9758404D01*
X265097325Y-9780454D01*
X265051384Y-9798461D01*
X264998159Y-9821877D01*
X264994578Y-9839003D01*
X264988226Y-9853027D01*
X264968141Y-9852676D01*
X264921581Y-9861196D01*
X264916391Y-9870102D01*
X264888556Y-9904032D01*
X264879042Y-9909179D01*
X264861470Y-9910731D01*
X264872563Y-9896154D01*
X264867095Y-9891670D01*
X264821415Y-9912103D01*
X264777845Y-9935231D01*
X264712166Y-9968823D01*
X264679009Y-9980266D01*
X264679761Y-9974308D01*
X264679113Y-9965116D01*
X264641797Y-9984077D01*
X264573673Y-10011720D01*
X264521668Y-10017413D01*
X264471831Y-10023809D01*
X264465230Y-10033219D01*
X264442160Y-10046204D01*
X264429303Y-10043666D01*
X264375709Y-10046202D01*
X264341031Y-10058736D01*
X264271401Y-10076674D01*
X264234749Y-10075920D01*
X264200657Y-10077404D01*
X264211901Y-10092081D01*
X264217498Y-10109042D01*
X264161214Y-10106537D01*
X264158725Y-10106214D01*
X264093285Y-10104732D01*
X264074461Y-10114223D01*
X264044112Y-10124678D01*
X263999595Y-10121368D01*
X263929454Y-10118805D01*
X263904014Y-10126247D01*
X263858902Y-10134362D01*
X263760421Y-10140321D01*
X263629943Y-10143969D01*
X263488842Y-10145155D01*
X263358493Y-10143726D01*
X263260269Y-10139531D01*
X263215544Y-10132416D01*
X263214768Y-10131159D01*
X263183583Y-10122132D01*
X263136615Y-10124954D01*
X263072426Y-10123987D01*
X263058461Y-10111265D01*
X263030328Y-10096115D01*
X263001097Y-10098364D01*
X262938783Y-10098610D01*
X262921691Y-10091538D01*
X262871795Y-10081647D01*
X262842286Y-10084713D01*
X262792926Y-10082973D01*
X262784922Y-10072937D01*
X262761229Y-10059327D01*
X262745845Y-10062231D01*
X262709894Y-10060033D01*
X262706768Y-10052461D01*
X262682964Y-10039720D01*
X262667691Y-10042692D01*
X262631741Y-10040495D01*
X262628615Y-10032923D01*
X262604811Y-10020182D01*
X262589538Y-10023154D01*
X262553529Y-10021605D01*
X262550461Y-10014538D01*
X262524941Y-9998227D01*
X262513855Y-9998731D01*
X262468263Y-9988372D01*
X262394197Y-9956539D01*
X262353221Y-9935231D01*
X262292854Y-9903735D01*
X262270783Y-9896161D01*
X262281183Y-9905923D01*
X262304064Y-9926333D01*
X262280994Y-9920803D01*
X262226894Y-9897632D01*
X262145918Y-9858797D01*
X262123263Y-9840920D01*
X262160545Y-9845410D01*
X262169461Y-9847604D01*
X262175649Y-9845691D01*
X262130183Y-9825533D01*
X262110644Y-9817746D01*
X262044230Y-9785773D01*
X262020891Y-9762065D01*
X262022496Y-9759729D01*
X262009811Y-9740601D01*
X261981144Y-9732262D01*
X261940909Y-9712899D01*
X261944598Y-9700907D01*
X261940470Y-9682833D01*
X261925230Y-9681231D01*
X261899747Y-9669329D01*
X261905691Y-9661692D01*
X261907397Y-9643585D01*
X261896775Y-9642154D01*
X261868054Y-9625583D01*
X261857349Y-9599950D01*
X261832791Y-9559604D01*
X261804950Y-9543519D01*
X261778736Y-9518185D01*
X261785761Y-9507569D01*
X261787867Y-9488004D01*
X261773657Y-9485846D01*
X261757296Y-9485303D01*
X261745331Y-9480031D01*
X261736854Y-9464560D01*
X261730959Y-9433423D01*
X261726736Y-9381153D01*
X261723279Y-9302282D01*
X261719680Y-9191342D01*
X261718521Y-9153692D01*
X261716767Y-9000042D01*
X261722109Y-8888295D01*
X262589507Y-8888295D01*
X262591456Y-8901045D01*
X262603465Y-8910744D01*
X262634741Y-8917736D01*
X262694491Y-8922367D01*
X262791922Y-8924981D01*
X262936242Y-8925923D01*
X263136658Y-8925539D01*
X263402377Y-8924173D01*
X263527353Y-8923439D01*
X264465230Y-8917878D01*
X264465230Y-8854517D01*
X264447498Y-8796115D01*
X264407994Y-8750298D01*
X264373466Y-8715460D01*
X264375430Y-8697105D01*
X264369677Y-8685862D01*
X264352206Y-8684769D01*
X264321302Y-8674390D01*
X264325930Y-8667278D01*
X264315128Y-8646734D01*
X264286683Y-8638108D01*
X264244718Y-8620031D01*
X264246626Y-8609593D01*
X264234649Y-8586781D01*
X264178293Y-8552408D01*
X264164647Y-8545955D01*
X264106131Y-8522997D01*
X264086876Y-8523409D01*
X264090596Y-8528461D01*
X264100677Y-8543601D01*
X264068618Y-8527045D01*
X264066346Y-8525672D01*
X263970142Y-8492136D01*
X263823011Y-8467821D01*
X263650612Y-8454163D01*
X263478603Y-8452596D01*
X263332643Y-8464552D01*
X263262472Y-8480747D01*
X263187384Y-8499846D01*
X263142195Y-8500878D01*
X263096655Y-8506821D01*
X263014573Y-8533021D01*
X262945854Y-8560323D01*
X262778913Y-8647686D01*
X262678791Y-8736760D01*
X262655745Y-8780918D01*
X262633648Y-8819859D01*
X262616596Y-8834060D01*
X262594312Y-8862853D01*
X262589507Y-8888295D01*
X261722109Y-8888295D01*
X261722326Y-8883754D01*
X261735442Y-8803272D01*
X261756360Y-8757042D01*
X261782872Y-8743424D01*
X261800621Y-8728978D01*
X261793868Y-8714077D01*
X261793056Y-8688918D01*
X261809226Y-8684769D01*
X261840792Y-8673587D01*
X261840257Y-8670115D01*
X261851775Y-8640765D01*
X261890233Y-8595511D01*
X261939365Y-8551013D01*
X261982904Y-8523929D01*
X261983050Y-8523876D01*
X261998126Y-8510764D01*
X261986146Y-8509222D01*
X261983689Y-8499031D01*
X262025223Y-8478166D01*
X262061748Y-8459989D01*
X262042461Y-8460116D01*
X262025707Y-8458572D01*
X262063044Y-8437853D01*
X262070107Y-8434683D01*
X262125977Y-8405188D01*
X262139077Y-8387898D01*
X262154990Y-8371018D01*
X262214598Y-8337269D01*
X262266037Y-8312203D01*
X262335601Y-8282032D01*
X262364746Y-8274072D01*
X262354867Y-8284231D01*
X262354045Y-8291463D01*
X262393837Y-8279631D01*
X262456485Y-8255652D01*
X262524229Y-8226445D01*
X262579310Y-8198928D01*
X262589484Y-8192829D01*
X262633792Y-8180911D01*
X262733740Y-8160711D01*
X262870582Y-8135932D01*
X262922259Y-8127109D01*
X263076081Y-8102791D01*
X263203164Y-8088060D01*
X263331318Y-8081226D01*
X263488353Y-8080602D01*
X263644615Y-8083251D01*
G37*
G36*
X269478375Y-8086354D02*
G01*
X269804212Y-8120759D01*
X270082512Y-8176884D01*
X270185504Y-8202037D01*
X270250064Y-8213202D01*
X270262510Y-8209075D01*
X270273674Y-8209808D01*
X270327250Y-8233561D01*
X270409074Y-8273905D01*
X270499052Y-8320952D01*
X270562498Y-8356523D01*
X270584250Y-8371598D01*
X270601447Y-8393856D01*
X270641415Y-8439122D01*
X270669785Y-8469964D01*
X270718594Y-8530627D01*
X270757308Y-8599624D01*
X270786925Y-8681898D01*
X270808441Y-8782391D01*
X270822853Y-8906043D01*
X270831160Y-9057799D01*
X270834357Y-9242600D01*
X270834473Y-9286204D01*
X270835627Y-9446389D01*
X270839188Y-9572129D01*
X270845642Y-9668046D01*
X270855475Y-9738761D01*
X270869170Y-9788894D01*
X270887214Y-9823067D01*
X270891390Y-9828397D01*
X270937000Y-9872312D01*
X270978182Y-9895210D01*
X270985147Y-9896154D01*
X271010023Y-9913634D01*
X271030360Y-9957888D01*
X271036356Y-9984625D01*
X271050429Y-10073097D01*
X270561599Y-10067664D01*
X270072768Y-10062231D01*
X270035380Y-9998731D01*
X270001336Y-9955929D01*
X269967710Y-9935514D01*
X269964362Y-9935231D01*
X269947919Y-9919824D01*
X269956762Y-9894225D01*
X269955764Y-9878738D01*
X269913323Y-9890911D01*
X269825334Y-9931951D01*
X269821201Y-9934014D01*
X269728765Y-9975463D01*
X269654847Y-10000064D01*
X269621958Y-10003175D01*
X269587042Y-10006077D01*
X269584307Y-10013384D01*
X269560503Y-10026126D01*
X269545230Y-10023154D01*
X269509279Y-10025351D01*
X269506153Y-10032923D01*
X269482349Y-10045664D01*
X269467076Y-10042692D01*
X269431125Y-10044889D01*
X269427999Y-10052461D01*
X269404915Y-10065654D01*
X269391622Y-10063065D01*
X269341233Y-10065324D01*
X269331756Y-10070828D01*
X269280571Y-10081753D01*
X269250902Y-10078825D01*
X269201455Y-10079733D01*
X269193538Y-10088835D01*
X269165063Y-10101375D01*
X269134922Y-10098604D01*
X269084755Y-10099636D01*
X269076307Y-10109359D01*
X269044432Y-10122782D01*
X268982878Y-10119635D01*
X268902105Y-10118218D01*
X268863341Y-10129032D01*
X268810828Y-10141387D01*
X268709813Y-10148211D01*
X268589071Y-10149457D01*
X268477376Y-10145077D01*
X268403504Y-10135021D01*
X268391478Y-10129820D01*
X268338605Y-10117980D01*
X268294768Y-10120846D01*
X268224497Y-10121597D01*
X268199113Y-10112725D01*
X268147406Y-10101379D01*
X268117671Y-10104251D01*
X268068224Y-10103343D01*
X268060307Y-10094242D01*
X268032081Y-10081383D01*
X268004713Y-10083893D01*
X267939097Y-10079227D01*
X267890256Y-10062231D01*
X267943076Y-10062231D01*
X267962615Y-10072000D01*
X267982153Y-10062231D01*
X267962615Y-10052461D01*
X267943076Y-10062231D01*
X267890256Y-10062231D01*
X267871200Y-10055600D01*
X267839162Y-10042692D01*
X267864922Y-10042692D01*
X267884461Y-10052461D01*
X267903999Y-10042692D01*
X267884461Y-10032923D01*
X267864922Y-10042692D01*
X267839162Y-10042692D01*
X267809125Y-10030590D01*
X267773652Y-10026455D01*
X267743278Y-10019435D01*
X267709820Y-9994972D01*
X267658451Y-9967436D01*
X267618731Y-9967124D01*
X267591988Y-9971007D01*
X267599463Y-9965259D01*
X267592917Y-9945000D01*
X269740615Y-9945000D01*
X269760153Y-9954769D01*
X269779691Y-9945000D01*
X269760153Y-9935231D01*
X269740615Y-9945000D01*
X267592917Y-9945000D01*
X267592497Y-9943701D01*
X267551575Y-9903622D01*
X267491577Y-9857007D01*
X267427388Y-9815844D01*
X267392363Y-9798461D01*
X267371229Y-9771123D01*
X267354167Y-9714820D01*
X267341793Y-9639627D01*
X267334723Y-9555617D01*
X267334569Y-9544525D01*
X268216615Y-9544525D01*
X268253437Y-9628468D01*
X268356987Y-9699203D01*
X268516887Y-9749903D01*
X268533998Y-9753309D01*
X268640455Y-9764716D01*
X268786955Y-9769763D01*
X268945819Y-9768751D01*
X269089366Y-9761985D01*
X269189917Y-9749767D01*
X269204900Y-9745957D01*
X269282890Y-9730382D01*
X269328610Y-9725264D01*
X269407414Y-9709069D01*
X269435474Y-9695391D01*
X269462193Y-9683912D01*
X269466478Y-9689850D01*
X269486859Y-9691078D01*
X269528589Y-9670311D01*
X269563977Y-9652056D01*
X269561622Y-9661692D01*
X269568497Y-9667977D01*
X269618372Y-9650530D01*
X269655027Y-9634279D01*
X269725352Y-9596005D01*
X269757463Y-9567120D01*
X269756287Y-9560872D01*
X269767978Y-9540997D01*
X269796529Y-9532507D01*
X269838092Y-9514131D01*
X269835776Y-9503337D01*
X269843924Y-9487188D01*
X269859720Y-9485846D01*
X269887815Y-9471681D01*
X269882791Y-9456538D01*
X269879816Y-9431325D01*
X269893596Y-9427231D01*
X269914398Y-9409702D01*
X269934846Y-9365117D01*
X269952195Y-9305480D01*
X269963701Y-9242792D01*
X269966622Y-9189058D01*
X269958211Y-9156279D01*
X269956038Y-9154097D01*
X269912801Y-9148315D01*
X269871742Y-9163491D01*
X269809843Y-9182746D01*
X269776541Y-9182026D01*
X269742754Y-9183894D01*
X269740615Y-9189549D01*
X269707530Y-9203831D01*
X269652691Y-9207511D01*
X269538297Y-9210424D01*
X269385015Y-9219448D01*
X269209273Y-9232981D01*
X269027496Y-9249425D01*
X268856111Y-9267180D01*
X268711544Y-9284647D01*
X268610222Y-9300225D01*
X268568569Y-9312316D01*
X268568307Y-9313109D01*
X268541189Y-9325314D01*
X268533936Y-9324654D01*
X268480356Y-9331408D01*
X268403899Y-9354909D01*
X268329003Y-9385516D01*
X268280108Y-9413589D01*
X268274781Y-9426867D01*
X268268698Y-9451058D01*
X268256329Y-9456341D01*
X268230785Y-9482134D01*
X268217261Y-9530691D01*
X268216615Y-9544525D01*
X267334569Y-9544525D01*
X267333575Y-9472865D01*
X267338964Y-9401444D01*
X267351509Y-9351430D01*
X267363994Y-9335047D01*
X267384588Y-9313883D01*
X267374434Y-9310000D01*
X267375981Y-9297972D01*
X267421185Y-9268612D01*
X267428622Y-9264589D01*
X267481406Y-9230525D01*
X267493966Y-9209341D01*
X267492872Y-9208641D01*
X267506963Y-9191529D01*
X267567901Y-9161744D01*
X267593582Y-9151475D01*
X267688073Y-9114120D01*
X267762444Y-9082755D01*
X267770605Y-9079027D01*
X267815466Y-9062277D01*
X267825845Y-9063292D01*
X267857888Y-9061444D01*
X267940941Y-9046329D01*
X268030999Y-9027001D01*
X268163494Y-9003555D01*
X268353946Y-8978620D01*
X268582546Y-8954581D01*
X268763691Y-8938843D01*
X268977874Y-8921596D01*
X269182720Y-8904598D01*
X269356427Y-8889690D01*
X269477189Y-8878714D01*
X269486615Y-8877795D01*
X269613742Y-8866490D01*
X269716778Y-8859456D01*
X269749614Y-8858329D01*
X269820312Y-8848637D01*
X269840238Y-8839515D01*
X269887238Y-8829582D01*
X269899622Y-8832142D01*
X269922109Y-8822237D01*
X269934855Y-8783628D01*
X269935999Y-8764076D01*
X269926720Y-8714431D01*
X269903398Y-8686861D01*
X269893666Y-8684769D01*
X269864835Y-8670741D01*
X269867788Y-8660346D01*
X269854867Y-8629403D01*
X269822198Y-8610051D01*
X269785445Y-8592949D01*
X269810719Y-8596782D01*
X269818768Y-8598756D01*
X269844571Y-8599886D01*
X269811188Y-8575661D01*
X269802943Y-8570897D01*
X269740050Y-8538625D01*
X269708036Y-8528991D01*
X269717273Y-8544723D01*
X269723581Y-8550026D01*
X269714658Y-8554888D01*
X269665123Y-8543484D01*
X269597436Y-8522625D01*
X269534054Y-8499121D01*
X269500753Y-8482448D01*
X269451329Y-8474874D01*
X269428642Y-8479417D01*
X269362289Y-8481857D01*
X269287096Y-8468740D01*
X269213220Y-8455512D01*
X269117785Y-8453891D01*
X268975999Y-8463687D01*
X268949096Y-8466140D01*
X268820718Y-8480813D01*
X268727577Y-8496608D01*
X268692166Y-8508749D01*
X268657723Y-8520998D01*
X268647378Y-8518976D01*
X268603439Y-8525990D01*
X268533157Y-8556556D01*
X268452515Y-8601378D01*
X268377495Y-8651155D01*
X268324078Y-8696591D01*
X268310313Y-8715077D01*
X268276614Y-8751712D01*
X268216184Y-8757462D01*
X268201860Y-8755970D01*
X268124924Y-8749701D01*
X267994910Y-8741950D01*
X267836674Y-8734160D01*
X267795679Y-8732378D01*
X267644989Y-8724414D01*
X267526873Y-8715166D01*
X267460873Y-8706274D01*
X267453916Y-8703743D01*
X267454559Y-8677510D01*
X267476576Y-8628399D01*
X267511649Y-8569675D01*
X267551458Y-8514607D01*
X267587682Y-8476461D01*
X267601820Y-8467890D01*
X267637873Y-8439817D01*
X267644173Y-8427153D01*
X267674526Y-8400403D01*
X267743864Y-8358201D01*
X267833529Y-8310179D01*
X267924865Y-8265967D01*
X267999213Y-8235197D01*
X268032424Y-8226739D01*
X268081332Y-8211949D01*
X268091040Y-8206077D01*
X268146724Y-8183566D01*
X268157999Y-8181566D01*
X268211937Y-8173071D01*
X268317907Y-8155286D01*
X268454194Y-8131860D01*
X268471125Y-8128918D01*
X268789573Y-8089772D01*
X269132743Y-8075804D01*
X269478375Y-8086354D01*
G37*
G36*
X275376928Y-8738500D02*
G01*
X275366625Y-10072000D01*
X275059428Y-10072000D01*
X274893967Y-10073561D01*
X274743430Y-10077678D01*
X274637765Y-10083498D01*
X274630115Y-10084211D01*
X274546001Y-10089522D01*
X274513357Y-10075594D01*
X274507999Y-10036637D01*
X274493202Y-9971993D01*
X274465781Y-9921849D01*
X274423563Y-9866846D01*
X274329206Y-9925461D01*
X274269909Y-9957790D01*
X274236243Y-9967439D01*
X274233466Y-9964538D01*
X274217082Y-9962381D01*
X274191794Y-9979603D01*
X274146033Y-10003350D01*
X274118923Y-10004138D01*
X274080005Y-10010320D01*
X274062380Y-10025293D01*
X274013988Y-10046850D01*
X273980131Y-10045333D01*
X273930174Y-10046538D01*
X273921845Y-10056331D01*
X273906676Y-10069319D01*
X273897655Y-10066417D01*
X273855096Y-10068463D01*
X273814462Y-10083823D01*
X273744867Y-10103558D01*
X273703135Y-10103284D01*
X273642412Y-10105005D01*
X273627625Y-10112002D01*
X273576692Y-10122041D01*
X273509143Y-10118800D01*
X273433590Y-10116745D01*
X273413845Y-10128994D01*
X273379483Y-10140409D01*
X273293727Y-10146549D01*
X273182575Y-10147585D01*
X273072025Y-10143691D01*
X272988075Y-10135035D01*
X272958748Y-10125994D01*
X272908392Y-10116360D01*
X272842967Y-10119635D01*
X272768975Y-10121414D01*
X272749538Y-10109359D01*
X272721245Y-10095841D01*
X272692174Y-10098364D01*
X272629083Y-10097986D01*
X272611320Y-10090366D01*
X272564383Y-10080005D01*
X272551453Y-10082603D01*
X272517605Y-10079201D01*
X272515076Y-10072000D01*
X272491272Y-10059259D01*
X272475999Y-10062231D01*
X272440096Y-10059512D01*
X272436922Y-10051524D01*
X272408473Y-10037638D01*
X272376828Y-10040272D01*
X272313686Y-10036086D01*
X272294896Y-10023154D01*
X272319691Y-10023154D01*
X272339230Y-10032923D01*
X272358768Y-10023154D01*
X273999999Y-10023154D01*
X274019538Y-10032923D01*
X274039076Y-10023154D01*
X274019538Y-10013384D01*
X273999999Y-10023154D01*
X272358768Y-10023154D01*
X272339230Y-10013384D01*
X272319691Y-10023154D01*
X272294896Y-10023154D01*
X272294579Y-10022936D01*
X272257651Y-10003395D01*
X272237167Y-10004966D01*
X272195851Y-9999641D01*
X272178552Y-9985427D01*
X272144770Y-9963652D01*
X272126685Y-9963803D01*
X272086788Y-9955607D01*
X272011117Y-9925493D01*
X271927259Y-9885537D01*
X271844899Y-9840795D01*
X271797196Y-9809221D01*
X271793786Y-9798027D01*
X271793612Y-9787326D01*
X271744021Y-9761679D01*
X271733538Y-9757254D01*
X271683988Y-9734024D01*
X271686814Y-9728356D01*
X271694461Y-9729830D01*
X271721095Y-9732310D01*
X271685299Y-9714940D01*
X271642033Y-9688509D01*
X271642965Y-9674414D01*
X271637982Y-9662830D01*
X271620513Y-9661692D01*
X271591095Y-9650231D01*
X271596768Y-9642154D01*
X271593670Y-9624149D01*
X271579536Y-9622615D01*
X271543171Y-9612112D01*
X271542780Y-9607961D01*
X271539567Y-9583538D01*
X271528337Y-9559150D01*
X271512854Y-9515520D01*
X271486654Y-9469828D01*
X271452446Y-9444435D01*
X271431000Y-9419569D01*
X271438818Y-9409021D01*
X271442916Y-9375720D01*
X271429130Y-9362875D01*
X271413693Y-9333966D01*
X271402516Y-9275681D01*
X271395625Y-9197664D01*
X271393044Y-9109560D01*
X271394407Y-9040761D01*
X272297572Y-9040761D01*
X272301849Y-9128944D01*
X272318953Y-9221153D01*
X272346710Y-9309142D01*
X272382945Y-9384665D01*
X272425482Y-9439475D01*
X272472148Y-9465325D01*
X272483046Y-9466308D01*
X272503090Y-9478126D01*
X272498068Y-9483799D01*
X272508870Y-9504342D01*
X272537316Y-9512968D01*
X272579140Y-9531150D01*
X272577090Y-9541712D01*
X272586804Y-9565758D01*
X272633228Y-9593724D01*
X272689004Y-9613853D01*
X272710461Y-9612190D01*
X272732587Y-9612486D01*
X272785887Y-9636190D01*
X272786736Y-9636644D01*
X272899389Y-9677092D01*
X273077710Y-9711069D01*
X273198922Y-9726745D01*
X273320141Y-9730565D01*
X273481913Y-9722830D01*
X273651702Y-9705823D01*
X273775307Y-9686320D01*
X273867486Y-9664256D01*
X273918353Y-9644496D01*
X273921845Y-9640032D01*
X273951160Y-9622868D01*
X273957156Y-9622615D01*
X274010160Y-9610535D01*
X274086779Y-9580864D01*
X274166338Y-9543459D01*
X274228162Y-9508177D01*
X274251575Y-9484873D01*
X274250311Y-9482862D01*
X274257935Y-9467071D01*
X274268598Y-9466308D01*
X274307012Y-9450148D01*
X274343329Y-9413898D01*
X274361308Y-9375897D01*
X274359434Y-9363731D01*
X274380677Y-9349507D01*
X274389542Y-9349077D01*
X274411043Y-9334755D01*
X274404900Y-9319769D01*
X274408261Y-9294720D01*
X274429221Y-9290461D01*
X274452041Y-9272677D01*
X274465290Y-9225647D01*
X274469792Y-9158856D01*
X274466373Y-9081787D01*
X274455855Y-9003925D01*
X274439063Y-8934754D01*
X274416821Y-8883758D01*
X274391900Y-8860935D01*
X274354987Y-8840130D01*
X274359382Y-8830719D01*
X274356088Y-8808590D01*
X274319174Y-8780177D01*
X274272934Y-8748861D01*
X274261778Y-8733989D01*
X274242686Y-8715193D01*
X274183654Y-8681122D01*
X274104742Y-8641543D01*
X274026008Y-8606222D01*
X273967512Y-8584926D01*
X273951153Y-8582748D01*
X273923588Y-8574546D01*
X273921845Y-8567538D01*
X273899015Y-8554260D01*
X273885919Y-8556796D01*
X273833650Y-8553592D01*
X273788226Y-8537015D01*
X273740745Y-8518734D01*
X273726461Y-8521204D01*
X273705221Y-8523485D01*
X273682622Y-8514357D01*
X273616145Y-8500066D01*
X273588882Y-8502012D01*
X273527656Y-8498247D01*
X273513184Y-8490716D01*
X273459904Y-8476488D01*
X273364874Y-8469901D01*
X273355230Y-8469846D01*
X273258163Y-8475483D01*
X273199491Y-8489204D01*
X273197276Y-8490716D01*
X273143914Y-8503536D01*
X273116476Y-8501034D01*
X273041454Y-8500597D01*
X272940113Y-8513581D01*
X272853649Y-8533728D01*
X272828487Y-8544789D01*
X272783928Y-8564104D01*
X272703906Y-8591845D01*
X272699446Y-8593271D01*
X272631596Y-8621335D01*
X272610884Y-8643712D01*
X272612345Y-8645350D01*
X272603881Y-8668722D01*
X272580665Y-8678684D01*
X272507687Y-8713949D01*
X272436056Y-8768309D01*
X272389219Y-8823376D01*
X272385222Y-8831965D01*
X272356450Y-8883138D01*
X272336197Y-8909461D01*
X272308296Y-8964852D01*
X272297572Y-9040761D01*
X271394407Y-9040761D01*
X271394798Y-9021011D01*
X271400911Y-8941662D01*
X271411407Y-8881157D01*
X271426312Y-8849138D01*
X271427817Y-8848018D01*
X271456264Y-8817348D01*
X271456743Y-8808941D01*
X271460256Y-8777577D01*
X271476038Y-8748269D01*
X271498145Y-8721514D01*
X271531576Y-8689250D01*
X271560583Y-8649148D01*
X271557192Y-8625750D01*
X271562379Y-8608066D01*
X271577230Y-8606615D01*
X271602712Y-8594713D01*
X271596768Y-8587077D01*
X271598367Y-8569040D01*
X271611367Y-8567538D01*
X271651763Y-8551262D01*
X271677975Y-8523652D01*
X271727324Y-8476811D01*
X271768532Y-8453818D01*
X271805952Y-8436278D01*
X271780948Y-8438806D01*
X271772615Y-8440578D01*
X271756205Y-8438956D01*
X271793682Y-8418171D01*
X271801922Y-8414472D01*
X271864796Y-8381188D01*
X271889845Y-8357396D01*
X271916497Y-8332449D01*
X271974716Y-8301913D01*
X272029781Y-8281394D01*
X272034866Y-8290280D01*
X272031522Y-8294000D01*
X272030217Y-8302027D01*
X272065225Y-8281640D01*
X272068648Y-8279346D01*
X272132946Y-8246922D01*
X272183508Y-8235384D01*
X272239032Y-8219619D01*
X272256619Y-8204838D01*
X272295339Y-8184635D01*
X272319415Y-8186453D01*
X272355564Y-8184389D01*
X272358768Y-8176769D01*
X272382572Y-8164028D01*
X272397845Y-8167000D01*
X272433406Y-8163940D01*
X272436922Y-8155127D01*
X272449695Y-8139604D01*
X272458303Y-8141869D01*
X272503788Y-8142055D01*
X272601245Y-8131955D01*
X272715784Y-8115818D01*
X273028081Y-8084946D01*
X273357025Y-8083519D01*
X273649560Y-8109108D01*
X273780574Y-8126556D01*
X273888812Y-8139285D01*
X273933080Y-8143301D01*
X274010262Y-8160104D01*
X274034685Y-8173183D01*
X274097542Y-8199168D01*
X274123356Y-8203082D01*
X274187496Y-8218382D01*
X274273762Y-8250894D01*
X274292636Y-8259353D01*
X274372081Y-8289970D01*
X274430783Y-8301722D01*
X274440077Y-8300607D01*
X274450417Y-8278639D01*
X274458891Y-8223644D01*
X274465072Y-8141664D01*
X274468535Y-8038743D01*
X274468857Y-7920923D01*
X274468509Y-7896230D01*
X274466642Y-7773563D01*
X274465334Y-7662143D01*
X274464630Y-7568673D01*
X274464579Y-7499856D01*
X274465230Y-7462396D01*
X274465392Y-7459879D01*
X274470708Y-7441618D01*
X274491907Y-7429204D01*
X274542223Y-7421242D01*
X274634892Y-7416335D01*
X274783146Y-7413084D01*
X274928076Y-7411033D01*
X275387230Y-7405000D01*
X275376928Y-8738500D01*
G37*
G36*
X278007606Y-8087665D02*
G01*
X278326191Y-8115033D01*
X278589301Y-8166448D01*
X278659922Y-8187573D01*
X278746885Y-8214261D01*
X278799404Y-8226494D01*
X278806461Y-8225686D01*
X278828595Y-8230989D01*
X278886601Y-8259653D01*
X278967880Y-8304383D01*
X279059834Y-8357885D01*
X279149867Y-8412864D01*
X279225380Y-8462026D01*
X279266906Y-8492294D01*
X279382791Y-8604305D01*
X279463985Y-8728254D01*
X279515079Y-8873089D01*
X279538502Y-9021808D01*
X279559650Y-9251384D01*
X278169362Y-9251384D01*
X277847614Y-9251782D01*
X277551227Y-9252913D01*
X277289117Y-9254684D01*
X277070201Y-9257002D01*
X276903394Y-9259776D01*
X276797612Y-9262911D01*
X276761852Y-9266038D01*
X276759768Y-9295071D01*
X276779298Y-9346722D01*
X276812574Y-9407418D01*
X276851733Y-9463585D01*
X276888908Y-9501652D01*
X276902778Y-9509224D01*
X276926043Y-9522535D01*
X276914781Y-9524624D01*
X276919338Y-9536174D01*
X276965623Y-9564706D01*
X277036318Y-9601601D01*
X277114105Y-9638239D01*
X277181666Y-9666002D01*
X277219476Y-9676278D01*
X277269759Y-9692250D01*
X277282004Y-9700399D01*
X277343202Y-9724083D01*
X277364526Y-9727041D01*
X277445499Y-9740835D01*
X277477845Y-9749581D01*
X277556541Y-9760439D01*
X277687035Y-9765411D01*
X277843981Y-9764868D01*
X278002033Y-9759185D01*
X278135846Y-9748734D01*
X278200768Y-9738943D01*
X278288517Y-9721114D01*
X278340849Y-9712274D01*
X278342041Y-9712175D01*
X278383690Y-9697524D01*
X278452042Y-9664169D01*
X278525952Y-9623664D01*
X278584278Y-9587565D01*
X278605997Y-9567922D01*
X278632961Y-9542796D01*
X278721265Y-9530033D01*
X278875451Y-9529360D01*
X279082288Y-9539367D01*
X279241545Y-9550397D01*
X279369610Y-9561105D01*
X279447944Y-9569851D01*
X279462732Y-9573007D01*
X279461699Y-9595897D01*
X279431706Y-9639044D01*
X279419672Y-9652291D01*
X279378460Y-9699112D01*
X279357941Y-9729576D01*
X279357390Y-9732900D01*
X279331696Y-9752570D01*
X279308029Y-9761372D01*
X279260283Y-9784291D01*
X279253869Y-9792864D01*
X279222730Y-9820499D01*
X279146447Y-9862003D01*
X279043837Y-9908788D01*
X278933721Y-9952269D01*
X278835768Y-9983635D01*
X278745389Y-10010945D01*
X278693831Y-10033272D01*
X278689230Y-10038519D01*
X278664762Y-10046022D01*
X278650153Y-10042692D01*
X278614202Y-10044889D01*
X278611076Y-10052461D01*
X278587272Y-10065203D01*
X278571999Y-10062231D01*
X278535732Y-10060948D01*
X278532895Y-10065962D01*
X278499174Y-10078617D01*
X278430098Y-10084746D01*
X278342800Y-10094791D01*
X278299544Y-10110200D01*
X278251771Y-10128918D01*
X278236264Y-10129333D01*
X278183100Y-10130243D01*
X278181230Y-10130642D01*
X278126094Y-10135120D01*
X278019708Y-10137836D01*
X277882713Y-10138892D01*
X277735752Y-10138386D01*
X277599467Y-10136417D01*
X277494500Y-10133086D01*
X277441494Y-10128492D01*
X277438768Y-10127063D01*
X277405570Y-10114706D01*
X277350845Y-10110959D01*
X277234348Y-10110070D01*
X277174999Y-10109526D01*
X277106331Y-10101492D01*
X277087076Y-10089171D01*
X277062992Y-10078635D01*
X277047999Y-10081769D01*
X277011960Y-10080568D01*
X277008922Y-10073766D01*
X276979912Y-10062638D01*
X276943896Y-10066164D01*
X276899753Y-10068867D01*
X276906849Y-10056005D01*
X276908521Y-10041108D01*
X276879225Y-10044039D01*
X276820679Y-10038178D01*
X276799318Y-10023038D01*
X276762448Y-10001389D01*
X276739754Y-10002265D01*
X276698438Y-9996940D01*
X276681139Y-9982726D01*
X276643295Y-9962311D01*
X276620390Y-9963847D01*
X276575921Y-9958269D01*
X276540793Y-9935972D01*
X276490151Y-9906826D01*
X276452686Y-9901233D01*
X276409840Y-9890488D01*
X276407877Y-9886384D01*
X276422768Y-9886384D01*
X276442307Y-9896154D01*
X276461845Y-9886384D01*
X276442307Y-9876615D01*
X276422768Y-9886384D01*
X276407877Y-9886384D01*
X276405006Y-9880384D01*
X276375174Y-9851399D01*
X276305893Y-9817455D01*
X276305538Y-9817318D01*
X276249903Y-9791794D01*
X276243746Y-9779284D01*
X276246922Y-9779058D01*
X276253825Y-9770518D01*
X276227384Y-9759798D01*
X276175957Y-9736262D01*
X276166847Y-9725905D01*
X276148109Y-9683987D01*
X276111818Y-9644184D01*
X276073826Y-9623132D01*
X276068443Y-9622615D01*
X276039739Y-9611197D01*
X276040776Y-9607961D01*
X276037224Y-9579122D01*
X276014499Y-9531320D01*
X275981218Y-9478016D01*
X275945998Y-9432672D01*
X275917457Y-9408750D01*
X275912575Y-9407692D01*
X275899038Y-9389476D01*
X275890776Y-9339904D01*
X275887304Y-9266591D01*
X275888139Y-9177152D01*
X275892796Y-9079203D01*
X275900791Y-8980357D01*
X275907906Y-8919935D01*
X276765498Y-8919935D01*
X277717595Y-8914698D01*
X278669691Y-8909461D01*
X278656269Y-8861968D01*
X278630053Y-8805956D01*
X278601113Y-8764275D01*
X278572397Y-8722477D01*
X278565689Y-8699423D01*
X278542660Y-8685253D01*
X278532922Y-8684769D01*
X278495188Y-8669812D01*
X278493845Y-8664572D01*
X278472011Y-8642926D01*
X278419012Y-8610171D01*
X278353609Y-8575921D01*
X278294559Y-8549790D01*
X278260622Y-8541391D01*
X278258141Y-8543774D01*
X278237918Y-8541465D01*
X278199526Y-8519842D01*
X278156764Y-8496486D01*
X278142153Y-8496572D01*
X278116673Y-8501342D01*
X278093307Y-8495721D01*
X278037306Y-8480424D01*
X278024922Y-8478227D01*
X277976788Y-8469577D01*
X277937530Y-8461285D01*
X277859362Y-8454624D01*
X277740498Y-8455122D01*
X277683530Y-8457807D01*
X277557681Y-8465015D01*
X277456357Y-8469870D01*
X277428999Y-8470779D01*
X277370926Y-8481273D01*
X277360615Y-8491752D01*
X277336531Y-8502288D01*
X277321538Y-8499154D01*
X277285977Y-8502213D01*
X277282461Y-8511026D01*
X277270554Y-8527023D01*
X277262657Y-8525072D01*
X277223701Y-8530336D01*
X277152239Y-8557928D01*
X277064677Y-8599700D01*
X276977421Y-8647500D01*
X276906875Y-8693181D01*
X276880831Y-8714752D01*
X276830915Y-8776678D01*
X276793759Y-8844664D01*
X276792868Y-8846989D01*
X276765498Y-8919935D01*
X275907906Y-8919935D01*
X275911640Y-8888230D01*
X275924859Y-8810437D01*
X275939964Y-8754593D01*
X275955740Y-8728731D01*
X275969097Y-8709192D01*
X275993013Y-8680853D01*
X276005596Y-8670115D01*
X276016340Y-8648553D01*
X276004998Y-8645393D01*
X276000744Y-8637242D01*
X276016981Y-8630739D01*
X276061014Y-8605702D01*
X276120421Y-8559623D01*
X276144390Y-8538231D01*
X276239634Y-8456727D01*
X276342685Y-8380410D01*
X276443329Y-8315574D01*
X276531351Y-8268511D01*
X276596538Y-8245516D01*
X276619409Y-8245542D01*
X276656043Y-8238661D01*
X276672398Y-8224265D01*
X276711248Y-8204189D01*
X276735384Y-8206077D01*
X276780318Y-8201959D01*
X276798370Y-8187889D01*
X276835122Y-8167107D01*
X276856709Y-8168265D01*
X276889871Y-8167232D01*
X276891691Y-8162542D01*
X276924833Y-8148181D01*
X276976098Y-8142829D01*
X277054070Y-8133755D01*
X277083560Y-8124017D01*
X277111714Y-8112740D01*
X277166500Y-8104132D01*
X277260509Y-8097308D01*
X277406333Y-8091380D01*
X277616564Y-8085461D01*
X277639043Y-8084899D01*
X278007606Y-8087665D01*
G37*
G36*
X281534618Y-8072444D02*
G01*
X281719337Y-8078536D01*
X281897565Y-8088486D01*
X282037132Y-8100592D01*
X282161567Y-8114071D01*
X282252010Y-8123621D01*
X282284307Y-8126777D01*
X282344124Y-8138810D01*
X282436956Y-8166240D01*
X282548408Y-8203678D01*
X282664085Y-8245733D01*
X282769594Y-8287014D01*
X282850539Y-8322132D01*
X282892526Y-8345695D01*
X282887376Y-8352615D01*
X282896139Y-8364977D01*
X282929778Y-8386808D01*
X282975753Y-8419566D01*
X282987565Y-8435747D01*
X283000946Y-8461817D01*
X283035096Y-8508027D01*
X283045860Y-8521172D01*
X283084182Y-8572753D01*
X283104118Y-8610765D01*
X283104922Y-8615638D01*
X283066454Y-8630412D01*
X282953464Y-8645332D01*
X282769577Y-8659949D01*
X282727939Y-8662592D01*
X282350956Y-8685757D01*
X282181828Y-8597501D01*
X282085221Y-8550251D01*
X282004393Y-8516296D01*
X281962888Y-8504199D01*
X281898520Y-8487787D01*
X281888695Y-8482448D01*
X281839764Y-8472361D01*
X281736127Y-8462521D01*
X281613103Y-8455659D01*
X281450769Y-8452519D01*
X281331223Y-8460353D01*
X281220996Y-8481576D01*
X281207638Y-8484924D01*
X281107463Y-8509354D01*
X281037441Y-8524388D01*
X281024076Y-8526366D01*
X280987790Y-8543115D01*
X280957046Y-8567871D01*
X280926697Y-8584827D01*
X280888663Y-8628228D01*
X280893380Y-8686778D01*
X280935102Y-8744980D01*
X281000825Y-8784746D01*
X281088938Y-8809801D01*
X281224882Y-8835333D01*
X281416443Y-8862471D01*
X281671410Y-8892342D01*
X281932615Y-8919600D01*
X282257754Y-8957907D01*
X282517876Y-9002132D01*
X282725892Y-9055233D01*
X282894713Y-9120168D01*
X282965160Y-9156155D01*
X283122223Y-9269011D01*
X283205157Y-9392388D01*
X283214508Y-9527674D01*
X283162146Y-9657939D01*
X283129458Y-9716516D01*
X283109760Y-9758773D01*
X283106869Y-9771647D01*
X283085117Y-9793019D01*
X283076886Y-9796277D01*
X283034052Y-9818118D01*
X282965918Y-9859501D01*
X282932142Y-9881500D01*
X282855576Y-9925186D01*
X282788481Y-9951399D01*
X282766904Y-9954769D01*
X282705885Y-9970536D01*
X282689207Y-9984077D01*
X282642675Y-10010020D01*
X282617065Y-10013384D01*
X282552780Y-10027090D01*
X282517292Y-10043581D01*
X282453230Y-10064090D01*
X282414815Y-10063733D01*
X282368545Y-10066068D01*
X282362461Y-10074703D01*
X282333986Y-10087244D01*
X282303845Y-10084473D01*
X282253498Y-10083777D01*
X282245230Y-10091538D01*
X282216537Y-10101762D01*
X282186615Y-10098604D01*
X282136494Y-10100072D01*
X282127999Y-10110303D01*
X282098180Y-10124528D01*
X282053134Y-10121368D01*
X281981214Y-10120191D01*
X281953580Y-10129461D01*
X281906257Y-10138979D01*
X281806354Y-10145119D01*
X281675314Y-10147958D01*
X281534578Y-10147576D01*
X281405586Y-10144052D01*
X281309780Y-10137467D01*
X281268601Y-10127899D01*
X281268307Y-10126925D01*
X281236305Y-10115621D01*
X281173009Y-10118800D01*
X281092625Y-10121305D01*
X281054527Y-10112002D01*
X281003613Y-10101294D01*
X280973978Y-10104251D01*
X280924627Y-10102435D01*
X280916615Y-10092312D01*
X280886576Y-10078246D01*
X280833567Y-10082546D01*
X280775373Y-10086609D01*
X280776981Y-10074317D01*
X280775616Y-10060942D01*
X280742798Y-10064545D01*
X280691405Y-10063708D01*
X280682153Y-10053399D01*
X280663513Y-10042692D01*
X282440615Y-10042692D01*
X282460153Y-10052461D01*
X282479691Y-10042692D01*
X282460153Y-10032923D01*
X282440615Y-10042692D01*
X280663513Y-10042692D01*
X280658459Y-10039789D01*
X280643076Y-10042692D01*
X280607515Y-10039633D01*
X280603999Y-10030820D01*
X280589044Y-10016491D01*
X280578555Y-10019594D01*
X280537887Y-10016801D01*
X280497504Y-9998427D01*
X280465673Y-9982308D01*
X280472622Y-9993846D01*
X280463570Y-9998701D01*
X280413230Y-9984478D01*
X280339097Y-9957853D01*
X280258664Y-9925501D01*
X280189424Y-9894097D01*
X280148871Y-9870317D01*
X280148856Y-9870304D01*
X280155800Y-9864967D01*
X280207256Y-9881868D01*
X280218580Y-9886384D01*
X280252009Y-9898250D01*
X280231530Y-9885512D01*
X280195574Y-9867520D01*
X280124324Y-9828576D01*
X280087603Y-9799960D01*
X280086230Y-9794251D01*
X280066571Y-9779631D01*
X280054616Y-9778923D01*
X280031360Y-9766934D01*
X280037554Y-9759246D01*
X280029556Y-9736740D01*
X280003251Y-9728322D01*
X279963121Y-9704643D01*
X279965878Y-9689383D01*
X279961263Y-9665322D01*
X279941566Y-9661692D01*
X279915709Y-9649561D01*
X279917055Y-9647754D01*
X280922914Y-9647754D01*
X280932421Y-9658673D01*
X280971768Y-9679649D01*
X280994388Y-9675346D01*
X280994768Y-9672614D01*
X280967013Y-9656088D01*
X280949654Y-9650057D01*
X280922914Y-9647754D01*
X279917055Y-9647754D01*
X279922853Y-9639969D01*
X279919765Y-9612520D01*
X279899283Y-9602665D01*
X279871059Y-9584635D01*
X279905851Y-9558604D01*
X279909163Y-9556934D01*
X279963297Y-9536379D01*
X279986233Y-9535168D01*
X280029586Y-9536046D01*
X280132354Y-9531537D01*
X280276812Y-9522539D01*
X280371885Y-9515678D01*
X280543072Y-9503112D01*
X280654058Y-9497075D01*
X280721882Y-9498142D01*
X280763585Y-9506886D01*
X280796205Y-9523883D01*
X280806210Y-9530315D01*
X280852229Y-9564823D01*
X280865403Y-9583067D01*
X280887358Y-9602178D01*
X280950189Y-9636551D01*
X281034017Y-9676871D01*
X281118959Y-9713822D01*
X281185134Y-9738088D01*
X281205917Y-9742628D01*
X281271439Y-9747093D01*
X281374022Y-9754267D01*
X281385538Y-9755080D01*
X281557575Y-9762996D01*
X281725225Y-9763593D01*
X281861207Y-9757173D01*
X281920621Y-9749181D01*
X282006583Y-9733473D01*
X282042269Y-9728694D01*
X282144070Y-9701087D01*
X282234302Y-9648083D01*
X282293808Y-9583181D01*
X282306899Y-9542245D01*
X282301466Y-9494143D01*
X282284172Y-9467928D01*
X282277592Y-9466308D01*
X282248854Y-9450434D01*
X282245230Y-9437000D01*
X282213770Y-9411371D01*
X282184308Y-9407692D01*
X282141607Y-9399818D01*
X282143151Y-9391703D01*
X282121500Y-9377365D01*
X282041593Y-9358140D01*
X281921873Y-9336637D01*
X281780785Y-9315466D01*
X281636775Y-9297235D01*
X281508287Y-9284556D01*
X281413767Y-9280036D01*
X281377046Y-9283316D01*
X281322555Y-9281392D01*
X281286631Y-9270419D01*
X281212594Y-9255463D01*
X281175874Y-9257441D01*
X281106600Y-9258175D01*
X281087453Y-9252893D01*
X281035450Y-9239143D01*
X280931890Y-9217499D01*
X280799384Y-9192681D01*
X280661062Y-9165904D01*
X280546791Y-9139950D01*
X280483691Y-9121261D01*
X280420152Y-9099744D01*
X280392259Y-9095077D01*
X280341816Y-9082552D01*
X280272133Y-9052579D01*
X280205174Y-9016561D01*
X280162906Y-8985899D01*
X280159228Y-8974114D01*
X280149348Y-8959349D01*
X280135076Y-8958308D01*
X280109593Y-8946406D01*
X280115538Y-8938769D01*
X280111143Y-8920794D01*
X280095999Y-8919231D01*
X280069614Y-8907688D01*
X280074792Y-8901042D01*
X280070643Y-8875760D01*
X280060861Y-8871602D01*
X280042448Y-8846916D01*
X280032202Y-8793879D01*
X280029474Y-8722966D01*
X280033618Y-8644656D01*
X280043987Y-8569423D01*
X280059935Y-8507744D01*
X280080815Y-8470096D01*
X280085891Y-8466148D01*
X280114663Y-8436529D01*
X280108686Y-8424087D01*
X280114379Y-8412618D01*
X280135076Y-8411231D01*
X280169286Y-8405005D01*
X280164800Y-8400041D01*
X280177301Y-8381410D01*
X280233608Y-8345804D01*
X280285287Y-8318888D01*
X280346455Y-8287270D01*
X280358756Y-8276936D01*
X280330461Y-8286116D01*
X280232768Y-8323308D01*
X280306375Y-8279807D01*
X280366848Y-8251290D01*
X280406722Y-8244569D01*
X280449323Y-8237869D01*
X280522645Y-8211023D01*
X280547099Y-8200147D01*
X280623535Y-8167952D01*
X280674397Y-8152453D01*
X280681214Y-8152294D01*
X280727223Y-8149576D01*
X280821429Y-8137639D01*
X280938359Y-8120307D01*
X281052537Y-8101402D01*
X281138489Y-8084750D01*
X281151076Y-8081769D01*
X281229530Y-8073615D01*
X281364363Y-8070655D01*
X281534618Y-8072444D01*
G37*
G36*
X284174656Y-7405485D02*
G01*
X284305987Y-7406989D01*
X284496462Y-7408433D01*
X284736575Y-7409763D01*
X285016821Y-7410928D01*
X285327696Y-7411874D01*
X285654691Y-7412541D01*
X287090768Y-7414769D01*
X287090768Y-7629692D01*
X287090768Y-7844615D01*
X286963768Y-7846187D01*
X286890338Y-7846828D01*
X286751024Y-7847797D01*
X286558095Y-7849020D01*
X286323818Y-7850421D01*
X286060459Y-7851923D01*
X285849314Y-7853081D01*
X285578863Y-7855073D01*
X285334431Y-7857894D01*
X285126829Y-7861336D01*
X284966868Y-7865191D01*
X284865362Y-7869252D01*
X284833314Y-7872597D01*
X284819806Y-7896034D01*
X284802110Y-7949961D01*
X284782073Y-8025907D01*
X284761542Y-8115400D01*
X284742366Y-8209971D01*
X284726392Y-8301149D01*
X284715466Y-8380462D01*
X284711570Y-8430769D01*
X284712741Y-8474511D01*
X284726311Y-8484123D01*
X284761858Y-8464528D01*
X284768616Y-8460077D01*
X284827823Y-8430130D01*
X284866491Y-8421000D01*
X284919205Y-8406481D01*
X284937563Y-8394908D01*
X284979632Y-8372664D01*
X284994753Y-8370485D01*
X285029461Y-8370525D01*
X285152815Y-8357270D01*
X285329454Y-8347288D01*
X285534715Y-8341013D01*
X285743934Y-8338876D01*
X285932450Y-8341310D01*
X286075600Y-8348745D01*
X286103606Y-8351708D01*
X286257951Y-8376985D01*
X286430541Y-8414593D01*
X286606628Y-8460107D01*
X286771464Y-8509101D01*
X286910303Y-8557148D01*
X287008396Y-8599823D01*
X287050995Y-8632699D01*
X287051691Y-8636254D01*
X287076172Y-8665552D01*
X287124132Y-8696740D01*
X287222331Y-8771669D01*
X287301078Y-8875349D01*
X287357492Y-8998344D01*
X287388695Y-9131217D01*
X287391807Y-9264532D01*
X287363951Y-9388851D01*
X287346996Y-9427231D01*
X287313269Y-9495684D01*
X287288255Y-9550526D01*
X287277748Y-9578654D01*
X287251151Y-9601423D01*
X287238257Y-9603077D01*
X287221015Y-9615240D01*
X287227538Y-9622615D01*
X287228426Y-9640705D01*
X287217232Y-9642154D01*
X287181324Y-9658134D01*
X287128210Y-9698855D01*
X287096887Y-9728141D01*
X287034752Y-9780951D01*
X286974403Y-9817516D01*
X286950714Y-9825696D01*
X286912521Y-9846446D01*
X286918483Y-9859958D01*
X286923349Y-9873536D01*
X286903138Y-9869242D01*
X286853870Y-9874044D01*
X286795733Y-9904677D01*
X286795134Y-9905133D01*
X286739712Y-9936569D01*
X286696001Y-9943756D01*
X286695449Y-9943594D01*
X286654282Y-9948968D01*
X286637013Y-9963188D01*
X286600261Y-9983970D01*
X286578674Y-9982811D01*
X286546086Y-9986663D01*
X286543691Y-9993846D01*
X286520092Y-10006811D01*
X286506040Y-10004056D01*
X286453765Y-10007489D01*
X286396136Y-10028547D01*
X286325841Y-10053077D01*
X286277480Y-10056939D01*
X286234956Y-10062200D01*
X286231076Y-10069758D01*
X286202564Y-10081904D01*
X286172461Y-10079065D01*
X286122322Y-10080946D01*
X286113845Y-10091727D01*
X286083248Y-10107362D01*
X286035691Y-10105415D01*
X285973470Y-10105209D01*
X285957538Y-10115185D01*
X285926538Y-10127047D01*
X285879423Y-10124959D01*
X285808363Y-10122851D01*
X285783017Y-10129543D01*
X285739106Y-10136249D01*
X285640051Y-10140915D01*
X285506221Y-10143536D01*
X285357983Y-10144111D01*
X285215705Y-10142635D01*
X285099755Y-10139106D01*
X285030502Y-10133521D01*
X285019691Y-10129656D01*
X284988430Y-10121827D01*
X284941538Y-10124954D01*
X284877841Y-10124170D01*
X284863384Y-10112039D01*
X284833555Y-10097686D01*
X284785230Y-10101308D01*
X284722890Y-10103309D01*
X284707076Y-10093468D01*
X284678539Y-10081589D01*
X284648461Y-10084473D01*
X284598245Y-10083898D01*
X284589845Y-10074703D01*
X284561788Y-10061638D01*
X284536151Y-10063990D01*
X284477019Y-10058103D01*
X284427769Y-10042692D01*
X284472615Y-10042692D01*
X284492153Y-10052461D01*
X284511691Y-10042692D01*
X284492153Y-10032923D01*
X284472615Y-10042692D01*
X284427769Y-10042692D01*
X284391005Y-10031188D01*
X284371915Y-10023154D01*
X284394461Y-10023154D01*
X284413999Y-10032923D01*
X284433538Y-10023154D01*
X284413999Y-10013384D01*
X284394461Y-10023154D01*
X284371915Y-10023154D01*
X284353605Y-10015448D01*
X284270442Y-9981822D01*
X284210147Y-9965279D01*
X284196650Y-9965288D01*
X284158282Y-9957139D01*
X284104912Y-9925408D01*
X284103941Y-9924671D01*
X284045857Y-9893800D01*
X283996341Y-9888659D01*
X283995937Y-9888781D01*
X283970899Y-9890143D01*
X283979360Y-9880492D01*
X283969756Y-9855858D01*
X283908491Y-9826790D01*
X283907580Y-9826490D01*
X283843917Y-9799404D01*
X283827680Y-9779069D01*
X283827956Y-9778833D01*
X283814791Y-9760067D01*
X283786067Y-9751801D01*
X283745832Y-9732437D01*
X283749521Y-9720445D01*
X283747376Y-9702327D01*
X283733686Y-9700769D01*
X283710208Y-9686494D01*
X283716022Y-9671461D01*
X283713235Y-9646397D01*
X283692951Y-9642154D01*
X283664505Y-9631154D01*
X283669475Y-9624284D01*
X283662505Y-9602899D01*
X283649293Y-9599369D01*
X283625776Y-9578477D01*
X283633126Y-9541485D01*
X283662651Y-9505994D01*
X283703447Y-9489691D01*
X283766238Y-9486826D01*
X283877918Y-9482328D01*
X283964615Y-9479030D01*
X284117862Y-9471679D01*
X284264501Y-9462029D01*
X284322288Y-9457084D01*
X284419484Y-9450862D01*
X284468204Y-9460425D01*
X284490998Y-9484027D01*
X284528719Y-9516592D01*
X284559914Y-9524923D01*
X284583107Y-9533328D01*
X284576462Y-9538127D01*
X284580731Y-9559419D01*
X284626899Y-9591447D01*
X284692898Y-9622500D01*
X284756655Y-9640867D01*
X284772503Y-9642154D01*
X284819954Y-9654566D01*
X284824307Y-9662845D01*
X284848247Y-9674514D01*
X284863384Y-9671461D01*
X284899462Y-9672222D01*
X284902461Y-9678692D01*
X284938110Y-9695214D01*
X285031366Y-9710706D01*
X285161696Y-9723484D01*
X285308564Y-9731861D01*
X285451435Y-9734151D01*
X285540456Y-9731074D01*
X285708718Y-9713252D01*
X285860279Y-9685478D01*
X285971083Y-9652741D01*
X286005785Y-9634543D01*
X286031660Y-9624780D01*
X286035093Y-9630353D01*
X286056873Y-9629220D01*
X286108499Y-9607687D01*
X286170672Y-9575737D01*
X286224094Y-9543353D01*
X286249466Y-9520521D01*
X286249712Y-9519326D01*
X286279273Y-9496660D01*
X286302059Y-9488062D01*
X286352755Y-9456568D01*
X286367453Y-9435044D01*
X286381673Y-9404446D01*
X286387650Y-9397923D01*
X286403817Y-9380087D01*
X286419328Y-9333373D01*
X286431798Y-9267968D01*
X286438840Y-9194060D01*
X286439443Y-9176817D01*
X286432452Y-9092891D01*
X286406682Y-9046104D01*
X286390250Y-9037347D01*
X286358680Y-9012050D01*
X286365145Y-8999569D01*
X286362572Y-8980124D01*
X286344100Y-8977846D01*
X286314831Y-8970648D01*
X286320594Y-8965651D01*
X286312493Y-8945846D01*
X286258777Y-8915341D01*
X286258722Y-8915316D01*
X286215909Y-8893390D01*
X286226277Y-8890660D01*
X286231076Y-8891793D01*
X286256843Y-8892929D01*
X286223392Y-8868677D01*
X286215250Y-8863974D01*
X286148919Y-8830018D01*
X286119857Y-8823603D01*
X286134055Y-8845961D01*
X286130397Y-8850971D01*
X286088154Y-8830368D01*
X286082597Y-8827254D01*
X286021581Y-8800381D01*
X285981943Y-8796310D01*
X285981927Y-8796318D01*
X285959692Y-8793300D01*
X285957538Y-8784565D01*
X285936376Y-8769251D01*
X285921798Y-8771661D01*
X285879176Y-8768039D01*
X285871568Y-8760969D01*
X285826315Y-8744082D01*
X285741231Y-8734679D01*
X285631451Y-8726160D01*
X285555503Y-8714839D01*
X285451669Y-8707583D01*
X285289022Y-8716167D01*
X285079568Y-8739903D01*
X285052044Y-8743711D01*
X284945359Y-8768379D01*
X284818006Y-8811256D01*
X284726574Y-8849865D01*
X284616299Y-8898367D01*
X284534530Y-8922995D01*
X284458788Y-8929495D01*
X284420683Y-8928035D01*
X284320874Y-8922683D01*
X284173288Y-8915824D01*
X284008089Y-8908852D01*
X283991095Y-8908176D01*
X283685423Y-8896093D01*
X283707384Y-8824623D01*
X283720324Y-8773382D01*
X283737851Y-8691151D01*
X283758535Y-8585903D01*
X283780943Y-8465608D01*
X283803643Y-8338238D01*
X283825202Y-8211765D01*
X283844189Y-8094161D01*
X283859172Y-7993396D01*
X283865892Y-7942308D01*
X283881399Y-7831083D01*
X283900444Y-7719590D01*
X283921371Y-7615292D01*
X283942528Y-7525649D01*
X283962259Y-7458125D01*
X283978912Y-7420180D01*
X283982550Y-7416066D01*
X284034007Y-7404555D01*
X284111973Y-7403974D01*
X284174656Y-7405485D01*
G37*
G36*
X256623377Y-7412856D02*
G01*
X256913460Y-7414347D01*
X257132213Y-7415995D01*
X257506166Y-7419397D01*
X257811450Y-7422985D01*
X258057549Y-7427312D01*
X258253947Y-7432929D01*
X258410125Y-7440387D01*
X258535566Y-7450238D01*
X258639753Y-7463033D01*
X258732169Y-7479323D01*
X258822297Y-7499660D01*
X258896768Y-7518599D01*
X258996707Y-7542450D01*
X259066820Y-7555067D01*
X259081217Y-7555682D01*
X259119119Y-7567626D01*
X259151562Y-7591357D01*
X259200026Y-7616933D01*
X259236921Y-7617451D01*
X259261865Y-7616207D01*
X259254394Y-7624892D01*
X259265464Y-7648952D01*
X259323735Y-7684783D01*
X259355817Y-7699442D01*
X259431897Y-7735996D01*
X259471479Y-7763707D01*
X259473153Y-7769607D01*
X259492342Y-7785398D01*
X259502461Y-7786000D01*
X259537129Y-7801825D01*
X259541538Y-7815308D01*
X259559173Y-7841333D01*
X259574102Y-7844615D01*
X259607932Y-7860245D01*
X259612075Y-7869038D01*
X259624820Y-7898979D01*
X259653271Y-7954804D01*
X259691467Y-8024852D01*
X259694489Y-8030231D01*
X259745938Y-8138260D01*
X259770564Y-8239387D01*
X259767550Y-8343324D01*
X259736081Y-8459780D01*
X259675341Y-8598467D01*
X259641143Y-8665231D01*
X259622875Y-8697188D01*
X259618054Y-8704308D01*
X259615064Y-8728731D01*
X259589839Y-8742782D01*
X259578308Y-8743384D01*
X259554243Y-8755182D01*
X259559592Y-8761722D01*
X259550319Y-8784851D01*
X259519320Y-8797671D01*
X259462623Y-8820446D01*
X259450113Y-8831439D01*
X259420573Y-8854399D01*
X259353551Y-8891894D01*
X259266400Y-8935626D01*
X259176473Y-8977296D01*
X259101121Y-9008607D01*
X259057698Y-9021261D01*
X259054223Y-9020753D01*
X259035283Y-9025630D01*
X259033538Y-9034358D01*
X259010615Y-9049067D01*
X258994461Y-9046231D01*
X258958510Y-9048428D01*
X258955384Y-9056000D01*
X258932554Y-9069278D01*
X258919457Y-9066743D01*
X258866552Y-9069631D01*
X258826417Y-9084198D01*
X258770653Y-9102232D01*
X258745113Y-9100659D01*
X258723291Y-9104033D01*
X258720922Y-9113638D01*
X258690762Y-9130466D01*
X258642807Y-9128497D01*
X258569959Y-9127754D01*
X258542415Y-9136307D01*
X258495517Y-9145603D01*
X258483761Y-9143088D01*
X258421965Y-9141745D01*
X258398538Y-9146986D01*
X258345897Y-9151346D01*
X258227894Y-9154597D01*
X258057296Y-9156599D01*
X257846871Y-9157210D01*
X257609386Y-9156291D01*
X257576606Y-9156047D01*
X256803520Y-9149969D01*
X256806181Y-9596330D01*
X256806888Y-9725354D01*
X256807407Y-9841764D01*
X256807722Y-9939710D01*
X256807816Y-10013337D01*
X256807672Y-10056794D01*
X256807498Y-10065537D01*
X256771034Y-10075028D01*
X256675108Y-10082335D01*
X256538052Y-10087364D01*
X256378200Y-10090026D01*
X256213884Y-10090226D01*
X256063437Y-10087872D01*
X255945192Y-10082873D01*
X255877483Y-10075136D01*
X255868307Y-10070266D01*
X255847741Y-10057503D01*
X255838519Y-10059360D01*
X255833488Y-10041938D01*
X255828738Y-9988597D01*
X255824340Y-9902491D01*
X255820364Y-9786777D01*
X255816881Y-9644612D01*
X255813962Y-9479152D01*
X255811678Y-9293553D01*
X255810099Y-9090973D01*
X255809297Y-8874566D01*
X255809212Y-8751470D01*
X255809749Y-8528533D01*
X255811144Y-8317465D01*
X255813318Y-8121452D01*
X255816194Y-7943680D01*
X255818630Y-7834846D01*
X256803987Y-7834846D01*
X256807625Y-8295905D01*
X256811264Y-8756963D01*
X257404631Y-8753912D01*
X257623995Y-8751832D01*
X257826164Y-8748175D01*
X257993262Y-8743390D01*
X258107414Y-8737925D01*
X258134768Y-8735591D01*
X258228834Y-8720924D01*
X258281958Y-8704765D01*
X258284644Y-8702423D01*
X258321944Y-8693055D01*
X258333491Y-8695570D01*
X258366103Y-8691468D01*
X258369230Y-8682666D01*
X258381928Y-8667102D01*
X258390473Y-8669339D01*
X258425327Y-8662243D01*
X258493235Y-8634830D01*
X258575665Y-8596139D01*
X258654082Y-8555207D01*
X258709954Y-8521073D01*
X258725807Y-8505814D01*
X258744233Y-8467080D01*
X258776995Y-8426313D01*
X258798387Y-8381380D01*
X258807679Y-8317789D01*
X258805804Y-8247970D01*
X258793695Y-8184356D01*
X258772284Y-8139378D01*
X258754477Y-8126216D01*
X258737056Y-8103106D01*
X258742129Y-8097265D01*
X258734325Y-8080677D01*
X258716716Y-8079077D01*
X258685338Y-8072842D01*
X258689646Y-8068664D01*
X258677270Y-8050334D01*
X258621727Y-8016288D01*
X258541060Y-7975104D01*
X258453311Y-7935365D01*
X258376521Y-7905650D01*
X258328733Y-7894540D01*
X258324758Y-7895129D01*
X258293627Y-7890640D01*
X258291076Y-7882755D01*
X258262958Y-7868423D01*
X258234985Y-7870735D01*
X258177624Y-7868001D01*
X258163313Y-7858171D01*
X258131497Y-7848892D01*
X258045928Y-7842143D01*
X257900147Y-7837707D01*
X257687694Y-7835363D01*
X257475859Y-7834846D01*
X256803987Y-7834846D01*
X255818630Y-7834846D01*
X255819694Y-7787336D01*
X255823741Y-7655604D01*
X255828257Y-7551672D01*
X255833164Y-7478725D01*
X255838385Y-7439950D01*
X255841305Y-7434342D01*
X255857922Y-7422813D01*
X255854750Y-7419654D01*
X255887859Y-7416478D01*
X255990189Y-7414185D01*
X256152828Y-7412800D01*
X256366861Y-7412349D01*
X256623377Y-7412856D01*
G37*
G36*
X261192811Y-8733615D02*
G01*
X261191205Y-8958025D01*
X261189676Y-9170944D01*
X261188248Y-9369151D01*
X261186945Y-9549429D01*
X261185789Y-9708558D01*
X261184805Y-9843319D01*
X261184015Y-9950494D01*
X261183443Y-10026863D01*
X261183113Y-10069207D01*
X261183042Y-10076884D01*
X261146754Y-10083041D01*
X261049564Y-10086715D01*
X260908566Y-10087900D01*
X260740853Y-10086588D01*
X260563521Y-10082772D01*
X260410461Y-10077219D01*
X260243845Y-10069727D01*
X260246684Y-8795979D01*
X260247496Y-8575052D01*
X260248888Y-8364681D01*
X260250797Y-8168287D01*
X260253160Y-7989289D01*
X260255917Y-7831108D01*
X260259003Y-7697166D01*
X260262356Y-7590882D01*
X260265915Y-7515677D01*
X260269616Y-7474972D01*
X260270889Y-7469616D01*
X260292256Y-7417002D01*
X260747282Y-7411001D01*
X261202307Y-7405000D01*
X261192811Y-8733615D01*
G37*
G36*
X291389230Y-8271970D02*
G01*
X291389230Y-9129171D01*
X291613922Y-9129441D01*
X291801599Y-9129130D01*
X291925335Y-9131499D01*
X291999104Y-9142308D01*
X292036876Y-9167318D01*
X292052622Y-9212289D01*
X292060313Y-9282982D01*
X292063689Y-9314884D01*
X292070176Y-9416282D01*
X292062968Y-9486340D01*
X292042501Y-9521415D01*
X291989005Y-9535471D01*
X291880508Y-9541872D01*
X291706301Y-9541216D01*
X291692953Y-9540954D01*
X291385586Y-9534692D01*
X291391572Y-9808231D01*
X291397558Y-10081769D01*
X290966627Y-10087279D01*
X290742843Y-10088063D01*
X290592127Y-10083821D01*
X290516445Y-10074621D01*
X290509011Y-10071200D01*
X290499485Y-10044481D01*
X290492378Y-9986726D01*
X290488292Y-9905966D01*
X290487826Y-9810232D01*
X290488170Y-9792152D01*
X290494014Y-9534692D01*
X289160457Y-9534692D01*
X287826900Y-9534692D01*
X287820295Y-9353955D01*
X287820589Y-9275368D01*
X287826840Y-9214050D01*
X287837862Y-9178594D01*
X287845305Y-9173224D01*
X287859477Y-9160970D01*
X287852768Y-9153692D01*
X287855867Y-9135688D01*
X287870001Y-9134154D01*
X287909219Y-9118977D01*
X287910216Y-9115712D01*
X288888307Y-9115712D01*
X288915124Y-9123606D01*
X288998983Y-9129010D01*
X289144995Y-9132023D01*
X289358270Y-9132743D01*
X289643920Y-9131268D01*
X289679615Y-9130979D01*
X290470922Y-9124384D01*
X290469206Y-8557769D01*
X290468209Y-8376183D01*
X290466239Y-8230251D01*
X290463002Y-8116553D01*
X290458207Y-8031669D01*
X290451558Y-7972177D01*
X290442765Y-7934656D01*
X290431533Y-7915686D01*
X290417570Y-7911846D01*
X290413964Y-7912736D01*
X290384422Y-7932818D01*
X290335465Y-7975154D01*
X290314989Y-7994420D01*
X290262613Y-8042652D01*
X290224065Y-8074256D01*
X290216394Y-8079077D01*
X290169967Y-8108078D01*
X290115800Y-8150736D01*
X290070723Y-8192556D01*
X290051565Y-8219044D01*
X290051924Y-8220731D01*
X290033238Y-8235298D01*
X290029963Y-8235384D01*
X289992415Y-8250678D01*
X289938431Y-8288493D01*
X289926024Y-8298884D01*
X289858006Y-8355944D01*
X289758930Y-8435983D01*
X289624800Y-8542194D01*
X289451619Y-8677767D01*
X289448904Y-8679884D01*
X289385027Y-8732773D01*
X289347839Y-8769812D01*
X289344761Y-8782461D01*
X289339715Y-8792105D01*
X289296314Y-8811148D01*
X289248912Y-8832777D01*
X289247902Y-8840455D01*
X289242799Y-8853176D01*
X289195565Y-8883889D01*
X289179518Y-8892776D01*
X289115339Y-8934253D01*
X289084238Y-8967811D01*
X289083691Y-8970930D01*
X289059310Y-8995035D01*
X289042308Y-8997384D01*
X289018970Y-9009354D01*
X289025076Y-9016923D01*
X289020681Y-9034898D01*
X289005538Y-9036461D01*
X288978618Y-9047608D01*
X288983468Y-9053952D01*
X288973065Y-9074645D01*
X288946698Y-9082647D01*
X288895018Y-9104280D01*
X288888307Y-9115712D01*
X287910216Y-9115712D01*
X287911384Y-9111885D01*
X287938800Y-9082848D01*
X287979768Y-9061589D01*
X288015905Y-9043756D01*
X287989538Y-9046231D01*
X287963395Y-9048352D01*
X287999307Y-9030872D01*
X288053456Y-9003473D01*
X288067691Y-8989529D01*
X288091666Y-8967018D01*
X288144494Y-8934993D01*
X288194146Y-8900957D01*
X288203334Y-8879242D01*
X288217409Y-8861162D01*
X288246239Y-8853031D01*
X288286474Y-8833668D01*
X288282785Y-8821676D01*
X288282451Y-8803504D01*
X288294293Y-8802000D01*
X288330669Y-8786535D01*
X288391225Y-8746991D01*
X288462896Y-8693643D01*
X288532619Y-8636766D01*
X288587328Y-8586635D01*
X288613960Y-8553525D01*
X288614768Y-8549939D01*
X288643833Y-8529439D01*
X288656151Y-8528461D01*
X288680759Y-8516843D01*
X288675914Y-8510970D01*
X288686716Y-8490427D01*
X288715162Y-8481801D01*
X288755397Y-8462437D01*
X288751708Y-8450445D01*
X288750765Y-8432260D01*
X288762167Y-8430769D01*
X288802629Y-8415206D01*
X288851640Y-8377708D01*
X288852334Y-8377038D01*
X288898146Y-8336074D01*
X288929900Y-8313538D01*
X288967700Y-8290856D01*
X289025385Y-8250317D01*
X289089265Y-8202401D01*
X289145649Y-8157588D01*
X289180849Y-8126358D01*
X289185127Y-8118154D01*
X289195514Y-8105742D01*
X289245858Y-8075001D01*
X289262346Y-8065946D01*
X289334730Y-8018104D01*
X289379688Y-7972488D01*
X289381238Y-7969667D01*
X289421595Y-7930254D01*
X289460926Y-7914552D01*
X289498580Y-7895118D01*
X289494170Y-7883830D01*
X289497007Y-7865727D01*
X289511231Y-7864154D01*
X289547932Y-7848347D01*
X289552615Y-7834846D01*
X289574934Y-7808854D01*
X289593998Y-7805538D01*
X289617254Y-7793550D01*
X289611059Y-7785862D01*
X289619448Y-7763509D01*
X289647606Y-7754507D01*
X289689085Y-7736068D01*
X289686683Y-7725199D01*
X289697332Y-7704541D01*
X289725759Y-7695891D01*
X289768578Y-7678452D01*
X289767538Y-7668769D01*
X289780604Y-7649928D01*
X289809316Y-7641647D01*
X289850795Y-7623208D01*
X289848393Y-7612339D01*
X289859042Y-7591681D01*
X289887470Y-7583031D01*
X289928393Y-7564179D01*
X289925419Y-7552812D01*
X289936033Y-7528841D01*
X289972865Y-7502692D01*
X289982461Y-7502692D01*
X290001999Y-7512461D01*
X290021538Y-7502692D01*
X290001999Y-7492923D01*
X289982461Y-7502692D01*
X289972865Y-7502692D01*
X289989891Y-7490604D01*
X290019318Y-7474520D01*
X290136134Y-7414769D01*
X290762682Y-7414769D01*
X291389230Y-7414769D01*
X291389230Y-8271970D01*
G37*
G36*
X266774070Y-8953423D02*
G01*
X266775208Y-9133582D01*
X266777074Y-9305998D01*
X266779557Y-9465759D01*
X266782550Y-9607954D01*
X266785943Y-9727670D01*
X266789626Y-9819997D01*
X266793489Y-9880022D01*
X266794980Y-9893325D01*
X266798172Y-9975638D01*
X266781975Y-10030231D01*
X266767356Y-10044748D01*
X266722070Y-10057886D01*
X266630838Y-10066374D01*
X266482529Y-10070856D01*
X266297061Y-10072000D01*
X266125320Y-10071581D01*
X265986762Y-10070446D01*
X265897268Y-10068778D01*
X265871626Y-10067115D01*
X265871368Y-10047213D01*
X265870769Y-9991988D01*
X265869867Y-9905191D01*
X265868700Y-9790575D01*
X265867306Y-9651894D01*
X265865723Y-9492899D01*
X265863988Y-9317343D01*
X265862141Y-9128978D01*
X265861857Y-9099961D01*
X265852461Y-8137692D01*
X266311615Y-8137692D01*
X266770768Y-8137692D01*
X266774070Y-8953423D01*
G37*
G36*
X266392836Y-7366921D02*
G01*
X266497044Y-7373131D01*
X266532520Y-7377236D01*
X266594129Y-7395826D01*
X266677112Y-7431393D01*
X266695852Y-7440654D01*
X266760784Y-7479377D01*
X266791366Y-7519361D01*
X266797720Y-7576771D01*
X266796318Y-7601092D01*
X266782424Y-7671795D01*
X266745448Y-7721205D01*
X266674521Y-7765707D01*
X266591365Y-7802896D01*
X266522031Y-7823569D01*
X266507151Y-7825077D01*
X266470704Y-7834176D01*
X266474188Y-7841781D01*
X266456099Y-7852515D01*
X266378519Y-7856128D01*
X266258955Y-7852192D01*
X266203240Y-7848404D01*
X266076552Y-7832819D01*
X265958305Y-7808779D01*
X265866118Y-7781316D01*
X265817611Y-7755460D01*
X265821757Y-7739480D01*
X265815524Y-7728450D01*
X265798052Y-7727384D01*
X265767657Y-7716634D01*
X265772638Y-7709196D01*
X265767513Y-7684165D01*
X265754380Y-7678418D01*
X265730852Y-7654139D01*
X265723022Y-7611693D01*
X265729713Y-7567219D01*
X265749746Y-7536855D01*
X265765061Y-7532000D01*
X265780915Y-7519793D01*
X265774307Y-7512461D01*
X265780426Y-7494681D01*
X265798052Y-7492923D01*
X265828258Y-7486152D01*
X265823153Y-7481525D01*
X265831013Y-7462226D01*
X265877560Y-7432205D01*
X265938651Y-7403980D01*
X265990144Y-7390070D01*
X265998999Y-7390346D01*
X266027544Y-7380964D01*
X266028307Y-7376951D01*
X266063191Y-7369186D01*
X266151708Y-7364935D01*
X266269656Y-7364185D01*
X266392836Y-7366921D01*
G37*
G36*
X281495023Y-6089972D02*
G01*
X281538097Y-6105050D01*
X281565668Y-6145304D01*
X281580922Y-6203569D01*
X281594895Y-6264909D01*
X281614830Y-6296359D01*
X281651092Y-6307041D01*
X281698153Y-6306794D01*
X281850814Y-6308646D01*
X281944012Y-6328410D01*
X281971691Y-6360064D01*
X281961066Y-6383393D01*
X281916382Y-6394968D01*
X281818424Y-6398635D01*
X281778349Y-6398769D01*
X281585006Y-6398769D01*
X281573195Y-6501163D01*
X281559431Y-6565122D01*
X281532847Y-6598718D01*
X281492999Y-6610057D01*
X281453128Y-6608322D01*
X281432429Y-6587754D01*
X281425101Y-6539964D01*
X281424615Y-6511155D01*
X281424615Y-6405753D01*
X281219461Y-6401143D01*
X281058202Y-6391431D01*
X280969493Y-6374077D01*
X280953840Y-6353444D01*
X281011749Y-6333900D01*
X281143727Y-6319807D01*
X281209691Y-6316903D01*
X281405076Y-6310846D01*
X281416869Y-6197262D01*
X281427259Y-6132757D01*
X281445105Y-6099383D01*
X281476191Y-6089201D01*
X281495023Y-6089972D01*
G37*
G36*
X277888724Y-5246665D02*
G01*
X277901333Y-5273555D01*
X277906607Y-5325479D01*
X277907691Y-5409330D01*
X277907691Y-5413116D01*
X277907691Y-5596112D01*
X278230076Y-5601787D01*
X278388917Y-5605353D01*
X278485858Y-5610784D01*
X278537147Y-5620488D01*
X278559029Y-5636874D01*
X278564948Y-5651423D01*
X278565296Y-5677852D01*
X278534153Y-5690884D01*
X278452800Y-5695223D01*
X278389102Y-5695599D01*
X278238814Y-5698399D01*
X278092750Y-5705129D01*
X278055732Y-5707803D01*
X277910695Y-5719792D01*
X277899424Y-5876369D01*
X277891838Y-5955067D01*
X277879575Y-6003512D01*
X277857477Y-6030530D01*
X277820390Y-6044942D01*
X277798249Y-6049517D01*
X277735687Y-6056586D01*
X277732171Y-6046813D01*
X277734285Y-6028893D01*
X277724382Y-6027557D01*
X277710944Y-6009540D01*
X277702268Y-5961441D01*
X277699640Y-5892219D01*
X277700530Y-5861480D01*
X277708291Y-5695384D01*
X277419528Y-5695384D01*
X277235461Y-5691064D01*
X277125085Y-5678237D01*
X277089409Y-5657108D01*
X277115694Y-5634183D01*
X277171133Y-5623322D01*
X277281223Y-5612564D01*
X277422577Y-5604173D01*
X277428559Y-5603919D01*
X277703987Y-5592373D01*
X277704886Y-5439497D01*
X277707380Y-5353397D01*
X277716966Y-5298340D01*
X277738642Y-5266305D01*
X277777406Y-5249274D01*
X277828929Y-5240418D01*
X277865637Y-5237918D01*
X277888724Y-5246665D01*
G37*
G36*
X287228596Y-5309996D02*
G01*
X287243389Y-5352586D01*
X287247076Y-5425102D01*
X287247076Y-5539077D01*
X287481538Y-5539077D01*
X287612489Y-5540503D01*
X287683248Y-5546766D01*
X287711689Y-5560846D01*
X287715999Y-5578154D01*
X287707137Y-5602212D01*
X287670214Y-5615681D01*
X287589722Y-5620604D01*
X287450155Y-5619027D01*
X287413153Y-5618095D01*
X287247076Y-5613711D01*
X287247076Y-5732702D01*
X287241470Y-5804139D01*
X287223144Y-5842017D01*
X287194973Y-5851692D01*
X287128514Y-5843013D01*
X287116820Y-5838666D01*
X287102124Y-5813203D01*
X287092677Y-5762045D01*
X287090768Y-5722411D01*
X287090768Y-5619181D01*
X286866456Y-5613321D01*
X286732643Y-5607220D01*
X286659713Y-5595868D01*
X286630535Y-5576375D01*
X286629129Y-5573269D01*
X286631989Y-5554227D01*
X286669788Y-5543844D01*
X286758725Y-5539652D01*
X286853442Y-5539077D01*
X287090768Y-5539077D01*
X287090768Y-5423936D01*
X287098360Y-5349179D01*
X287122434Y-5308348D01*
X287145563Y-5298283D01*
X287197664Y-5293989D01*
X287228596Y-5309996D01*
G37*
G36*
X284099865Y-4933667D02*
G01*
X284128615Y-4936424D01*
X284345308Y-4979811D01*
X284536811Y-5054725D01*
X284689678Y-5154058D01*
X284790461Y-5270703D01*
X284801629Y-5292129D01*
X284807917Y-5337406D01*
X284797987Y-5397829D01*
X284776396Y-5461614D01*
X284747704Y-5516975D01*
X284716469Y-5552127D01*
X284698552Y-5558615D01*
X284674843Y-5570087D01*
X284676948Y-5573269D01*
X284658836Y-5592928D01*
X284602153Y-5627739D01*
X284527111Y-5667103D01*
X284453924Y-5700423D01*
X284402806Y-5717100D01*
X284402556Y-5717135D01*
X284350715Y-5726676D01*
X284260805Y-5744847D01*
X284249177Y-5747268D01*
X284081277Y-5767734D01*
X283883628Y-5770906D01*
X283696383Y-5756970D01*
X283622691Y-5744409D01*
X283539359Y-5729721D01*
X283496133Y-5728768D01*
X283494503Y-5730520D01*
X283477890Y-5727894D01*
X283453025Y-5709627D01*
X283406708Y-5686059D01*
X283378759Y-5685523D01*
X283331482Y-5681751D01*
X283316508Y-5673146D01*
X283312359Y-5659101D01*
X283343115Y-5664471D01*
X283352144Y-5662685D01*
X283310245Y-5641465D01*
X283280768Y-5628510D01*
X283214954Y-5597339D01*
X283191375Y-5579713D01*
X283195636Y-5578251D01*
X283197976Y-5567022D01*
X283165970Y-5547271D01*
X283125840Y-5515948D01*
X283126408Y-5498425D01*
X283124287Y-5481501D01*
X283113992Y-5480461D01*
X283096403Y-5462832D01*
X283089876Y-5416732D01*
X283094017Y-5352349D01*
X283108431Y-5279868D01*
X283123611Y-5231921D01*
X283164909Y-5175303D01*
X283236762Y-5116051D01*
X283253016Y-5105791D01*
X283305049Y-5071610D01*
X283315757Y-5057296D01*
X283304038Y-5059388D01*
X283267837Y-5065898D01*
X283277037Y-5053634D01*
X283337591Y-5032630D01*
X283359287Y-5031077D01*
X283422062Y-5015912D01*
X283453484Y-4996884D01*
X283485374Y-4976510D01*
X283494503Y-4979738D01*
X283519010Y-4984124D01*
X283548702Y-4974787D01*
X283645203Y-4951691D01*
X283789199Y-4935818D01*
X283950737Y-4929150D01*
X284099865Y-4933667D01*
G37*
G36*
X280360118Y-3502229D02*
G01*
X280533923Y-3513680D01*
X280697750Y-3530512D01*
X280834197Y-3550620D01*
X280925862Y-3571900D01*
X280955691Y-3590430D01*
X280979791Y-3598614D01*
X280992367Y-3595742D01*
X281038323Y-3600744D01*
X281069332Y-3619012D01*
X281101528Y-3640202D01*
X281110811Y-3637886D01*
X281136899Y-3641672D01*
X281203762Y-3667121D01*
X281286818Y-3704083D01*
X281375328Y-3749534D01*
X281430530Y-3785740D01*
X281440819Y-3802851D01*
X281448800Y-3818727D01*
X281461385Y-3819692D01*
X281498086Y-3835499D01*
X281502768Y-3849000D01*
X281525088Y-3874991D01*
X281544151Y-3878308D01*
X281567490Y-3890277D01*
X281561384Y-3897846D01*
X281567502Y-3915626D01*
X281585129Y-3917384D01*
X281615172Y-3924229D01*
X281609953Y-3928920D01*
X281607904Y-3952629D01*
X281629766Y-3998866D01*
X281644855Y-4021728D01*
X281666868Y-4072002D01*
X281682971Y-4146056D01*
X281692733Y-4233137D01*
X281695721Y-4322492D01*
X281691503Y-4403370D01*
X281679647Y-4465017D01*
X281663820Y-4493769D01*
X281639412Y-4528619D01*
X281629912Y-4551536D01*
X281597522Y-4590938D01*
X281570166Y-4604968D01*
X281543254Y-4618426D01*
X281551232Y-4620470D01*
X281558469Y-4626551D01*
X281534785Y-4646905D01*
X281474282Y-4685343D01*
X281371062Y-4745674D01*
X281258538Y-4809573D01*
X281168487Y-4858405D01*
X281102160Y-4890650D01*
X281072282Y-4900189D01*
X281071734Y-4899399D01*
X281055198Y-4901073D01*
X281030255Y-4919142D01*
X280982865Y-4942362D01*
X280953290Y-4942411D01*
X280919039Y-4945140D01*
X280916615Y-4951770D01*
X280895772Y-4969297D01*
X280887307Y-4969256D01*
X280825543Y-4971467D01*
X280741431Y-4982884D01*
X280669324Y-4997845D01*
X280643076Y-5009522D01*
X280607133Y-5016335D01*
X280511833Y-5022477D01*
X280375965Y-5026834D01*
X280340230Y-5027477D01*
X280180156Y-5031002D01*
X280039267Y-5035959D01*
X279945429Y-5041345D01*
X279938876Y-5041950D01*
X279847314Y-5041375D01*
X279795268Y-5029204D01*
X279723621Y-5011797D01*
X279649545Y-5006654D01*
X279574704Y-5000570D01*
X279548922Y-4988404D01*
X279524693Y-4979019D01*
X279509845Y-4982231D01*
X279473894Y-4980033D01*
X279470768Y-4972461D01*
X279446964Y-4959720D01*
X279431691Y-4962692D01*
X279395683Y-4961143D01*
X279392615Y-4954076D01*
X279367289Y-4937765D01*
X279356296Y-4938269D01*
X279306980Y-4928560D01*
X279255706Y-4904077D01*
X279218102Y-4885072D01*
X279218159Y-4894308D01*
X279214423Y-4900609D01*
X279172570Y-4880684D01*
X279152672Y-4869308D01*
X279056295Y-4817942D01*
X278948712Y-4767657D01*
X278943230Y-4765317D01*
X278884031Y-4737737D01*
X278873222Y-4726884D01*
X278884615Y-4728513D01*
X278899630Y-4727325D01*
X278860067Y-4707621D01*
X278849141Y-4703094D01*
X278786188Y-4669623D01*
X278786182Y-4669615D01*
X278806461Y-4669615D01*
X278825999Y-4679384D01*
X278845538Y-4669615D01*
X278825999Y-4659846D01*
X278806461Y-4669615D01*
X278786182Y-4669615D01*
X278754846Y-4630538D01*
X278767384Y-4630538D01*
X278786922Y-4640308D01*
X278806461Y-4630538D01*
X278786922Y-4620769D01*
X278767384Y-4630538D01*
X278754846Y-4630538D01*
X278750828Y-4625527D01*
X278733079Y-4557498D01*
X278731563Y-4546347D01*
X278707925Y-4529744D01*
X278691595Y-4532115D01*
X278659851Y-4526269D01*
X278651771Y-4508845D01*
X278640157Y-4365094D01*
X278634666Y-4255154D01*
X278635531Y-4173873D01*
X278642988Y-4116096D01*
X278657271Y-4076670D01*
X278672384Y-4056267D01*
X278714456Y-4004211D01*
X278735009Y-3966231D01*
X278769732Y-3920213D01*
X278796691Y-3901335D01*
X278839335Y-3864453D01*
X278845538Y-3847604D01*
X278868820Y-3822521D01*
X278886921Y-3819692D01*
X278912478Y-3808780D01*
X278908154Y-3803390D01*
X278923247Y-3782364D01*
X278982608Y-3743764D01*
X279062155Y-3701630D01*
X279151694Y-3660446D01*
X279214962Y-3636596D01*
X279237495Y-3634893D01*
X279253777Y-3636387D01*
X279278974Y-3619012D01*
X279326364Y-3595791D01*
X279355939Y-3595742D01*
X279390056Y-3592435D01*
X279392615Y-3585231D01*
X279416418Y-3572489D01*
X279431691Y-3575461D01*
X279467642Y-3573264D01*
X279470768Y-3565692D01*
X279494572Y-3552951D01*
X279509845Y-3555923D01*
X279545796Y-3553726D01*
X279548922Y-3546154D01*
X279572726Y-3533412D01*
X279587999Y-3536384D01*
X279624299Y-3537666D01*
X279627154Y-3532653D01*
X279665896Y-3517902D01*
X279781096Y-3507188D01*
X279971458Y-3500588D01*
X280193736Y-3498265D01*
X280360118Y-3502229D01*
G37*
G36*
X275745984Y-3990512D02*
G01*
X275772073Y-4013967D01*
X275785716Y-4063402D01*
X275789467Y-4093231D01*
X275800936Y-4200692D01*
X275997367Y-4203693D01*
X276138020Y-4208388D01*
X276207638Y-4218814D01*
X276213102Y-4237670D01*
X276161295Y-4267650D01*
X276160989Y-4267792D01*
X276090151Y-4291799D01*
X276039025Y-4284282D01*
X276036833Y-4283217D01*
X275999714Y-4271421D01*
X275992922Y-4283501D01*
X275959608Y-4298599D01*
X275888914Y-4302063D01*
X275821900Y-4303333D01*
X275791391Y-4320576D01*
X275782074Y-4364354D01*
X275781452Y-4376182D01*
X275768482Y-4431411D01*
X275731233Y-4456986D01*
X275709615Y-4460653D01*
X275650308Y-4458843D01*
X275637444Y-4451240D01*
X275636518Y-4422365D01*
X275639250Y-4372956D01*
X275639860Y-4365844D01*
X275638188Y-4319693D01*
X275610122Y-4300992D01*
X275538180Y-4298365D01*
X275536185Y-4298399D01*
X275400560Y-4293456D01*
X275290942Y-4276510D01*
X275227106Y-4251609D01*
X275219349Y-4233519D01*
X275243313Y-4215207D01*
X275308310Y-4207317D01*
X275431963Y-4207810D01*
X275439894Y-4208015D01*
X275648483Y-4213551D01*
X275635087Y-4097634D01*
X275630039Y-4033048D01*
X275637339Y-3998498D01*
X275662029Y-3985116D01*
X275699845Y-3983743D01*
X275745984Y-3990512D01*
G37*
G36*
X287683165Y-2794297D02*
G01*
X287712912Y-2815109D01*
X287732081Y-2866291D01*
X287742066Y-2951852D01*
X287742745Y-2965322D01*
X287752733Y-3061725D01*
X287772305Y-3155580D01*
X287798660Y-3239017D01*
X287828998Y-3304169D01*
X287860518Y-3343169D01*
X287879953Y-3350769D01*
X287899869Y-3362480D01*
X287895356Y-3367467D01*
X287906750Y-3390585D01*
X287961920Y-3425003D01*
X287971203Y-3429489D01*
X288035005Y-3455795D01*
X288066868Y-3461755D01*
X288067691Y-3460241D01*
X288089767Y-3459657D01*
X288123072Y-3473360D01*
X288187180Y-3491166D01*
X288297630Y-3510195D01*
X288428542Y-3527333D01*
X288554035Y-3539464D01*
X288648230Y-3543471D01*
X288679930Y-3540399D01*
X288736012Y-3542411D01*
X288804231Y-3564979D01*
X288852148Y-3596562D01*
X288856592Y-3603253D01*
X288844575Y-3612211D01*
X288829691Y-3604769D01*
X288810153Y-3614538D01*
X288827865Y-3623395D01*
X288729498Y-3635560D01*
X288712461Y-3636522D01*
X288418639Y-3658437D01*
X288188468Y-3693306D01*
X288014500Y-3745341D01*
X287889289Y-3818761D01*
X287805389Y-3917779D01*
X287755353Y-4046612D01*
X287733173Y-4190923D01*
X287726637Y-4268244D01*
X287721322Y-4330185D01*
X287718094Y-4366699D01*
X287717612Y-4371654D01*
X287683354Y-4383589D01*
X287637845Y-4386308D01*
X287580196Y-4376870D01*
X287560325Y-4342003D01*
X287559691Y-4328845D01*
X287547441Y-4283649D01*
X287519977Y-4259111D01*
X287498011Y-4235244D01*
X287503637Y-4227928D01*
X287515040Y-4198591D01*
X287514569Y-4147187D01*
X287504832Y-4084432D01*
X287488439Y-4021044D01*
X287467996Y-3967738D01*
X287446113Y-3935232D01*
X287431276Y-3930610D01*
X287406703Y-3928852D01*
X287415055Y-3910820D01*
X287417887Y-3883787D01*
X287399851Y-3878308D01*
X287377656Y-3866301D01*
X287383845Y-3858769D01*
X287379451Y-3840794D01*
X287364307Y-3839231D01*
X287336773Y-3828537D01*
X287341258Y-3822532D01*
X287329594Y-3798584D01*
X287267607Y-3763625D01*
X287172753Y-3726095D01*
X287090768Y-3701398D01*
X287004069Y-3685413D01*
X286868546Y-3667494D01*
X286712701Y-3651384D01*
X286704323Y-3650644D01*
X286562490Y-3637139D01*
X286453090Y-3624678D01*
X286396898Y-3615667D01*
X286394313Y-3614747D01*
X286392877Y-3594050D01*
X286455427Y-3572385D01*
X286568354Y-3553440D01*
X286650939Y-3545202D01*
X286903401Y-3521334D01*
X287100476Y-3491118D01*
X287249913Y-3449597D01*
X287359458Y-3391813D01*
X287436860Y-3312808D01*
X287489867Y-3207624D01*
X287526225Y-3071304D01*
X287542989Y-2974364D01*
X287559415Y-2883921D01*
X287578537Y-2826765D01*
X287604854Y-2797114D01*
X287642868Y-2789188D01*
X287683165Y-2794297D01*
G37*
G36*
X284575501Y-2675750D02*
G01*
X284592256Y-2676023D01*
X284791610Y-2685427D01*
X284978672Y-2705002D01*
X285134423Y-2731864D01*
X285239846Y-2763126D01*
X285266324Y-2778289D01*
X285311841Y-2795765D01*
X285332278Y-2793932D01*
X285375303Y-2800727D01*
X285433278Y-2831585D01*
X285437338Y-2834459D01*
X285512329Y-2884579D01*
X285576538Y-2922784D01*
X285618432Y-2950061D01*
X285619327Y-2960000D01*
X285622761Y-2972106D01*
X285664461Y-2999077D01*
X285706039Y-3027216D01*
X285704809Y-3038154D01*
X285697502Y-3050037D01*
X285712932Y-3062577D01*
X285740846Y-3101738D01*
X285756092Y-3168096D01*
X285758943Y-3250311D01*
X285749671Y-3337044D01*
X285728551Y-3416953D01*
X285703165Y-3468560D01*
X285656354Y-3518238D01*
X285579785Y-3578374D01*
X285485363Y-3641911D01*
X285384993Y-3701793D01*
X285290580Y-3750964D01*
X285214027Y-3782367D01*
X285167240Y-3788947D01*
X285164462Y-3787872D01*
X285139448Y-3789323D01*
X285136922Y-3798050D01*
X285113999Y-3812760D01*
X285097845Y-3809923D01*
X285061894Y-3812120D01*
X285058768Y-3819692D01*
X285035684Y-3832885D01*
X285022392Y-3830296D01*
X284972002Y-3832554D01*
X284962525Y-3838059D01*
X284911158Y-3849367D01*
X284885623Y-3846814D01*
X284822944Y-3849399D01*
X284806415Y-3857437D01*
X284774379Y-3871209D01*
X284713200Y-3875035D01*
X284605662Y-3868991D01*
X284492907Y-3858865D01*
X284381815Y-3851518D01*
X284299886Y-3851908D01*
X284287753Y-3853433D01*
X284243385Y-3849318D01*
X284238153Y-3840168D01*
X284214459Y-3826558D01*
X284199076Y-3829461D01*
X284163125Y-3827264D01*
X284159999Y-3819692D01*
X284136195Y-3806951D01*
X284120922Y-3809923D01*
X284084971Y-3807726D01*
X284081845Y-3800154D01*
X284058041Y-3787412D01*
X284042768Y-3790384D01*
X284006538Y-3791439D01*
X284003691Y-3786268D01*
X283975299Y-3766599D01*
X283901306Y-3731438D01*
X283810492Y-3693558D01*
X283713501Y-3651681D01*
X283651207Y-3617972D01*
X283637123Y-3600997D01*
X283624719Y-3581658D01*
X283596085Y-3573276D01*
X283554521Y-3554900D01*
X283556837Y-3544106D01*
X283549707Y-3527635D01*
X283537075Y-3526615D01*
X283502600Y-3516230D01*
X283502897Y-3511961D01*
X283498996Y-3486336D01*
X283481504Y-3434943D01*
X283460510Y-3383663D01*
X283430414Y-3251369D01*
X283441053Y-3168740D01*
X283456840Y-3108745D01*
X283464453Y-3065387D01*
X283463901Y-3052808D01*
X283485013Y-3038395D01*
X283491134Y-3038154D01*
X283524968Y-3021781D01*
X283555199Y-2984518D01*
X283567084Y-2947083D01*
X283595577Y-2927608D01*
X283619354Y-2918935D01*
X283665978Y-2895271D01*
X283671538Y-2886048D01*
X283708519Y-2851593D01*
X283817897Y-2806645D01*
X283997320Y-2752124D01*
X284052670Y-2737152D01*
X284192791Y-2702174D01*
X284303477Y-2682905D01*
X284419468Y-2675409D01*
X284575501Y-2675750D01*
G37*
G36*
X283964615Y-3770846D02*
G01*
X283945076Y-3780615D01*
X283925538Y-3770846D01*
X283945076Y-3761077D01*
X283964615Y-3770846D01*
G37*
G36*
X277295554Y-1637022D02*
G01*
X277321538Y-1660692D01*
X277342883Y-1686691D01*
X277361076Y-1690000D01*
X277382487Y-1707417D01*
X277379641Y-1754560D01*
X277376344Y-1765892D01*
X277369364Y-1836029D01*
X277380258Y-1930370D01*
X277405366Y-2035554D01*
X277441028Y-2138220D01*
X277483585Y-2225008D01*
X277513609Y-2267030D01*
X277621047Y-2353581D01*
X277777219Y-2420991D01*
X277989171Y-2471136D01*
X278263944Y-2505894D01*
X278463922Y-2520258D01*
X278622965Y-2535040D01*
X278708077Y-2555299D01*
X278721683Y-2578189D01*
X278666213Y-2600863D01*
X278544094Y-2620475D01*
X278367142Y-2633743D01*
X278202980Y-2645190D01*
X278041557Y-2662284D01*
X277956299Y-2674834D01*
X277843572Y-2701974D01*
X277728205Y-2740933D01*
X277626717Y-2784402D01*
X277555626Y-2825074D01*
X277531450Y-2855642D01*
X277535077Y-2861188D01*
X277530541Y-2879901D01*
X277512716Y-2881846D01*
X277484215Y-2889394D01*
X277490532Y-2894702D01*
X277492212Y-2918327D01*
X277475478Y-2932119D01*
X277452766Y-2962859D01*
X277428808Y-3022838D01*
X277405854Y-3102253D01*
X277386152Y-3191304D01*
X277371953Y-3280191D01*
X277365507Y-3359114D01*
X277366982Y-3404741D01*
X277359273Y-3468561D01*
X277326197Y-3514436D01*
X277276767Y-3535708D01*
X277219997Y-3525721D01*
X277210300Y-3520457D01*
X277187465Y-3489249D01*
X277166043Y-3429779D01*
X277149550Y-3352844D01*
X277145247Y-3320735D01*
X277124270Y-3184453D01*
X277094533Y-3065233D01*
X277058135Y-2968862D01*
X277017172Y-2901124D01*
X276982324Y-2871338D01*
X276947449Y-2848742D01*
X276951648Y-2842769D01*
X276942308Y-2830932D01*
X276888828Y-2800820D01*
X276846978Y-2780108D01*
X276763375Y-2743706D01*
X276701789Y-2723265D01*
X276686538Y-2721492D01*
X276658531Y-2710751D01*
X276657230Y-2704847D01*
X276633778Y-2692670D01*
X276621491Y-2695199D01*
X276578454Y-2692713D01*
X276572644Y-2687446D01*
X276530628Y-2675886D01*
X276432128Y-2661762D01*
X276298299Y-2646982D01*
X276150297Y-2633458D01*
X276009278Y-2623098D01*
X275896397Y-2617814D01*
X275832811Y-2619513D01*
X275829292Y-2620340D01*
X275804489Y-2614056D01*
X275804021Y-2586072D01*
X275820580Y-2559558D01*
X275864196Y-2543158D01*
X275953918Y-2532179D01*
X276050017Y-2525475D01*
X276234319Y-2510858D01*
X276407258Y-2491580D01*
X276552647Y-2470064D01*
X276654303Y-2448737D01*
X276696041Y-2430022D01*
X276696307Y-2428659D01*
X276710080Y-2414866D01*
X276718098Y-2417306D01*
X276757729Y-2413106D01*
X276824764Y-2388334D01*
X276897931Y-2352993D01*
X276955956Y-2317081D01*
X276976784Y-2295692D01*
X277009625Y-2261205D01*
X277025204Y-2253450D01*
X277049597Y-2226735D01*
X277060392Y-2179327D01*
X277060422Y-2175296D01*
X277071147Y-2126949D01*
X277098020Y-2097762D01*
X277100504Y-2096831D01*
X277118646Y-2072496D01*
X277134138Y-2017151D01*
X277145184Y-1938862D01*
X277149170Y-1878425D01*
X277154829Y-1791415D01*
X277163806Y-1718416D01*
X277174724Y-1668638D01*
X277183036Y-1652324D01*
X277236982Y-1633014D01*
X277295554Y-1637022D01*
G37*
G36*
X281227683Y-1805268D02*
G01*
X281285500Y-1814060D01*
X281403448Y-1831445D01*
X281486701Y-1841446D01*
X281513392Y-1842331D01*
X281544215Y-1851901D01*
X281611491Y-1882401D01*
X281699206Y-1925799D01*
X281791345Y-1974064D01*
X281871895Y-2019163D01*
X281900097Y-2036287D01*
X281940583Y-2070220D01*
X281942430Y-2088887D01*
X281950015Y-2099318D01*
X281967485Y-2100308D01*
X281997880Y-2111058D01*
X281992899Y-2118496D01*
X281995166Y-2143218D01*
X282004054Y-2147079D01*
X282026768Y-2172944D01*
X282040214Y-2225867D01*
X282044045Y-2294085D01*
X282037912Y-2365833D01*
X282021470Y-2429347D01*
X282012942Y-2447963D01*
X281989780Y-2498105D01*
X281981683Y-2530798D01*
X281982585Y-2534197D01*
X281961846Y-2554973D01*
X281913076Y-2577537D01*
X281863621Y-2599590D01*
X281860369Y-2607686D01*
X281852629Y-2620517D01*
X281803114Y-2652062D01*
X281774508Y-2667886D01*
X281699973Y-2704364D01*
X281647273Y-2724014D01*
X281638040Y-2725200D01*
X281597637Y-2737029D01*
X281559068Y-2758430D01*
X281517715Y-2779411D01*
X281504011Y-2776877D01*
X281479122Y-2773079D01*
X281444153Y-2784154D01*
X281396896Y-2797794D01*
X281385538Y-2793923D01*
X281361173Y-2790334D01*
X281336691Y-2797396D01*
X281270973Y-2807686D01*
X281155036Y-2815021D01*
X281016673Y-2818796D01*
X280883677Y-2818409D01*
X280783840Y-2813255D01*
X280760307Y-2809908D01*
X280679449Y-2793529D01*
X280603999Y-2778193D01*
X280521245Y-2764412D01*
X280476999Y-2761460D01*
X280448943Y-2749759D01*
X280447691Y-2743924D01*
X280424548Y-2731588D01*
X280412869Y-2733993D01*
X280369048Y-2727224D01*
X280299375Y-2698361D01*
X280222068Y-2657582D01*
X280155346Y-2615064D01*
X280154060Y-2613908D01*
X280180452Y-2613908D01*
X280189960Y-2624827D01*
X280229306Y-2645803D01*
X280251926Y-2641500D01*
X280252307Y-2638768D01*
X280224551Y-2622242D01*
X280207192Y-2616211D01*
X280180452Y-2613908D01*
X280154060Y-2613908D01*
X280117427Y-2580985D01*
X280116516Y-2568439D01*
X280116816Y-2550911D01*
X280106621Y-2549692D01*
X280078514Y-2538660D01*
X280059517Y-2502791D01*
X280048643Y-2437925D01*
X280044906Y-2339902D01*
X280045183Y-2290808D01*
X280047773Y-2191982D01*
X280053368Y-2125922D01*
X280063723Y-2086322D01*
X280080592Y-2066874D01*
X280105728Y-2061272D01*
X280109025Y-2061231D01*
X280129338Y-2052815D01*
X280123712Y-2049036D01*
X280131813Y-2029230D01*
X280185529Y-1998725D01*
X280185584Y-1998701D01*
X280228397Y-1976775D01*
X280218029Y-1974044D01*
X280213230Y-1975177D01*
X280187462Y-1976314D01*
X280220914Y-1952062D01*
X280229056Y-1947358D01*
X280298807Y-1916377D01*
X280351875Y-1904923D01*
X280406249Y-1889171D01*
X280423696Y-1874377D01*
X280462416Y-1854174D01*
X280486492Y-1855991D01*
X280522861Y-1856437D01*
X280525845Y-1850717D01*
X280557005Y-1833453D01*
X280574691Y-1831685D01*
X280637526Y-1826746D01*
X280748815Y-1815655D01*
X280846457Y-1805043D01*
X280990274Y-1791758D01*
X281102970Y-1791538D01*
X281227683Y-1805268D01*
G37*
G36*
X283050009Y63354D02*
G01*
X283070725Y38024D01*
X283096447Y-13030D01*
X283122645Y-77460D01*
X283144790Y-142915D01*
X283158352Y-197047D01*
X283158802Y-227508D01*
X283157366Y-229350D01*
X283150657Y-259606D01*
X283159895Y-317085D01*
X283181370Y-391188D01*
X283211372Y-471317D01*
X283246191Y-546875D01*
X283282117Y-607264D01*
X283295689Y-624484D01*
X283391866Y-709561D01*
X283518160Y-775058D01*
X283685706Y-824035D01*
X283905642Y-859553D01*
X284189102Y-884674D01*
X284257691Y-888912D01*
X284484855Y-905245D01*
X284635666Y-922989D01*
X284709827Y-941525D01*
X284707041Y-960236D01*
X284627014Y-978506D01*
X284469448Y-995716D01*
X284314220Y-1006720D01*
X284026713Y-1027511D01*
X283793800Y-1054298D01*
X283608901Y-1091241D01*
X283465437Y-1142501D01*
X283356830Y-1212236D01*
X283276502Y-1304607D01*
X283217873Y-1423775D01*
X283174366Y-1573899D01*
X283141117Y-1748554D01*
X283123696Y-1842665D01*
X283105062Y-1922409D01*
X283087354Y-1979803D01*
X283072712Y-2006868D01*
X283071683Y-2007512D01*
X283021676Y-2009242D01*
X282980462Y-1997804D01*
X282948779Y-1973920D01*
X282924805Y-1927211D01*
X282906354Y-1851856D01*
X282894236Y-1768154D01*
X282864122Y-1585209D01*
X282819749Y-1436769D01*
X282757606Y-1318635D01*
X282674181Y-1226604D01*
X282565959Y-1156476D01*
X282429430Y-1104051D01*
X282315198Y-1075651D01*
X282212495Y-1059438D01*
X282058382Y-1041281D01*
X281878994Y-1024105D01*
X281792165Y-1017112D01*
X281626120Y-1003087D01*
X281488659Y-988587D01*
X281398634Y-975751D01*
X281375330Y-969788D01*
X281351866Y-943166D01*
X281401097Y-922096D01*
X281524976Y-906037D01*
X281629698Y-898918D01*
X281927708Y-879050D01*
X282161144Y-854691D01*
X282343451Y-823675D01*
X282488072Y-783834D01*
X282583560Y-745145D01*
X282673477Y-697544D01*
X282745121Y-645093D01*
X282801174Y-582435D01*
X282844319Y-504208D01*
X282877237Y-405056D01*
X282902611Y-279617D01*
X282923121Y-122534D01*
X282930310Y-52279D01*
X282947844Y9133D01*
X282971476Y39154D01*
X282987691Y39154D01*
X283007230Y29385D01*
X283026768Y39154D01*
X283007230Y48923D01*
X282987691Y39154D01*
X282971476Y39154D01*
X282981810Y52281D01*
X283023971Y69209D01*
X283050009Y63354D01*
G37*
G36*
X285552718Y-1523916D02*
G01*
X285566606Y-1579169D01*
X285567367Y-1600449D01*
X285576649Y-1668173D01*
X285614647Y-1706961D01*
X285698507Y-1725733D01*
X285821524Y-1732707D01*
X285947106Y-1740479D01*
X286006912Y-1754987D01*
X286016153Y-1768154D01*
X285990874Y-1787565D01*
X285907455Y-1800540D01*
X285801230Y-1807231D01*
X285586307Y-1817000D01*
X285574495Y-1919577D01*
X285554402Y-1988674D01*
X285515214Y-2022035D01*
X285458655Y-2018540D01*
X285436512Y-2009128D01*
X285421160Y-1983388D01*
X285411801Y-1932870D01*
X285410461Y-1902688D01*
X285410461Y-1809273D01*
X285205307Y-1803367D01*
X285076419Y-1796259D01*
X285012716Y-1783036D01*
X285000153Y-1768154D01*
X285023936Y-1749056D01*
X285103664Y-1737661D01*
X285205307Y-1732940D01*
X285410461Y-1727035D01*
X285410461Y-1632756D01*
X285421342Y-1568304D01*
X285449948Y-1524587D01*
X285462902Y-1516716D01*
X285519142Y-1503893D01*
X285552718Y-1523916D01*
G37*
G36*
X279326047Y-751719D02*
G01*
X279364207Y-796452D01*
X279389821Y-864925D01*
X279396602Y-910450D01*
X279406591Y-1035461D01*
X279643834Y-1045231D01*
X279776573Y-1052393D01*
X279848602Y-1062360D01*
X279877347Y-1078721D01*
X279881076Y-1094077D01*
X279871833Y-1115850D01*
X279832502Y-1128619D01*
X279745683Y-1135583D01*
X279636845Y-1138971D01*
X279503571Y-1143105D01*
X279430238Y-1150325D01*
X279398670Y-1164953D01*
X279390694Y-1191311D01*
X279390363Y-1197586D01*
X279384821Y-1253765D01*
X279374270Y-1315044D01*
X279361518Y-1368501D01*
X279349369Y-1401217D01*
X279345179Y-1405647D01*
X279303005Y-1405121D01*
X279267414Y-1401836D01*
X279228137Y-1388764D01*
X279204418Y-1354943D01*
X279191247Y-1292149D01*
X279189260Y-1273548D01*
X279177691Y-1152692D01*
X278943230Y-1142923D01*
X278811409Y-1135692D01*
X278740225Y-1125566D01*
X278712175Y-1108899D01*
X278708768Y-1094077D01*
X278717914Y-1072401D01*
X278756900Y-1059646D01*
X278843047Y-1052659D01*
X278955684Y-1049148D01*
X279202600Y-1043296D01*
X279196715Y-931917D01*
X279193460Y-857695D01*
X279194857Y-812056D01*
X279203062Y-784526D01*
X279220230Y-764631D01*
X279233359Y-753870D01*
X279280658Y-735824D01*
X279326047Y-751719D01*
G37*
D10*
%TO.C,MCU1*%
X195393508Y77494500D02*
X195393508Y44474500D01*
X195393508Y44474500D02*
X213173508Y44474500D01*
X213173508Y44474500D02*
X213173508Y77494500D01*
X213173508Y77494500D02*
X195393508Y77494500D01*
X210633508Y74954500D02*
X210633508Y72414500D01*
X210633508Y74954500D02*
X213173508Y74954500D01*
X210633508Y72414500D02*
X213173508Y72414500D01*
D12*
%TO.C,D1*%
X322533508Y-7557500D02*
X323033508Y-7557500D01*
X322533508Y-7957500D02*
X321933508Y-7557500D01*
X322533508Y-7157500D02*
X322533508Y-7957500D01*
X321933508Y-7557500D02*
X322533508Y-7157500D01*
X321933508Y-7557500D02*
X321933508Y-8107500D01*
X321933508Y-7557500D02*
X321933508Y-7007500D01*
X321533508Y-7557500D02*
X321933508Y-7557500D01*
%TO.C,D2*%
X322533508Y11442500D02*
X323033508Y11442500D01*
X322533508Y11042500D02*
X321933508Y11442500D01*
X322533508Y11842500D02*
X322533508Y11042500D01*
X321933508Y11442500D02*
X322533508Y11842500D01*
X321933508Y11442500D02*
X321933508Y10892500D01*
X321933508Y11442500D02*
X321933508Y11992500D01*
X321533508Y11442500D02*
X321933508Y11442500D01*
%TO.C,D3*%
X322533508Y30442500D02*
X323033508Y30442500D01*
X322533508Y30042500D02*
X321933508Y30442500D01*
X322533508Y30842500D02*
X322533508Y30042500D01*
X321933508Y30442500D02*
X322533508Y30842500D01*
X321933508Y30442500D02*
X321933508Y29892500D01*
X321933508Y30442500D02*
X321933508Y30992500D01*
X321533508Y30442500D02*
X321933508Y30442500D01*
%TO.C,D4*%
X322533508Y49442500D02*
X323033508Y49442500D01*
X322533508Y49042500D02*
X321933508Y49442500D01*
X322533508Y49842500D02*
X322533508Y49042500D01*
X321933508Y49442500D02*
X322533508Y49842500D01*
X321933508Y49442500D02*
X321933508Y48892500D01*
X321933508Y49442500D02*
X321933508Y49992500D01*
X321533508Y49442500D02*
X321933508Y49442500D01*
%TO.C,D5*%
X303533508Y-3366500D02*
X304033508Y-3366500D01*
X303533508Y-3766500D02*
X302933508Y-3366500D01*
X303533508Y-2966500D02*
X303533508Y-3766500D01*
X302933508Y-3366500D02*
X303533508Y-2966500D01*
X302933508Y-3366500D02*
X302933508Y-3916500D01*
X302933508Y-3366500D02*
X302933508Y-2816500D01*
X302533508Y-3366500D02*
X302933508Y-3366500D01*
%TO.C,D6*%
X303533508Y15633500D02*
X304033508Y15633500D01*
X303533508Y15233500D02*
X302933508Y15633500D01*
X303533508Y16033500D02*
X303533508Y15233500D01*
X302933508Y15633500D02*
X303533508Y16033500D01*
X302933508Y15633500D02*
X302933508Y15083500D01*
X302933508Y15633500D02*
X302933508Y16183500D01*
X302533508Y15633500D02*
X302933508Y15633500D01*
%TO.C,D7*%
X303533508Y34633500D02*
X304033508Y34633500D01*
X303533508Y34233500D02*
X302933508Y34633500D01*
X303533508Y35033500D02*
X303533508Y34233500D01*
X302933508Y34633500D02*
X303533508Y35033500D01*
X302933508Y34633500D02*
X302933508Y34083500D01*
X302933508Y34633500D02*
X302933508Y35183500D01*
X302533508Y34633500D02*
X302933508Y34633500D01*
%TO.C,D8*%
X303533508Y53633500D02*
X304033508Y53633500D01*
X303533508Y53233500D02*
X302933508Y53633500D01*
X303533508Y54033500D02*
X303533508Y53233500D01*
X302933508Y53633500D02*
X303533508Y54033500D01*
X302933508Y53633500D02*
X302933508Y53083500D01*
X302933508Y53633500D02*
X302933508Y54183500D01*
X302533508Y53633500D02*
X302933508Y53633500D01*
%TO.C,D9*%
X284533508Y6158500D02*
X285033508Y6158500D01*
X284533508Y5758500D02*
X283933508Y6158500D01*
X284533508Y6558500D02*
X284533508Y5758500D01*
X283933508Y6158500D02*
X284533508Y6558500D01*
X283933508Y6158500D02*
X283933508Y5608500D01*
X283933508Y6158500D02*
X283933508Y6708500D01*
X283533508Y6158500D02*
X283933508Y6158500D01*
%TO.C,D10*%
X284533508Y25158500D02*
X285033508Y25158500D01*
X284533508Y24758500D02*
X283933508Y25158500D01*
X284533508Y25558500D02*
X284533508Y24758500D01*
X283933508Y25158500D02*
X284533508Y25558500D01*
X283933508Y25158500D02*
X283933508Y24608500D01*
X283933508Y25158500D02*
X283933508Y25708500D01*
X283533508Y25158500D02*
X283933508Y25158500D01*
%TO.C,D11*%
X284533508Y44158500D02*
X285033508Y44158500D01*
X284533508Y43758500D02*
X283933508Y44158500D01*
X284533508Y44558500D02*
X284533508Y43758500D01*
X283933508Y44158500D02*
X284533508Y44558500D01*
X283933508Y44158500D02*
X283933508Y43608500D01*
X283933508Y44158500D02*
X283933508Y44708500D01*
X283533508Y44158500D02*
X283933508Y44158500D01*
%TO.C,D12*%
X284533508Y63158500D02*
X285033508Y63158500D01*
X284533508Y62758500D02*
X283933508Y63158500D01*
X284533508Y63558500D02*
X284533508Y62758500D01*
X283933508Y63158500D02*
X284533508Y63558500D01*
X283933508Y63158500D02*
X283933508Y62608500D01*
X283933508Y63158500D02*
X283933508Y63708500D01*
X283533508Y63158500D02*
X283933508Y63158500D01*
%TO.C,D14*%
X265533508Y29921000D02*
X266033508Y29921000D01*
X265533508Y29521000D02*
X264933508Y29921000D01*
X265533508Y30321000D02*
X265533508Y29521000D01*
X264933508Y29921000D02*
X265533508Y30321000D01*
X264933508Y29921000D02*
X264933508Y29371000D01*
X264933508Y29921000D02*
X264933508Y30471000D01*
X264533508Y29921000D02*
X264933508Y29921000D01*
%TO.C,D15*%
X265533508Y48921000D02*
X266033508Y48921000D01*
X265533508Y48521000D02*
X264933508Y48921000D01*
X265533508Y49321000D02*
X265533508Y48521000D01*
X264933508Y48921000D02*
X265533508Y49321000D01*
X264933508Y48921000D02*
X264933508Y48371000D01*
X264933508Y48921000D02*
X264933508Y49471000D01*
X264533508Y48921000D02*
X264933508Y48921000D01*
%TO.C,D17*%
X246533508Y-128000D02*
X247033508Y-128000D01*
X246533508Y-528000D02*
X245933508Y-128000D01*
X246533508Y272000D02*
X246533508Y-528000D01*
X245933508Y-128000D02*
X246533508Y272000D01*
X245933508Y-128000D02*
X245933508Y-678000D01*
X245933508Y-128000D02*
X245933508Y422000D01*
X245533508Y-128000D02*
X245933508Y-128000D01*
%TO.C,D18*%
X246533508Y18872000D02*
X247033508Y18872000D01*
X246533508Y18472000D02*
X245933508Y18872000D01*
X246533508Y19272000D02*
X246533508Y18472000D01*
X245933508Y18872000D02*
X246533508Y19272000D01*
X245933508Y18872000D02*
X245933508Y18322000D01*
X245933508Y18872000D02*
X245933508Y19422000D01*
X245533508Y18872000D02*
X245933508Y18872000D01*
%TO.C,D19*%
X246533508Y37872000D02*
X247033508Y37872000D01*
X246533508Y37472000D02*
X245933508Y37872000D01*
X246533508Y38272000D02*
X246533508Y37472000D01*
X245933508Y37872000D02*
X246533508Y38272000D01*
X245933508Y37872000D02*
X245933508Y37322000D01*
X245933508Y37872000D02*
X245933508Y38422000D01*
X245533508Y37872000D02*
X245933508Y37872000D01*
%TO.C,D20*%
X246533508Y56872000D02*
X247033508Y56872000D01*
X246533508Y56472000D02*
X245933508Y56872000D01*
X246533508Y57272000D02*
X246533508Y56472000D01*
X245933508Y56872000D02*
X246533508Y57272000D01*
X245933508Y56872000D02*
X245933508Y56322000D01*
X245933508Y56872000D02*
X245933508Y57422000D01*
X245533508Y56872000D02*
X245933508Y56872000D01*
%TO.C,D21*%
X227533508Y-2985500D02*
X228033508Y-2985500D01*
X227533508Y-3385500D02*
X226933508Y-2985500D01*
X227533508Y-2585500D02*
X227533508Y-3385500D01*
X226933508Y-2985500D02*
X227533508Y-2585500D01*
X226933508Y-2985500D02*
X226933508Y-3535500D01*
X226933508Y-2985500D02*
X226933508Y-2435500D01*
X226533508Y-2985500D02*
X226933508Y-2985500D01*
%TO.C,D22*%
X227533508Y16014500D02*
X228033508Y16014500D01*
X227533508Y15614500D02*
X226933508Y16014500D01*
X227533508Y16414500D02*
X227533508Y15614500D01*
X226933508Y16014500D02*
X227533508Y16414500D01*
X226933508Y16014500D02*
X226933508Y15464500D01*
X226933508Y16014500D02*
X226933508Y16564500D01*
X226533508Y16014500D02*
X226933508Y16014500D01*
%TO.C,D23*%
X227533508Y35014500D02*
X228033508Y35014500D01*
X227533508Y34614500D02*
X226933508Y35014500D01*
X227533508Y35414500D02*
X227533508Y34614500D01*
X226933508Y35014500D02*
X227533508Y35414500D01*
X226933508Y35014500D02*
X226933508Y34464500D01*
X226933508Y35014500D02*
X226933508Y35564500D01*
X226533508Y35014500D02*
X226933508Y35014500D01*
%TO.C,D25*%
X256679430Y-27685000D02*
X257175703Y-27624065D01*
X256728177Y-28082018D02*
X256083902Y-27758121D01*
X256630682Y-27287981D02*
X256728177Y-28082018D01*
X256083902Y-27758121D02*
X256630682Y-27287981D01*
X256083902Y-27758121D02*
X256150930Y-28304022D01*
X256083902Y-27758121D02*
X256016874Y-27212221D01*
X255686883Y-27806869D02*
X256083902Y-27758121D01*
%TO.C,D26*%
X237821054Y-30000517D02*
X238317327Y-29939582D01*
X237869801Y-30397535D02*
X237225526Y-30073638D01*
X237772306Y-29603498D02*
X237869801Y-30397535D01*
X237225526Y-30073638D02*
X237772306Y-29603498D01*
X237225526Y-30073638D02*
X237292554Y-30619539D01*
X237225526Y-30073638D02*
X237158498Y-29527738D01*
X236828507Y-30122386D02*
X237225526Y-30073638D01*
%TO.C,D27*%
X218962677Y-32316035D02*
X219458950Y-32255100D01*
X219011424Y-32713053D02*
X218367149Y-32389156D01*
X218913929Y-31919016D02*
X219011424Y-32713053D01*
X218367149Y-32389156D02*
X218913929Y-31919016D01*
X218367149Y-32389156D02*
X218434177Y-32935057D01*
X218367149Y-32389156D02*
X218300121Y-31843256D01*
X217970130Y-32437904D02*
X218367149Y-32389156D01*
D10*
%TO.C,B1*%
X198033508Y35964500D02*
X196533508Y37464500D01*
X200533508Y35964500D02*
X202033508Y37464500D01*
X200533508Y35964500D02*
X198033508Y35964500D01*
X196533508Y39964500D02*
X196533508Y37464500D01*
X202033508Y39964500D02*
X202033508Y37464500D01*
X198033508Y41464500D02*
X196533508Y39964500D01*
X200533508Y41464500D02*
X202033508Y39964500D01*
X200533508Y41464500D02*
X198033508Y41464500D01*
D12*
%TO.C,D16*%
X265533508Y67921000D02*
X266033508Y67921000D01*
X265533508Y67521000D02*
X264933508Y67921000D01*
X265533508Y68321000D02*
X265533508Y67521000D01*
X264933508Y67921000D02*
X265533508Y68321000D01*
X264933508Y67921000D02*
X264933508Y67371000D01*
X264933508Y67921000D02*
X264933508Y68471000D01*
X264533508Y67921000D02*
X264933508Y67921000D01*
%TO.C,D24*%
X227533508Y54014500D02*
X228033508Y54014500D01*
X227533508Y53614500D02*
X226933508Y54014500D01*
X227533508Y54414500D02*
X227533508Y53614500D01*
X226933508Y54014500D02*
X227533508Y54414500D01*
X226933508Y54014500D02*
X226933508Y53464500D01*
X226933508Y54014500D02*
X226933508Y54564500D01*
X226533508Y54014500D02*
X226933508Y54014500D01*
%TO.C,D13*%
X265533508Y10921000D02*
X266033508Y10921000D01*
X265533508Y10521000D02*
X264933508Y10921000D01*
X265533508Y11321000D02*
X265533508Y10521000D01*
X264933508Y10921000D02*
X265533508Y11321000D01*
X264933508Y10921000D02*
X264933508Y10371000D01*
X264933508Y10921000D02*
X264933508Y11471000D01*
X264533508Y10921000D02*
X264933508Y10921000D01*
%TD*%
D13*
%TO.C,MCU1*%
X211903508Y73684500D03*
D14*
X211903508Y71144500D03*
X211903508Y68604500D03*
X211903508Y66064500D03*
X211903508Y63524500D03*
X211903508Y60984500D03*
X211903508Y58444500D03*
X211903508Y55904500D03*
X211903508Y53364500D03*
X211903508Y50824500D03*
X211903508Y48284500D03*
X211903508Y45744500D03*
X196663508Y73684500D03*
X196663508Y71144500D03*
X196663508Y68604500D03*
X196663508Y66064500D03*
X196663508Y63524500D03*
X196663508Y60984500D03*
X196663508Y58444500D03*
X196663508Y55904500D03*
X196663508Y53364500D03*
X196663508Y50824500D03*
X196663508Y48284500D03*
X196663508Y45744500D03*
%TD*%
M02*
