%TF.GenerationSoftware,KiCad,Pcbnew,9.0.1*%
%TF.CreationDate,2025-06-02T17:15:55+02:00*%
%TF.ProjectId,pleiades_r,706c6569-6164-4657-935f-722e6b696361,v1.0.0*%
%TF.SameCoordinates,Original*%
%TF.FileFunction,Legend,Bot*%
%TF.FilePolarity,Positive*%
%FSLAX46Y46*%
G04 Gerber Fmt 4.6, Leading zero omitted, Abs format (unit mm)*
G04 Created by KiCad (PCBNEW 9.0.1) date 2025-06-02 17:15:55*
%MOMM*%
%LPD*%
G01*
G04 APERTURE LIST*
%ADD10C,0.100000*%
%ADD11R,1.752600X1.752600*%
%ADD12C,1.752600*%
G04 APERTURE END LIST*
D10*
%TO.C,D1*%
X322533508Y-7557500D02*
X323033508Y-7557500D01*
X322533508Y-7957500D02*
X321933508Y-7557500D01*
X322533508Y-7157500D02*
X322533508Y-7957500D01*
X321933508Y-7557500D02*
X322533508Y-7157500D01*
X321933508Y-7557500D02*
X321933508Y-8107500D01*
X321933508Y-7557500D02*
X321933508Y-7007500D01*
X321533508Y-7557500D02*
X321933508Y-7557500D01*
%TO.C,D2*%
X322533508Y11442500D02*
X323033508Y11442500D01*
X322533508Y11042500D02*
X321933508Y11442500D01*
X322533508Y11842500D02*
X322533508Y11042500D01*
X321933508Y11442500D02*
X322533508Y11842500D01*
X321933508Y11442500D02*
X321933508Y10892500D01*
X321933508Y11442500D02*
X321933508Y11992500D01*
X321533508Y11442500D02*
X321933508Y11442500D01*
%TO.C,D3*%
X322533508Y30442500D02*
X323033508Y30442500D01*
X322533508Y30042500D02*
X321933508Y30442500D01*
X322533508Y30842500D02*
X322533508Y30042500D01*
X321933508Y30442500D02*
X322533508Y30842500D01*
X321933508Y30442500D02*
X321933508Y29892500D01*
X321933508Y30442500D02*
X321933508Y30992500D01*
X321533508Y30442500D02*
X321933508Y30442500D01*
%TO.C,D4*%
X322533508Y49442500D02*
X323033508Y49442500D01*
X322533508Y49042500D02*
X321933508Y49442500D01*
X322533508Y49842500D02*
X322533508Y49042500D01*
X321933508Y49442500D02*
X322533508Y49842500D01*
X321933508Y49442500D02*
X321933508Y48892500D01*
X321933508Y49442500D02*
X321933508Y49992500D01*
X321533508Y49442500D02*
X321933508Y49442500D01*
%TO.C,D5*%
X303533508Y-3366500D02*
X304033508Y-3366500D01*
X303533508Y-3766500D02*
X302933508Y-3366500D01*
X303533508Y-2966500D02*
X303533508Y-3766500D01*
X302933508Y-3366500D02*
X303533508Y-2966500D01*
X302933508Y-3366500D02*
X302933508Y-3916500D01*
X302933508Y-3366500D02*
X302933508Y-2816500D01*
X302533508Y-3366500D02*
X302933508Y-3366500D01*
%TO.C,D6*%
X303533508Y15633500D02*
X304033508Y15633500D01*
X303533508Y15233500D02*
X302933508Y15633500D01*
X303533508Y16033500D02*
X303533508Y15233500D01*
X302933508Y15633500D02*
X303533508Y16033500D01*
X302933508Y15633500D02*
X302933508Y15083500D01*
X302933508Y15633500D02*
X302933508Y16183500D01*
X302533508Y15633500D02*
X302933508Y15633500D01*
%TO.C,D7*%
X303533508Y34633500D02*
X304033508Y34633500D01*
X303533508Y34233500D02*
X302933508Y34633500D01*
X303533508Y35033500D02*
X303533508Y34233500D01*
X302933508Y34633500D02*
X303533508Y35033500D01*
X302933508Y34633500D02*
X302933508Y34083500D01*
X302933508Y34633500D02*
X302933508Y35183500D01*
X302533508Y34633500D02*
X302933508Y34633500D01*
%TO.C,D8*%
X303533508Y53633500D02*
X304033508Y53633500D01*
X303533508Y53233500D02*
X302933508Y53633500D01*
X303533508Y54033500D02*
X303533508Y53233500D01*
X302933508Y53633500D02*
X303533508Y54033500D01*
X302933508Y53633500D02*
X302933508Y53083500D01*
X302933508Y53633500D02*
X302933508Y54183500D01*
X302533508Y53633500D02*
X302933508Y53633500D01*
%TO.C,D9*%
X284533508Y6158500D02*
X285033508Y6158500D01*
X284533508Y5758500D02*
X283933508Y6158500D01*
X284533508Y6558500D02*
X284533508Y5758500D01*
X283933508Y6158500D02*
X284533508Y6558500D01*
X283933508Y6158500D02*
X283933508Y5608500D01*
X283933508Y6158500D02*
X283933508Y6708500D01*
X283533508Y6158500D02*
X283933508Y6158500D01*
%TO.C,D10*%
X284533508Y25158500D02*
X285033508Y25158500D01*
X284533508Y24758500D02*
X283933508Y25158500D01*
X284533508Y25558500D02*
X284533508Y24758500D01*
X283933508Y25158500D02*
X284533508Y25558500D01*
X283933508Y25158500D02*
X283933508Y24608500D01*
X283933508Y25158500D02*
X283933508Y25708500D01*
X283533508Y25158500D02*
X283933508Y25158500D01*
%TO.C,D11*%
X284533508Y44158500D02*
X285033508Y44158500D01*
X284533508Y43758500D02*
X283933508Y44158500D01*
X284533508Y44558500D02*
X284533508Y43758500D01*
X283933508Y44158500D02*
X284533508Y44558500D01*
X283933508Y44158500D02*
X283933508Y43608500D01*
X283933508Y44158500D02*
X283933508Y44708500D01*
X283533508Y44158500D02*
X283933508Y44158500D01*
%TO.C,D12*%
X284533508Y63158500D02*
X285033508Y63158500D01*
X284533508Y62758500D02*
X283933508Y63158500D01*
X284533508Y63558500D02*
X284533508Y62758500D01*
X283933508Y63158500D02*
X284533508Y63558500D01*
X283933508Y63158500D02*
X283933508Y62608500D01*
X283933508Y63158500D02*
X283933508Y63708500D01*
X283533508Y63158500D02*
X283933508Y63158500D01*
%TO.C,D14*%
X265533508Y29921000D02*
X266033508Y29921000D01*
X265533508Y29521000D02*
X264933508Y29921000D01*
X265533508Y30321000D02*
X265533508Y29521000D01*
X264933508Y29921000D02*
X265533508Y30321000D01*
X264933508Y29921000D02*
X264933508Y29371000D01*
X264933508Y29921000D02*
X264933508Y30471000D01*
X264533508Y29921000D02*
X264933508Y29921000D01*
%TO.C,D15*%
X265533508Y48921000D02*
X266033508Y48921000D01*
X265533508Y48521000D02*
X264933508Y48921000D01*
X265533508Y49321000D02*
X265533508Y48521000D01*
X264933508Y48921000D02*
X265533508Y49321000D01*
X264933508Y48921000D02*
X264933508Y48371000D01*
X264933508Y48921000D02*
X264933508Y49471000D01*
X264533508Y48921000D02*
X264933508Y48921000D01*
%TO.C,D17*%
X246533508Y-128000D02*
X247033508Y-128000D01*
X246533508Y-528000D02*
X245933508Y-128000D01*
X246533508Y272000D02*
X246533508Y-528000D01*
X245933508Y-128000D02*
X246533508Y272000D01*
X245933508Y-128000D02*
X245933508Y-678000D01*
X245933508Y-128000D02*
X245933508Y422000D01*
X245533508Y-128000D02*
X245933508Y-128000D01*
%TO.C,D18*%
X246533508Y18872000D02*
X247033508Y18872000D01*
X246533508Y18472000D02*
X245933508Y18872000D01*
X246533508Y19272000D02*
X246533508Y18472000D01*
X245933508Y18872000D02*
X246533508Y19272000D01*
X245933508Y18872000D02*
X245933508Y18322000D01*
X245933508Y18872000D02*
X245933508Y19422000D01*
X245533508Y18872000D02*
X245933508Y18872000D01*
%TO.C,D19*%
X246533508Y37872000D02*
X247033508Y37872000D01*
X246533508Y37472000D02*
X245933508Y37872000D01*
X246533508Y38272000D02*
X246533508Y37472000D01*
X245933508Y37872000D02*
X246533508Y38272000D01*
X245933508Y37872000D02*
X245933508Y37322000D01*
X245933508Y37872000D02*
X245933508Y38422000D01*
X245533508Y37872000D02*
X245933508Y37872000D01*
%TO.C,D20*%
X246533508Y56872000D02*
X247033508Y56872000D01*
X246533508Y56472000D02*
X245933508Y56872000D01*
X246533508Y57272000D02*
X246533508Y56472000D01*
X245933508Y56872000D02*
X246533508Y57272000D01*
X245933508Y56872000D02*
X245933508Y56322000D01*
X245933508Y56872000D02*
X245933508Y57422000D01*
X245533508Y56872000D02*
X245933508Y56872000D01*
%TO.C,D21*%
X227533508Y-2985500D02*
X228033508Y-2985500D01*
X227533508Y-3385500D02*
X226933508Y-2985500D01*
X227533508Y-2585500D02*
X227533508Y-3385500D01*
X226933508Y-2985500D02*
X227533508Y-2585500D01*
X226933508Y-2985500D02*
X226933508Y-3535500D01*
X226933508Y-2985500D02*
X226933508Y-2435500D01*
X226533508Y-2985500D02*
X226933508Y-2985500D01*
%TO.C,D22*%
X227533508Y16014500D02*
X228033508Y16014500D01*
X227533508Y15614500D02*
X226933508Y16014500D01*
X227533508Y16414500D02*
X227533508Y15614500D01*
X226933508Y16014500D02*
X227533508Y16414500D01*
X226933508Y16014500D02*
X226933508Y15464500D01*
X226933508Y16014500D02*
X226933508Y16564500D01*
X226533508Y16014500D02*
X226933508Y16014500D01*
%TO.C,D23*%
X227533508Y35014500D02*
X228033508Y35014500D01*
X227533508Y34614500D02*
X226933508Y35014500D01*
X227533508Y35414500D02*
X227533508Y34614500D01*
X226933508Y35014500D02*
X227533508Y35414500D01*
X226933508Y35014500D02*
X226933508Y34464500D01*
X226933508Y35014500D02*
X226933508Y35564500D01*
X226533508Y35014500D02*
X226933508Y35014500D01*
%TO.C,D25*%
X256679430Y-27685000D02*
X257175703Y-27624065D01*
X256728177Y-28082018D02*
X256083902Y-27758121D01*
X256630682Y-27287981D02*
X256728177Y-28082018D01*
X256083902Y-27758121D02*
X256630682Y-27287981D01*
X256083902Y-27758121D02*
X256150930Y-28304022D01*
X256083902Y-27758121D02*
X256016874Y-27212221D01*
X255686883Y-27806869D02*
X256083902Y-27758121D01*
%TO.C,D26*%
X237821054Y-30000517D02*
X238317327Y-29939582D01*
X237869801Y-30397535D02*
X237225526Y-30073638D01*
X237772306Y-29603498D02*
X237869801Y-30397535D01*
X237225526Y-30073638D02*
X237772306Y-29603498D01*
X237225526Y-30073638D02*
X237292554Y-30619539D01*
X237225526Y-30073638D02*
X237158498Y-29527738D01*
X236828507Y-30122386D02*
X237225526Y-30073638D01*
%TO.C,D27*%
X218962677Y-32316035D02*
X219458950Y-32255100D01*
X219011424Y-32713053D02*
X218367149Y-32389156D01*
X218913929Y-31919016D02*
X219011424Y-32713053D01*
X218367149Y-32389156D02*
X218913929Y-31919016D01*
X218367149Y-32389156D02*
X218434177Y-32935057D01*
X218367149Y-32389156D02*
X218300121Y-31843256D01*
X217970130Y-32437904D02*
X218367149Y-32389156D01*
%TO.C,D16*%
X265533508Y67921000D02*
X266033508Y67921000D01*
X265533508Y67521000D02*
X264933508Y67921000D01*
X265533508Y68321000D02*
X265533508Y67521000D01*
X264933508Y67921000D02*
X265533508Y68321000D01*
X264933508Y67921000D02*
X264933508Y67371000D01*
X264933508Y67921000D02*
X264933508Y68471000D01*
X264533508Y67921000D02*
X264933508Y67921000D01*
%TO.C,D24*%
X227533508Y54014500D02*
X228033508Y54014500D01*
X227533508Y53614500D02*
X226933508Y54014500D01*
X227533508Y54414500D02*
X227533508Y53614500D01*
X226933508Y54014500D02*
X227533508Y54414500D01*
X226933508Y54014500D02*
X226933508Y53464500D01*
X226933508Y54014500D02*
X226933508Y54564500D01*
X226533508Y54014500D02*
X226933508Y54014500D01*
%TO.C,D13*%
X265533508Y10921000D02*
X266033508Y10921000D01*
X265533508Y10521000D02*
X264933508Y10921000D01*
X265533508Y11321000D02*
X265533508Y10521000D01*
X264933508Y10921000D02*
X265533508Y11321000D01*
X264933508Y10921000D02*
X264933508Y10371000D01*
X264933508Y10921000D02*
X264933508Y11471000D01*
X264533508Y10921000D02*
X264933508Y10921000D01*
%TD*%
D11*
%TO.C,MCU1*%
X211903508Y73684500D03*
D12*
X211903508Y71144500D03*
X211903508Y68604500D03*
X211903508Y66064500D03*
X211903508Y63524500D03*
X211903508Y60984500D03*
X211903508Y58444500D03*
X211903508Y55904500D03*
X211903508Y53364500D03*
X211903508Y50824500D03*
X211903508Y48284500D03*
X211903508Y45744500D03*
X196663508Y73684500D03*
X196663508Y71144500D03*
X196663508Y68604500D03*
X196663508Y66064500D03*
X196663508Y63524500D03*
X196663508Y60984500D03*
X196663508Y58444500D03*
X196663508Y55904500D03*
X196663508Y53364500D03*
X196663508Y50824500D03*
X196663508Y48284500D03*
X196663508Y45744500D03*
%TD*%
M02*
